<?xml version="1.0" encoding="UTF-8"?>
<svg id="Calque_1" data-name="Calque 1" xmlns="http://www.w3.org/2000/svg" viewBox="0 0 174.06 124.67">
  <defs>
    <style>
      .cls-1 {
        fill: #dcff10;
      }
    </style>
  </defs>
  <path class="cls-1" d="M92.66,64.42h-11.52l-1.71,12.27h-19.52L75.8,6.5h25.82l15.89,70.19h-23.15l-1.71-12.27ZM91.06,52.69l-3.84-28.59h-.53l-3.95,28.59h8.32Z"/>
  <g>
    <path class="cls-1" d="M11.13,92.62c1.13,0,2.13.2,2.98.61s1.52.97,2,1.7c.48.73.71,1.58.71,2.56s-.24,1.82-.71,2.55-1.14,1.3-2,1.71c-.85.41-1.85.61-2.98.61h-4.63v-9.75h4.63ZM8.7,101.5l-1.12-1.08h3.72c.66,0,1.24-.12,1.74-.36.5-.24.88-.58,1.15-1.03.27-.44.4-.95.4-1.53s-.13-1.1-.4-1.54c-.27-.44-.65-.78-1.15-1.02-.5-.24-1.08-.36-1.74-.36h-3.72l1.12-1.08v8.01Z"/>
    <path class="cls-1" d="M25.22,97.5l-.65,4.13-.96-1.09h7.51v1.83h-8.78l.75-4.88-.75-4.88h8.71v1.83h-7.45l.96-1.09.65,4.13ZM30.72,96.65v1.69h-6.98v-1.69h6.98ZM27.29,89.77h2.51l-2.2,2.09h-2.22l1.91-2.09Z"/>
    <path class="cls-1" d="M42.42,101.4h-.97l3.98-8.78h2.34l-4.63,9.75h-2.48l-4.62-9.75h2.37l4.02,8.78Z"/>
    <path class="cls-1" d="M55.8,97.5l-.65,4.13-.96-1.09h7.51v1.83h-8.78l.75-4.88-.75-4.88h8.71v1.83h-7.45l.96-1.09.65,4.13ZM61.29,96.65v1.69h-6.98v-1.69h6.98Z"/>
    <path class="cls-1" d="M70.01,92.62v8.78l-1-.98h7.32v1.95h-8.53v-9.75h2.21Z"/>
    <path class="cls-1" d="M86.68,102.57c-1.13,0-2.13-.21-2.98-.64-.85-.42-1.52-1.02-2-1.77-.48-.76-.71-1.64-.71-2.66s.24-1.9.71-2.66c.48-.76,1.14-1.35,2-1.77s1.85-.64,2.98-.64,2.13.21,2.98.64,1.52,1.02,2,1.77c.48.76.71,1.64.71,2.66s-.24,1.9-.71,2.66c-.48.76-1.14,1.35-2,1.77-.85.42-1.85.64-2.98.64ZM86.68,100.6c.71,0,1.32-.13,1.84-.38.52-.25.91-.61,1.2-1.08.28-.47.42-1.02.42-1.65s-.14-1.18-.42-1.65c-.28-.47-.68-.83-1.2-1.08-.52-.25-1.13-.38-1.84-.38s-1.31.13-1.83.38c-.52.25-.92.61-1.2,1.08-.28.47-.42,1.02-.42,1.65s.14,1.18.42,1.65c.28.47.68.83,1.2,1.08.52.25,1.13.38,1.83.38Z"/>
    <path class="cls-1" d="M103.64,92.62c.77,0,1.44.13,2,.4s.99.65,1.29,1.13.45,1.05.45,1.69-.15,1.2-.45,1.68c-.3.48-.73.86-1.29,1.13-.56.27-1.23.41-2,.41h-4.3v-1.82h4.19c.51,0,.91-.12,1.2-.38.29-.25.44-.59.44-1.03s-.15-.79-.44-1.03c-.29-.25-.69-.37-1.2-.37h-3.99l1-1.05v8.98h-2.21v-9.75h5.32Z"/>
    <path class="cls-1" d="M118.4,92.62c.77,0,1.44.13,2,.4s.99.65,1.29,1.13.45,1.05.45,1.69-.15,1.2-.45,1.68c-.3.48-.73.86-1.29,1.13-.56.27-1.23.41-2,.41h-4.3v-1.82h4.19c.51,0,.91-.12,1.2-.38.29-.25.44-.59.44-1.03s-.15-.79-.44-1.03c-.29-.25-.69-.37-1.2-.37h-3.99l1-1.05v8.98h-2.21v-9.75h5.32Z"/>
    <path class="cls-1" d="M130.4,97.5l-.65,4.13-.96-1.09h7.51v1.83h-8.77l.75-4.88-.75-4.88h8.71v1.83h-7.45l.96-1.09.65,4.13ZM135.9,96.65v1.69h-6.98v-1.69h6.98Z"/>
    <path class="cls-1" d="M144.48,98.09c0,.52.1.97.3,1.34.2.37.49.66.88.87.38.2.85.31,1.4.31s1.02-.1,1.4-.31c.38-.2.67-.49.87-.87.2-.37.3-.82.3-1.34v-5.47h2.21v5.58c0,.88-.2,1.64-.6,2.29-.4.66-.96,1.16-1.68,1.53-.72.36-1.55.55-2.51.55s-1.79-.18-2.5-.55c-.71-.36-1.27-.87-1.68-1.53-.4-.65-.61-1.42-.61-2.29v-5.58h2.21v5.47Z"/>
    <path class="cls-1" d="M159.67,96.95h3.76c.49,0,.88-.12,1.18-.34s.44-.55.44-.96-.14-.72-.44-.95-.68-.34-1.18-.34h-4.08l1-1.13v9.14h-2.21v-9.75h5.55c.71,0,1.33.13,1.87.38s.96.61,1.26,1.06c.3.45.46.98.46,1.59s-.15,1.12-.46,1.57c-.3.45-.72.8-1.26,1.06-.54.26-1.16.38-1.87.38h-4.02v-1.72ZM161.36,97.81h2.52l3.68,4.56h-2.59l-3.62-4.56Z"/>
    <path class="cls-1" d="M31.69,108.22v1.9h-7.24l1.12-1.13v8.98h-2.21v-9.75h8.33ZM24.42,112.35h7.04v1.88h-7.04v-1.88Z"/>
    <path class="cls-1" d="M39.12,112.55h3.76c.49,0,.89-.12,1.18-.34.29-.23.44-.55.44-.96s-.15-.72-.44-.95c-.29-.23-.68-.34-1.18-.34h-4.08l1-1.13v9.14h-2.21v-9.75h5.55c.71,0,1.34.13,1.87.38s.96.61,1.26,1.06c.3.45.46.98.46,1.59s-.15,1.12-.46,1.57c-.3.45-.72.8-1.26,1.06-.54.26-1.16.38-1.87.38h-4.02v-1.72ZM40.81,113.41h2.52l3.68,4.56h-2.59l-3.61-4.56Z"/>
    <path class="cls-1" d="M57.92,118.17c-1.14,0-2.13-.21-2.98-.64-.85-.42-1.52-1.02-1.99-1.77-.48-.76-.72-1.64-.72-2.66s.24-1.9.72-2.66c.48-.76,1.14-1.35,1.99-1.77s1.85-.64,2.98-.64,2.13.21,2.98.64,1.52,1.02,2,1.77c.48.76.71,1.64.71,2.66s-.24,1.9-.71,2.66c-.48.76-1.14,1.35-2,1.77-.85.42-1.85.64-2.98.64ZM57.92,116.2c.71,0,1.32-.13,1.84-.38.52-.25.91-.61,1.2-1.08.28-.47.42-1.02.42-1.65s-.14-1.18-.42-1.65c-.28-.47-.68-.83-1.2-1.08-.52-.25-1.13-.38-1.84-.38s-1.31.13-1.83.38c-.52.25-.92.61-1.2,1.08-.28.47-.42,1.02-.42,1.65s.14,1.18.42,1.65c.28.47.68.83,1.2,1.08.52.25,1.13.38,1.83.38Z"/>
    <path class="cls-1" d="M78.59,116.51l-.77.12v-8.41h2.15v9.75h-2.79l-6.24-8.41.75-.12v8.53h-2.13v-9.75h2.86l6.17,8.29Z"/>
    <path class="cls-1" d="M85.6,108.22h9.96v1.95h-9.96v-1.95ZM89.49,109.21h2.2v8.76h-2.2v-8.76Z"/>
    <path class="cls-1" d="M99.59,112.28h3.21v1.75h-3.21v-1.75Z"/>
    <path class="cls-1" d="M111.4,113.09l-.65,4.13-.96-1.09h7.51v1.83h-8.77l.75-4.88-.75-4.88h8.71v1.83h-7.45l.96-1.09.65,4.13ZM116.9,112.25v1.69h-6.98v-1.69h6.98Z"/>
    <path class="cls-1" d="M132.44,116.51l-.77.12v-8.41h2.15v9.75h-2.79l-6.24-8.41.75-.12v8.53h-2.13v-9.75h2.86l6.17,8.29Z"/>
    <path class="cls-1" d="M144.85,108.22c1.13,0,2.13.2,2.98.61s1.52.97,2,1.7c.48.73.71,1.58.71,2.56s-.24,1.82-.71,2.55-1.14,1.3-2,1.71c-.85.41-1.85.61-2.98.61h-4.63v-9.75h4.63ZM142.42,117.1l-1.12-1.08h3.72c.66,0,1.24-.12,1.74-.36.5-.24.88-.58,1.15-1.03.27-.44.4-.95.4-1.53s-.13-1.1-.4-1.54c-.27-.44-.65-.78-1.15-1.02-.5-.24-1.08-.36-1.74-.36h-3.72l1.12-1.08v8.01Z"/>
  </g>
</svg>