<svg width="24" height="24" viewBox="0 0 24 24" fill="none" xmlns="http://www.w3.org/2000/svg">
<path d="M12 14.2237C11.6022 14.2237 11.2206 14.0657 10.9393 13.7844C10.658 13.5031 10.5 13.1216 10.5 12.7237V12.5007C10.4859 11.9416 10.6517 11.3927 10.9731 10.9349C11.2944 10.477 11.7543 10.1345 12.285 9.95775C12.5403 9.88135 12.7548 9.7069 12.8817 9.4726C13.0086 9.23831 13.0375 8.96328 12.962 8.70775C12.9166 8.54813 12.8313 8.40273 12.7141 8.28531C12.5968 8.16789 12.4515 8.08234 12.292 8.03675C12.155 7.99776 12.0114 7.98758 11.8703 8.00686C11.7291 8.02613 11.5935 8.07445 11.472 8.14875C11.3567 8.22078 11.2572 8.31542 11.1795 8.42697C11.1019 8.53851 11.0476 8.66465 11.02 8.79775C10.9806 8.99079 10.9036 9.17418 10.7933 9.33746C10.683 9.50073 10.5417 9.64068 10.3773 9.74933C10.213 9.85797 10.0288 9.93318 9.83538 9.97066C9.64196 10.0081 9.44304 10.0071 9.25 9.96775C9.05696 9.92835 8.87357 9.85132 8.71029 9.74105C8.54702 9.63078 8.40707 9.48942 8.29842 9.32506C8.18978 9.1607 8.11457 8.97655 8.07709 8.78313C8.03962 8.5897 8.0406 8.39079 8.08 8.19775C8.18865 7.66212 8.40592 7.15444 8.71839 6.70604C9.03086 6.25764 9.4319 5.87803 9.89677 5.59064C10.3616 5.30325 10.8805 5.11417 11.4213 5.03507C11.962 4.95597 12.5133 4.98853 13.041 5.13075C13.8519 5.34772 14.5739 5.81427 15.1049 6.46433C15.6359 7.1144 15.949 7.91503 15.9997 8.75287C16.0505 9.59071 15.8364 10.4233 15.3878 11.1327C14.9392 11.8421 14.2787 12.3925 13.5 12.7057V12.7217C13.5003 12.9189 13.4617 13.1142 13.3864 13.2964C13.3111 13.4786 13.2007 13.6442 13.0614 13.7837C12.9221 13.9232 12.7566 14.0339 12.5745 14.1094C12.3924 14.1849 12.1972 14.2237 12 14.2237ZM12.563 23.8918L12.957 23.7327C15.078 22.8798 22 19.5217 22 12.1517V7.05175C22.0008 5.94233 21.6517 4.86092 21.0023 3.96142C20.3529 3.06192 19.4363 2.39016 18.383 2.04175L12.472 0.0767475C12.1654 -0.0242804 11.8346 -0.0242804 11.528 0.0767475L5.617 2.03675C4.56371 2.38516 3.64715 3.05692 2.99775 3.95642C2.34835 4.85592 1.99921 5.93733 2 7.04675V12.1467C2 18.6667 8.852 22.5977 10.951 23.6467L11.331 23.8377C11.5211 23.9329 11.7292 23.9866 11.9416 23.9952C12.154 24.0038 12.3658 23.9672 12.563 23.8877V23.8918ZM17.439 4.88475C17.8937 5.03488 18.2894 5.32471 18.5697 5.71292C18.85 6.10114 19.0006 6.56792 19 7.04675V12.1467C19 17.4058 13.97 20.0468 12.068 20.8468C10.143 19.8468 5 16.7467 5 12.1467V7.04675C4.99944 6.56792 5.15004 6.10114 5.43034 5.71292C5.71063 5.32471 6.10632 5.03488 6.561 4.88475L12 3.08075L17.439 4.88475ZM12 15.0007C11.7033 15.0007 11.4133 15.0887 11.1666 15.2535C10.92 15.4184 10.7277 15.6526 10.6142 15.9267C10.5007 16.2008 10.4709 16.5024 10.5288 16.7934C10.5867 17.0844 10.7296 17.3516 10.9393 17.5614C11.1491 17.7712 11.4164 17.914 11.7074 17.9719C11.9983 18.0298 12.2999 18.0001 12.574 17.8866C12.8481 17.773 13.0824 17.5808 13.2472 17.3341C13.412 17.0874 13.5 16.7974 13.5 16.5007C13.5 16.1029 13.342 15.7214 13.0607 15.4401C12.7794 15.1588 12.3978 15.0007 12 15.0007Z" fill="#25280B"/>
</svg>
