<svg width="24" height="24" viewBox="0 0 24 24" fill="none" xmlns="http://www.w3.org/2000/svg">
<path d="M22.8148 6.7043C22.2706 4.17464 20.0387 2.36503 17.4512 2.35547H5.48217C2.45564 2.35931 0.00328125 4.81214 0 7.83862V12.8224C0.00328125 15.8488 2.45583 18.3013 5.48217 18.3046H7.55644L9.06455 21.258C9.75877 22.611 11.1603 23.4531 12.6808 23.4309C14.8558 23.4338 16.6213 21.6729 16.6241 19.4979C16.6244 19.2744 16.6057 19.0513 16.5681 18.8309L16.4784 18.3046H18.5098C21.5375 18.3046 23.9919 15.8502 23.9919 12.8225C23.9919 12.4413 23.9522 12.0611 23.8733 11.6882L22.8148 6.7043ZM2.99025 12.8224V7.83862C2.99025 6.46237 4.10592 5.34675 5.48213 5.34675H6.97725V15.3143H5.48213C4.10592 15.3143 2.99025 14.1987 2.99025 12.8224ZM20.4405 14.3923C19.9681 14.9769 19.2563 15.3159 18.5047 15.3143H12.9309L13.6156 19.3332C13.6647 19.6086 13.5875 19.8915 13.4053 20.1037C13.2115 20.3286 12.9255 20.4527 12.6288 20.4406C12.2514 20.4446 11.9042 20.235 11.7317 19.8994L9.9675 16.4536V5.34675H17.4511C18.6273 5.35022 19.642 6.17316 19.8882 7.32333L20.9428 12.3071C21.0999 13.0424 20.9151 13.8092 20.4405 14.3923Z" fill="#25280B"/>
</svg>
