<svg width="24" height="24" viewBox="0 0 24 24" fill="none" xmlns="http://www.w3.org/2000/svg">
<g clip-path="url(#clip0_327_5120)">
<path d="M17.5609 10.561L16.1209 12L17.5609 13.439C17.8423 13.7204 18.0003 14.102 18.0003 14.5C18.0003 14.898 17.8423 15.2796 17.5609 15.561C17.2795 15.8424 16.8978 16.0005 16.4999 16.0005C16.1019 16.0005 15.7203 15.8424 15.4389 15.561L13.9999 14.121L12.5609 15.561C12.2795 15.8424 11.8978 16.0005 11.4999 16.0005C11.1019 16.0005 10.7203 15.8424 10.4389 15.561C10.1575 15.2796 9.99938 14.898 9.99938 14.5C9.99938 14.303 10.0382 14.1078 10.1136 13.9258C10.189 13.7437 10.2995 13.5783 10.4389 13.439L11.8789 12L10.4389 10.561C10.1575 10.2796 9.99938 9.89795 9.99938 9.5C9.99938 9.10205 10.1575 8.72039 10.4389 8.439C10.7203 8.15761 11.1019 7.99952 11.4999 7.99952C11.8978 7.99952 12.2795 8.15761 12.5609 8.439L13.9999 9.879L15.4389 8.439C15.7203 8.15761 16.1019 7.99952 16.4999 7.99952C16.8978 7.99952 17.2795 8.15761 17.5609 8.439C17.8423 8.72039 18.0003 9.10205 18.0003 9.5C18.0003 9.89795 17.8423 10.2796 17.5609 10.561ZM23.9999 7V17C23.9983 18.3256 23.471 19.5964 22.5336 20.5338C21.5963 21.4711 20.3255 21.9984 18.9999 22H9.97687C9.13198 21.9976 8.29885 21.8018 7.54137 21.4275C6.78388 21.0533 6.12213 20.5106 5.60686 19.841L0.306865 12.911C0.106883 12.6494 -0.00146484 12.3293 -0.00146484 12C-0.00146484 11.6707 0.106883 11.3506 0.306865 11.089L5.60686 4.159C6.12213 3.48942 6.78388 2.9467 7.54137 2.57247C8.29885 2.19823 9.13198 2.0024 9.97687 2H18.9999C20.3255 2.00159 21.5963 2.52888 22.5336 3.46622C23.471 4.40356 23.9983 5.67441 23.9999 7ZM20.9999 7C20.9999 6.46957 20.7892 5.96086 20.4141 5.58579C20.039 5.21071 19.5303 5 18.9999 5H9.97687C9.59278 5.00114 9.21405 5.09014 8.86965 5.26017C8.52525 5.4302 8.22431 5.67677 7.98987 5.981L3.38886 12L7.98887 18.019C8.22342 18.3234 8.52451 18.57 8.8691 18.7401C9.21368 18.9101 9.59261 18.999 9.97687 19H18.9999C19.5303 19 20.039 18.7893 20.4141 18.4142C20.7892 18.0391 20.9999 17.5304 20.9999 17V7Z" fill="#25280B"/>
</g>
<defs>
<clipPath id="clip0_327_5120">
<rect width="24" height="24" fill="white"/>
</clipPath>
</defs>
</svg>
