<svg width="24" height="24" viewBox="0 0 24 24" fill="none" xmlns="http://www.w3.org/2000/svg">
<path d="M4.16 20.809C3.05718 20.8068 2.00014 20.3677 1.22042 19.5878C0.440697 18.8079 0.00185013 17.7508 0 16.648L0 7.34795C0.000820603 6.58015 0.214269 5.82758 0.616678 5.17368C1.01909 4.51978 1.59473 3.99011 2.27979 3.64339C2.96484 3.29667 3.73254 3.14645 4.49775 3.20938C5.26297 3.27232 5.9958 3.54596 6.615 3.99995L9.527 6.13495C9.72157 5.50046 10.0652 4.92175 10.5291 4.44716C10.9929 3.97257 11.5637 3.61589 12.1936 3.4069C12.8235 3.19792 13.4942 3.14271 14.1498 3.24588C14.8054 3.34905 15.4267 3.60761 15.962 3.99995L22.3 8.64795C22.8258 9.03403 23.2534 9.53846 23.5481 10.1204C23.8428 10.7024 23.9964 11.3456 23.9964 11.998C23.9964 12.6503 23.8428 13.2935 23.5481 13.8755C23.2534 14.4574 22.8258 14.9619 22.3 15.348L15.963 20C15.4277 20.3923 14.8062 20.6508 14.1506 20.754C13.4949 20.8572 12.8241 20.8019 12.1942 20.593C11.5642 20.384 10.9934 20.0273 10.5294 19.5527C10.0654 19.0782 9.72171 18.4995 9.527 17.865L6.615 20C5.90398 20.5247 5.0437 20.8082 4.16 20.809ZM10.848 13.537C11.2458 13.537 11.6274 13.695 11.9087 13.9763C12.19 14.2576 12.348 14.6391 12.348 15.037V16.648C12.3478 16.8618 12.407 17.0715 12.5188 17.2538C12.6306 17.4361 12.7908 17.5838 12.9815 17.6806C13.1722 17.7774 13.3861 17.8194 13.5992 17.8019C13.8124 17.7845 14.0165 17.7084 14.189 17.582L20.527 12.933C20.6735 12.8255 20.7927 12.685 20.8748 12.5229C20.957 12.3608 20.9998 12.1817 20.9998 12C20.9998 11.8182 20.957 11.6391 20.8748 11.477C20.7927 11.3149 20.6735 11.1744 20.527 11.067L14.188 6.41795C14.0155 6.2918 13.8115 6.21589 13.5985 6.19863C13.3855 6.18136 13.1719 6.22343 12.9813 6.32015C12.7908 6.41688 12.6307 6.56448 12.5189 6.74661C12.4071 6.92873 12.348 7.13826 12.348 7.35195V8.96295C12.3482 9.24034 12.2715 9.51236 12.1264 9.74876C11.9812 9.98517 11.7734 10.1767 11.526 10.3021C11.2785 10.4275 11.0012 10.4818 10.7247 10.459C10.4483 10.4362 10.1836 10.3372 9.96 10.173L4.841 6.41795C4.66842 6.2919 4.46432 6.21607 4.25131 6.19885C4.03829 6.18163 3.82466 6.22369 3.63408 6.32038C3.44349 6.41708 3.28338 6.56462 3.17147 6.74669C3.05955 6.92875 3.00021 7.13824 3 7.35195V16.652C3.00021 16.8657 3.05955 17.0751 3.17147 17.2572C3.28338 17.4393 3.44349 17.5868 3.63408 17.6835C3.82466 17.7802 4.03829 17.8223 4.25131 17.8051C4.46432 17.7878 4.66842 17.712 4.841 17.586L9.96 13.827C10.2178 13.6386 10.5287 13.5371 10.848 13.537Z" fill="#25280B"/>
</svg>
