<svg width="24" height="24" viewBox="0 0 24 24" fill="none" xmlns="http://www.w3.org/2000/svg">
<path d="M12 0C9.21628 0.00344012 6.54756 1.11079 4.57918 3.07918C2.61079 5.04756 1.50344 7.71628 1.5 10.5C1.5 13.326 3.7 17.266 8.041 22.209C8.53604 22.7715 9.14526 23.2222 9.82808 23.5308C10.5109 23.8395 11.2517 23.9992 12.001 23.9992C12.7503 23.9992 13.4911 23.8395 14.1739 23.5308C14.8567 23.2222 15.466 22.7715 15.961 22.209C20.3 17.267 22.5 13.327 22.5 10.5C22.4966 7.71628 21.3892 5.04756 19.4208 3.07918C17.4524 1.11079 14.7837 0.00344012 12 0V0ZM13.706 20.231C13.4879 20.4654 13.2239 20.6524 12.9304 20.7802C12.6369 20.9081 12.3202 20.974 12 20.974C11.6798 20.974 11.3631 20.9081 11.0696 20.7802C10.7761 20.6524 10.5121 20.4654 10.294 20.231C6.611 16.036 4.494 12.489 4.494 10.501C4.494 8.51188 5.28418 6.60422 6.6907 5.1977C8.09722 3.79118 10.0049 3.001 11.994 3.001C13.9831 3.001 15.8908 3.79118 17.2973 5.1977C18.7038 6.60422 19.494 8.51188 19.494 10.501C19.5 12.489 17.389 16.036 13.706 20.231Z" fill="#25280B"/>
<path d="M12 6.05566C11.137 6.05566 10.2935 6.31155 9.57601 6.79096C8.85852 7.27037 8.2993 7.95178 7.96908 8.74902C7.63885 9.54625 7.55245 10.4235 7.7208 11.2698C7.88915 12.1162 8.30468 12.8936 8.91486 13.5038C9.52503 14.1139 10.3024 14.5295 11.1488 14.6978C11.9951 14.8662 12.8724 14.7798 13.6696 14.4496C14.4668 14.1193 15.1483 13.5601 15.6277 12.8426C16.1071 12.1251 16.363 11.2816 16.363 10.4187C16.3616 9.26193 15.9015 8.15295 15.0836 7.33502C14.2657 6.51708 13.1567 6.05699 12 6.05566ZM12 11.7817C11.7304 11.7817 11.4669 11.7017 11.2427 11.552C11.0186 11.4022 10.8439 11.1893 10.7407 10.9403C10.6376 10.6912 10.6106 10.4172 10.6632 10.1528C10.7157 9.88836 10.8456 9.6455 11.0362 9.45488C11.2268 9.26426 11.4697 9.13445 11.7341 9.08185C11.9985 9.02926 12.2725 9.05625 12.5216 9.15942C12.7706 9.26258 12.9835 9.43728 13.1333 9.66142C13.283 9.88557 13.363 10.1491 13.363 10.4187C13.3627 10.7801 13.219 11.1266 12.9635 11.3822C12.7079 11.6377 12.3614 11.7814 12 11.7817Z" fill="#25280B"/>
</svg>
