<svg width="24" height="24" viewBox="0 0 24 24" fill="none" xmlns="http://www.w3.org/2000/svg">
<g clip-path="url(#clip0_327_5778)">
<path d="M8.00124 21H3.41021C3.18455 20.9994 3.00174 20.8167 3.00122 20.591V3.40898C3.00178 3.18333 3.18455 3.00052 3.41021 3H8.00119C8.82961 3 9.50119 2.32842 9.50119 1.5C9.50119 0.671578 8.82961 0 8.00119 0H3.41021C1.52841 0.00220313 0.00342383 1.52719 0.0012207 3.40898V20.591C0.00342383 22.4728 1.52841 23.9978 3.41021 24H8.00119C8.82961 24 9.50119 23.3284 9.50119 22.5C9.50119 21.6716 8.82966 21 8.00124 21Z" fill="#25280B"/>
<path d="M22.5014 10.5006L8.86134 10.5276L12.3273 7.06164C12.9133 6.47594 12.9135 5.52611 12.3278 4.94013C11.7421 4.35414 10.7923 4.35391 10.2063 4.93961L6.32733 8.81861C4.56994 10.576 4.56994 13.4252 6.32728 15.1826L6.32733 15.1826L10.2063 19.0616C10.7923 19.6473 11.7421 19.6471 12.3278 19.0611C12.9135 18.4751 12.9133 17.5253 12.3273 16.9396L8.91431 13.5276L22.5014 13.5006C23.3298 13.499 24 12.8261 23.9984 11.9976C23.9967 11.1692 23.3238 10.499 22.4954 10.5006H22.5014Z" fill="#25280B"/>
</g>
<defs>
<clipPath id="clip0_327_5778">
<rect width="24" height="24" fill="white"/>
</clipPath>
</defs>
</svg>
