<svg width="24" height="24" viewBox="0 0 24 24" fill="none" xmlns="http://www.w3.org/2000/svg">
<g clip-path="url(#clip0_327_5114)">
<path d="M23.9001 11.394C23.5072 8.37006 21.9779 5.60906 19.6227 3.67202C17.2676 1.73498 14.2634 0.767201 11.2205 0.965311C8.17752 1.16342 5.32413 2.51256 3.24005 4.73861C1.15596 6.96467 -0.00249125 9.90065 6.77014e-05 12.95C-0.00544564 14.5777 0.325836 16.1889 0.973086 17.6823C1.62034 19.1758 2.56956 20.5192 3.76107 21.628C4.73353 22.5256 6.01283 23.0165 7.33607 23H16.6581C18.0508 23.0037 19.3894 22.4608 20.3861 21.488C21.7205 20.1976 22.7336 18.6122 23.3439 16.8591C23.9542 15.106 24.1447 13.2341 23.9001 11.394ZM18.2931 19.338C17.8557 19.7642 17.2687 20.0018 16.6581 20H7.33607C6.77744 20.0118 6.23482 19.813 5.81607 19.443C4.9243 18.6134 4.21379 17.6084 3.72917 16.491C3.24455 15.3736 2.99632 14.168 3.00007 12.95C3.00722 10.572 3.95767 8.29389 5.64279 6.61589C7.32791 4.9379 9.60999 3.9971 11.9881 4.00003C12.3422 4.00022 12.6961 4.02025 13.0481 4.06003C15.0299 4.29174 16.8786 5.17486 18.3043 6.57082C19.7299 7.96678 20.6517 9.79656 20.9251 11.773C21.1082 13.1519 20.9656 14.5545 20.5087 15.8682C20.0517 17.182 19.2933 18.3704 18.2941 19.338H18.2931ZM9.05307 15.485C9.32226 15.778 9.46407 16.1658 9.44728 16.5633C9.4305 16.9608 9.2565 17.3353 8.96357 17.6045C8.67064 17.8737 8.28276 18.0155 7.88528 17.9987C7.4878 17.982 7.11326 17.808 6.84407 17.515C5.65688 16.2265 4.99851 14.5381 5.00007 12.786C5.01088 11.0615 5.67479 9.40516 6.85809 8.15062C8.04138 6.89607 9.65613 6.13654 11.3771 6.02503C11.7737 5.99241 12.167 6.11868 12.4706 6.37608C12.7741 6.63347 12.9629 7.0009 12.9956 7.39753C13.0282 7.79416 12.9019 8.18751 12.6445 8.49103C12.3871 8.79456 12.0197 8.98341 11.6231 9.01603C10.6506 9.05891 9.73186 9.47435 9.05735 10.1762C8.38284 10.8781 8.00426 11.8126 8.00007 12.786C7.99943 13.7861 8.37538 14.7497 9.05307 15.485ZM18.9411 13.693C18.7572 15.1217 18.1334 16.4578 17.1561 17.516C16.8866 17.809 16.5118 17.9829 16.1141 17.9994C15.7165 18.016 15.3285 17.874 15.0356 17.6045C14.7426 17.3351 14.5687 16.9603 14.5521 16.5626C14.5356 16.1649 14.6776 15.777 14.9471 15.484C15.5049 14.8819 15.8615 14.121 15.9671 13.307C16.0276 12.9208 16.2366 12.5735 16.5495 12.3391C16.8623 12.1047 17.2543 12.0016 17.642 12.052C18.0297 12.1023 18.3824 12.302 18.6251 12.6085C18.8677 12.915 18.9811 13.3041 18.9411 13.693ZM13.9861 13.135C13.962 13.5192 13.8276 13.8883 13.599 14.198C13.3704 14.5076 13.0573 14.7448 12.6972 14.8809C12.3372 15.017 11.9455 15.0463 11.5692 14.9654C11.1929 14.8844 10.8479 14.6965 10.5758 14.4243C10.3036 14.1522 10.1157 13.8072 10.0347 13.4309C9.95375 13.0546 9.98308 12.6629 10.1192 12.3029C10.2553 11.9428 10.4925 11.6297 10.8021 11.4011C11.1118 11.1725 11.4809 11.0381 11.8651 11.014L14.4391 8.43903C14.7205 8.15764 15.1021 7.99955 15.5001 7.99955C15.898 7.99955 16.2797 8.15764 16.5611 8.43903C16.8425 8.72042 17.0005 9.10208 17.0005 9.50003C17.0005 9.89798 16.8425 10.2796 16.5611 10.561L13.9861 13.135Z" fill="#25280B"/>
</g>
<defs>
<clipPath id="clip0_327_5114">
<rect width="24" height="24" fill="white"/>
</clipPath>
</defs>
</svg>
