<svg width="24" height="24" viewBox="0 0 24 24" fill="none" xmlns="http://www.w3.org/2000/svg">
<g clip-path="url(#clip0_327_5330)">
<path d="M22.5 8.99908C22.8978 8.99908 23.2794 8.84104 23.5607 8.55974C23.842 8.27844 24 7.8969 24 7.49908C24 7.10125 23.842 6.71972 23.5607 6.43842C23.2794 6.15711 22.8978 5.99908 22.5 5.99908H18.872L19.485 1.71108C19.5128 1.51607 19.502 1.31748 19.4531 1.12666C19.4042 0.935835 19.3182 0.756514 19.2 0.598933C19.0818 0.441352 18.9337 0.308597 18.7641 0.208248C18.5946 0.107898 18.407 0.0419201 18.212 0.0140798C18.017 -0.0137604 17.8184 -0.00291739 17.6276 0.0459898C17.4368 0.094897 17.2574 0.180911 17.0999 0.29912C16.9423 0.417329 16.8095 0.565418 16.7092 0.734932C16.6088 0.904447 16.5428 1.09207 16.515 1.28708L15.842 5.99908H9.872L10.485 1.71108C10.5128 1.51607 10.502 1.31748 10.4531 1.12666C10.4042 0.935835 10.3182 0.756514 10.2 0.598933C10.0818 0.441352 9.93366 0.308597 9.76415 0.208248C9.59463 0.107898 9.40701 0.0419201 9.212 0.0140798C9.01699 -0.0137604 8.8184 -0.00291739 8.62758 0.0459898C8.43676 0.094897 8.25743 0.180911 8.09985 0.29912C7.94227 0.417329 7.80952 0.565418 7.70917 0.734932C7.60882 0.904447 7.54284 1.09207 7.515 1.28708L6.842 5.99908H2.5C2.10218 5.99908 1.72064 6.15711 1.43934 6.43842C1.15804 6.71972 1 7.10125 1 7.49908C1 7.8969 1.15804 8.27844 1.43934 8.55974C1.72064 8.84104 2.10218 8.99908 2.5 8.99908H6.413L5.556 14.9991H1.5C1.10218 14.9991 0.720644 15.1571 0.43934 15.4384C0.158035 15.7197 0 16.1013 0 16.4991C0 16.8969 0.158035 17.2784 0.43934 17.5597C0.720644 17.841 1.10218 17.9991 1.5 17.9991H5.128L4.515 22.2871C4.48716 22.4821 4.498 22.6807 4.54691 22.8715C4.59582 23.0623 4.68183 23.2416 4.80004 23.3992C5.03877 23.7175 5.39415 23.9279 5.788 23.9841C6.18185 24.0403 6.5819 23.9378 6.90015 23.699C7.05773 23.5808 7.19048 23.4327 7.29083 23.2632C7.39118 23.0937 7.45716 22.9061 7.485 22.7111L8.158 17.9991H14.128L13.515 22.2871C13.4588 22.6809 13.5613 23.081 13.8 23.3992C14.0388 23.7175 14.3942 23.9279 14.788 23.9841C15.1818 24.0403 15.5819 23.9378 15.9001 23.699C16.2184 23.4603 16.4288 23.1049 16.485 22.7111L17.158 17.9991H21.5C21.8978 17.9991 22.2794 17.841 22.5607 17.5597C22.842 17.2784 23 16.8969 23 16.4991C23 16.1013 22.842 15.7197 22.5607 15.4384C22.2794 15.1571 21.8978 14.9991 21.5 14.9991H17.587L18.444 8.99908H22.5ZM14.556 14.9991H8.587L9.444 8.99908H15.413L14.556 14.9991Z" fill="#25280B"/>
</g>
<defs>
<clipPath id="clip0_327_5330">
<rect width="24" height="24" fill="white"/>
</clipPath>
</defs>
</svg>
