<svg width="24" height="24" viewBox="0 0 24 24" fill="none" xmlns="http://www.w3.org/2000/svg">
<path d="M13.1 19.4999C12.8033 19.5 12.5131 19.4121 12.2663 19.2473C12.0195 19.0825 11.8272 18.8482 11.7136 18.574C11.6 18.2998 11.5703 17.9981 11.6282 17.7071C11.6862 17.416 11.8291 17.1487 12.039 16.9389L16.625 12.3539C16.6716 12.3074 16.7086 12.2523 16.7338 12.1915C16.759 12.1308 16.7719 12.0656 16.7719 11.9999C16.7719 11.9341 16.759 11.869 16.7338 11.8082C16.7086 11.7475 16.6716 11.6923 16.625 11.6459L12.043 7.06088C11.7617 6.77962 11.6035 6.39809 11.6034 6.00024C11.6033 5.60238 11.7613 5.22078 12.0425 4.93938C12.3238 4.65799 12.7053 4.49985 13.1032 4.49976C13.5011 4.49966 13.8827 4.65762 14.164 4.93888L18.75 9.52488C19.4053 10.1819 19.7732 11.072 19.7732 11.9999C19.7732 12.9278 19.4053 13.8178 18.75 14.4749L14.164 19.0609C14.0243 19.2005 13.8584 19.3112 13.6758 19.3865C13.4932 19.4618 13.2976 19.5004 13.1 19.4999Z" fill="#25280B"/>
<path d="M6.0998 19.4999C5.80303 19.5 5.51289 19.4121 5.26609 19.2473C5.01929 19.0825 4.82693 18.8482 4.71334 18.574C4.59975 18.2998 4.57005 17.9981 4.62798 17.7071C4.68592 17.416 4.82889 17.1487 5.0388 16.9389L9.9818 11.9999L5.0428 7.06088C4.76141 6.77962 4.60327 6.39809 4.60317 6.00024C4.60308 5.60238 4.76104 5.22078 5.0423 4.93938C5.32356 4.65799 5.70509 4.49985 6.10295 4.49976C6.50081 4.49966 6.88241 4.65762 7.1638 4.93888L13.1638 10.9389C13.3032 11.0782 13.4138 11.2436 13.4892 11.4256C13.5647 11.6077 13.6035 11.8028 13.6035 11.9999C13.6035 12.1969 13.5647 12.3921 13.4892 12.5741C13.4138 12.7562 13.3032 12.9216 13.1638 13.0609L7.1638 19.0609C7.02409 19.2005 6.85818 19.3112 6.67558 19.3865C6.49299 19.4618 6.29732 19.5004 6.0998 19.4999Z" fill="#25280B"/>
</svg>
