<svg width="24" height="24" viewBox="0 0 24 24" fill="none" xmlns="http://www.w3.org/2000/svg">
<g clip-path="url(#clip0_327_4949)">
<path d="M22.5 21H5.5C4.83696 21 4.20107 20.7366 3.73223 20.2678C3.26339 19.7989 3 19.163 3 18.5V1.5C3 1.10218 2.84196 0.720644 2.56066 0.43934C2.27936 0.158035 1.89782 0 1.5 0C1.10218 0 0.720644 0.158035 0.43934 0.43934C0.158035 0.720644 0 1.10218 0 1.5L0 18.5C0.00158817 19.9582 0.581561 21.3562 1.61267 22.3873C2.64377 23.4184 4.0418 23.9984 5.5 24H22.5C22.8978 24 23.2794 23.842 23.5607 23.5607C23.842 23.2794 24 22.8978 24 22.5C24 22.1022 23.842 21.7206 23.5607 21.4393C23.2794 21.158 22.8978 21 22.5 21Z" fill="#25280B"/>
<path d="M9.50024 9C9.10242 9 8.72089 9.15804 8.43958 9.43934C8.15828 9.72064 8.00024 10.1022 8.00024 10.5V17.5C8.00024 17.8978 8.15828 18.2794 8.43958 18.5607C8.72089 18.842 9.10242 19 9.50024 19C9.89807 19 10.2796 18.842 10.5609 18.5607C10.8422 18.2794 11.0002 17.8978 11.0002 17.5V10.5C11.0002 10.1022 10.8422 9.72064 10.5609 9.43934C10.2796 9.15804 9.89807 9 9.50024 9Z" fill="#25280B"/>
<path d="M14.0002 13.5V17.5C14.0002 17.8978 14.1583 18.2794 14.4396 18.5607C14.7209 18.842 15.1024 19 15.5002 19C15.8981 19 16.2796 18.842 16.5609 18.5607C16.8422 18.2794 17.0002 17.8978 17.0002 17.5V13.5C17.0002 13.1022 16.8422 12.7206 16.5609 12.4393C16.2796 12.158 15.8981 12 15.5002 12C15.1024 12 14.7209 12.158 14.4396 12.4393C14.1583 12.7206 14.0002 13.1022 14.0002 13.5Z" fill="#25280B"/>
<path d="M20.0002 9.5V17.5C20.0002 17.8978 20.1583 18.2793 20.4396 18.5606C20.7209 18.8419 21.1024 19 21.5002 19C21.8981 19 22.2796 18.8419 22.5609 18.5606C22.8422 18.2793 23.0002 17.8978 23.0002 17.5V9.5C23.0002 9.10217 22.8422 8.72064 22.5609 8.43934C22.2796 8.15803 21.8981 8 21.5002 8C21.1024 8 20.7209 8.15803 20.4396 8.43934C20.1583 8.72064 20.0002 9.10217 20.0002 9.5Z" fill="#25280B"/>
<path d="M6.00006 7.49991C6.34053 7.50063 6.67093 7.3845 6.93606 7.17091L9.21406 5.34991C9.67405 4.98062 10.2543 4.79433 10.8433 4.82681C11.4323 4.8593 11.9885 5.10828 12.4051 5.52591C13.3665 6.4751 14.6472 7.0318 15.997 7.08727C17.3469 7.14275 18.669 6.69301 19.705 5.82591L23.469 2.64091C23.6294 2.51696 23.763 2.36179 23.8617 2.18478C23.9605 2.00776 24.0223 1.81258 24.0435 1.611C24.0647 1.40943 24.0448 1.20565 23.9851 1.01196C23.9253 0.818282 23.827 0.638717 23.6959 0.484112C23.5648 0.329507 23.4038 0.203068 23.2225 0.112432C23.0412 0.0217954 22.8434 -0.0311591 22.6411 -0.0432341C22.4388 -0.0553091 22.2361 -0.0262541 22.0453 0.0421766C21.8545 0.110607 21.6796 0.216994 21.531 0.354913L17.768 3.53991C17.3072 3.92423 16.7195 4.12286 16.12 4.09697C15.5204 4.07108 14.9521 3.82253 14.5261 3.39991C13.5881 2.45934 12.3359 1.89831 11.0096 1.82448C9.68337 1.75066 8.37659 2.16925 7.34006 2.99991L5.06307 4.82891C4.82048 5.02311 4.64419 5.28786 4.55856 5.58658C4.47293 5.88529 4.48219 6.20323 4.58506 6.49645C4.68792 6.78968 4.87932 7.04372 5.13279 7.22348C5.38627 7.40323 5.68932 7.49983 6.00006 7.49991Z" fill="#25280B"/>
</g>
<defs>
<clipPath id="clip0_327_4949">
<rect width="24" height="24" fill="white"/>
</clipPath>
</defs>
</svg>
