<svg width="24" height="24" viewBox="0 0 24 24" fill="none" xmlns="http://www.w3.org/2000/svg">
<g clip-path="url(#clip0_327_5676)">
<path d="M3.08612 10.6841C3.81027 5.76306 8.38657 2.36083 13.3076 3.08498C14.9865 3.33203 16.5615 4.04842 17.8511 5.15163L16.6902 6.31251C16.3011 6.7017 16.3012 7.33267 16.6904 7.72176C16.8772 7.90851 17.1306 8.01347 17.3947 8.01351H21.9646C22.515 8.01351 22.9611 7.56739 22.9611 7.01705V2.44715C22.961 1.89681 22.5147 1.45077 21.9644 1.45087C21.7002 1.45091 21.4469 1.55587 21.2601 1.74262L19.9646 3.03803C15.0245 -1.36557 7.44993 -0.930701 3.04632 4.00937C1.48625 5.75947 0.47385 7.92878 0.134547 10.2486C0.000769041 11.071 0.559003 11.8462 1.38138 11.98C1.45547 11.992 1.5303 11.9985 1.60536 11.9994C2.35777 11.9913 2.98934 11.4303 3.08612 10.6841Z" fill="#25280B"/>
<path d="M22.394 11.999C21.6416 12.0072 21.01 12.5682 20.9132 13.3144C20.1891 18.2354 15.6128 21.6376 10.6917 20.9135C9.01279 20.6665 7.43782 19.9501 6.14824 18.8469L7.30913 17.686C7.69823 17.2968 7.69814 16.6658 7.3089 16.2767C7.1221 16.09 6.86875 15.985 6.6046 15.985H2.0348C1.48446 15.985 1.03833 16.4311 1.03833 16.9815V21.5513C1.03847 22.1017 1.48469 22.5477 2.03503 22.5476C2.29918 22.5476 2.55254 22.4426 2.73933 22.2559L4.03474 20.9605C8.97365 25.3645 16.5477 24.931 20.9518 19.9921C22.5127 18.2416 23.5256 16.0715 23.8648 13.7509C23.9991 12.9286 23.4414 12.153 22.6191 12.0187C22.5447 12.0065 22.4694 11.9999 22.394 11.999Z" fill="#25280B"/>
</g>
<defs>
<clipPath id="clip0_327_5676">
<rect width="24" height="24" fill="white"/>
</clipPath>
</defs>
</svg>
