<svg width="24" height="24" viewBox="0 0 24 24" fill="none" xmlns="http://www.w3.org/2000/svg">
<g clip-path="url(#clip0_327_5244)">
<path d="M9.49414 23.9994H5.50714C4.55189 23.9991 3.6132 23.7499 2.78352 23.2765C1.95383 22.8031 1.26175 22.1217 0.77542 21.2995C0.289092 20.4773 0.025288 19.5427 0.00998345 18.5875C-0.00532111 17.6324 0.228402 16.6898 0.688138 15.8524L8.17714 2.08242C8.26765 1.9031 8.39326 1.74377 8.54651 1.61391C8.69976 1.48405 8.87754 1.38629 9.06929 1.32644C9.26104 1.26658 9.46286 1.24585 9.66278 1.26548C9.86269 1.2851 10.0566 1.34468 10.2331 1.44067C10.4095 1.53667 10.5649 1.66713 10.69 1.82432C10.8151 1.9815 10.9073 2.16221 10.9612 2.35571C11.0151 2.54922 11.0296 2.75158 11.0038 2.95079C10.9781 3.15001 10.9125 3.34202 10.8111 3.51542L3.31914 17.2914C3.1091 17.672 3.00192 18.1008 3.00817 18.5354C3.01443 18.97 3.1339 19.3955 3.35481 19.7699C3.57572 20.1443 3.89042 20.4546 4.26787 20.6702C4.64531 20.8858 5.07245 20.9993 5.50714 20.9994H9.49414C9.89196 20.9994 10.2735 21.1575 10.5548 21.4388C10.8361 21.7201 10.9941 22.1016 10.9941 22.4994C10.9941 22.8972 10.8361 23.2788 10.5548 23.5601C10.2735 23.8414 9.89196 23.9994 9.49414 23.9994Z" fill="#25280B"/>
<path d="M23.3152 15.8572L15.8052 2.08216C15.6149 1.73297 15.2938 1.47361 14.9124 1.3611C14.531 1.24859 14.1205 1.29213 13.7712 1.48216C13.515 1.64202 13.3063 1.86761 13.1669 2.13545C13.0274 2.40329 12.9622 2.70361 12.9782 3.00516V22.5002C12.9782 22.898 13.1362 23.2795 13.4175 23.5608C13.6988 23.8421 14.0804 24.0002 14.4782 24.0002H18.4942C19.449 23.9998 20.3873 23.7508 21.2167 23.2777C22.0462 22.8046 22.7381 22.1238 23.2246 21.3021C23.711 20.4805 23.9752 19.5464 23.9911 18.5917C24.007 17.6369 23.774 16.6945 23.3152 15.8572Z" fill="#25280B"/>
</g>
<defs>
<clipPath id="clip0_327_5244">
<rect width="24" height="24" fill="white"/>
</clipPath>
</defs>
</svg>
