<svg width="24" height="24" viewBox="0 0 24 24" fill="none" xmlns="http://www.w3.org/2000/svg">
<g clip-path="url(#clip0_327_5100)">
<path d="M23.5846 11.0752C21.9091 6.86084 18.1281 3.84809 13.646 3.15589C14.2602 2.24365 14.0186 1.0062 13.1064 0.391952C12.1942 -0.222251 10.9567 0.0193425 10.3425 0.931577C9.88979 1.6039 9.88979 2.48351 10.3425 3.15589C5.86154 3.84908 2.08191 6.86169 0.406974 11.0752C-0.214447 12.4085 -0.118119 13.9657 0.662865 15.2121C1.15552 15.9647 1.89755 16.5195 2.75869 16.7793L3.36502 19.9106C3.81849 22.252 5.86674 23.9442 8.25165 23.9479H15.7369C18.1209 23.9442 20.169 22.2537 20.6245 19.9136L21.2298 16.7832C22.0925 16.5228 22.8355 15.966 23.3277 15.2111C24.1084 13.965 24.2051 12.4084 23.5846 11.0752ZM17.6923 19.347C17.5115 20.2841 16.6912 20.9611 15.7369 20.961H8.25165C7.29769 20.9606 6.47799 20.2837 6.29719 19.347L6.03136 17.9741C6.74157 17.9701 7.43321 17.7469 8.01169 17.3349C9.20996 18.1633 10.796 18.1633 11.9943 17.3349C13.1926 18.1633 14.7786 18.1633 15.9769 17.3349C16.5554 17.7469 17.247 17.9701 17.9572 17.9741L17.6923 19.347ZM20.8246 13.5813C20.6296 13.862 20.3002 14.0182 19.9594 13.9915C19.331 14.0065 18.7427 14.3033 18.3574 14.7999C18.1731 15.0149 17.8493 15.0398 17.6344 14.8555C17.6145 14.8385 17.5959 14.8198 17.5788 14.7999C16.9209 13.9152 15.6705 13.7312 14.7857 14.389C14.6294 14.5052 14.491 14.6436 14.3748 14.7999C14.1905 15.0149 13.8668 15.0398 13.6518 14.8555C13.6319 14.8385 13.6133 14.8198 13.5962 14.7999C12.9341 13.9149 11.68 13.7341 10.7949 14.3962C10.6418 14.5108 10.5058 14.6467 10.3912 14.7999C10.2079 15.0144 9.88552 15.0396 9.67107 14.8564C9.65082 14.8391 9.63193 14.8202 9.61458 14.7999C8.95196 13.9146 7.69716 13.7341 6.81183 14.3967C6.65888 14.5112 6.52308 14.647 6.40862 14.7999C6.22533 15.0144 5.90293 15.0396 5.68847 14.8564C5.66822 14.8391 5.64933 14.8202 5.63199 14.7999C5.24363 14.3065 4.65666 14.0105 4.02901 13.9915C3.68897 14.0181 3.36038 13.8623 3.1658 13.5822C2.94455 13.1816 2.93415 12.6978 3.13791 12.2879C6.66647 3.93945 17.3428 3.96139 20.8514 12.2879C21.0568 12.697 21.0467 13.1811 20.8246 13.5813Z" fill="#25280B"/>
</g>
<defs>
<clipPath id="clip0_327_5100">
<rect width="24" height="24" fill="white"/>
</clipPath>
</defs>
</svg>
