<svg width="24" height="24" viewBox="0 0 24 24" fill="none" xmlns="http://www.w3.org/2000/svg">
<g clip-path="url(#clip0_327_5643)">
<path d="M19.5101 24H4.48807C3.71597 24.0024 2.95656 23.8037 2.28463 23.4233C1.61269 23.043 1.05142 22.4942 0.656074 21.831C0.253454 21.1691 0.0285552 20.4144 0.00315235 19.64C-0.0222505 18.8657 0.152703 18.0979 0.511074 17.411L8.02207 2.428C8.39707 1.69607 8.96701 1.08198 9.66898 0.653526C10.371 0.225069 11.1777 -0.00109293 12.0001 3.97113e-06C12.8223 -0.000683153 13.6287 0.225659 14.3304 0.654081C15.0322 1.0825 15.602 1.69637 15.9771 2.428L23.4971 17.428C23.8502 18.1136 24.0215 18.8784 23.9946 19.6492C23.9677 20.4199 23.7436 21.1709 23.3436 21.8303C22.9435 22.4896 22.3811 23.0354 21.7099 23.4152C21.0387 23.7951 20.2813 23.9965 19.5101 24ZM10.6771 3.808L3.17107 18.781C3.04731 19.0113 2.98589 19.27 2.9929 19.5313C2.99992 19.7927 3.07513 20.0477 3.21107 20.271C3.34202 20.4928 3.52888 20.6762 3.75298 20.8031C3.97708 20.93 4.23056 20.9958 4.48807 20.994H19.5101C19.7685 20.9939 20.0225 20.927 20.2474 20.7999C20.4724 20.6727 20.6607 20.4896 20.7941 20.2683C20.9275 20.047 21.0015 19.795 21.0088 19.5367C21.0162 19.2784 20.9567 19.0226 20.8361 18.794L13.3171 3.794C13.1922 3.5535 13.0029 3.35244 12.7703 3.2133C12.5377 3.07415 12.2711 3.00238 12.0001 3.006C11.7268 3.00326 11.4581 3.07688 11.2243 3.21858C10.9906 3.36027 10.8011 3.56441 10.6771 3.808Z" fill="#25280B"/>
</g>
<defs>
<clipPath id="clip0_327_5643">
<rect width="24" height="24" fill="white"/>
</clipPath>
</defs>
</svg>
