<svg width="24" height="24" viewBox="0 0 24 24" fill="none" xmlns="http://www.w3.org/2000/svg">
<g clip-path="url(#clip0_327_1420)">
<path d="M16.7729 2.89948C16.0259 2.26548 15.2429 1.59948 14.4459 0.875485C14.0828 0.544365 13.6515 0.297051 13.1823 0.151034C12.7132 0.00501704 12.2177 -0.0361363 11.7309 0.0304846C11.2574 0.0924168 10.8032 0.257499 10.4004 0.514084C9.99767 0.77067 9.65612 1.11251 9.39987 1.51548C8.44989 3.07603 7.73362 4.76732 7.27387 6.53548C7.05555 6.24518 6.7756 6.00688 6.45416 5.83771C6.13273 5.66855 5.77779 5.57272 5.41489 5.55714C5.05199 5.54155 4.69015 5.60659 4.35539 5.74757C4.02063 5.88855 3.72128 6.10197 3.47887 6.37248C1.78374 8.10604 0.845154 10.441 0.868871 12.8655C0.846333 15.326 1.64765 17.7234 3.14523 19.6758C4.64282 21.6283 6.75057 23.0235 9.13287 23.6395C10.0667 23.877 11.0263 23.9979 11.9899 23.9995C13.452 24.0015 14.9002 23.7151 16.2516 23.1568C17.603 22.5985 18.831 21.7792 19.8654 20.7458C20.8998 19.7124 21.7203 18.4852 22.28 17.1344C22.8396 15.7836 23.1274 14.3356 23.1269 12.8735C23.1269 8.29948 20.1829 5.79948 16.7729 2.89948ZM16.9909 19.2855C16.7048 19.5056 16.4041 19.7061 16.0909 19.8855C16.3778 19.2863 16.5281 18.6308 16.5309 17.9665C16.5309 16.0395 15.1879 13.8025 13.5309 11.8415C13.3408 11.619 13.1047 11.4404 12.8389 11.3179C12.5732 11.1954 12.284 11.132 11.9914 11.132C11.6987 11.132 11.4096 11.1954 11.1438 11.3179C10.878 11.4404 10.642 11.619 10.4519 11.8415C8.09987 14.5995 6.62687 17.5815 7.99987 19.9995C6.73719 19.2893 5.68807 18.2535 4.96185 17C4.23563 15.7465 3.85889 14.3211 3.87087 12.8725C3.83985 11.4537 4.31687 10.0705 5.21587 8.97248C5.3572 9.20448 5.50887 9.42882 5.67087 9.64548C5.93841 10.0067 6.30595 10.2816 6.72804 10.4363C7.15014 10.5909 7.60829 10.6184 8.04587 10.5155C8.48975 10.4165 8.89567 10.1916 9.21494 9.86772C9.5342 9.54384 9.75327 9.13474 9.84587 8.68948C10.2154 6.72679 10.9229 4.84316 11.9369 3.12248C11.9577 3.08832 11.9861 3.05943 12.0199 3.03809C12.0538 3.01675 12.0921 3.00354 12.1319 2.99948C12.1848 2.99258 12.2387 2.99732 12.2896 3.01339C12.3406 3.02945 12.3874 3.05645 12.4269 3.09248C13.2509 3.84148 14.0599 4.52948 14.8319 5.18348C18.0209 7.89148 20.1269 9.68349 20.1269 12.8695C20.1309 14.108 19.8503 15.331 19.3065 16.4438C18.7628 17.5566 17.9705 18.5296 16.9909 19.2875V19.2855Z" fill="#25280B"/>
</g>
<defs>
<clipPath id="clip0_327_1420">
<rect width="24" height="24" fill="white"/>
</clipPath>
</defs>
</svg>
