<svg width="24" height="24" viewBox="0 0 24 24" fill="none" xmlns="http://www.w3.org/2000/svg">
<g clip-path="url(#clip0_327_5433)">
<path d="M21.4681 19.3461C23.1088 17.2489 24.0002 14.6628 24.0002 12.0001C24.0002 9.33737 23.1088 6.75129 21.4681 4.65409L23.0611 3.06109C23.3425 2.7797 23.5006 2.39804 23.5006 2.00009C23.5006 1.60214 23.3425 1.22049 23.0611 0.939092C22.9218 0.79976 22.7563 0.689235 22.5743 0.613829C22.3923 0.538423 22.1971 0.499612 22.0001 0.499612C21.6021 0.499612 21.2205 0.657698 20.9391 0.939092L19.3461 2.53209C17.2489 0.891397 14.6628 0 12.0001 0C9.33737 0 6.75129 0.891397 4.65409 2.53209L3.06109 0.939092C2.7797 0.657698 2.39804 0.499612 2.00009 0.499612C1.60214 0.499612 1.22049 0.657698 0.939092 0.939092C0.657698 1.22049 0.499612 1.60214 0.499612 2.00009C0.499612 2.39804 0.657698 2.7797 0.939092 3.06109L2.53209 4.65409C0.891397 6.75129 0 9.33737 0 12.0001C0 14.6628 0.891397 17.2489 2.53209 19.3461L0.939092 20.9391C0.657698 21.2205 0.499612 21.6021 0.499612 22.0001C0.499612 22.398 0.657698 22.7797 0.939092 23.0611C1.22049 23.3425 1.60214 23.5006 2.00009 23.5006C2.39804 23.5006 2.7797 23.3425 3.06109 23.0611L4.65409 21.4681C6.75129 23.1088 9.33737 24.0002 12.0001 24.0002C14.6628 24.0002 17.2489 23.1088 19.3461 21.4681L20.9391 23.0611C21.2205 23.3425 21.6021 23.5006 22.0001 23.5006C22.398 23.5006 22.7797 23.3425 23.0611 23.0611C23.3425 22.7797 23.5006 22.398 23.5006 22.0001C23.5006 21.6021 23.3425 21.2205 23.0611 20.9391L21.4681 19.3461ZM21.0001 12.0001C21 13.8674 20.4153 15.6879 19.3281 17.2061L16.6501 14.5291C17.0879 13.7581 17.3181 12.8867 17.3181 12.0001C17.3181 11.1135 17.0879 10.242 16.6501 9.47109L19.3281 6.79409C20.4153 8.31228 21 10.1327 21.0001 12.0001ZM9.68209 12.0001C9.68209 11.5416 9.81804 11.0935 10.0727 10.7123C10.3275 10.3311 10.6895 10.034 11.113 9.85854C11.5366 9.6831 12.0027 9.63719 12.4523 9.72663C12.902 9.81607 13.315 10.0368 13.6392 10.361C13.9633 10.6852 14.1841 11.0982 14.2736 11.5479C14.363 11.9975 14.3171 12.4636 14.1416 12.8872C13.9662 13.3107 13.6691 13.6727 13.2879 13.9274C12.9067 14.1821 12.4585 14.3181 12.0001 14.3181C11.3856 14.3173 10.7964 14.0728 10.3619 13.6383C9.92736 13.2038 9.68289 12.6146 9.68209 12.0001ZM12.0001 3.00009C13.8674 3.00017 15.6879 3.58485 17.2061 4.67209L14.5291 7.35009C13.7581 6.91224 12.8867 6.68205 12.0001 6.68205C11.1135 6.68205 10.242 6.91224 9.47109 7.35009L6.79409 4.67209C8.31228 3.58485 10.1327 3.00017 12.0001 3.00009ZM3.00009 12.0001C3.00017 10.1327 3.58485 8.31228 4.67209 6.79409L7.35009 9.47109C6.91224 10.242 6.68205 11.1135 6.68205 12.0001C6.68205 12.8867 6.91224 13.7581 7.35009 14.5291L4.67209 17.2061C3.58485 15.6879 3.00017 13.8674 3.00009 12.0001ZM12.0001 21.0001C10.1327 21 8.31228 20.4153 6.79409 19.3281L9.47109 16.6501C10.242 17.0879 11.1135 17.3181 12.0001 17.3181C12.8867 17.3181 13.7581 17.0879 14.5291 16.6501L17.2061 19.3281C15.6879 20.4153 13.8674 21 12.0001 21.0001Z" fill="#25280B"/>
</g>
<defs>
<clipPath id="clip0_327_5433">
<rect width="24" height="24" fill="white"/>
</clipPath>
</defs>
</svg>
