<svg width="24" height="24" viewBox="0 0 24 24" fill="none" xmlns="http://www.w3.org/2000/svg">
<path d="M22.5 6H1.5C1.10218 6 0.720644 5.84196 0.43934 5.56066C0.158035 5.27936 0 4.89782 0 4.5C0 4.10218 0.158035 3.72064 0.43934 3.43934C0.720644 3.15804 1.10218 3 1.5 3H22.5C22.8978 3 23.2794 3.15804 23.5607 3.43934C23.842 3.72064 24 4.10218 24 4.5C24 4.89782 23.842 5.27936 23.5607 5.56066C23.2794 5.84196 22.8978 6 22.5 6Z" fill="#25280B"/>
<path d="M22.5 10.9995H9.5C9.10217 10.9995 8.72064 10.8415 8.43934 10.5602C8.15803 10.2789 8 9.89734 8 9.49951C8 9.10169 8.15803 8.72016 8.43934 8.43885C8.72064 8.15755 9.10217 7.99951 9.5 7.99951H22.5C22.8978 7.99951 23.2793 8.15755 23.5606 8.43885C23.8419 8.72016 24 9.10169 24 9.49951C24 9.89734 23.8419 10.2789 23.5606 10.5602C23.2793 10.8415 22.8978 10.9995 22.5 10.9995Z" fill="#25280B"/>
<path d="M22.5 21H1.5C1.10218 21 0.720644 20.842 0.43934 20.5607C0.158035 20.2794 0 19.8978 0 19.5C0 19.1022 0.158035 18.7206 0.43934 18.4393C0.720644 18.158 1.10218 18 1.5 18H22.5C22.8978 18 23.2794 18.158 23.5607 18.4393C23.842 18.7206 24 19.1022 24 19.5C24 19.8978 23.842 20.2794 23.5607 20.5607C23.2794 20.842 22.8978 21 22.5 21Z" fill="#25280B"/>
<path d="M22.5 16.0005H9.5C9.10217 16.0005 8.72064 15.8425 8.43934 15.5611C8.15803 15.2798 8 14.8983 8 14.5005C8 14.1027 8.15803 13.7211 8.43934 13.4398C8.72064 13.1585 9.10217 13.0005 9.5 13.0005H22.5C22.8978 13.0005 23.2793 13.1585 23.5606 13.4398C23.8419 13.7211 24 14.1027 24 14.5005C24 14.8983 23.8419 15.2798 23.5606 15.5611C23.2793 15.8425 22.8978 16.0005 22.5 16.0005Z" fill="#25280B"/>
<path d="M1.707 15.7452L4.681 12.7712C4.88508 12.5665 4.99968 12.2892 4.99968 12.0002C4.99968 11.7111 4.88508 11.4339 4.681 11.2292L1.707 8.25519C1.56709 8.11532 1.38883 8.02009 1.19479 7.98156C1.00074 7.94302 0.799624 7.96291 0.616884 8.0387C0.434143 8.1145 0.27799 8.24279 0.168182 8.40735C0.0583736 8.57192 -0.00015534 8.76535 3.09641e-07 8.96319V15.0372C-0.00015534 15.235 0.0583736 15.4285 0.168182 15.593C0.27799 15.7576 0.434143 15.8859 0.616884 15.9617C0.799624 16.0375 1.00074 16.0574 1.19479 16.0188C1.38883 15.9803 1.56709 15.8851 1.707 15.7452Z" fill="#25280B"/>
</svg>
