<svg width="24" height="24" viewBox="0 0 24 24" fill="none" xmlns="http://www.w3.org/2000/svg">
<g clip-path="url(#clip0_327_5179)">
<path d="M20.943 17.7266C19.9889 18.8846 18.7601 19.7854 17.3687 20.3467C15.9772 20.9081 14.4674 21.1123 12.9768 20.9406C11.4863 20.7689 10.0624 20.2268 8.83501 19.3638C7.60765 18.5007 6.61583 17.3442 5.95 15.9996H14.5C14.8978 15.9996 15.2794 15.8416 15.5607 15.5603C15.842 15.279 16 14.8974 16 14.4996C16 14.1018 15.842 13.7203 15.5607 13.439C15.2794 13.1576 14.8978 12.9996 14.5 12.9996H5.059C4.9803 12.3353 4.9803 11.664 5.059 10.9996H14.5C14.8978 10.9996 15.2794 10.8416 15.5607 10.5603C15.842 10.279 16 9.89744 16 9.49961C16 9.10179 15.842 8.72026 15.5607 8.43895C15.2794 8.15765 14.8978 7.99961 14.5 7.99961H5.95C6.61583 6.65502 7.60765 5.49848 8.83501 4.63544C10.0624 3.77241 11.4863 3.23033 12.9768 3.05864C14.4674 2.88694 15.9772 3.09109 17.3687 3.65248C18.7601 4.21386 19.9889 5.11461 20.943 6.27261C21.1963 6.57947 21.5611 6.77314 21.9572 6.81102C22.3532 6.8489 22.7481 6.72789 23.055 6.47461C23.3619 6.22133 23.5555 5.85652 23.5934 5.46045C23.6313 5.06437 23.5103 4.66947 23.257 4.36261C21.9063 2.72411 20.1447 1.47373 18.1523 0.739349C16.1599 0.00496358 14.0082 -0.187079 11.9173 0.182859C9.82631 0.552798 7.87112 1.47144 6.25164 2.84485C4.63215 4.21826 3.4065 5.99715 2.7 7.99961H1.5C1.10218 7.99961 0.720644 8.15765 0.43934 8.43895C0.158035 8.72026 0 9.10179 0 9.49961C0 9.89744 0.158035 10.279 0.43934 10.5603C0.720644 10.8416 1.10218 10.9996 1.5 10.9996H2.051C2.023 11.3306 2 11.6616 2 11.9996C2 12.3376 2.023 12.6686 2.051 12.9996H1.5C1.10218 12.9996 0.720644 13.1576 0.43934 13.439C0.158035 13.7203 0 14.1018 0 14.4996C0 14.8974 0.158035 15.279 0.43934 15.5603C0.720644 15.8416 1.10218 15.9996 1.5 15.9996H2.7C3.4065 18.0021 4.63215 19.781 6.25164 21.1544C7.87112 22.5278 9.82631 23.4464 11.9173 23.8164C14.0082 24.1863 16.1599 23.9943 18.1523 23.2599C20.1447 22.5255 21.9063 21.2751 23.257 19.6366C23.5103 19.3298 23.6313 18.9349 23.5934 18.5388C23.5555 18.1427 23.3619 17.7779 23.055 17.5246C22.9031 17.3992 22.7279 17.3049 22.5395 17.2472C22.3512 17.1895 22.1533 17.1694 21.9572 17.1882C21.5611 17.2261 21.1963 17.4198 20.943 17.7266Z" fill="#25280B"/>
</g>
<defs>
<clipPath id="clip0_327_5179">
<rect width="24" height="24" fill="white"/>
</clipPath>
</defs>
</svg>
