<svg width="24" height="24" viewBox="0 0 24 24" fill="none" xmlns="http://www.w3.org/2000/svg">
<g clip-path="url(#clip0_327_5122)">
<path d="M23.1478 5.7L20.2798 1.827C19.8754 1.26245 19.3425 0.802298 18.725 0.484598C18.1075 0.166898 17.4232 0.000785725 16.7288 2.06794e-06H7.27081C6.58182 -0.000669296 5.90251 0.162139 5.28868 0.475051C4.67485 0.787964 4.14402 1.24205 3.73981 1.8L0.799806 5.721C0.256053 6.48456 -0.0262503 7.40346 -0.00498439 8.3406C0.0162815 9.27775 0.339977 10.1829 0.917806 10.921L9.32881 22.71C9.64718 23.1133 10.0531 23.4391 10.5158 23.6625C10.9785 23.886 11.486 24.0014 11.9998 24C12.5256 23.9986 13.0441 23.8761 13.5149 23.642C13.9858 23.4079 14.3964 23.0684 14.7148 22.65L23.0148 11.041C23.6254 10.2912 23.9698 9.3599 23.9939 8.39323C24.018 7.42655 23.7204 6.47925 23.1478 5.7ZM3.22681 7.487L6.16081 3.571C6.2872 3.39453 6.4538 3.2507 6.64683 3.15141C6.83985 3.05212 7.05374 3.00022 7.27081 3H9.66181L8.18181 8.182L8.26681 8.5H15.7328L15.8178 8.182L14.3378 3H16.7288C16.95 3.00135 17.1677 3.05583 17.3635 3.15886C17.5593 3.26188 17.7274 3.41043 17.8538 3.592L20.7328 7.482C20.8367 7.62784 20.9098 7.79332 20.9476 7.96835C20.9854 8.14338 20.9872 8.32427 20.9528 8.5H15.7328L12.5128 20.575L12.3198 20.846C12.2819 20.8946 12.2333 20.9338 12.1778 20.9605C12.1223 20.9872 12.0614 21.0007 11.9998 21C11.8998 21.005 11.8017 20.9714 11.7258 20.906L11.4848 20.569L8.26681 8.5H3.04081C3.00152 8.32736 2.99776 8.14854 3.02973 7.97439C3.06171 7.80025 3.12876 7.63443 3.22681 7.487Z" fill="#25280B"/>
</g>
<defs>
<clipPath id="clip0_327_5122">
<rect width="24" height="24" fill="white"/>
</clipPath>
</defs>
</svg>
