<svg width="24" height="24" viewBox="0 0 24 24" fill="none" xmlns="http://www.w3.org/2000/svg">
<g clip-path="url(#clip0_327_5863)">
<path d="M23.268 0.733455C22.9715 0.435656 22.6045 0.217762 22.2011 0.100083C21.7977 -0.0175957 21.3711 -0.0312286 20.961 0.0604552C18.3735 0.84084 16.0266 2.26533 14.14 4.20046L5.92199 12.4225C4.5958 11.7482 3.17708 11.2741 1.71199 11.0155C1.32039 10.9631 0.923937 11.0673 0.608737 11.3055C0.293536 11.5437 0.085044 11.8967 0.0285432 12.2877C-0.0279576 12.6787 0.0720957 13.0763 0.306973 13.394C0.541849 13.7116 0.892581 13.9238 1.28299 13.9845C2.9566 14.3019 4.5459 14.964 5.94999 15.9285L2.99999 18.8795L2.56099 18.4395C2.2796 18.1581 1.89794 18 1.49999 18C1.10204 18 0.720387 18.1581 0.438992 18.4395C0.157598 18.7209 -0.000488275 19.1025 -0.000488281 19.5005C-0.000488287 19.8984 0.157598 20.2801 0.438992 20.5615L3.43899 23.5615C3.72039 23.8429 4.10204 24.0009 4.49999 24.0009C4.69704 24.0009 4.89215 23.9621 5.0742 23.8867C5.25625 23.8113 5.42166 23.7008 5.56099 23.5615C5.70032 23.4221 5.81085 23.2567 5.88626 23.0747C5.96166 22.8926 6.00047 22.6975 6.00047 22.5005C6.00047 22.3034 5.96166 22.1083 5.88626 21.9262C5.81085 21.7442 5.70032 21.5788 5.56099 21.4395L5.12099 21.0005L8.07099 18.0495C9.0359 19.4534 9.69826 21.0428 10.016 22.7165C10.0679 23.073 10.2464 23.399 10.5189 23.6348C10.7914 23.8706 11.1397 24.0004 11.5 24.0005C11.5716 24.0004 11.6431 23.9954 11.714 23.9855C11.9093 23.9576 12.0972 23.8916 12.2669 23.791C12.4367 23.6905 12.5849 23.5575 12.7032 23.3995C12.8214 23.2416 12.9073 23.0619 12.956 22.8708C13.0048 22.6796 13.0153 22.4807 12.987 22.2855C12.7284 20.8204 12.2542 19.4016 11.58 18.0755L19.8 9.85946C21.6812 7.93024 23.0984 5.59794 23.944 3.03946C24.0349 2.62926 24.0206 2.20273 23.9024 1.79955C23.7843 1.39637 23.566 1.02963 23.268 0.733455ZM17.676 7.73846L9.89999 15.5145C9.68799 15.2625 9.46799 15.0145 9.22699 14.7725C8.98599 14.5305 8.73799 14.3115 8.48599 14.1005L16.261 6.32446C17.5151 5.07312 18.9962 4.07226 20.625 3.37546C19.9279 5.00384 18.9271 6.48455 17.676 7.73846Z" fill="#25280B"/>
</g>
<defs>
<clipPath id="clip0_327_5863">
<rect width="24" height="24" fill="white"/>
</clipPath>
</defs>
</svg>
