<svg width="24" height="24" viewBox="0 0 24 24" fill="none" xmlns="http://www.w3.org/2000/svg">
<g clip-path="url(#clip0_327_5682)">
<path d="M21.4998 2.00112H13.4998C12.8368 2.00112 12.2009 2.26451 11.7321 2.73335C11.2632 3.20219 10.9998 3.83807 10.9998 4.50111V4.80111L9.73484 2.60711C9.57505 2.31188 9.35824 2.0513 9.09697 1.8405C8.8357 1.62971 8.53518 1.47288 8.21284 1.37912C7.67669 1.22824 7.10552 1.26073 6.58993 1.47142C6.07435 1.68211 5.64389 2.05893 5.36684 2.54211L0.374849 11.1881C0.199725 11.4742 0.0830439 11.7921 0.0315508 12.1236C-0.0199424 12.455 -0.00522575 12.7934 0.0748498 13.1191C0.212273 13.6578 0.525318 14.1353 0.964496 14.4761C1.40367 14.8169 1.94393 15.0017 2.49985 15.0011H5.19984C4.89791 16.0541 4.84467 17.1629 5.04432 18.2401C5.24397 19.3172 5.69105 20.3332 6.35033 21.2081C7.00962 22.083 7.86308 22.7928 8.84346 23.2816C9.82385 23.7704 10.9044 24.0248 11.9998 24.0248C13.0953 24.0248 14.1758 23.7704 15.1562 23.2816C16.1366 22.7928 16.9901 22.083 17.6493 21.2081C18.3086 20.3332 18.7557 19.3172 18.9554 18.2401C19.155 17.1629 19.1018 16.0541 18.7998 15.0011H21.4998C21.8281 15.0011 22.1532 14.9364 22.4565 14.8108C22.7598 14.6852 23.0354 14.501 23.2676 14.2689C23.4997 14.0367 23.6839 13.7611 23.8095 13.4578C23.9352 13.1545 23.9998 12.8294 23.9998 12.5011V4.50111C23.9998 4.17281 23.9352 3.84772 23.8095 3.5444C23.6839 3.24109 23.4997 2.96549 23.2676 2.73335C23.0354 2.5012 22.7598 2.31705 22.4565 2.19142C22.1532 2.06578 21.8281 2.00112 21.4998 2.00112ZM3.36985 12.0011L7.53184 4.79211L10.5418 10.0011C9.16492 10.2923 7.90662 10.9888 6.92884 12.0011H3.36985ZM11.9998 21.0011C11.1941 21.0011 10.4064 20.7622 9.73645 20.3145C9.06648 19.8668 8.54431 19.2306 8.23596 18.4861C7.9276 17.7417 7.84693 16.9226 8.00412 16.1323C8.16132 15.342 8.54933 14.6161 9.11909 14.0463C9.68885 13.4766 10.4148 13.0886 11.205 12.9314C11.9953 12.7742 12.8145 12.8549 13.5589 13.1632C14.3033 13.4716 14.9396 13.9937 15.3872 14.6637C15.8349 15.3337 16.0738 16.1213 16.0738 16.9271C16.0725 18.0072 15.6429 19.0426 14.8791 19.8064C14.1154 20.5701 13.0799 20.9998 11.9998 21.0011ZM20.9998 12.0011H17.0708C16.2137 11.14 15.1596 10.5009 13.9998 10.1391V5.00111H20.9998V12.0011Z" fill="#25280B"/>
</g>
<defs>
<clipPath id="clip0_327_5682">
<rect width="24" height="24" fill="white"/>
</clipPath>
</defs>
</svg>
