<svg width="24" height="24" viewBox="0 0 24 24" fill="none" xmlns="http://www.w3.org/2000/svg">
<g clip-path="url(#clip0_327_5112)">
<path d="M19.2269 1.29347e-05H17.3099C16.6829 -0.00145204 16.0618 0.121538 15.4826 0.361856C14.9034 0.602175 14.3777 0.955043 13.9359 1.40001L10.3999 4.93501C9.50716 5.83226 9.00412 7.04529 8.99992 8.31101V11.982C6.36492 13.935 3.35792 16.188 2.92292 16.623C2.51737 17.019 2.22964 17.5197 2.09175 18.0695C1.95387 18.6193 1.97124 19.1965 2.14192 19.737L0.441922 21.437C0.160527 21.7184 0.0024414 22.1001 0.00244141 22.498C0.00244141 22.896 0.160527 23.2776 0.441922 23.559C0.723317 23.8404 1.10497 23.9985 1.50292 23.9985C1.90087 23.9985 2.28253 23.8404 2.56392 23.559L4.26392 21.859C4.80418 22.0296 5.38118 22.047 5.93075 21.9093C6.48032 21.7716 6.98094 21.4842 7.37692 21.079C7.81192 20.644 10.0659 17.637 12.0189 15.001H15.6899C16.317 15.0025 16.9381 14.8795 17.5172 14.6392C18.0964 14.3989 18.6221 14.046 19.0639 13.601L22.5999 10.065C23.4927 9.16777 23.9957 7.95474 23.9999 6.68901V4.77201C23.9983 3.50671 23.4949 2.29371 22.6001 1.3991C21.7053 0.504492 20.4922 0.00133603 19.2269 1.29347e-05ZM20.9999 6.68901C20.9988 7.15904 20.8123 7.60965 20.4809 7.94301L16.9429 11.48C16.7788 11.6452 16.5836 11.7763 16.3685 11.8655C16.1534 11.9548 15.9228 12.0005 15.6899 12H14.2319L14.5409 11.58L18.5609 7.56101C18.7003 7.42168 18.8108 7.25627 18.8862 7.07422C18.9616 6.89218 19.0004 6.69706 19.0004 6.50001C19.0004 6.30297 18.9616 6.10785 18.8862 5.9258C18.8108 5.74376 18.7003 5.57835 18.5609 5.43901C18.4216 5.29968 18.2562 5.18916 18.0741 5.11375C17.8921 5.03834 17.697 4.99953 17.4999 4.99953C17.3029 4.99953 17.1078 5.03834 16.9257 5.11375C16.7437 5.18916 16.5783 5.29968 16.4389 5.43901L12.4179 9.46101L11.9999 9.76801V8.31101C12.0011 7.84098 12.1876 7.39038 12.5189 7.05701L16.0569 3.52001C16.221 3.3548 16.4163 3.22377 16.6313 3.13451C16.8464 3.04525 17.0771 2.99954 17.3099 3.00001H19.2269C19.6969 3.00028 20.1476 3.18702 20.48 3.51925C20.8124 3.85148 20.9994 4.30204 20.9999 4.77201V6.68901Z" fill="#25280B"/>
</g>
<defs>
<clipPath id="clip0_327_5112">
<rect width="24" height="24" fill="white"/>
</clipPath>
</defs>
</svg>
