<svg width="24" height="24" viewBox="0 0 24 24" fill="none" xmlns="http://www.w3.org/2000/svg">
<path d="M0.912167 10.6002L10.2002 16.1692C10.7437 16.4962 11.3659 16.6689 12.0002 16.6689C12.6344 16.6689 13.2567 16.4962 13.8002 16.1692L23.0882 10.6002C23.3638 10.4349 23.592 10.201 23.7504 9.92131C23.9088 9.64161 23.992 9.32566 23.992 9.00422C23.992 8.68279 23.9088 8.36683 23.7504 8.08714C23.592 7.80744 23.3638 7.57354 23.0882 7.40822L13.8002 1.83122C13.2568 1.50398 12.6345 1.33105 12.0002 1.33105C11.3659 1.33105 10.7435 1.50398 10.2002 1.83122L0.912167 7.40022C0.636503 7.56554 0.408358 7.79944 0.249957 8.07914C0.0915564 8.35883 0.00830078 8.67479 0.00830078 8.99622C0.00830078 9.31766 0.0915564 9.63361 0.249957 9.91331C0.408358 10.193 0.636503 10.4269 0.912167 10.5922V10.6002ZM11.7432 4.40022C11.8208 4.35369 11.9096 4.32912 12.0002 4.32912C12.0907 4.32912 12.1795 4.35369 12.2572 4.40022L19.9182 9.00022L12.2572 13.6002C12.1795 13.6468 12.0907 13.6713 12.0002 13.6713C11.9096 13.6713 11.8208 13.6468 11.7432 13.6002L4.08217 9.00022L11.7432 4.40022Z" fill="#25280B"/>
<path d="M13.286 18.8307C12.8975 19.0637 12.453 19.1868 12 19.1868C11.547 19.1868 11.1025 19.0637 10.714 18.8307L2.272 13.7657C2.0444 13.629 1.78461 13.5553 1.51917 13.5519C1.25373 13.5485 0.992141 13.6156 0.761119 13.7464C0.530097 13.8771 0.337915 14.0669 0.204197 14.2962C0.0704792 14.5255 1.51371e-05 14.7862 0 15.0517H0C1.4767e-05 15.3106 0.0670729 15.5652 0.194648 15.7905C0.322222 16.0159 0.505968 16.2044 0.728 16.3377L9.17 21.3997C10.0244 21.9139 11.0028 22.1856 12 22.1856C12.9972 22.1856 13.9756 21.9139 14.83 21.3997L23.272 16.3347C23.4936 16.2017 23.6771 16.0136 23.8046 15.7888C23.9322 15.5641 23.9995 15.3101 24 15.0517C24 14.7862 23.9295 14.5255 23.7958 14.2962C23.6621 14.0669 23.4699 13.8771 23.2389 13.7464C23.0079 13.6156 22.7463 13.5485 22.4808 13.5519C22.2154 13.5553 21.9556 13.629 21.728 13.7657L13.286 18.8307Z" fill="#25280B"/>
</svg>
