<svg width="24" height="24" viewBox="0 0 24 24" fill="none" xmlns="http://www.w3.org/2000/svg">
<g clip-path="url(#clip0_327_5196)">
<path d="M23.0382 8.88432C20.6097 5.13756 16.4637 2.85878 11.999 2.81689C7.53424 2.85878 3.38824 5.13756 0.959815 8.88432C-0.319938 10.7624 -0.319938 13.2324 0.959815 15.1106C3.38687 18.8597 7.53311 21.1408 11.999 21.184C16.4637 21.1422 20.6097 18.8634 23.0382 15.1166C24.3206 13.2371 24.3206 10.7638 23.0382 8.88432ZM20.5533 13.4078C18.6992 16.3485 15.4753 18.1427 11.999 18.1684C8.52266 18.1427 5.29873 16.3485 3.44464 13.4078C2.86663 12.5586 2.86663 11.4423 3.44464 10.5932C5.29868 7.65244 8.52261 5.85829 11.999 5.83252C15.4753 5.85824 18.6992 7.65244 20.5533 10.5932C21.1313 11.4423 21.1313 12.5586 20.5533 13.4078Z" fill="#25280B"/>
<path d="M11.9988 16.0211C14.2195 16.0211 16.0196 14.2209 16.0196 12.0003C16.0196 9.77967 14.2195 7.97949 11.9988 7.97949C9.77821 7.97949 7.97803 9.77967 7.97803 12.0003C7.97803 14.2209 9.77821 16.0211 11.9988 16.0211Z" fill="#25280B"/>
</g>
<defs>
<clipPath id="clip0_327_5196">
<rect width="24" height="24" fill="white"/>
</clipPath>
</defs>
</svg>
