<svg width="24" height="24" viewBox="0 0 24 24" fill="none" xmlns="http://www.w3.org/2000/svg">
<g clip-path="url(#clip0_327_5650)">
<path d="M16.9998 23.9997C15.144 23.9973 13.3649 23.2591 12.0526 21.9468C10.7404 20.6346 10.0021 18.8555 9.99976 16.9997C9.99976 15.0727 11.4738 12.4197 14.3788 9.1147C14.7084 8.74576 15.1122 8.45058 15.5638 8.24847C16.0153 8.04637 16.5045 7.94189 16.9993 7.94189C17.494 7.94189 17.9832 8.04637 18.4347 8.24847C18.8863 8.45058 19.2901 8.74576 19.6198 9.1147C22.5258 12.4197 23.9998 15.0727 23.9998 16.9997C23.9974 18.8555 23.2591 20.6346 21.9469 21.9468C20.6346 23.2591 18.8555 23.9973 16.9998 23.9997ZM16.9998 10.9307C16.9301 10.9302 16.8611 10.9448 16.7976 10.9734C16.7341 11.0021 16.6775 11.0441 16.6318 11.0967C13.9538 14.1417 12.9998 16.1427 12.9998 16.9997C12.9998 18.0606 13.4212 19.078 14.1713 19.8281C14.9215 20.5783 15.9389 20.9997 16.9998 20.9997C18.0606 20.9997 19.078 20.5783 19.8282 19.8281C20.5783 19.078 20.9998 18.0606 20.9998 16.9997C20.9998 16.1427 20.0458 14.1417 17.3668 11.0997C17.3215 11.0466 17.2652 11.004 17.2019 10.9748C17.1385 10.9456 17.0695 10.9306 16.9998 10.9307Z" fill="#25280B"/>
<path d="M5.5 12.4826C4.0418 12.481 2.64377 11.901 1.61267 10.8699C0.581561 9.83881 0.00158817 8.44078 0 6.98258C0 6.17458 0.246 4.73958 2.375 1.64158C2.72766 1.1406 3.19561 0.731766 3.73939 0.449552C4.28317 0.167338 4.88685 0.0200195 5.4995 0.0200195C6.11215 0.0200195 6.71583 0.167338 7.25961 0.449552C7.80339 0.731766 8.27134 1.1406 8.624 1.64158C10.754 4.73958 11 6.17458 11 6.98258C10.9984 8.44078 10.4184 9.83881 9.38733 10.8699C8.35623 11.901 6.9582 12.481 5.5 12.4826ZM5.5 2.99958C5.37129 2.9977 5.24414 3.028 5.13011 3.08773C5.01607 3.14745 4.91876 3.23471 4.847 3.34158C3.052 5.95458 3 6.88558 3 6.98258C3 7.64562 3.26339 8.2815 3.73223 8.75035C4.20107 9.21919 4.83696 9.48258 5.5 9.48258C6.16304 9.48258 6.79893 9.21919 7.26777 8.75035C7.73661 8.2815 8 7.64562 8 6.98258C8 6.88258 7.948 5.95458 6.152 3.34058C6.08028 3.23397 5.98309 3.14695 5.86924 3.08741C5.75539 3.02786 5.62847 2.99767 5.5 2.99958Z" fill="#25280B"/>
</g>
<defs>
<clipPath id="clip0_327_5650">
<rect width="24" height="24" fill="white"/>
</clipPath>
</defs>
</svg>
