<svg width="24" height="24" viewBox="0 0 24 24" fill="none" xmlns="http://www.w3.org/2000/svg">
<g clip-path="url(#clip0_327_5428)">
<path d="M23 0.988064C22.6458 0.634754 22.2178 0.364336 21.7466 0.196266C21.2754 0.0281962 20.7728 -0.0333471 20.275 0.0160641C17.577 0.277064 8.49299 1.40606 4.91999 4.97906C3.24221 6.66872 2.22242 8.90161 2.04406 11.2761C1.86569 13.6505 2.54046 16.0107 3.94699 17.9321L0.438992 21.4391C0.157598 21.7205 -0.000488281 22.1021 -0.000488281 22.5001C-0.000488281 22.898 0.157598 23.2797 0.438992 23.5611C0.720387 23.8425 1.10204 24.0005 1.49999 24.0005C1.89794 24.0005 2.2796 23.8425 2.56099 23.5611L6.06799 20.0531C7.98934 21.4596 10.3495 22.1344 12.724 21.956C15.0984 21.7776 17.3313 20.7578 19.021 19.0801C22.644 15.4571 23.737 6.40006 23.985 3.70906C24.0319 3.21093 23.9679 2.70858 23.7976 2.23811C23.6273 1.76764 23.3549 1.34074 23 0.988064ZM16.9 16.9581C15.7748 18.0768 14.3025 18.7795 12.7251 18.9507C11.1477 19.1219 9.55897 18.7514 8.21999 17.9001L16.561 9.56007C16.8424 9.27867 17.0005 8.89702 17.0005 8.49906C17.0005 8.10111 16.8424 7.71946 16.561 7.43807C16.2796 7.15667 15.8979 6.99858 15.5 6.99858C15.102 6.99858 14.7204 7.15667 14.439 7.43807L6.09999 15.7801C5.24869 14.4411 4.8782 12.8524 5.04939 11.2749C5.22058 9.69751 5.92327 8.22524 7.04199 7.10006C9.32199 4.82006 15.751 3.46806 20.565 3.00006C20.6232 2.9938 20.6821 3.00071 20.7374 3.02026C20.7926 3.03982 20.8427 3.07154 20.884 3.11306C20.9266 3.15394 20.9592 3.20406 20.9793 3.25955C20.9994 3.31504 21.0065 3.3744 21 3.43306C20.555 8.22507 19.216 14.6421 16.9 16.9581Z" fill="#25280B"/>
</g>
<defs>
<clipPath id="clip0_327_5428">
<rect width="24" height="24" fill="white"/>
</clipPath>
</defs>
</svg>
