<svg width="24" height="24" viewBox="0 0 24 24" fill="none" xmlns="http://www.w3.org/2000/svg">
<g clip-path="url(#clip0_327_5471)">
<path d="M12.0001 4.4928e-05C10.5534 -0.00371006 9.12042 0.280576 7.78469 0.836328C6.44897 1.39208 5.23724 2.20818 4.22015 3.23704C2.15468 5.32282 0.999493 8.14182 1.00736 11.0772C1.01524 14.0126 2.18552 16.8254 4.26215 18.9L8.00015 22.359C9.06219 23.4053 10.4915 23.9943 11.9823 24.0001C13.4731 24.0059 14.907 23.428 15.9771 22.39L19.7841 18.854C21.8431 16.777 22.9983 13.9707 22.9983 11.046C22.9983 8.1214 21.8431 5.31514 19.7841 3.23804C18.7667 2.20852 17.5543 1.39196 16.2179 0.836015C14.8814 0.280074 13.4476 -0.00411084 12.0001 4.4928e-05ZM17.7001 16.7L13.9001 20.226C13.3829 20.7204 12.6933 20.9937 11.9779 20.9879C11.2624 20.9821 10.5773 20.6977 10.0681 20.195L6.34615 16.736C4.84525 15.2222 4.00313 13.1768 4.00313 11.045C4.00313 8.9133 4.84525 6.86786 6.34615 5.35404C7.08669 4.60809 7.96753 4.01604 8.93791 3.61203C9.90829 3.20801 10.949 3.00001 12.0001 3.00001C13.0513 3.00001 14.092 3.20801 15.0624 3.61203C16.0328 4.01604 16.9136 4.60809 17.6541 5.35404C19.1527 6.85899 19.9978 8.89383 20.0064 11.0176C20.0151 13.1414 19.1864 15.183 17.7001 16.7ZM17.0001 10.128V14C17.0001 14.2653 16.8948 14.5196 16.7073 14.7072C16.5197 14.8947 16.2654 15 16.0001 15H15.0001C14.7349 15 14.4806 14.8947 14.293 14.7072C14.1055 14.5196 14.0001 14.2653 14.0001 14V12C14.0001 11.7348 13.8948 11.4805 13.7073 11.2929C13.5197 11.1054 13.2654 11 13.0001 11H11.0001C10.7349 11 10.4806 11.1054 10.293 11.2929C10.1055 11.4805 10.0001 11.7348 10.0001 12V14C10.0001 14.2653 9.89479 14.5196 9.70726 14.7072C9.51972 14.8947 9.26536 15 9.00015 15H8.00015C7.73493 15 7.48058 14.8947 7.29304 14.7072C7.10551 14.5196 7.00015 14.2653 7.00015 14V10.128C7.0002 9.8051 7.07845 9.48697 7.22821 9.20084C7.37798 8.91472 7.5948 8.66912 7.86015 8.48504L10.8601 6.40304C11.1949 6.17079 11.5927 6.04633 12.0001 6.04633C12.4076 6.04633 12.8054 6.17079 13.1401 6.40304L16.1401 8.48504C16.4055 8.66912 16.6223 8.91472 16.7721 9.20084C16.9219 9.48697 17.0001 9.8051 17.0001 10.128Z" fill="#25280B"/>
</g>
<defs>
<clipPath id="clip0_327_5471">
<rect width="24" height="24" fill="white"/>
</clipPath>
</defs>
</svg>
