<svg width="24" height="24" viewBox="0 0 24 24" fill="none" xmlns="http://www.w3.org/2000/svg">
<g clip-path="url(#clip0_327_5230)">
<path d="M22.3268 18.4218C23.0548 19.4558 23.9998 20.6508 23.9998 21.4998C23.9998 22.1628 23.7364 22.7987 23.2676 23.2675C22.7987 23.7364 22.1629 23.9998 21.4998 23.9998C20.8368 23.9998 20.2009 23.7364 19.7321 23.2675C19.2632 22.7987 18.9998 22.1628 18.9998 21.4998C18.9998 20.7248 19.9608 19.4918 20.6918 18.4308C20.7834 18.2992 20.9053 18.1916 21.0471 18.1171C21.189 18.0425 21.3467 18.0031 21.507 18.0022C21.6673 18.0013 21.8254 18.039 21.9681 18.112C22.1108 18.185 22.2338 18.2913 22.3268 18.4218ZM21.4518 14.5688L13.6318 22.3888C12.5993 23.4182 11.2008 23.9963 9.74283 23.9963C8.28483 23.9963 6.88631 23.4182 5.85383 22.3888L1.61083 18.1458C0.579429 17.1143 0 15.7154 0 14.2568C0 12.7981 0.579429 11.3992 1.61083 10.3678L5.42883 6.54978L2.43883 3.56078C2.15743 3.27938 1.99934 2.89773 1.99934 2.49978C1.99934 2.10183 2.15743 1.72017 2.43883 1.43878C2.72022 1.15738 3.10187 0.999297 3.49983 0.999297C3.89778 0.999297 4.27943 1.15738 4.56083 1.43878L7.54983 4.42878L9.43083 2.54778C9.16998 2.2617 9.02983 1.88585 9.03971 1.49883C9.04959 1.11181 9.20873 0.743602 9.48383 0.471208C9.75894 0.198814 10.1287 0.0433365 10.5158 0.0372924C10.9029 0.0312483 11.2773 0.175106 11.5608 0.438778L23.5608 12.4388C23.8245 12.7223 23.9684 13.0967 23.9623 13.4838C23.9563 13.8709 23.8008 14.2407 23.5284 14.5158C23.256 14.7909 22.8878 14.95 22.5008 14.9599C22.1137 14.9698 21.7379 14.8296 21.4518 14.5688ZM19.3288 12.4498L11.5498 4.67078L9.67083 6.54978L13.5608 10.4388C13.8422 10.7202 14.0003 11.1018 14.0003 11.4998C14.0003 11.8977 13.8422 12.2794 13.5608 12.5608C13.2794 12.8422 12.8978 13.0003 12.4998 13.0003C12.1019 13.0003 11.7202 12.8422 11.4388 12.5608L7.54983 8.67078L3.73183 12.4888C3.49961 12.7209 3.3154 12.9966 3.18972 13.2999C3.06405 13.6033 2.99936 13.9284 2.99936 14.2568C2.99936 14.5851 3.06405 14.9103 3.18972 15.2136C3.3154 15.517 3.49961 15.7926 3.73183 16.0248L7.97483 20.2678C8.20698 20.5 8.48261 20.6842 8.78596 20.8099C9.08932 20.9356 9.41446 21.0002 9.74283 21.0002C10.0712 21.0002 10.3963 20.9356 10.6997 20.8099C11.003 20.6842 11.2787 20.5 11.5108 20.2678L19.3288 12.4498Z" fill="#25280B"/>
</g>
<defs>
<clipPath id="clip0_327_5230">
<rect width="24" height="24" fill="white"/>
</clipPath>
</defs>
</svg>
