<svg width="24" height="24" viewBox="0 0 24 24" fill="none" xmlns="http://www.w3.org/2000/svg">
<path d="M23.0001 19.0928V16.0008C22.9957 13.3458 22.0317 10.7818 20.2859 8.78151C18.5401 6.78118 16.1301 5.4793 13.5001 5.11579V4.31079C13.7529 4.02248 13.9173 3.66743 13.9735 3.28813C14.0298 2.90882 13.9755 2.52135 13.8173 2.17208C13.659 1.82282 13.4034 1.52656 13.0812 1.31878C12.7589 1.11099 12.3836 1.00049 12.0001 1.00049C11.6167 1.00049 11.2413 1.11099 10.9191 1.31878C10.5968 1.52656 10.3412 1.82282 10.183 2.17208C10.0247 2.52135 9.97045 2.90882 10.0267 3.28813C10.0829 3.66743 10.2473 4.02248 10.5001 4.31079V5.11579C7.8701 5.4793 5.4601 6.78118 3.71429 8.78151C1.96849 10.7818 1.00454 13.3458 1.00012 16.0008V19.0928C0.670777 19.2137 0.39424 19.4462 0.218601 19.7499C0.0429629 20.0536 -0.0206646 20.4093 0.0387854 20.7551C0.0982353 21.1008 0.277001 21.4148 0.543991 21.6424C0.810982 21.87 1.1493 21.9968 1.50012 22.0008H22.5001C22.8509 21.9968 23.1892 21.87 23.4562 21.6424C23.7232 21.4148 23.902 21.1008 23.9614 20.7551C24.0209 20.4093 23.9573 20.0536 23.7816 19.7499C23.606 19.4462 23.3295 19.2137 23.0001 19.0928ZM12.0001 8.00079C14.1211 8.00317 16.1546 8.84679 17.6543 10.3466C19.1541 11.8463 19.9977 13.8798 20.0001 16.0008V19.0008H4.00012V16.0008C4.0025 13.8798 4.84612 11.8463 6.34589 10.3466C7.84567 8.84679 9.87911 8.00317 12.0001 8.00079Z" fill="#25280B"/>
</svg>
