<svg width="24" height="24" viewBox="0 0 24 24" fill="none" xmlns="http://www.w3.org/2000/svg">
<g clip-path="url(#clip0_327_5332)">
<path d="M1.44278 21.8239C1.8428 22.5276 2.43254 23.1048 3.14474 23.4895C3.85694 23.8742 4.66292 24.0511 5.47078 23.9999H18.5288C19.3366 24.0511 20.1426 23.8742 20.8548 23.4895C21.567 23.1048 22.1568 22.5276 22.5568 21.8239C22.9066 21.0842 23.0474 20.2629 22.9641 19.4489C22.8807 18.635 22.5763 17.8593 22.0838 17.2059L13.8438 5.34289C14.3323 4.95935 14.689 4.43303 14.8643 3.83722C15.0397 3.24141 15.0248 2.60576 14.8219 2.01877C14.619 1.43178 14.2381 0.922667 13.7323 0.562313C13.2265 0.201959 12.6208 0.00830078 11.9998 0.00830078C11.3787 0.00830078 10.7731 0.201959 10.2673 0.562313C9.76142 0.922667 9.38053 1.43178 9.17763 2.01877C8.97472 2.60576 8.9599 3.24141 9.13522 3.83722C9.31054 4.43303 9.66729 4.95935 10.1558 5.34289L1.91678 17.2059C1.42391 17.8591 1.1192 18.6347 1.03564 19.4488C0.952091 20.2628 1.09289 21.0842 1.44278 21.8239ZM16.9538 15.0789L12.8418 20.9999H9.44178L15.2558 12.6309L16.9538 15.0789ZM19.8998 20.4339C19.6428 20.9259 18.9318 20.9999 18.5308 20.9999H16.4998L18.7858 17.7089L19.6248 18.9169C19.8003 19.123 19.9182 19.3719 19.9665 19.6384C20.0148 19.9048 19.9918 20.1792 19.8998 20.4339ZM4.38078 18.9169L11.9998 7.94789L13.4258 9.99989L5.78478 20.9999H5.47078C5.07078 20.9999 4.35878 20.9259 4.10178 20.4339C4.01007 20.1789 3.98758 19.9042 4.03659 19.6377C4.0856 19.3713 4.20436 19.1225 4.38078 18.9169Z" fill="#25280B"/>
</g>
<defs>
<clipPath id="clip0_327_5332">
<rect width="24" height="24" fill="white"/>
</clipPath>
</defs>
</svg>
