<svg width="24" height="24" viewBox="0 0 24 24" fill="none" xmlns="http://www.w3.org/2000/svg">
<g clip-path="url(#clip0_327_5714)">
<path d="M19 13.9994C18.3497 14 17.7058 14.1284 17.105 14.3774L13.947 10.5624L20.655 2.45637C20.7824 2.30491 20.8786 2.12973 20.938 1.94093C20.9974 1.75212 21.0189 1.55343 21.0011 1.3563C20.9834 1.15917 20.9268 0.967498 20.8347 0.792333C20.7425 0.617167 20.6166 0.461972 20.4642 0.33569C20.3118 0.209409 20.1359 0.11454 19.9466 0.056549C19.7574 -0.00144152 19.5586 -0.0214062 19.3616 -0.00219425C19.1646 0.0170176 18.9733 0.0750262 18.7989 0.168488C18.6244 0.26195 18.4701 0.389017 18.345 0.542366L12 8.20937L5.656 0.542366C5.40219 0.235776 5.03698 0.0425694 4.64071 0.00524961C4.24445 -0.0320701 3.84959 0.0895541 3.543 0.343366C3.23641 0.597178 3.0432 0.962388 3.00588 1.35865C2.96856 1.75492 3.09019 2.14978 3.344 2.45637L10.053 10.5614L6.9 14.3774C5.78731 13.9146 4.54562 13.866 3.40013 14.2402C2.25464 14.6145 1.2812 15.3868 0.656347 16.4173C0.0314955 17.4477 -0.203386 18.6679 -0.00569981 19.8567C0.191986 21.0454 0.809148 22.124 1.73386 22.8967C2.65857 23.6694 3.82959 24.0852 5.03456 24.0686C6.23952 24.0519 7.39863 23.604 8.30167 22.8061C9.20471 22.0081 9.79188 20.913 9.95669 19.7192C10.1215 18.5255 9.85304 17.3122 9.2 16.2994L12 12.9144L14.8 16.2994C14.202 17.2332 13.932 18.3396 14.0325 19.4439C14.133 20.5483 14.5984 21.5877 15.3552 22.3982C16.112 23.2087 17.1171 23.7442 18.2119 23.9201C19.3068 24.0961 20.4291 23.9025 21.4017 23.3698C22.3743 22.8372 23.1419 21.9959 23.5833 20.9787C24.0248 19.9614 24.115 18.8261 23.8396 17.752C23.5643 16.6778 22.9392 15.7258 22.0629 15.0464C21.1865 14.3669 20.1089 13.9985 19 13.9994ZM5 20.9994C4.60444 20.9994 4.21776 20.8821 3.88886 20.6623C3.55996 20.4425 3.30362 20.1302 3.15224 19.7647C3.00086 19.3993 2.96126 18.9972 3.03843 18.6092C3.1156 18.2212 3.30608 17.8649 3.58579 17.5852C3.86549 17.3055 4.22186 17.115 4.60982 17.0378C4.99778 16.9606 5.39991 17.0002 5.76537 17.1516C6.13082 17.303 6.44318 17.5593 6.66294 17.8882C6.8827 18.2171 7 18.6038 7 18.9994C7 19.5298 6.78929 20.0385 6.41421 20.4136C6.03914 20.7887 5.53043 20.9994 5 20.9994ZM19 20.9994C18.6044 20.9994 18.2178 20.8821 17.8889 20.6623C17.56 20.4425 17.3036 20.1302 17.1522 19.7647C17.0009 19.3993 16.9613 18.9972 17.0384 18.6092C17.1156 18.2212 17.3061 17.8649 17.5858 17.5852C17.8655 17.3055 18.2219 17.115 18.6098 17.0378C18.9978 16.9606 19.3999 17.0002 19.7654 17.1516C20.1308 17.303 20.4432 17.5593 20.6629 17.8882C20.8827 18.2171 21 18.6038 21 18.9994C21 19.5298 20.7893 20.0385 20.4142 20.4136C20.0391 20.7887 19.5304 20.9994 19 20.9994Z" fill="#25280B"/>
</g>
<defs>
<clipPath id="clip0_327_5714">
<rect width="24" height="24" fill="white"/>
</clipPath>
</defs>
</svg>
