<svg width="24" height="24" viewBox="0 0 24 24" fill="none" xmlns="http://www.w3.org/2000/svg">
<g clip-path="url(#clip0_327_6025)">
<path d="M19.9998 7.99973C20.0005 6.4815 19.5693 4.9944 18.7564 3.71214C17.9435 2.42988 16.7825 1.40541 15.409 0.758412C14.0355 0.111411 12.5063 -0.131406 11 0.0583252C9.49368 0.248057 8.07244 0.862503 6.90232 1.82988C5.7322 2.79727 4.86151 4.07764 4.39197 5.52143C3.92242 6.96522 3.87341 8.51282 4.25065 9.98343C4.6279 11.454 5.41583 12.7869 6.52239 13.8264C7.62895 14.8659 9.00846 15.5691 10.4998 15.8537V17.9997H8.99976C8.60193 17.9997 8.2204 18.1578 7.93909 18.4391C7.65779 18.7204 7.49976 19.1019 7.49976 19.4997C7.49976 19.8976 7.65779 20.2791 7.93909 20.5604C8.2204 20.8417 8.60193 20.9997 8.99976 20.9997H10.4998V22.4997C10.4998 22.8976 10.6578 23.2791 10.9391 23.5604C11.2204 23.8417 11.6019 23.9997 11.9998 23.9997C12.3976 23.9997 12.7791 23.8417 13.0604 23.5604C13.3417 23.2791 13.4998 22.8976 13.4998 22.4997V20.9997H14.9998C15.3976 20.9997 15.7791 20.8417 16.0604 20.5604C16.3417 20.2791 16.4998 19.8976 16.4998 19.4997C16.4998 19.1019 16.3417 18.7204 16.0604 18.4391C15.7791 18.1578 15.3976 17.9997 14.9998 17.9997H13.4998V15.8537C15.3266 15.503 16.9745 14.5274 18.1606 13.0943C19.3466 11.6612 19.9969 9.85997 19.9998 7.99973ZM6.99976 7.99973C6.99976 7.01082 7.293 6.04412 7.84241 5.22188C8.39181 4.39963 9.17271 3.75877 10.0863 3.38033C11 3.00189 12.0053 2.90287 12.9752 3.0958C13.9451 3.28873 14.836 3.76493 15.5353 4.46419C16.2346 5.16346 16.7108 6.05437 16.9037 7.02428C17.0966 7.99418 16.9976 8.99951 16.6192 9.91315C16.2407 10.8268 15.5999 11.6077 14.7776 12.1571C13.9554 12.7065 12.9887 12.9997 11.9998 12.9997C10.6742 12.9981 9.40331 12.4708 8.46598 11.5335C7.52864 10.5962 7.00134 9.32532 6.99976 7.99973Z" fill="#25280B"/>
</g>
<defs>
<clipPath id="clip0_327_6025">
<rect width="24" height="24" fill="white"/>
</clipPath>
</defs>
</svg>
