<svg width="24" height="24" viewBox="0 0 24 24" fill="none" xmlns="http://www.w3.org/2000/svg">
<g clip-path="url(#clip0_327_5670)">
<path d="M16.3 15.0071C16.5813 15.2883 16.9628 15.4462 17.3605 15.4462C17.7582 15.4462 18.1397 15.2883 18.421 15.0071L23.147 10.2821C23.6959 9.73201 24.0042 8.98666 24.0042 8.20957C24.0042 7.43248 23.6959 6.68712 23.147 6.13707L18.416 1.41207C18.2795 1.26111 18.1138 1.1395 17.9288 1.05464C17.7439 0.969773 17.5436 0.923428 17.3402 0.918423C17.1367 0.913417 16.9344 0.949857 16.7455 1.02552C16.5566 1.10119 16.3851 1.2145 16.2414 1.35856C16.0976 1.50262 15.9847 1.67442 15.9095 1.8635C15.8343 2.05258 15.7983 2.25498 15.8038 2.4584C15.8093 2.66182 15.8561 2.862 15.9414 3.04675C16.0267 3.2315 16.1487 3.39696 16.3 3.53307L19.532 6.70007H5.319C3.90888 6.70192 2.55705 7.26291 1.55994 8.26001C0.56284 9.25712 0.00185211 10.6089 0 12.0191L0 18.7001C0.00158806 20.11 0.562386 21.4617 1.55936 22.4587C2.55633 23.4557 3.90807 24.0165 5.318 24.0181H18.682C19.0798 24.0181 19.4614 23.86 19.7427 23.5787C20.024 23.2974 20.182 22.9159 20.182 22.5181C20.182 22.1202 20.024 21.7387 19.7427 21.4574C19.4614 21.1761 19.0798 21.0181 18.682 21.0181H5.318C4.70347 21.0173 4.11434 20.7728 3.6798 20.3383C3.24527 19.9037 3.00079 19.3146 3 18.7001V12.0191C3.00053 11.4042 3.24502 10.8147 3.6798 10.3799C4.11459 9.94509 4.70413 9.7006 5.319 9.70007H19.478L16.3 12.8861C16.0188 13.1674 15.8608 13.5488 15.8608 13.9466C15.8608 14.3443 16.0188 14.7258 16.3 15.0071Z" fill="#25280B"/>
</g>
<defs>
<clipPath id="clip0_327_5670">
<rect width="24" height="24" fill="white"/>
</clipPath>
</defs>
</svg>
