<svg width="24" height="24" viewBox="0 0 24 24" fill="none" xmlns="http://www.w3.org/2000/svg">
<g clip-path="url(#clip0_327_5894)">
<path d="M1.49993 24.0082C1.69708 24.0086 1.89235 23.9699 2.07446 23.8944C2.25658 23.8189 2.42192 23.708 2.56093 23.5682L8.51093 17.6142L9.23893 18.3672C10.2062 19.3826 11.537 19.9725 12.9389 20.0072C13.4215 20.0081 13.9007 19.9266 14.3559 19.7662C15.063 19.5168 15.684 19.0704 16.1457 18.4797C16.6074 17.889 16.8906 17.1785 16.9619 16.4322C17.0661 15.4473 16.994 14.4518 16.7489 13.4922L16.7069 13.2922L20.0949 9.90519L20.5469 10.3582C20.8795 10.7076 21.3248 10.9285 21.8042 10.9819C22.2837 11.0353 22.7666 10.9179 23.1679 10.6502C23.403 10.4823 23.5987 10.2652 23.7415 10.0141C23.8843 9.763 23.9708 9.48383 23.995 9.19596C24.0191 8.90809 23.9804 8.61841 23.8815 8.347C23.7825 8.07559 23.6257 7.82896 23.4219 7.6242L16.4549 0.641195C16.1223 0.291768 15.6771 0.0708997 15.1976 0.0174853C14.7182 -0.035929 14.2353 0.081536 13.8339 0.349195C13.5989 0.517124 13.4031 0.734169 13.2603 0.985282C13.1175 1.23639 13.031 1.51556 13.0069 1.80343C12.9827 2.0913 13.0214 2.38098 13.1204 2.65239C13.2194 2.92379 13.3762 3.17043 13.5799 3.37519L14.0999 3.90019L10.7199 7.2812C9.73892 7.02412 8.7194 6.94721 7.71093 7.05419C6.93259 7.13424 6.19341 7.43533 5.58067 7.9219C4.96793 8.40848 4.50722 9.06023 4.25293 9.80019C3.97863 10.5541 3.92485 11.3705 4.09789 12.1538C4.27092 12.9372 4.6636 13.655 5.22993 14.2232L6.42993 15.4592L0.438925 21.4482C0.229352 21.658 0.0866829 21.9253 0.0289461 22.2162C-0.0287907 22.5071 0.000996292 22.8085 0.114543 23.0825C0.22809 23.3565 0.4203 23.5906 0.666884 23.7554C0.913468 23.9202 1.20336 24.0081 1.49993 24.0082ZM7.08093 10.8002C7.14745 10.5957 7.27184 10.4149 7.43903 10.2796C7.60622 10.1444 7.80904 10.0605 8.02293 10.0382C8.6783 9.96959 9.34069 10.0204 9.97793 10.1882L10.8069 10.3992C11.0591 10.4634 11.3235 10.461 11.5744 10.3921C11.8253 10.3232 12.054 10.1902 12.2379 10.0062L16.2199 6.02219L17.9739 7.7822L14.0099 11.7472C13.8336 11.9236 13.7041 12.1411 13.633 12.3801C13.562 12.6192 13.5516 12.8722 13.6029 13.1162L13.8279 14.1792C13.9937 14.8123 14.0439 15.4702 13.9759 16.1212C13.9665 16.3046 13.9017 16.4808 13.7901 16.6266C13.6785 16.7724 13.5254 16.8811 13.3509 16.9382C12.9919 17.0226 12.6163 17.0041 12.2673 16.8847C11.9183 16.7653 11.61 16.5499 11.3779 16.2632L7.36993 12.1182C7.20092 11.949 7.0839 11.735 7.03268 11.5015C6.98147 11.2679 6.99821 11.0245 7.08093 10.8002Z" fill="#25280B"/>
</g>
<defs>
<clipPath id="clip0_327_5894">
<rect width="24" height="24" fill="white"/>
</clipPath>
</defs>
</svg>
