<svg width="24" height="24" viewBox="0 0 24 24" fill="none" xmlns="http://www.w3.org/2000/svg">
<g clip-path="url(#clip0_327_4792)">
<path d="M15.3411 6.00012H14.9921C15.9406 5.68467 16.8096 5.16748 17.5391 4.48412C18.3746 3.55263 18.8845 2.37475 18.9921 1.12812C19.0117 0.976377 18.9963 0.82216 18.9469 0.677334C18.8976 0.532509 18.8157 0.400937 18.7075 0.292749C18.5993 0.18456 18.4677 0.10264 18.3229 0.0532936C18.1781 0.00394727 18.0238 -0.0115089 17.8721 0.00811503C16.6255 0.115681 15.4476 0.625647 14.5161 1.46112C13.8194 2.24477 13.3626 3.21218 13.2001 4.24812C12.9353 2.97733 12.4438 1.76463 11.7491 0.668115C11.5284 0.336594 11.1851 0.106309 10.7947 0.0279187C10.4042 -0.0504715 9.99862 0.0294549 9.6671 0.250115C9.33558 0.470775 9.10529 0.814094 9.0269 1.20454C8.94851 1.595 9.02844 2.00059 9.2491 2.33212C9.9349 3.44205 10.3463 4.69946 10.4491 6.00012H8.6591C6.31857 6.04898 4.09286 7.02373 2.46976 8.71075C0.846661 10.3978 -0.0414366 12.6594 9.78229e-05 15.0001C-0.193902 20.6551 5.9331 25.8771 11.0741 23.3201C11.3554 23.1081 11.6988 22.9949 12.051 22.998C12.4032 23.0011 12.7445 23.1203 13.0221 23.3371C18.1381 25.8821 24.1811 20.5781 24.0001 15.0001C24.0416 12.6594 23.1535 10.3978 21.5304 8.71075C19.9073 7.02373 17.6816 6.04898 15.3411 6.00012ZM15.3411 21.0001C15.0129 20.9799 14.6963 20.8711 14.4251 20.6851C13.6916 20.2464 12.8548 20.01 12.0001 20.0001C11.1871 20.0175 10.3923 20.2438 9.6921 20.6571C9.38464 20.8618 9.02791 20.9802 8.6591 21.0001C1.1821 20.7541 1.1851 9.24412 8.6591 9.00012H15.3411C22.8201 9.24712 22.8141 20.7561 15.3411 21.0001Z" fill="#25280B"/>
</g>
<defs>
<clipPath id="clip0_327_4792">
<rect width="24" height="24" fill="white"/>
</clipPath>
</defs>
</svg>
