<svg width="24" height="24" viewBox="0 0 24 24" fill="none" xmlns="http://www.w3.org/2000/svg">
<g clip-path="url(#clip0_327_5831)">
<path d="M12 24.0002C11.2447 24.0062 10.5066 23.7751 9.88952 23.3395C9.27243 22.904 8.80745 22.2859 8.56003 21.5722C8.52968 21.486 8.48136 21.4071 8.41826 21.3409C8.35517 21.2747 8.27874 21.2227 8.19403 21.1882C8.1101 21.1522 8.0194 21.1348 7.92811 21.137C7.83682 21.1393 7.74708 21.1612 7.66503 21.2012C6.98404 21.5245 6.2197 21.6292 5.47688 21.5008C4.73406 21.3724 4.04917 21.0173 3.51618 20.4842C2.9832 19.9511 2.62824 19.2662 2.50002 18.5233C2.3718 17.7805 2.47659 17.0162 2.80003 16.3353C2.83984 16.2525 2.86178 16.1623 2.86441 16.0705C2.86705 15.9787 2.85032 15.8874 2.81532 15.8025C2.78032 15.7176 2.72784 15.641 2.66128 15.5777C2.59473 15.5145 2.51559 15.4659 2.42903 15.4353C1.71871 15.1827 1.104 14.7164 0.669296 14.1005C0.234594 13.4845 0.0012207 12.7491 0.0012207 11.9953C0.0012207 11.2414 0.234594 10.506 0.669296 9.89004C1.104 9.2741 1.71871 8.80784 2.42903 8.55526C2.51541 8.52437 2.59433 8.47567 2.66069 8.41233C2.72705 8.34899 2.77937 8.27242 2.81425 8.18758C2.84913 8.10273 2.8658 8.0115 2.86318 7.9198C2.86055 7.8281 2.8387 7.73798 2.79903 7.65526C2.47916 6.97464 2.3772 6.21187 2.5071 5.47113C2.637 4.73039 2.99241 4.04782 3.52478 3.51665C4.05715 2.98548 4.74053 2.63162 5.48156 2.5034C6.22259 2.37518 6.98513 2.47886 7.66503 2.80027C7.74778 2.84008 7.83799 2.86202 7.92978 2.86465C8.02158 2.86729 8.1129 2.85056 8.1978 2.81556C8.2827 2.78057 8.35928 2.72808 8.42255 2.66152C8.48582 2.59497 8.53437 2.51583 8.56503 2.42927C8.8176 1.71895 9.28387 1.10424 9.89981 0.66954C10.5157 0.234838 11.2511 0.00146484 12.005 0.00146484C12.7589 0.00146484 13.4943 0.234838 14.1103 0.66954C14.7262 1.10424 15.1925 1.71895 15.445 2.42927C15.4757 2.51583 15.5242 2.59497 15.5875 2.66152C15.6508 2.72808 15.7274 2.78057 15.8123 2.81556C15.8972 2.85056 15.9885 2.86729 16.0803 2.86465C16.1721 2.86202 16.2623 2.84008 16.345 2.80027C17.0255 2.4806 17.7881 2.37876 18.5287 2.50865C19.2693 2.63855 19.9517 2.99385 20.4828 3.52604C21.0139 4.05823 21.3678 4.74138 21.4961 5.4822C21.6245 6.22302 21.5211 6.9854 21.2 7.66526C21.1599 7.74796 21.1377 7.83822 21.1349 7.9301C21.1321 8.02199 21.1488 8.11343 21.1838 8.19842C21.2188 8.2834 21.2715 8.36002 21.3382 8.42325C21.4049 8.48647 21.4843 8.53487 21.571 8.56526C22.2813 8.81783 22.8961 9.2841 23.3308 9.90004C23.7655 10.516 23.9988 11.2514 23.9988 12.0053C23.9988 12.7591 23.7655 13.4945 23.3308 14.1105C22.8961 14.7264 22.2813 15.1927 21.571 15.4453C21.4843 15.4756 21.4049 15.524 21.3382 15.5873C21.2715 15.6505 21.2188 15.7271 21.1838 15.8121C21.1488 15.8971 21.1321 15.9885 21.1349 16.0804C21.1377 16.1723 21.1599 16.2626 21.2 16.3453C21.5197 17.0258 21.6215 17.7884 21.4916 18.5289C21.3617 19.2695 21.0064 19.9519 20.4743 20.483C19.9421 21.0141 19.2589 21.368 18.5181 21.4964C17.7773 21.6247 17.0149 21.5213 16.335 21.2002C16.2526 21.1615 16.163 21.1403 16.0719 21.138C15.9808 21.1358 15.8903 21.1526 15.806 21.1872C15.7213 21.2217 15.6449 21.2737 15.5818 21.3399C15.5187 21.4061 15.4704 21.485 15.44 21.5712C15.1926 22.285 14.7277 22.9032 14.1106 23.3389C13.4936 23.7746 12.7554 24.0059 12 24.0002ZM7.94503 18.1393C8.69902 18.1388 9.43464 18.3719 10.0508 18.8065C10.6669 19.2411 11.1334 19.8558 11.386 20.5662C11.4262 20.6961 11.5082 20.8091 11.6193 20.8876C11.7303 20.9661 11.8642 21.0057 12 21.0002C12.1359 21.0057 12.2697 20.9661 12.3808 20.8876C12.4918 20.8091 12.5738 20.6961 12.614 20.5662C12.7854 20.0848 13.0559 19.6447 13.408 19.2743C13.7601 18.904 14.1861 18.6116 14.6582 18.4161C15.1304 18.2207 15.6383 18.1264 16.1492 18.1396C16.6601 18.1527 17.1625 18.2728 17.624 18.4923C17.7455 18.5496 17.8818 18.5681 18.0141 18.5451C18.1465 18.5221 18.2685 18.4587 18.3635 18.3637C18.4585 18.2687 18.5218 18.1467 18.5448 18.0143C18.5679 17.882 18.5494 17.7457 18.492 17.6243C18.2726 17.1627 18.1524 16.6603 18.1393 16.1494C18.1262 15.6386 18.2204 15.1306 18.4159 14.6585C18.6114 14.1863 18.9037 13.7604 19.2741 13.4083C19.6445 13.0561 20.0846 12.7856 20.566 12.6143C20.6931 12.5695 20.8032 12.4864 20.881 12.3764C20.9589 12.2664 21.0007 12.135 21.0007 12.0003C21.0007 11.8655 20.9589 11.7341 20.881 11.6241C20.8032 11.5141 20.6931 11.431 20.566 11.3863C20.0846 11.2149 19.6445 10.9444 19.2741 10.5923C18.9037 10.2401 18.6114 9.81424 18.4159 9.34206C18.2204 8.86989 18.1262 8.36195 18.1393 7.85109C18.1524 7.34022 18.2726 6.83779 18.492 6.37626C18.5494 6.25478 18.5679 6.11854 18.5448 5.98618C18.5218 5.85381 18.4585 5.73178 18.3635 5.63678C18.2685 5.54178 18.1465 5.47845 18.0141 5.45544C17.8818 5.43244 17.7455 5.45089 17.624 5.50827C17.1625 5.7277 16.6601 5.84785 16.1492 5.86096C15.6383 5.87408 15.1304 5.77985 14.6582 5.58439C14.1861 5.38892 13.7601 5.09656 13.408 4.72619C13.0559 4.35583 12.7854 3.91571 12.614 3.43427C12.5693 3.30718 12.4861 3.19713 12.3762 3.11927C12.2662 3.04142 12.1348 2.99961 12 2.99961C11.8653 2.99961 11.7339 3.04142 11.6239 3.11927C11.5139 3.19713 11.4308 3.30718 11.386 3.43427C11.2148 3.91567 10.9444 4.35578 10.5923 4.72614C10.2403 5.0965 9.8145 5.38886 9.3424 5.58434C8.8703 5.77981 8.36244 5.87404 7.85164 5.86094C7.34085 5.84783 6.83848 5.72769 6.37703 5.50827C6.25551 5.45055 6.11911 5.43183 5.98654 5.45468C5.85396 5.47753 5.7317 5.54083 5.63652 5.63591C5.54134 5.73098 5.4779 5.85317 5.45489 5.98571C5.43189 6.11826 5.45045 6.25468 5.50803 6.37626C5.72732 6.83775 5.8474 7.3401 5.8605 7.85087C5.8736 8.36164 5.77943 8.86948 5.58408 9.3416C5.38873 9.81372 5.09653 10.2396 4.72637 10.5918C4.3562 10.944 3.91628 11.2146 3.43503 11.3863C3.30794 11.431 3.19789 11.5141 3.12003 11.6241C3.04218 11.7341 3.00037 11.8655 3.00037 12.0003C3.00037 12.135 3.04218 12.2664 3.12003 12.3764C3.19789 12.4864 3.30794 12.5695 3.43503 12.6143C3.91647 12.7856 4.35659 13.0561 4.72696 13.4083C5.09732 13.7604 5.38968 14.1863 5.58515 14.6585C5.78062 15.1306 5.87484 15.6386 5.86173 16.1494C5.84862 16.6603 5.72846 17.1627 5.50903 17.6243C5.45145 17.7458 5.43289 17.8823 5.45589 18.0148C5.4789 18.1474 5.54234 18.2695 5.63752 18.3646C5.7327 18.4597 5.85496 18.523 5.98754 18.5458C6.12011 18.5687 6.25651 18.55 6.37803 18.4923C6.86772 18.2598 7.40298 18.1393 7.94503 18.1393Z" fill="#25280B"/>
</g>
<defs>
<clipPath id="clip0_327_5831">
<rect width="24" height="24" fill="white"/>
</clipPath>
</defs>
</svg>
