<svg width="24" height="24" viewBox="0 0 24 24" fill="none" xmlns="http://www.w3.org/2000/svg">
<g clip-path="url(#clip0_327_5939)">
<path d="M15 15.6255C15 14.4983 14.5522 13.4173 13.7552 12.6203C12.9582 11.8233 11.8772 11.3755 10.75 11.3755C9.62283 11.3755 8.54183 11.8233 7.7448 12.6203C6.94777 13.4173 6.5 14.4983 6.5 15.6255C6.5 16.0233 6.65804 16.4048 6.93934 16.6861C7.22064 16.9675 7.60218 17.1255 8 17.1255C8.39782 17.1255 8.77936 16.9675 9.06066 16.6861C9.34196 16.4048 9.5 16.0233 9.5 15.6255C9.5 15.294 9.6317 14.976 9.86612 14.7416C10.1005 14.5072 10.4185 14.3755 10.75 14.3755C11.0815 14.3755 11.3995 14.5072 11.6339 14.7416C11.8683 14.976 12 15.294 12 15.6255C12 16.2505 10.808 17.1445 9.85 17.8625C8.28 19.0405 6.5 20.3755 6.5 22.5005C6.5 22.8983 6.65804 23.2798 6.93934 23.5611C7.22064 23.8425 7.60218 24.0005 8 24.0005H13.5C13.8978 24.0005 14.2794 23.8425 14.5607 23.5611C14.842 23.2798 15 22.8983 15 22.5005C15 22.1027 14.842 21.7211 14.5607 21.4398C14.2794 21.1585 13.8978 21.0005 13.5 21.0005H10.7C11.01 20.7465 11.345 20.5005 11.655 20.2635C13.22 19.0855 15 17.7505 15 15.6255Z" fill="#25280B"/>
<path d="M22.5 11.0005C22.1022 11.0005 21.7206 11.1585 21.4393 11.4398C21.158 11.7211 21 12.1027 21 12.5005V17.0005H20.25C19.9186 17 19.601 16.8681 19.3667 16.6338C19.1324 16.3995 19.0005 16.0818 19 15.7505V12.5005C19 12.1027 18.842 11.7211 18.5607 11.4398C18.2794 11.1585 17.8978 11.0005 17.5 11.0005C17.1022 11.0005 16.7206 11.1585 16.4393 11.4398C16.158 11.7211 16 12.1027 16 12.5005V15.7505C16.0013 16.8773 16.4495 17.9575 17.2463 18.7542C18.043 19.551 19.1232 19.9992 20.25 20.0005H21V22.5005C21 22.8983 21.158 23.2798 21.4393 23.5611C21.7206 23.8425 22.1022 24.0005 22.5 24.0005C22.8978 24.0005 23.2793 23.8425 23.5606 23.5611C23.8419 23.2798 24 22.8983 24 22.5005V12.5005C24 12.1027 23.8419 11.7211 23.5606 11.4398C23.2793 11.1585 22.8978 11.0005 22.5 11.0005Z" fill="#25280B"/>
<path d="M22.2929 2.7075L20.9699 4.0305C19.0081 1.82262 16.3011 0.415758 13.3668 0.0791805C10.4326 -0.257397 7.47724 0.499956 5.06652 2.20628C2.6558 3.9126 0.959019 6.44804 0.30095 9.32728C-0.357119 12.2065 0.0697508 15.2273 1.49985 17.8115C1.59539 17.9838 1.72393 18.1356 1.87813 18.2582C2.03232 18.3808 2.20917 18.4719 2.39855 18.5261C2.58794 18.5804 2.78616 18.5969 2.9819 18.5745C3.17764 18.5522 3.36706 18.4915 3.53935 18.396C3.71165 18.3005 3.86344 18.1719 3.98606 18.0177C4.10868 17.8635 4.19972 17.6867 4.254 17.4973C4.30827 17.3079 4.32472 17.1097 4.30239 16.914C4.28006 16.7182 4.21939 16.5288 4.12385 16.3565C3.04282 14.4062 2.725 12.1238 3.2321 9.95232C3.73921 7.78087 5.03505 5.87529 6.86808 4.6055C8.70111 3.33572 10.9406 2.79231 13.1517 3.08076C15.3628 3.36922 17.3879 4.46895 18.8339 6.1665L17.7069 7.2935C17.567 7.43335 17.4718 7.61151 17.4333 7.80546C17.3947 7.99942 17.4145 8.20045 17.4902 8.38315C17.5658 8.56585 17.694 8.72201 17.8584 8.8319C18.0228 8.94178 18.2161 9.00045 18.4139 9.0005H22.9999C23.2651 9.0005 23.5194 8.89514 23.707 8.7076C23.8945 8.52007 23.9999 8.26571 23.9999 8.0005V3.4145C23.9998 3.21675 23.9411 3.02345 23.8313 2.85904C23.7214 2.69463 23.5652 2.56649 23.3825 2.49082C23.1998 2.41515 22.9988 2.39535 22.8048 2.43391C22.6109 2.47248 22.4327 2.56769 22.2929 2.7075Z" fill="#25280B"/>
</g>
<defs>
<clipPath id="clip0_327_5939">
<rect width="24" height="24" fill="white"/>
</clipPath>
</defs>
</svg>
