<svg width="24" height="24" viewBox="0 0 24 24" fill="none" xmlns="http://www.w3.org/2000/svg">
<g clip-path="url(#clip0_327_5608)">
<path d="M23.0719 0.928844C22.6434 0.497872 22.0992 0.200382 21.5052 0.0724124C20.9111 -0.0555569 20.2927 -0.0085132 19.7249 0.207844L3.35386 6.65284C2.1622 7.12567 1.18231 8.01442 0.595769 9.15442C0.00922298 10.2944 -0.144224 11.6084 0.163858 12.8528C0.883404 15.4792 2.27429 17.873 4.19968 19.7988C6.12506 21.7245 8.51862 23.1158 11.1449 23.8358C12.3912 24.1436 13.7069 23.9888 14.8479 23.4004C15.989 22.812 16.8779 21.8297 17.3499 20.6358L23.8069 4.23584C24.0151 3.67228 24.0565 3.06064 23.9262 2.47415C23.7958 1.88765 23.4992 1.35114 23.0719 0.928844ZM19.3599 7.34384C18.9892 7.15658 18.5835 7.04871 18.1688 7.02715C17.7541 7.00559 17.3394 7.07081 16.9513 7.21862C16.5632 7.36644 16.2103 7.59362 15.915 7.88562C15.6197 8.17762 15.3886 8.52803 15.2364 8.91443C15.0842 9.30084 15.0144 9.71475 15.0313 10.1297C15.0482 10.5446 15.1515 10.9515 15.3346 11.3242C15.5177 11.697 15.7766 12.0274 16.0947 12.2944C16.4127 12.5614 16.783 12.7591 17.1819 12.8748L14.5619 19.5288C14.495 19.6908 14.4101 19.8448 14.3089 19.9878C9.23286 19.8618 4.13586 14.7648 4.00886 9.68784C4.14926 9.58885 4.30018 9.50568 4.45886 9.43984L20.7869 3.01384C20.8142 3.00007 20.8454 2.99614 20.8753 3.00269C20.9051 3.00925 20.9318 3.0259 20.9509 3.04984C20.9695 3.06464 20.9839 3.08406 20.9927 3.10617C21.0014 3.12828 21.0043 3.1523 21.0009 3.17584L19.3599 7.34384ZM11.9999 11.9998C11.9999 12.5303 11.7891 13.039 11.4141 13.4141C11.039 13.7891 10.5303 13.9998 9.99986 13.9998C9.46943 13.9998 8.96072 13.7891 8.58564 13.4141C8.21057 13.039 7.99986 12.5303 7.99986 11.9998C7.99986 11.4694 8.21057 10.9607 8.58564 10.5856C8.96072 10.2106 9.46943 9.99984 9.99986 9.99984C10.5303 9.99984 11.039 10.2106 11.4141 10.5856C11.7891 10.9607 11.9999 11.4694 11.9999 11.9998Z" fill="#25280B"/>
</g>
<defs>
<clipPath id="clip0_327_5608">
<rect width="24" height="24" fill="white"/>
</clipPath>
</defs>
</svg>
