<svg width="24" height="24" viewBox="0 0 24 24" fill="none" xmlns="http://www.w3.org/2000/svg">
<g clip-path="url(#clip0_327_5861)">
<path d="M19.6397 0.00466196C15.8567 0.00466196 11.5937 2.01066 8.23973 5.36966C4.91073 8.66883 2.23334 12.5658 0.347727 16.8567C0.000955522 17.6589 -0.096078 18.547 0.0692769 19.4051C0.234632 20.2633 0.654703 21.0517 1.27473 21.6677L2.33173 22.7247C2.94683 23.3443 3.73435 23.7643 4.59162 23.9298C5.44889 24.0953 6.33615 23.9988 7.13773 23.6527C11.4314 21.7718 15.3306 19.0958 18.6297 15.7657C21.9887 12.4057 23.9997 8.14266 23.9997 4.35966C24.0546 3.77364 23.9794 3.18273 23.7797 2.62909C23.5799 2.07545 23.2604 1.57272 22.8439 1.15677C22.4275 0.740814 21.9244 0.421887 21.3706 0.222739C20.8167 0.0235897 20.2257 -0.0508732 19.6397 0.00466196ZM16.5087 13.6447C13.4797 16.7059 9.89956 19.1674 5.95673 20.8997C5.70126 21.0087 5.4183 21.0359 5.14673 20.9777L16.5607 9.56066C16.8421 9.27927 17.0002 8.89762 17.0002 8.49966C17.0002 8.10171 16.8421 7.72006 16.5607 7.43866C16.2793 7.15727 15.8977 6.99918 15.4997 6.99918C15.1018 6.99918 14.7201 7.15727 14.4387 7.43866L3.02673 18.8517C2.96943 18.5797 2.99665 18.2967 3.10473 18.0407C4.83718 14.0995 7.29714 10.5203 10.3557 7.49066C13.6637 4.18366 17.3197 3.00466 19.6397 3.00466C20.7167 3.00466 20.9997 3.28266 20.9997 4.35966C20.9997 6.67966 19.8157 10.3367 16.5087 13.6447Z" fill="#25280B"/>
</g>
<defs>
<clipPath id="clip0_327_5861">
<rect width="24" height="24" fill="white"/>
</clipPath>
</defs>
</svg>
