<svg width="24" height="24" viewBox="0 0 24 24" fill="none" xmlns="http://www.w3.org/2000/svg">
<path d="M16.8998 4.03207C16.6645 2.90667 16.0489 1.89659 15.1566 1.17157C14.2643 0.446548 13.1496 0.0507813 11.9998 0.0507812C10.8501 0.0507813 9.73539 0.446548 8.84306 1.17157C7.95074 1.89659 7.33518 2.90667 7.09983 4.03207C6.14445 4.14855 5.23321 4.50147 4.4486 5.05888C3.664 5.61629 3.0308 6.36059 2.60635 7.22439C2.18189 8.08819 1.97958 9.04422 2.01773 10.0059C2.05588 10.9676 2.33328 11.9046 2.82483 12.7321L8.69083 22.1441C9.04235 22.7037 9.52998 23.1651 10.1082 23.4852C10.6864 23.8052 11.3362 23.9735 11.9971 23.9743C12.658 23.9751 13.3083 23.8084 13.8872 23.4897C14.4662 23.1711 14.955 22.7108 15.3078 22.1521L21.1998 12.7001C23.3538 9.20907 20.9228 4.31707 16.8998 4.03207ZM18.9808 9.60007C17.8128 9.71307 15.6188 9.90007 13.5108 9.97607L13.4998 9.80007C13.4896 9.0832 13.7604 8.39082 14.2544 7.87116C14.7483 7.35151 15.4261 7.0459 16.1425 7.01975C16.859 6.99361 17.5572 7.24901 18.0877 7.73129C18.6182 8.21356 18.9388 8.88436 18.9808 9.60007ZM11.9998 3.00007C12.4432 3.00168 12.8735 3.15059 13.223 3.42338C13.5726 3.69616 13.8215 4.07737 13.9308 4.50707C13.1983 4.83802 12.5427 5.31787 12.0058 5.91607C11.4648 5.31697 10.8052 4.83682 10.0688 4.50607C10.1783 4.07655 10.4274 3.69557 10.7769 3.42298C11.1264 3.15039 11.5566 3.00163 11.9998 3.00007ZM7.70483 7.00007C8.07879 7.00276 8.44849 7.07978 8.79241 7.22666C9.13634 7.37353 9.44763 7.58732 9.70818 7.85559C9.96873 8.12386 10.1733 8.44126 10.3101 8.78933C10.4469 9.1374 10.5131 9.50919 10.5048 9.88307L10.5108 9.97207C8.39283 9.90007 6.19083 9.70907 5.01883 9.60007C5.04462 8.90387 5.33853 8.24459 5.8391 7.76005C6.33967 7.2755 7.00816 7.0032 7.70483 7.00007ZM12.7548 20.5781C12.6751 20.7078 12.5632 20.8148 12.4301 20.8887C12.297 20.9626 12.1471 21.0009 11.9948 21C11.8425 20.9991 11.6931 20.959 11.5608 20.8835C11.4286 20.808 11.318 20.6997 11.2398 20.5691L6.35183 12.7281C10.1108 13.0683 13.8928 13.0683 17.6518 12.7281L12.7548 20.5781Z" fill="#25280B"/>
</svg>
