<svg width="24" height="24" viewBox="0 0 24 24" fill="none" xmlns="http://www.w3.org/2000/svg">
<g clip-path="url(#clip0_327_5720)">
<path d="M12.7498 7.00098C11.4463 7.06571 10.4404 8.1722 10.4998 9.47598C10.5593 8.1722 9.55337 7.06571 8.24982 7.00098C6.94627 7.06571 5.94038 8.1722 5.99982 9.47598C5.99982 11.423 8.53782 13.741 9.79983 14.756C10.2085 15.0851 10.7912 15.0851 11.1999 14.756C12.4638 13.741 14.9998 11.423 14.9998 9.47598C15.0593 8.1722 14.0534 7.06571 12.7498 7.00098Z" fill="#25280B"/>
<path d="M23.5622 21.4385L18.9194 16.7948C22.3932 12.153 21.4465 5.57396 16.8047 2.10005C12.163 -1.37386 5.58392 -0.427028 2.11006 4.21477C-1.3638 8.85657 -0.417068 15.4356 4.22473 18.9094C7.95373 21.7002 13.0757 21.7002 16.8047 18.9094L21.4485 23.5542C22.0322 24.1379 22.9785 24.1379 23.5622 23.5542C24.1459 22.9705 24.1459 22.0242 23.5622 21.4405V21.4385ZM3.08163 10.5423C3.08163 6.41639 6.42635 3.07168 10.5523 3.07168C14.6782 3.07168 18.0229 6.41639 18.0229 10.5423C18.0229 14.6683 14.6782 18.013 10.5523 18.013C6.42818 18.0086 3.08604 14.6664 3.08163 10.5423Z" fill="#25280B"/>
</g>
<defs>
<clipPath id="clip0_327_5720">
<rect width="24" height="24" fill="white"/>
</clipPath>
</defs>
</svg>
