<svg width="24" height="24" viewBox="0 0 24 24" fill="none" xmlns="http://www.w3.org/2000/svg">
<g clip-path="url(#clip0_327_5899)">
<path d="M22.5 17.5005H20.5V15.5005C20.5 15.1027 20.3419 14.7211 20.0606 14.4398C19.7793 14.1585 19.3978 14.0005 19 14.0005C18.6022 14.0005 18.2206 14.1585 17.9393 14.4398C17.658 14.7211 17.5 15.1027 17.5 15.5005V17.5005H15.5C15.1022 17.5005 14.7206 17.6585 14.4393 17.9398C14.158 18.2211 14 18.6027 14 19.0005C14 19.3983 14.158 19.7798 14.4393 20.0611C14.7206 20.3425 15.1022 20.5005 15.5 20.5005H17.5V22.5005C17.5 22.8983 17.658 23.2798 17.9393 23.5611C18.2206 23.8425 18.6022 24.0005 19 24.0005C19.3978 24.0005 19.7793 23.8425 20.0606 23.5611C20.3419 23.2798 20.5 22.8983 20.5 22.5005V20.5005H22.5C22.8978 20.5005 23.2793 20.3425 23.5606 20.0611C23.8419 19.7798 24 19.3983 24 19.0005C24 18.6027 23.8419 18.2211 23.5606 17.9398C23.2793 17.6585 22.8978 17.5005 22.5 17.5005Z" fill="#25280B"/>
<path d="M11.5701 20.9898C9.82874 20.9065 8.14904 20.3191 6.73513 19.2992C5.32123 18.2792 4.23399 16.8706 3.60553 15.2444C2.97707 13.6183 2.83445 11.8446 3.19498 10.1389C3.55552 8.43316 4.4037 6.86889 5.63647 5.63613C6.86923 4.40337 8.4335 3.55519 10.1392 3.19465C11.8449 2.83411 13.6186 2.97674 15.2448 3.6052C16.8709 4.23366 18.2796 5.3209 19.2995 6.7348C20.3195 8.14871 20.9068 9.82841 20.9901 11.5698C21.0087 11.9676 21.1845 12.3418 21.479 12.61C21.7734 12.8781 22.1623 13.0184 22.5601 12.9998C22.958 12.9812 23.3321 12.8054 23.6003 12.511C23.8685 12.2165 24.0087 11.8276 23.9901 11.4298C23.8798 9.10773 23.0973 6.8677 21.7378 4.98196C20.3784 3.09621 18.5004 1.64594 16.3322 0.807391C14.164 -0.0311561 11.7989 -0.221872 9.52441 0.258422C7.24987 0.738715 5.16381 1.86934 3.51974 3.51288C1.87567 5.15643 0.74438 7.24213 0.263362 9.51652C-0.217655 11.7909 -0.0276932 14.156 0.810163 16.3245C1.64802 18.493 3.09769 20.3714 4.98301 21.7314C6.86832 23.0915 9.1081 23.8747 11.4301 23.9858H11.5011C11.899 23.995 12.2841 23.8457 12.5719 23.5709C12.8597 23.296 13.0265 22.9181 13.0356 22.5203C13.0448 22.1225 12.8955 21.7373 12.6207 21.4495C12.3459 21.1618 11.968 20.995 11.5701 20.9858V20.9898Z" fill="#25280B"/>
<path d="M12 6C11.6022 6 11.2207 6.15803 10.9394 6.43934C10.658 6.72064 10.5 7.10217 10.5 7.5V11.055L8.10001 12.555C7.933 12.6596 7.78822 12.796 7.67396 12.9565C7.55969 13.1171 7.47818 13.2985 7.43406 13.4906C7.38995 13.6826 7.38411 13.8815 7.41688 14.0758C7.44964 14.2701 7.52037 14.456 7.62501 14.623C7.72958 14.79 7.86602 14.9348 8.02655 15.049C8.18709 15.1633 8.36856 15.2448 8.5606 15.2889C8.75265 15.333 8.9515 15.3389 9.1458 15.3061C9.34011 15.2734 9.52605 15.2026 9.69301 15.098L12.562 13.298C12.8499 13.1176 13.087 12.8669 13.2511 12.5695C13.4153 12.272 13.5009 11.9377 13.5 11.598V7.5C13.5 7.10217 13.342 6.72064 13.0607 6.43934C12.7794 6.15803 12.3978 6 12 6Z" fill="#25280B"/>
</g>
<defs>
<clipPath id="clip0_327_5899">
<rect width="24" height="24" fill="white"/>
</clipPath>
</defs>
</svg>
