<svg width="24" height="24" viewBox="0 0 24 24" fill="none" xmlns="http://www.w3.org/2000/svg">
<g clip-path="url(#clip0_327_5251)">
<path d="M8.99992 12.0003C8.99992 11.2047 9.31599 10.4416 9.8786 9.879C10.4412 9.31639 11.2043 9.00032 11.9999 9.00032C12.7956 9.00032 13.5586 9.31639 14.1212 9.879C14.6839 10.4416 14.9999 11.2047 14.9999 12.0003C14.9999 12.796 14.6839 13.559 14.1212 14.1216C13.5586 14.6843 12.7956 15.0003 11.9999 15.0003C11.2043 15.0003 10.4412 14.6843 9.8786 14.1216C9.31599 13.559 8.99992 12.796 8.99992 12.0003ZM16.9529 20.5753C21.6359 21.2483 24.8669 15.6203 21.8119 11.9853C22.4779 11.1515 22.879 10.1373 22.9636 9.0735C23.0482 8.00969 22.8124 6.9449 22.2866 6.01625C21.7608 5.08759 20.9691 4.3376 20.0133 3.86283C19.0576 3.38806 17.9816 3.21026 16.9239 3.35232C16.527 2.37163 15.8463 1.5318 14.969 0.94046C14.0918 0.349118 13.0579 0.0332031 11.9999 0.0332031C10.942 0.0332031 9.90809 0.349118 9.03082 0.94046C8.15355 1.5318 7.47283 2.37163 7.07592 3.35232C6.01826 3.20994 4.9422 3.3875 3.98634 3.86211C3.03048 4.33672 2.23862 5.08666 1.71276 6.01531C1.1869 6.94395 0.951128 8.00878 1.03581 9.07262C1.1205 10.1365 1.52177 11.1506 2.18792 11.9843C-0.868078 15.6213 2.36492 21.2473 7.04692 20.5743C7.42677 21.5808 8.10423 22.4477 8.98907 23.0595C9.87392 23.6713 10.9242 23.999 11.9999 23.999C13.0757 23.999 14.1259 23.6713 15.0108 23.0595C15.8956 22.4477 16.5731 21.5808 16.9529 20.5743V20.5753ZM7.43792 17.3893C4.78792 18.6363 2.49392 14.8893 5.21992 13.3163C5.45314 13.1847 5.64721 12.9935 5.78225 12.7623C5.91729 12.5311 5.98845 12.2681 5.98845 12.0003C5.98845 11.7325 5.91729 11.4696 5.78225 11.2383C5.64721 11.0071 5.45314 10.8159 5.21992 10.6843C2.56692 9.14832 4.69992 5.10532 7.44192 6.61632C7.67008 6.74993 7.92949 6.82086 8.19389 6.82193C8.45828 6.82299 8.71826 6.75415 8.94748 6.62239C9.1767 6.49062 9.36703 6.3006 9.49916 6.0716C9.6313 5.84259 9.70056 5.58272 9.69992 5.31832C9.69992 4.70833 9.94224 4.12331 10.3736 3.69198C10.8049 3.26064 11.3899 3.01832 11.9999 3.01832C12.6099 3.01832 13.1949 3.26064 13.6263 3.69198C14.0576 4.12331 14.2999 4.70833 14.2999 5.31832C14.3 5.58238 14.3698 5.84174 14.5022 6.07019C14.6346 6.29864 14.825 6.48809 15.0541 6.61938C15.2832 6.75067 15.5429 6.81916 15.807 6.81792C16.071 6.81668 16.3301 6.74576 16.5579 6.61232C19.2999 5.10532 21.4319 9.15032 18.7799 10.6843C18.5467 10.8159 18.3526 11.0071 18.2176 11.2383C18.0826 11.4696 18.0114 11.7325 18.0114 12.0003C18.0114 12.2681 18.0826 12.5311 18.2176 12.7623C18.3526 12.9935 18.5467 13.1847 18.7799 13.3163C21.5069 14.8923 19.2089 18.6363 16.5619 17.3893C16.334 17.2549 16.0747 17.1832 15.8101 17.1814C15.5455 17.1796 15.2852 17.2478 15.0555 17.3791C14.8258 17.5104 14.635 17.7001 14.5023 17.929C14.3696 18.1579 14.2998 18.4178 14.2999 18.6823C14.2999 19.2923 14.0576 19.8773 13.6263 20.3087C13.1949 20.74 12.6099 20.9823 11.9999 20.9823C11.3899 20.9823 10.8049 20.74 10.3736 20.3087C9.94224 19.8773 9.69992 19.2923 9.69992 18.6823C9.70009 18.4178 9.63029 18.1579 9.49758 17.929C9.36488 17.7001 9.174 17.5104 8.94432 17.3791C8.71463 17.2478 8.4543 17.1796 8.18974 17.1814C7.92518 17.1832 7.66581 17.2549 7.43792 17.3893Z" fill="#25280B"/>
</g>
<defs>
<clipPath id="clip0_327_5251">
<rect width="24" height="24" fill="white"/>
</clipPath>
</defs>
</svg>
