<svg width="24" height="24" viewBox="0 0 24 24" fill="none" xmlns="http://www.w3.org/2000/svg">
<g clip-path="url(#clip0_327_5446)">
<path d="M8.00024 7.00049H22.5002C22.8981 7.00049 23.2796 6.84245 23.5609 6.56115C23.8422 6.27984 24.0002 5.89831 24.0002 5.50049C24.0002 5.10266 23.8422 4.72113 23.5609 4.43983C23.2796 4.15852 22.8981 4.00049 22.5002 4.00049H8.00024C7.60242 4.00049 7.22089 4.15852 6.93958 4.43983C6.65828 4.72113 6.50024 5.10266 6.50024 5.50049C6.50024 5.89831 6.65828 6.27984 6.93958 6.56115C7.22089 6.84245 7.60242 7.00049 8.00024 7.00049Z" fill="#25280B"/>
<path d="M22.5002 10.9995H8.00024C7.60242 10.9995 7.22089 11.1575 6.93958 11.4389C6.65828 11.7202 6.50024 12.1017 6.50024 12.4995C6.50024 12.8973 6.65828 13.2789 6.93958 13.5602C7.22089 13.8415 7.60242 13.9995 8.00024 13.9995H22.5002C22.8981 13.9995 23.2796 13.8415 23.5609 13.5602C23.8422 13.2789 24.0002 12.8973 24.0002 12.4995C24.0002 12.1017 23.8422 11.7202 23.5609 11.4389C23.2796 11.1575 22.8981 10.9995 22.5002 10.9995Z" fill="#25280B"/>
<path d="M22.5002 18H8.00024C7.60242 18 7.22089 18.158 6.93958 18.4393C6.65828 18.7206 6.50024 19.1022 6.50024 19.5C6.50024 19.8978 6.65828 20.2794 6.93958 20.5607C7.22089 20.842 7.60242 21 8.00024 21H22.5002C22.8981 21 23.2796 20.842 23.5609 20.5607C23.8422 20.2794 24.0002 19.8978 24.0002 19.5C24.0002 19.1022 23.8422 18.7206 23.5609 18.4393C23.2796 18.158 22.8981 18 22.5002 18Z" fill="#25280B"/>
<path d="M2.5 8C3.88071 8 5 6.88071 5 5.5C5 4.11929 3.88071 3 2.5 3C1.11929 3 0 4.11929 0 5.5C0 6.88071 1.11929 8 2.5 8Z" fill="#25280B"/>
<path d="M2.5 14.4995C3.88071 14.4995 5 13.3802 5 11.9995C5 10.6188 3.88071 9.49951 2.5 9.49951C1.11929 9.49951 0 10.6188 0 11.9995C0 13.3802 1.11929 14.4995 2.5 14.4995Z" fill="#25280B"/>
<path d="M2.5 21.5C3.88071 21.5 5 20.3807 5 19C5 17.6193 3.88071 16.5 2.5 16.5C1.11929 16.5 0 17.6193 0 19C0 20.3807 1.11929 21.5 2.5 21.5Z" fill="#25280B"/>
</g>
<defs>
<clipPath id="clip0_327_5446">
<rect width="24" height="24" fill="white"/>
</clipPath>
</defs>
</svg>
