<svg width="24" height="24" viewBox="0 0 24 24" fill="none" xmlns="http://www.w3.org/2000/svg">
<g clip-path="url(#clip0_327_5695)">
<path d="M15 7.50097C15 7.2043 15.088 6.91429 15.2528 6.66761C15.4176 6.42094 15.6519 6.22868 15.926 6.11515C16.2001 6.00162 16.5017 5.97191 16.7926 6.02979C17.0836 6.08767 17.3509 6.23053 17.5607 6.44031C17.7704 6.65009 17.9133 6.91736 17.9712 7.20833C18.0291 7.4993 17.9994 7.8009 17.8858 8.07499C17.7723 8.34908 17.58 8.58335 17.3334 8.74817C17.0867 8.913 16.7967 9.00097 16.5 9.00097C16.1022 9.00097 15.7206 8.84293 15.4393 8.56163C15.158 8.28032 15 7.89879 15 7.50097ZM13.5 12.001C13.7967 12.001 14.0867 11.913 14.3334 11.7482C14.58 11.5834 14.7723 11.3491 14.8858 11.075C14.9994 10.8009 15.0291 10.4993 14.9712 10.2083C14.9133 9.91736 14.7704 9.65009 14.5607 9.44031C14.3509 9.23053 14.0836 9.08767 13.7926 9.02979C13.5017 8.97191 13.2001 9.00162 12.926 9.11515C12.6519 9.22868 12.4176 9.42094 12.2528 9.66761C12.088 9.91429 12 10.2043 12 10.501C12 10.8988 12.158 11.2803 12.4393 11.5616C12.7206 11.8429 13.1022 12.001 13.5 12.001ZM10.5 15.001C10.7967 15.001 11.0867 14.913 11.3334 14.7482C11.58 14.5834 11.7723 14.3491 11.8858 14.075C11.9994 13.8009 12.0291 13.4993 11.9712 13.2083C11.9133 12.9174 11.7704 12.6501 11.5607 12.4403C11.3509 12.2305 11.0836 12.0877 10.7926 12.0298C10.5017 11.9719 10.2001 12.0016 9.92598 12.1151C9.65189 12.2287 9.41762 12.4209 9.2528 12.6676C9.08797 12.9143 9 13.2043 9 13.501C9 13.8988 9.15804 14.2803 9.43934 14.5616C9.72064 14.8429 10.1022 15.001 10.5 15.001ZM23.841 3.55397L23.766 3.76297C22.112 8.35197 20.532 12.688 16.891 16.454C16.6205 19.0332 15.4525 21.4353 13.591 23.241C13.0809 23.7265 12.4043 23.9985 11.7 24.001C10.9839 24.001 10.2972 23.7165 9.79081 23.2102C9.28446 22.7038 9 22.0171 9 21.301V19.67C8.41262 19.4544 7.86842 19.1357 7.393 18.729L5.561 20.562C5.27961 20.8434 4.89795 21.0014 4.5 21.0014C4.10205 21.0014 3.7204 20.8434 3.439 20.562C3.15761 20.2806 2.99952 19.8989 2.99952 19.501C2.99952 19.103 3.15761 18.7214 3.439 18.44L5.273 16.606C4.66022 15.8587 4.26418 14.9577 4.128 14.001H2.7C1.98392 14.001 1.29716 13.7165 0.790812 13.2102C0.284464 12.7038 0 12.0171 0 11.301C0.00276315 10.597 0.274676 9.92084 0.76 9.41097C1.80125 8.34712 3.04263 7.49974 4.41269 6.9176C5.78276 6.33545 7.25443 6.03005 8.743 6.01897C12.219 3.12597 16.129 1.71897 20.243 0.234968L20.451 0.159968C20.9246 -0.0106776 21.4369 -0.0430212 21.9282 0.0667172C22.4195 0.176456 22.8693 0.423743 23.2253 0.779683C23.5812 1.13562 23.8285 1.58551 23.9383 2.07678C24.048 2.56805 24.0156 3.0804 23.845 3.55397H23.841ZM20.768 3.23297C16.412 4.80597 12.635 6.24097 9.4 9.47297C8.71144 10.2503 8.06997 11.0681 7.479 11.922C7.1642 12.3696 7.01774 12.914 7.0655 13.4591C7.11326 14.0042 7.35216 14.5149 7.74 14.901L9.164 16.321C9.55022 16.7076 10.0605 16.9455 10.605 16.9927C11.1494 17.0399 11.693 16.8934 12.14 16.579C12.9928 15.9914 13.7919 15.3295 14.528 14.601C17.76 11.366 19.2 7.58897 20.768 3.23297Z" fill="#25280B"/>
</g>
<defs>
<clipPath id="clip0_327_5695">
<rect width="24" height="24" fill="white"/>
</clipPath>
</defs>
</svg>
