<svg width="24" height="24" viewBox="0 0 24 24" fill="none" xmlns="http://www.w3.org/2000/svg">
<g clip-path="url(#clip0_327_6047)">
<path d="M22.408 0.305063C22.0915 0.064867 21.6926 -0.0399213 21.2989 0.0136991C20.9052 0.0673195 20.5488 0.274967 20.308 0.591063L12 11.5201L3.69404 0.591063C3.45322 0.274394 3.09647 0.0663597 2.70227 0.0127243C2.30807 -0.0409111 1.90871 0.0642462 1.59204 0.305063C1.27537 0.545879 1.06734 0.902629 1.0137 1.29683C0.960065 1.69103 1.06522 2.09039 1.30604 2.40706L9.35604 12.9991H6.50004C6.10221 12.9991 5.72068 13.1571 5.43938 13.4384C5.15807 13.7197 5.00004 14.1012 5.00004 14.4991C5.00004 14.8969 5.15807 15.2784 5.43938 15.5597C5.72068 15.841 6.10221 15.9991 6.50004 15.9991H10.5V17.9991H6.50004C6.10221 17.9991 5.72068 18.1571 5.43938 18.4384C5.15807 18.7197 5.00004 19.1012 5.00004 19.4991C5.00004 19.8969 5.15807 20.2784 5.43938 20.5597C5.72068 20.841 6.10221 20.9991 6.50004 20.9991H10.5V22.4991C10.5 22.8969 10.6581 23.2784 10.9394 23.5597C11.2207 23.841 11.6022 23.9991 12 23.9991C12.3979 23.9991 12.7794 23.841 13.0607 23.5597C13.342 23.2784 13.5 22.8969 13.5 22.4991V20.9991H17.5C17.8979 20.9991 18.2794 20.841 18.5607 20.5597C18.842 20.2784 19 19.8969 19 19.4991C19 19.1012 18.842 18.7197 18.5607 18.4384C18.2794 18.1571 17.8979 17.9991 17.5 17.9991H13.5V15.9991H17.5C17.8979 15.9991 18.2794 15.841 18.5607 15.5597C18.842 15.2784 19 14.8969 19 14.4991C19 14.1012 18.842 13.7197 18.5607 13.4384C18.2794 13.1571 17.8979 12.9991 17.5 12.9991H14.644L22.694 2.40706C22.8133 2.25027 22.9005 2.07152 22.9506 1.88102C23.0008 1.69053 23.013 1.49202 22.9864 1.29683C22.9598 1.10164 22.8951 0.913591 22.7959 0.743423C22.6966 0.573256 22.5648 0.4243 22.408 0.305063Z" fill="#25280B"/>
</g>
<defs>
<clipPath id="clip0_327_6047">
<rect width="24" height="24" fill="white"/>
</clipPath>
</defs>
</svg>
