<svg width="24" height="24" viewBox="0 0 24 24" fill="none" xmlns="http://www.w3.org/2000/svg">
<g clip-path="url(#clip0_327_4964)">
<path d="M19.42 9.592C19.4735 9.23046 19.5002 8.86547 19.5 8.5C19.5 6.51088 18.7098 4.60322 17.3033 3.1967C15.8967 1.79018 13.9891 1 12 1C10.0108 1 8.10318 1.79018 6.69666 3.1967C5.29014 4.60322 4.49996 6.51088 4.49996 8.5C4.49972 8.86547 4.52646 9.23046 4.57996 9.592C3.6018 10.0053 2.72257 10.6217 2.00044 11.4002C1.2783 12.1788 0.729734 13.1018 0.391023 14.1083C0.0523115 15.1147 -0.0688177 16.1816 0.0356495 17.2383C0.140117 18.2951 0.467799 19.3176 0.997014 20.2383C1.52623 21.1589 2.24491 21.9567 3.10551 22.5788C3.96611 23.2008 4.949 23.6331 5.98916 23.8469C7.02931 24.0607 8.10302 24.0512 9.13922 23.819C10.1754 23.5868 11.1505 23.1372 12 22.5C12.8487 23.1421 13.8244 23.5961 14.8622 23.8321C15.9 24.068 16.9761 24.0803 18.0191 23.8682C19.062 23.6562 20.0479 23.2246 20.9111 22.6021C21.7744 21.9797 22.4953 21.1807 23.0259 20.2581C23.5566 19.3356 23.8848 18.3106 23.9888 17.2515C24.0928 16.1923 23.9702 15.1231 23.6291 14.115C23.288 13.1068 22.7363 12.1828 22.0105 11.4044C21.2848 10.6259 20.4017 10.0108 19.42 9.6V9.592ZM12 4C13.193 4.00132 14.3369 4.47585 15.1805 5.31948C16.0241 6.16311 16.4986 7.30693 16.5 8.5C16.4998 8.66705 16.4904 8.83397 16.472 9C14.8583 9.00339 13.2893 9.52969 12 10.5C10.7107 9.52969 9.14159 9.00339 7.52796 9C7.50952 8.83397 7.50018 8.66705 7.49996 8.5C7.50129 7.30693 7.97582 6.16311 8.81944 5.31948C9.66307 4.47585 10.8069 4.00132 12 4ZM2.99996 16.5C3.00066 15.642 3.24638 14.802 3.70822 14.0788C4.17005 13.3557 4.8288 12.7795 5.60696 12.418C6.42678 13.7505 7.6404 14.7954 9.07996 15.408C8.83425 17.0763 9.15838 18.7787 9.99996 20.24C9.32251 20.6926 8.53489 20.9529 7.72112 20.9929C6.90736 21.0329 6.09799 20.8513 5.37937 20.4674C4.66076 20.0834 4.05987 19.5116 3.64081 18.8129C3.22176 18.1141 3.00026 17.3148 2.99996 16.5ZM16.5 21C15.6095 21.0013 14.739 20.7367 14 20.24C14.8415 18.7787 15.1657 17.0763 14.92 15.408C16.3595 14.7954 17.5731 13.7505 18.393 12.418C19.3227 12.8494 20.0773 13.5852 20.5319 14.5037C20.9866 15.4222 21.1141 16.4685 20.8933 17.4693C20.6726 18.4701 20.1168 19.3656 19.3179 20.0077C18.519 20.6497 17.5249 20.9998 16.5 21Z" fill="#25280B"/>
</g>
<defs>
<clipPath id="clip0_327_4964">
<rect width="24" height="24" fill="white"/>
</clipPath>
</defs>
</svg>
