<svg width="24" height="24" viewBox="0 0 24 24" fill="none" xmlns="http://www.w3.org/2000/svg">
<g clip-path="url(#clip0_327_5833)">
<path d="M6.85214 23.4374C6.08894 23.434 5.34643 23.189 4.73114 22.7374C4.10235 22.2951 3.63315 21.6616 3.39333 20.9311C3.15352 20.2007 3.15591 19.4124 3.40014 18.6834L4.57014 15.0644L1.49014 12.8124C0.872579 12.3612 0.413554 11.7263 0.178738 10.9984C-0.0560785 10.2705 -0.0546546 9.48697 0.182806 8.75994C0.420267 8.03291 0.881596 7.39962 1.50079 6.95067C2.11998 6.50171 2.86531 6.26011 3.63014 6.26042H7.40014L8.54514 2.69042C8.78013 1.95936 9.24108 1.32174 9.86161 0.869401C10.4821 0.41706 11.2302 0.17334 11.9981 0.17334C12.766 0.17334 13.5141 0.41706 14.1347 0.869401C14.7552 1.32174 15.2161 1.95936 15.4511 2.69042L16.6001 6.26042H20.3701C21.1349 6.26032 21.8801 6.50208 22.4991 6.95111C23.1181 7.40014 23.5793 8.03344 23.8166 8.76042C24.054 9.4874 24.0553 10.2708 23.8205 10.9986C23.5856 11.7264 23.1266 12.3613 22.5091 12.8124L19.4301 15.0644L20.6001 18.6834C20.836 19.4134 20.8343 20.1995 20.5952 20.9284C20.3561 21.6574 19.892 22.2917 19.2695 22.7402C18.6471 23.1887 17.8985 23.4282 17.1313 23.4243C16.3641 23.4204 15.618 23.1732 15.0001 22.7184L12.0001 20.5124L9.00014 22.7194C8.37939 23.1824 7.62651 23.4341 6.85214 23.4374ZM3.63014 9.26042C3.49814 9.26041 3.36952 9.30212 3.26265 9.37959C3.15578 9.45706 3.07614 9.56633 3.0351 9.69178C2.99406 9.81723 2.99372 9.95245 3.03414 10.0781C3.07455 10.2038 3.15365 10.3134 3.26014 10.3914L7.21614 13.2824C7.47087 13.4687 7.66037 13.7305 7.75768 14.0307C7.85499 14.3309 7.85515 14.6541 7.75814 14.9544L6.25814 19.6044C6.21651 19.7306 6.21609 19.8667 6.25692 19.993C6.29775 20.1194 6.37773 20.2296 6.48528 20.3075C6.59283 20.3854 6.72239 20.4271 6.85521 20.4266C6.98803 20.426 7.11724 20.3833 7.22414 20.3044L11.1131 17.4434C11.3708 17.2538 11.6823 17.1516 12.0021 17.1516C12.322 17.1516 12.6335 17.2538 12.8911 17.4434L16.7801 20.3034C16.8869 20.383 17.0163 20.4264 17.1494 20.4273C17.2826 20.4282 17.4125 20.3865 17.5204 20.3084C17.6282 20.2302 17.7082 20.1197 17.7488 19.9929C17.7894 19.8661 17.7885 19.7297 17.7461 19.6034L16.2461 14.9534C16.1491 14.6531 16.1493 14.3299 16.2466 14.0297C16.3439 13.7295 16.5334 13.4677 16.7881 13.2814L20.7431 10.3904C20.8495 10.3125 20.9286 10.2029 20.9691 10.0773C21.0095 9.95178 21.0092 9.81666 20.9683 9.69125C20.9274 9.56585 20.8479 9.45658 20.7412 9.37903C20.6345 9.30148 20.506 9.25962 20.3741 9.25942H15.5001C15.1824 9.25934 14.873 9.1584 14.6163 8.97113C14.3597 8.78386 14.1691 8.51995 14.0721 8.21742L12.6001 3.60642C12.5596 3.48022 12.48 3.37015 12.3729 3.29206C12.2658 3.21396 12.1367 3.17189 12.0041 3.17189C11.8716 3.17189 11.7425 3.21396 11.6353 3.29206C11.5282 3.37015 11.4487 3.48022 11.4081 3.60642L9.92514 8.21842C9.82829 8.52046 9.63819 8.78403 9.38215 8.97125C9.12612 9.15847 8.81732 9.25971 8.50014 9.26042H3.63014Z" fill="#25280B"/>
</g>
<defs>
<clipPath id="clip0_327_5833">
<rect width="24" height="24" fill="white"/>
</clipPath>
</defs>
</svg>
