<svg width="24" height="24" viewBox="0 0 24 24" fill="none" xmlns="http://www.w3.org/2000/svg">
<g clip-path="url(#clip0_327_5070)">
<path d="M18.0002 13.4998V7.57081C18.0036 6.71649 17.8374 5.87001 17.5112 5.08039C17.1851 4.29078 16.7055 3.57373 16.1002 2.97081L15.0252 1.89981C14.4223 1.29454 13.7053 0.814945 12.9157 0.4888C12.126 0.162655 11.2796 -0.00355357 10.4252 -0.000194216H7.50024C6.04204 0.00139395 4.64402 0.581367 3.61291 1.61247C2.5818 2.64358 2.00183 4.0416 2.00024 5.49981V13.4998C2.00183 14.958 2.5818 16.356 3.61291 17.3871C4.64402 18.4182 6.04204 18.9982 7.50024 18.9998H12.5002C13.9584 18.9982 15.3565 18.4182 16.3876 17.3871C17.4187 16.356 17.9987 14.958 18.0002 13.4998ZM5.00024 13.4998V5.49981C5.00024 4.83677 5.26364 4.20088 5.73248 3.73204C6.20132 3.2632 6.8372 2.99981 7.50024 2.99981H10.4292C10.6208 3.00281 10.8118 3.02154 11.0002 3.05581V4.99981C11.0002 5.53024 11.211 6.03895 11.586 6.41402C11.9611 6.78909 12.4698 6.99981 13.0002 6.99981H14.9442C14.9785 7.18829 14.9972 7.37926 15.0002 7.57081V13.4998C15.0002 14.1628 14.7369 14.7987 14.268 15.2676C13.7992 15.7364 13.1633 15.9998 12.5002 15.9998H7.50024C6.8372 15.9998 6.20132 15.7364 5.73248 15.2676C5.26364 14.7987 5.00024 14.1628 5.00024 13.4998ZM23.0002 8.49981V18.4998C22.9987 19.958 22.4187 21.356 21.3876 22.3871C20.3565 23.4182 18.9584 23.9982 17.5002 23.9998H9.50024C9.10242 23.9998 8.72089 23.8418 8.43958 23.5605C8.15828 23.2792 8.00024 22.8976 8.00024 22.4998C8.00024 22.102 8.15828 21.7205 8.43958 21.4391C8.72089 21.1578 9.10242 20.9998 9.50024 20.9998H17.5002C18.1633 20.9998 18.7992 20.7364 19.268 20.2676C19.7369 19.7987 20.0002 19.1628 20.0002 18.4998V8.49981C20.0002 8.10198 20.1583 7.72045 20.4396 7.43915C20.7209 7.15784 21.1024 6.99981 21.5002 6.99981C21.8981 6.99981 22.2796 7.15784 22.5609 7.43915C22.8422 7.72045 23.0002 8.10198 23.0002 8.49981Z" fill="#25280B"/>
</g>
<defs>
<clipPath id="clip0_327_5070">
<rect width="24" height="24" fill="white"/>
</clipPath>
</defs>
</svg>
