<svg width="24" height="24" viewBox="0 0 24 24" fill="none" xmlns="http://www.w3.org/2000/svg">
<g clip-path="url(#clip0_327_5573)">
<path d="M16 9.99999C17.1046 9.99999 18 9.10456 18 8C18 6.89543 17.1046 6 16 6C14.8954 6 14 6.89543 14 8C14 9.10456 14.8954 9.99999 16 9.99999Z" fill="#25280B"/>
<path d="M9 9.99999C10.1046 9.99999 11 9.10456 11 8C11 6.89543 10.1046 6 9 6C7.89543 6 7 6.89543 7 8C7 9.10456 7.89543 9.99999 9 9.99999Z" fill="#25280B"/>
<path d="M8 17.0005C9.10456 17.0005 9.99999 16.1051 9.99999 15.0005C9.99999 13.8959 9.10456 13.0005 8 13.0005C6.89543 13.0005 6 13.8959 6 15.0005C6 16.1051 6.89543 17.0005 8 17.0005Z" fill="#25280B"/>
<path d="M24.0359 10.9285C23.7449 8.02633 22.4191 5.32587 20.3009 3.32078C18.1827 1.3157 15.4136 0.139944 12.4999 0.00847099C10.9058 -0.0497013 9.3161 0.21053 7.82377 0.773947C6.33144 1.33736 4.96641 2.19266 3.80851 3.28982C2.65061 4.38698 1.72308 5.70399 1.08015 7.16383C0.437214 8.62367 0.0917889 10.197 0.0640681 11.792C0.0363474 13.3869 0.326888 14.9713 0.9187 16.4526C1.51051 17.9339 2.39172 19.2823 3.51079 20.4191C4.62987 21.5558 5.96434 22.458 7.4362 23.073C8.90805 23.6879 10.4877 24.0032 12.0829 24.0005C12.4209 24.0005 12.7519 23.9785 13.0829 23.9515C13.4602 23.9202 13.8118 23.7474 14.067 23.4677C14.3222 23.188 14.4622 22.8221 14.4589 22.4435L14.4289 19.0185C14.4239 18.451 14.588 17.8949 14.9002 17.4209C15.2124 16.947 15.6585 16.5767 16.1819 16.3572C16.7052 16.1376 17.282 16.0788 17.8389 16.1882C18.3958 16.2976 18.9075 16.5703 19.3089 16.9715L19.4089 17.0715C19.6907 17.3537 20.039 17.5606 20.4216 17.6732C20.8043 17.7857 21.2091 17.8002 21.5989 17.7155C21.9823 17.6331 22.339 17.4558 22.6362 17.1999C22.9333 16.9439 23.1615 16.6175 23.2999 16.2505C23.9474 14.5557 24.1991 12.7354 24.0359 10.9285ZM20.7869 14.2945C19.912 13.6432 18.8727 13.249 17.786 13.1562C16.6992 13.0635 15.6081 13.2759 14.6356 13.7695C13.663 14.2631 12.8474 15.0184 12.2807 15.9503C11.714 16.8822 11.4187 17.9538 11.4279 19.0445L11.4449 20.9775C9.1201 20.811 6.95058 19.7491 5.39293 18.0153C3.83528 16.2815 3.01097 14.011 3.09351 11.6818C3.17605 9.35249 4.15898 7.14608 5.83545 5.52689C7.51191 3.9077 9.75115 3.00202 12.0819 3.00047C12.1819 3.00047 12.2939 3.00047 12.3999 3.00647C14.5839 3.10524 16.6595 3.98656 18.2473 5.48938C19.8351 6.9922 20.8292 9.01618 21.0479 11.1915C21.1426 12.2331 21.0542 13.2833 20.7869 14.2945Z" fill="#25280B"/>
</g>
<defs>
<clipPath id="clip0_327_5573">
<rect width="24" height="24" fill="white"/>
</clipPath>
</defs>
</svg>
