<svg width="24" height="24" viewBox="0 0 24 24" fill="none" xmlns="http://www.w3.org/2000/svg">
<path d="M10.4819 19.4999C10.0844 19.4998 9.70313 19.3419 9.42193 19.0609L4.83593 14.4749C4.1807 13.8178 3.81274 12.9278 3.81274 11.9999C3.81274 11.072 4.1807 10.1819 4.83593 9.52488L9.42193 4.93888C9.70332 4.65762 10.0849 4.49966 10.4828 4.49976C10.8806 4.49985 11.2622 4.65799 11.5434 4.93938C11.8247 5.22078 11.9827 5.60238 11.9826 6.00024C11.9825 6.39809 11.8243 6.77962 11.5429 7.06088L6.95693 11.6459C6.91037 11.6923 6.87342 11.7475 6.84822 11.8083C6.82301 11.869 6.81004 11.9341 6.81004 11.9999C6.81004 12.0657 6.82301 12.1308 6.84822 12.1915C6.87342 12.2523 6.91037 12.3074 6.95693 12.3539L11.5429 16.9389C11.7528 17.1487 11.8958 17.416 11.9538 17.7071C12.0117 17.9981 11.982 18.2998 11.8684 18.574C11.7548 18.8482 11.5624 19.0825 11.3156 19.2473C11.0688 19.4121 10.7787 19.5 10.4819 19.4999Z" fill="#25280B"/>
<path d="M17.4821 19.4999C17.0845 19.4998 16.7033 19.3419 16.4221 19.0609L10.4221 13.0609C10.2827 12.9216 10.1721 12.7562 10.0967 12.5741C10.0213 12.3921 9.98242 12.1969 9.98242 11.9999C9.98242 11.8028 10.0213 11.6077 10.0967 11.4256C10.1721 11.2436 10.2827 11.0782 10.4221 10.9389L16.4221 4.93888C16.5614 4.79962 16.7268 4.68916 16.9088 4.61381C17.0909 4.53847 17.2859 4.49971 17.4829 4.49976C17.6799 4.4998 17.875 4.53865 18.057 4.61408C18.239 4.68951 18.4043 4.80005 18.5436 4.93938C18.6829 5.07872 18.7933 5.24411 18.8687 5.42614C18.944 5.60816 18.9828 5.80324 18.9827 6.00024C18.9827 6.19724 18.9438 6.3923 18.8684 6.57428C18.793 6.75627 18.6824 6.92162 18.5431 7.06088L13.6001 11.9999L18.5391 16.9389C18.7488 17.1484 18.8917 17.4154 18.9497 17.7061C19.0078 17.9968 18.9784 18.2981 18.8653 18.5722C18.7522 18.8462 18.5605 19.0805 18.3143 19.2456C18.0681 19.4108 17.7785 19.4992 17.4821 19.4999Z" fill="#25280B"/>
</svg>
