<svg width="24" height="24" viewBox="0 0 24 24" fill="none" xmlns="http://www.w3.org/2000/svg">
<g clip-path="url(#clip0_327_5465)">
<path d="M22.984 1.01824C22.364 0.404386 21.5366 0.045021 20.6648 0.0109631C19.7929 -0.0230949 18.94 0.270625 18.274 0.834239L5.648 11.7542C3.573 12.2272 0 13.5192 0 16.8002C0.00211748 18.7091 0.761367 20.5393 2.11117 21.8891C3.46097 23.2389 5.29109 23.9981 7.2 24.0002C10.482 24.0002 11.773 20.4272 12.246 18.3522L23.18 5.71024C23.7374 5.04414 24.0261 4.19407 23.9899 3.32631C23.9537 2.45855 23.595 1.63553 22.984 1.01824ZM7.2 21.0002C6.08609 21.0002 5.0178 20.5577 4.23015 19.7701C3.4425 18.9824 3 17.9141 3 16.8002C3 15.7062 5.121 14.9142 6.681 14.6002L9.4 17.3192C9.086 18.8812 8.294 21.0002 7.2 21.0002ZM20.9 3.76024L14.653 10.9832L13.016 9.34824L20.227 3.11224C20.3156 3.03667 20.4292 2.99679 20.5456 3.00036C20.6621 3.00393 20.773 3.05068 20.8568 3.13153C20.9407 3.21238 20.9914 3.32153 20.9992 3.43775C21.007 3.55396 20.9713 3.66892 20.899 3.76024H20.9Z" fill="#25280B"/>
</g>
<defs>
<clipPath id="clip0_327_5465">
<rect width="24" height="24" fill="white"/>
</clipPath>
</defs>
</svg>
