<svg width="24" height="24" viewBox="0 0 24 24" fill="none" xmlns="http://www.w3.org/2000/svg">
<g clip-path="url(#clip0_327_5481)">
<path d="M19.7799 3.23791C18.7605 2.21182 17.5483 1.39748 16.213 0.841782C14.8777 0.286084 13.4457 0 11.9994 0C10.553 0 9.12099 0.286084 7.78568 0.841782C6.45037 1.39748 5.23816 2.21182 4.21885 3.23791C2.15565 5.32351 1.00199 8.14109 1.01005 11.0748C1.01811 14.0085 2.18722 16.8197 4.26185 18.8939L7.99985 22.3599C9.06216 23.4058 10.4915 23.9944 11.9822 24C13.473 24.0057 14.9067 23.4277 15.9769 22.3899L19.7839 18.8529C21.8415 16.7751 22.9954 13.9688 22.9946 11.0446C22.9939 8.12035 21.8385 5.31469 19.7799 3.23791ZM17.6999 16.6999L13.8999 20.2249C13.3823 20.7185 12.693 20.9913 11.9778 20.9857C11.2626 20.9801 10.5777 20.6965 10.0679 20.1949L6.34585 16.7369C4.84489 15.2229 4.00275 13.1773 4.00275 11.0454C4.00275 8.9135 4.84489 6.86789 6.34585 5.35391C7.08631 4.60798 7.96707 4.01595 8.93736 3.61195C9.90766 3.20795 10.9483 2.99995 11.9994 2.99995C13.0504 2.99995 14.0911 3.20795 15.0613 3.61195C16.0316 4.01595 16.9124 4.60798 17.6529 5.35391C19.1513 6.85885 19.9965 8.89356 20.0052 11.0173C20.014 13.141 19.1858 15.1826 17.6999 16.6999ZM15.5649 14.5649C15.4256 14.7043 15.2602 14.8149 15.0781 14.8903C14.8961 14.9658 14.7009 15.0046 14.5039 15.0046C14.3068 15.0046 14.1117 14.9658 13.9296 14.8903C13.7476 14.8149 13.5822 14.7043 13.4429 14.5649L10.9429 12.0649C10.8024 11.9254 10.6909 11.7595 10.6149 11.5767C10.5389 11.3939 10.4998 11.1979 10.4999 10.9999V7.49991C10.4999 7.10208 10.6579 6.72055 10.9392 6.43925C11.2205 6.15794 11.602 5.99991 11.9999 5.99991C12.3977 5.99991 12.7792 6.15794 13.0605 6.43925C13.3418 6.72055 13.4999 7.10208 13.4999 7.49991V10.3789L15.5609 12.4389C15.7002 12.5782 15.8108 12.7436 15.8863 12.9257C15.9617 13.1077 16.0005 13.3028 16.0005 13.4999C16.0005 13.697 15.9617 13.8921 15.8863 14.0742C15.8108 14.2562 15.7002 14.4216 15.5609 14.5609L15.5649 14.5649Z" fill="#25280B"/>
</g>
<defs>
<clipPath id="clip0_327_5481">
<rect width="24" height="24" fill="white"/>
</clipPath>
</defs>
</svg>
