<svg width="24" height="24" viewBox="0 0 24 24" fill="none" xmlns="http://www.w3.org/2000/svg">
<path d="M18.5 5.00049H5.5C4.0418 5.00208 2.64377 5.58205 1.61267 6.61315C0.581561 7.64426 0.00158817 9.04228 0 10.5005L0 13.5005C0.00158817 14.9587 0.581561 16.3567 1.61267 17.3878C2.64377 18.4189 4.0418 18.9989 5.5 19.0005H18.5C19.9582 18.9989 21.3562 18.4189 22.3873 17.3878C23.4184 16.3567 23.9984 14.9587 24 13.5005V10.5005C23.9984 9.04228 23.4184 7.64426 22.3873 6.61315C21.3562 5.58205 19.9582 5.00208 18.5 5.00049ZM21 13.5005C21 14.1635 20.7366 14.7994 20.2678 15.2683C19.7989 15.7371 19.163 16.0005 18.5 16.0005H5.5C4.83696 16.0005 4.20107 15.7371 3.73223 15.2683C3.26339 14.7994 3 14.1635 3 13.5005V10.5005C3 9.83745 3.26339 9.20156 3.73223 8.73272C4.20107 8.26388 4.83696 8.00049 5.5 8.00049H18.5C19.163 8.00049 19.7989 8.26388 20.2678 8.73272C20.7366 9.20156 21 9.83745 21 10.5005V13.5005Z" fill="#25280B"/>
</svg>
