<svg width="24" height="24" viewBox="0 0 24 24" fill="none" xmlns="http://www.w3.org/2000/svg">
<path d="M1.5 23.4488C1.10218 23.4488 0.720644 23.2907 0.43934 23.0094C0.158035 22.7281 0 22.3466 0 21.9488L0 15.9488C0.00291129 13.4301 1.00474 11.0154 2.7857 9.23446C4.56667 7.45349 6.98134 6.45167 9.5 6.44876H13.164V4.76776C13.164 4.32293 13.298 3.88842 13.5485 3.52085C13.799 3.15327 14.1544 2.86968 14.5684 2.70703C14.9825 2.54438 15.4359 2.51021 15.8696 2.60898C16.3033 2.70775 16.6972 2.93487 17 3.26076L23.217 9.95576C23.7172 10.4988 23.9948 11.21 23.9948 11.9483C23.9948 12.6865 23.7172 13.3978 23.217 13.9408L17 20.6358C16.6973 20.962 16.3033 21.1894 15.8694 21.2884C15.4355 21.3874 14.9819 21.3533 14.5676 21.1906C14.1534 21.0279 13.7978 20.7442 13.5472 20.3764C13.2967 20.0086 13.1628 19.5738 13.163 19.1288V17.4488H7.5C6.30653 17.4488 5.16193 17.9229 4.31802 18.7668C3.47411 19.6107 3 20.7553 3 21.9488C3 22.3466 2.84196 22.7281 2.56066 23.0094C2.27936 23.2907 1.89782 23.4488 1.5 23.4488ZM7.5 14.4488H14.664C15.0618 14.4488 15.4434 14.6068 15.7247 14.8881C16.006 15.1694 16.164 15.5509 16.164 15.9488V17.1278L21.019 11.8998L16.164 6.74676V7.94676C16.164 8.34458 16.006 8.72611 15.7247 9.00742C15.4434 9.28872 15.0618 9.44676 14.664 9.44676H9.5C7.77674 9.44887 6.12467 10.1344 4.90614 11.3529C3.68762 12.5714 3.00212 14.2235 3 15.9468C4.29704 14.9711 5.87696 14.4451 7.5 14.4488ZM14.8 5.29976L14.808 5.30776L14.8 5.29976Z" fill="#25280B"/>
</svg>
