<svg width="24" height="24" viewBox="0 0 24 24" fill="none" xmlns="http://www.w3.org/2000/svg">
<g clip-path="url(#clip0_327_5738)">
<path d="M12 24.0007C11.767 24.0008 11.5372 23.9463 11.329 23.8417L10.949 23.6507C8.852 22.6007 2 18.6717 2 12.1517V7.05175C1.99921 5.94233 2.34835 4.86092 2.99775 3.96142C3.64715 3.06192 4.56371 2.39016 5.617 2.04175L11.528 0.0767475C11.8346 -0.0242804 12.1654 -0.0242804 12.472 0.0767475L18.383 2.03675C19.4363 2.38516 20.3529 3.05692 21.0023 3.95642C21.6517 4.85592 22.0008 5.93733 22 7.04675V12.1467C22 19.5167 15.078 22.8747 12.957 23.7277L12.563 23.8867C12.3845 23.9609 12.1933 23.9996 12 24.0007ZM12 3.08075L6.561 4.88075C6.10567 5.03109 5.70952 5.32153 5.42916 5.71054C5.1488 6.09956 4.9986 6.56724 5 7.04675V12.1467C5 16.7537 10.143 19.8517 12.068 20.8467C13.968 20.0387 19 17.4027 19 12.1467V7.04675C19.0006 6.56792 18.85 6.10114 18.5697 5.71292C18.2894 5.32471 17.8937 5.03488 17.439 4.88475L12 3.08075ZM13.5 12.5007V6.50075C13.5 6.10292 13.342 5.72139 13.0607 5.44009C12.7794 5.15878 12.3978 5.00075 12 5.00075C11.6022 5.00075 11.2206 5.15878 10.9393 5.44009C10.658 5.72139 10.5 6.10292 10.5 6.50075V12.5007C10.5 12.8986 10.658 13.2801 10.9393 13.5614C11.2206 13.8427 11.6022 14.0007 12 14.0007C12.3978 14.0007 12.7794 13.8427 13.0607 13.5614C13.342 13.2801 13.5 12.8986 13.5 12.5007ZM12 15.0007C11.7033 15.0007 11.4133 15.0887 11.1666 15.2535C10.92 15.4184 10.7277 15.6526 10.6142 15.9267C10.5007 16.2008 10.4709 16.5024 10.5288 16.7934C10.5867 17.0844 10.7296 17.3516 10.9393 17.5614C11.1491 17.7712 11.4164 17.914 11.7074 17.9719C11.9983 18.0298 12.2999 18.0001 12.574 17.8866C12.8481 17.773 13.0824 17.5808 13.2472 17.3341C13.412 17.0874 13.5 16.7974 13.5 16.5007C13.5 16.1029 13.342 15.7214 13.0607 15.4401C12.7794 15.1588 12.3978 15.0007 12 15.0007Z" fill="#25280B"/>
</g>
<defs>
<clipPath id="clip0_327_5738">
<rect width="24" height="24" fill="white"/>
</clipPath>
</defs>
</svg>
