<svg width="24" height="24" viewBox="0 0 24 24" fill="none" xmlns="http://www.w3.org/2000/svg">
<g clip-path="url(#clip0_327_5800)">
<path d="M19.5611 7.43891C19.7005 7.57821 19.8111 7.74361 19.8865 7.92566C19.962 8.10771 20.0008 8.30285 20.0008 8.49991C20.0008 8.69697 19.962 8.89211 19.8865 9.07416C19.8111 9.25621 19.7005 9.42161 19.5611 9.56091L16.5611 12.5609C16.2797 12.8423 15.8981 13.0004 15.5001 13.0004C15.1021 13.0004 14.7205 12.8423 14.4391 12.5609C14.1577 12.2795 13.9996 11.8979 13.9996 11.4999C13.9996 11.102 14.1577 10.7203 14.4391 10.4389L14.8791 9.99991L14.0001 9.12091L13.5611 9.56091C13.2797 9.84231 12.8981 10.0004 12.5001 10.0004C12.1021 10.0004 11.7205 9.84231 11.4391 9.56091C11.1577 9.27952 10.9996 8.89786 10.9996 8.49991C10.9996 8.10196 11.1577 7.7203 11.4391 7.43891L14.4391 4.43891C14.7205 4.15752 15.1021 3.99943 15.5001 3.99943C15.8981 3.99943 16.2797 4.15752 16.5611 4.43891C16.8425 4.7203 17.0006 5.10196 17.0006 5.49991C17.0006 5.89786 16.8425 6.27952 16.5611 6.56091L16.1211 6.99991L17.0001 7.87891L17.4391 7.43891C17.5784 7.29952 17.7438 7.18895 17.9259 7.1135C18.1079 7.03806 18.303 6.99923 18.5001 6.99923C18.6972 6.99923 18.8923 7.03806 19.0743 7.1135C19.2564 7.18895 19.4218 7.29952 19.5611 7.43891ZM10.4391 14.4389L10.0001 14.8789L9.1211 13.9999L9.5611 13.5609C9.84249 13.2795 10.0006 12.8979 10.0006 12.4999C10.0006 12.102 9.84249 11.7203 9.5611 11.4389C9.27971 11.1575 8.89805 10.9994 8.5001 10.9994C8.10215 10.9994 7.72049 11.1575 7.4391 11.4389L4.4391 14.4389C4.15771 14.7203 3.99962 15.102 3.99962 15.4999C3.99962 15.8979 4.15771 16.2795 4.4391 16.5609C4.72049 16.8423 5.10215 17.0004 5.5001 17.0004C5.89805 17.0004 6.27971 16.8423 6.5611 16.5609L7.0001 16.1209L7.8791 16.9999L7.4391 17.4389C7.15771 17.7203 6.99962 18.102 6.99962 18.4999C6.99962 18.8979 7.15771 19.2795 7.4391 19.5609C7.72049 19.8423 8.10215 20.0004 8.5001 20.0004C8.89805 20.0004 9.27971 19.8423 9.5611 19.5609L12.5611 16.5609C12.8425 16.2795 13.0006 15.8979 13.0006 15.4999C13.0006 15.102 12.8425 14.7203 12.5611 14.4389C12.2797 14.1575 11.8981 13.9994 11.5001 13.9994C11.1021 13.9994 10.7205 14.1575 10.4391 14.4389ZM24.0001 7.89091C24.0028 8.92752 23.7998 9.95438 23.403 10.912C23.0061 11.8697 22.4233 12.7391 21.6881 13.4699L13.4701 21.6879C12.7388 22.4267 11.8687 23.0137 10.9099 23.4152C9.95102 23.8166 8.92228 24.0247 7.88277 24.0273C6.84326 24.03 5.81347 23.8272 4.85258 23.4306C3.89169 23.034 3.01863 22.4515 2.28358 21.7164C1.54854 20.9814 0.965985 20.1083 0.569404 19.1474C0.172824 18.1865 -0.0299679 17.1568 -0.0273181 16.1172C-0.0246683 15.0777 0.183371 14.049 0.584845 13.0901C0.986319 12.1313 1.57331 11.2612 2.3121 10.5299L10.5301 2.31191C11.6337 1.20865 13.0396 0.457354 14.5701 0.153007C16.1006 -0.15134 17.6869 0.00492495 19.1286 0.602048C20.5703 1.19917 21.8026 2.21034 22.6697 3.50772C23.5368 4.8051 23.9998 6.33044 24.0001 7.89091ZM21.0001 7.89091C21.0004 6.92348 20.7137 5.9777 20.1764 5.17324C19.639 4.36878 18.8751 3.74179 17.9813 3.37159C17.0875 3.0014 16.104 2.90464 15.1552 3.09356C14.2064 3.28248 13.3349 3.74859 12.6511 4.43291L4.4331 12.6509C3.51598 13.568 3.00075 14.8119 3.00075 16.1089C3.00075 17.4059 3.51598 18.6498 4.4331 19.5669C5.35022 20.484 6.5941 20.9993 7.8911 20.9993C9.1881 20.9993 10.432 20.484 11.3491 19.5669L19.5671 11.3489C20.0227 10.8959 20.3839 10.357 20.6299 9.76341C20.8758 9.16985 21.0017 8.53341 21.0001 7.89091Z" fill="#25280B"/>
</g>
<defs>
<clipPath id="clip0_327_5800">
<rect width="24" height="24" fill="white"/>
</clipPath>
</defs>
</svg>
