<svg width="24" height="24" viewBox="0 0 24 24" fill="none" xmlns="http://www.w3.org/2000/svg">
<g clip-path="url(#clip0_327_5907)">
<path d="M21.621 19.4995L23.561 17.5605C23.8424 17.2791 24.0005 16.8975 24.0005 16.4995C24.0005 16.1016 23.8424 15.7199 23.561 15.4385C23.2796 15.1571 22.8979 14.999 22.5 14.999C22.102 14.999 21.7204 15.1571 21.439 15.4385L19.5 17.3785L17.561 15.4385C17.2796 15.1571 16.8979 14.999 16.5 14.999C16.102 14.999 15.7204 15.1571 15.439 15.4385C15.1576 15.7199 14.9995 16.1016 14.9995 16.4995C14.9995 16.8975 15.1576 17.2791 15.439 17.5605L17.379 19.4995L15.439 21.4385C15.1576 21.7199 14.9995 22.1016 14.9995 22.4995C14.9995 22.8975 15.1576 23.2791 15.439 23.5605C15.7204 23.8419 16.102 24 16.5 24C16.8979 24 17.2796 23.8419 17.561 23.5605L19.5 21.6205L21.439 23.5605C21.7204 23.8419 22.102 24 22.5 24C22.8979 24 23.2796 23.8419 23.561 23.5605C23.8424 23.2791 24.0005 22.8975 24.0005 22.4995C24.0005 22.1016 23.8424 21.7199 23.561 21.4385L21.621 19.4995Z" fill="#25280B"/>
<path d="M11.5701 20.9898C9.82874 20.9065 8.14904 20.3191 6.73513 19.2992C5.32123 18.2792 4.23399 16.8706 3.60553 15.2444C2.97707 13.6183 2.83445 11.8446 3.19498 10.1389C3.55552 8.43316 4.4037 6.86889 5.63647 5.63613C6.86923 4.40337 8.4335 3.55519 10.1392 3.19465C11.8449 2.83411 13.6186 2.97674 15.2448 3.6052C16.8709 4.23366 18.2796 5.3209 19.2995 6.7348C20.3195 8.14871 20.9068 9.82841 20.9901 11.5698C21.0087 11.9676 21.1845 12.3418 21.479 12.61C21.7734 12.8781 22.1623 13.0184 22.5601 12.9998C22.958 12.9812 23.3321 12.8054 23.6003 12.511C23.8685 12.2165 24.0087 11.8276 23.9901 11.4298C23.8798 9.10773 23.0973 6.8677 21.7378 4.98196C20.3784 3.09621 18.5004 1.64594 16.3322 0.807391C14.164 -0.0311561 11.7989 -0.221872 9.52441 0.258422C7.24987 0.738715 5.16381 1.86934 3.51974 3.51288C1.87567 5.15643 0.74438 7.24213 0.263362 9.51652C-0.217655 11.7909 -0.0276932 14.156 0.810163 16.3245C1.64802 18.493 3.09769 20.3714 4.98301 21.7314C6.86832 23.0915 9.1081 23.8747 11.4301 23.9858H11.5011C11.899 23.995 12.2841 23.8457 12.5719 23.5709C12.8597 23.296 13.0265 22.9181 13.0356 22.5203C13.0448 22.1225 12.8955 21.7373 12.6207 21.4495C12.3459 21.1618 11.968 20.995 11.5701 20.9858V20.9898Z" fill="#25280B"/>
<path d="M12 6C11.6022 6 11.2207 6.15803 10.9394 6.43934C10.658 6.72064 10.5 7.10217 10.5 7.5V11.055L8.10001 12.555C7.933 12.6596 7.78822 12.796 7.67396 12.9565C7.55969 13.1171 7.47818 13.2985 7.43406 13.4906C7.38995 13.6826 7.38411 13.8815 7.41688 14.0758C7.44964 14.2701 7.52037 14.456 7.62501 14.623C7.72958 14.79 7.86602 14.9348 8.02655 15.049C8.18709 15.1633 8.36856 15.2448 8.5606 15.2889C8.75265 15.333 8.9515 15.3389 9.1458 15.3061C9.34011 15.2734 9.52605 15.2026 9.69301 15.098L12.562 13.298C12.8499 13.1176 13.087 12.8669 13.2511 12.5695C13.4153 12.272 13.5009 11.9377 13.5 11.598V7.5C13.5 7.10217 13.342 6.72064 13.0607 6.43934C12.7794 6.15803 12.3978 6 12 6Z" fill="#25280B"/>
</g>
<defs>
<clipPath id="clip0_327_5907">
<rect width="24" height="24" fill="white"/>
</clipPath>
</defs>
</svg>
