<svg width="24" height="24" viewBox="0 0 24 24" fill="none" xmlns="http://www.w3.org/2000/svg">
<g clip-path="url(#clip0_327_5883)">
<path d="M8.09391 1.32795C7.96941 1.0786 7.77789 0.868869 7.54085 0.722282C7.30381 0.575695 7.03062 0.498047 6.75191 0.498047C6.47321 0.498047 6.20002 0.575695 5.96298 0.722282C5.72593 0.868869 5.53442 1.0786 5.40991 1.32795L0.159914 11.8279C0.0455891 12.0565 -0.00843876 12.3105 0.00295696 12.5658C0.0143527 12.8211 0.090794 13.0693 0.225028 13.2868C0.359263 13.5043 0.546838 13.6839 0.769959 13.8085C0.993079 13.9331 1.24434 13.9987 1.49991 13.9989C1.77852 13.999 2.05165 13.9215 2.28868 13.7751C2.52572 13.6287 2.71728 13.4191 2.84191 13.1699L3.42891 11.9989H10.0749L10.6599 13.1699C10.7844 13.4188 10.9756 13.6282 11.2123 13.7746C11.4489 13.921 11.7216 13.9987 11.9999 13.9989C12.2557 13.999 12.5072 13.9337 12.7306 13.8092C12.954 13.6847 13.1418 13.5052 13.2763 13.2876C13.4107 13.0701 13.4874 12.8218 13.4988 12.5663C13.5103 12.3108 13.4563 12.0567 13.3419 11.8279L8.09391 1.32795ZM4.92891 8.99895L6.75191 5.35295L8.57491 8.99895H4.92891Z" fill="#25280B"/>
<path d="M13.0002 23.5C12.8032 23.5001 12.6081 23.4614 12.4261 23.386C12.244 23.3107 12.0786 23.2003 11.9392 23.061L6.93924 18.061C6.65784 17.7796 6.49976 17.3979 6.49976 17C6.49976 16.602 6.65784 16.2204 6.93924 15.939C7.22063 15.6576 7.60228 15.4995 8.00023 15.4995C8.39819 15.4995 8.77984 15.6576 9.06123 15.939L13.0002 19.879L21.4392 11.439C21.7206 11.1576 22.1023 10.9995 22.5002 10.9995C22.8982 10.9995 23.2798 11.1576 23.5612 11.439C23.8426 11.7204 24.0007 12.102 24.0007 12.5C24.0007 12.8979 23.8426 13.2796 23.5612 13.561L14.0612 23.061C13.9219 23.2003 13.7564 23.3107 13.5744 23.386C13.3923 23.4614 13.1972 23.5001 13.0002 23.5Z" fill="#25280B"/>
</g>
<defs>
<clipPath id="clip0_327_5883">
<rect width="24" height="24" fill="white"/>
</clipPath>
</defs>
</svg>
