<svg width="24" height="24" viewBox="0 0 24 24" fill="none" xmlns="http://www.w3.org/2000/svg">
<g clip-path="url(#clip0_327_5164)">
<path d="M21 11.5V15H18C17.2044 15 16.4413 15.3161 15.8787 15.8787C15.3161 16.4413 15 17.2044 15 18V21H4.5C4.10218 21 3.72064 20.842 3.43934 20.5607C3.15804 20.2794 3 19.8978 3 19.5V4.5C3 4.10218 3.15804 3.72064 3.43934 3.43934C3.72064 3.15804 4.10218 3 4.5 3H13.5C13.8978 3 14.2794 2.84196 14.5607 2.56066C14.842 2.27936 15 1.89782 15 1.5C15 1.10218 14.842 0.720644 14.5607 0.43934C14.2794 0.158035 13.8978 0 13.5 0L4.5 0C3.30653 0 2.16193 0.474106 1.31802 1.31802C0.474106 2.16193 0 3.30653 0 4.5L0 19.5C0 20.6935 0.474106 21.8381 1.31802 22.682C2.16193 23.5259 3.30653 24 4.5 24H16.484C17.677 24 18.8212 23.5263 19.665 22.683L22.682 19.666C23.5257 18.8223 23.9997 17.6781 24 16.485V11.5C24 11.1022 23.842 10.7206 23.5607 10.4393C23.2794 10.158 22.8978 10 22.5 10C22.1022 10 21.7206 10.158 21.4393 10.4393C21.158 10.7206 21 11.1022 21 11.5Z" fill="#25280B"/>
<path d="M17.793 1.79319L5.293 14.2932C5.10545 14.4807 5.00006 14.735 5 15.0002V18.0002C5 18.2654 5.10536 18.5198 5.29289 18.7073C5.48043 18.8948 5.73478 19.0002 6 19.0002H9C9.26519 19.0001 9.51951 18.8947 9.707 18.7072L22.038 6.37619C22.4553 5.97383 22.762 5.4709 22.9287 4.91574C23.0954 4.36058 23.1165 3.77186 22.99 3.20619C22.8484 2.6801 22.5715 2.20028 22.1867 1.81454C21.802 1.4288 21.3229 1.1506 20.7972 1.00766C20.2714 0.864725 19.7174 0.862033 19.1903 0.999857C18.6632 1.13768 18.1815 1.41121 17.793 1.79319Z" fill="#25280B"/>
</g>
<defs>
<clipPath id="clip0_327_5164">
<rect width="24" height="24" fill="white"/>
</clipPath>
</defs>
</svg>
