<svg width="24" height="24" viewBox="0 0 24 24" fill="none" xmlns="http://www.w3.org/2000/svg">
<g clip-path="url(#clip0_327_5118)">
<path d="M22.5622 8.5C23.2538 7.79844 23.7225 6.90798 23.9092 5.94068C24.096 4.97338 23.9924 3.97245 23.6117 3.06385C23.2309 2.15524 22.5899 1.37955 21.7694 0.834372C20.9488 0.289197 19.9853 -0.00110165 19.0002 3.14166e-06H5.00016C4.015 -0.00110165 3.05152 0.289197 2.23095 0.834372C1.41038 1.37955 0.769392 2.15524 0.388632 3.06385C0.00787267 3.97245 -0.0956446 4.97338 0.0911059 5.94068C0.277856 6.90798 0.746531 7.79844 1.43816 8.5C0.516762 9.43189 0 10.6895 0 12C0 13.3105 0.516762 14.5681 1.43816 15.5C0.746531 16.2016 0.277856 17.092 0.0911059 18.0593C-0.0956446 19.0266 0.00787267 20.0276 0.388632 20.9362C0.769392 21.8448 1.41038 22.6205 2.23095 23.1656C3.05152 23.7108 4.015 24.0011 5.00016 24H19.0002C19.9853 24.0011 20.9488 23.7108 21.7694 23.1656C22.5899 22.6205 23.2309 21.8448 23.6117 20.9362C23.9924 20.0276 24.096 19.0266 23.9092 18.0593C23.7225 17.092 23.2538 16.2016 22.5622 15.5C23.4836 14.5681 24.0003 13.3105 24.0003 12C24.0003 10.6895 23.4836 9.43189 22.5622 8.5ZM5.00016 14C4.46972 14 3.96102 13.7893 3.58594 13.4142C3.21087 13.0391 3.00016 12.5304 3.00016 12C3.00016 11.4696 3.21087 10.9609 3.58594 10.5858C3.96102 10.2107 4.46972 10 5.00016 10V10.5C5.00016 10.8978 5.15819 11.2794 5.4395 11.5607C5.7208 11.842 6.10233 12 6.50016 12C6.89798 12 7.27951 11.842 7.56082 11.5607C7.84212 11.2794 8.00016 10.8978 8.00016 10.5V10H10.0002V10.5C10.0002 10.8978 10.1582 11.2794 10.4395 11.5607C10.7208 11.842 11.1023 12 11.5002 12C11.898 12 12.2795 11.842 12.5608 11.5607C12.8421 11.2794 13.0002 10.8978 13.0002 10.5V10H19.0002C19.5306 10 20.0393 10.2107 20.4144 10.5858C20.7894 10.9609 21.0002 11.4696 21.0002 12C21.0002 12.5304 20.7894 13.0391 20.4144 13.4142C20.0393 13.7893 19.5306 14 19.0002 14H5.00016ZM5.00016 3V3.5C5.00016 3.89783 5.15819 4.27936 5.4395 4.56066C5.7208 4.84197 6.10233 5 6.50016 5C6.89798 5 7.27951 4.84197 7.56082 4.56066C7.84212 4.27936 8.00016 3.89783 8.00016 3.5V3H10.0002V3.5C10.0002 3.89783 10.1582 4.27936 10.4395 4.56066C10.7208 4.84197 11.1023 5 11.5002 5C11.898 5 12.2795 4.84197 12.5608 4.56066C12.8421 4.27936 13.0002 3.89783 13.0002 3.5V3H19.0002C19.5306 3 20.0393 3.21072 20.4144 3.58579C20.7894 3.96086 21.0002 4.46957 21.0002 5C21.0002 5.53044 20.7894 6.03914 20.4144 6.41422C20.0393 6.78929 19.5306 7 19.0002 7H5.00016C4.46972 7 3.96102 6.78929 3.58594 6.41422C3.21087 6.03914 3.00016 5.53044 3.00016 5C3.00016 4.46957 3.21087 3.96086 3.58594 3.58579C3.96102 3.21072 4.46972 3 5.00016 3ZM19.0002 21H5.00016C4.46972 21 3.96102 20.7893 3.58594 20.4142C3.21087 20.0391 3.00016 19.5304 3.00016 19C3.00016 18.4696 3.21087 17.9609 3.58594 17.5858C3.96102 17.2107 4.46972 17 5.00016 17V17.5C5.00016 17.8978 5.15819 18.2794 5.4395 18.5607C5.7208 18.842 6.10233 19 6.50016 19C6.89798 19 7.27951 18.842 7.56082 18.5607C7.84212 18.2794 8.00016 17.8978 8.00016 17.5V17H10.0002V17.5C10.0002 17.8978 10.1582 18.2794 10.4395 18.5607C10.7208 18.842 11.1023 19 11.5002 19C11.898 19 12.2795 18.842 12.5608 18.5607C12.8421 18.2794 13.0002 17.8978 13.0002 17.5V17H19.0002C19.5306 17 20.0393 17.2107 20.4144 17.5858C20.7894 17.9609 21.0002 18.4696 21.0002 19C21.0002 19.5304 20.7894 20.0391 20.4144 20.4142C20.0393 20.7893 19.5306 21 19.0002 21Z" fill="#25280B"/>
</g>
<defs>
<clipPath id="clip0_327_5118">
<rect width="24" height="24" fill="white"/>
</clipPath>
</defs>
</svg>
