<svg width="24" height="24" viewBox="0 0 24 24" fill="none" xmlns="http://www.w3.org/2000/svg">
<g clip-path="url(#clip0_327_5238)">
<path d="M23.6542 5.24923C23.2909 4.75228 22.8302 4.33459 22.3001 4.02167C21.7701 3.70875 21.1818 3.50717 20.5712 3.42923C20.4932 2.81864 20.2917 2.23034 19.9787 1.70026C19.6658 1.17019 19.2481 0.709467 18.7512 0.346233C18.4963 0.154442 18.1931 0.0373922 17.8754 0.00819164C17.5578 -0.0210089 17.2383 0.0387932 16.9528 0.180901C16.6672 0.323008 16.4268 0.541809 16.2586 0.812798C16.0903 1.08379 16.0009 1.39626 16.0002 1.71523V7.00023H15.5002C13.9919 6.99397 12.4861 7.12079 11.0002 7.37923V7.20023C11.0025 6.88486 10.9364 6.57273 10.8063 6.28543C10.6762 5.99813 10.4852 5.74252 10.2466 5.53626C10.008 5.33 9.72749 5.17802 9.42439 5.09082C9.1213 5.00363 8.80289 4.98329 8.49117 5.03123C6.97304 5.32059 5.60024 6.12228 4.60224 7.3023C3.60424 8.48231 3.04153 9.96914 3.00817 11.5142C1.17594 13.7514 0.122759 16.5248 0.00816718 19.4142C-0.0346426 20.028 0.0554968 20.6437 0.272431 21.2195C0.489365 21.7952 0.827984 22.3173 1.26517 22.7502C1.6475 23.1598 2.11296 23.483 2.63035 23.6981C3.14775 23.9131 3.70514 24.0151 4.26517 23.9972C8.46517 23.6722 13.0362 22.0742 15.3892 16.9972H16.7232C19.2072 17.0742 20.0062 13.1212 17.1972 12.9972H16.6102C16.8743 11.5129 17.0048 10.0079 17.0002 8.50023V8.00023H22.2852C22.6041 7.99954 22.9166 7.91006 23.1876 7.74181C23.4586 7.57357 23.6774 7.33321 23.8195 7.04764C23.9616 6.76208 24.0214 6.44259 23.9922 6.12496C23.963 5.80733 23.846 5.5041 23.6542 5.24923ZM4.50017 21.0002C4.10234 21.0002 3.72081 20.8422 3.43951 20.5609C3.1582 20.2796 3.00017 19.8981 3.00017 19.5002C3.00017 19.1024 3.1582 18.7209 3.43951 18.4396C3.72081 18.1583 4.10234 18.0002 4.50017 18.0002C4.89799 18.0002 5.27952 18.1583 5.56083 18.4396C5.84213 18.7209 6.00017 19.1024 6.00017 19.5002C6.00017 19.8981 5.84213 20.2796 5.56083 20.5609C5.27952 20.8422 4.89799 21.0002 4.50017 21.0002ZM9.30017 19.5722C8.84622 18.4767 8.18026 17.4817 7.34056 16.6444C6.50085 15.8071 5.50396 15.144 4.40717 14.6932C6.08917 11.8472 9.24917 10.3092 13.9562 10.0422C13.6892 14.7282 12.1502 17.8812 9.30017 19.5722Z" fill="#25280B"/>
</g>
<defs>
<clipPath id="clip0_327_5238">
<rect width="24" height="24" fill="white"/>
</clipPath>
</defs>
</svg>
