<svg width="24" height="24" viewBox="0 0 24 24" fill="none" xmlns="http://www.w3.org/2000/svg">
<g clip-path="url(#clip0_327_5716)">
<path d="M18.5 2.00049H5.5C4.0418 2.00208 2.64377 2.58205 1.61267 3.61316C0.581561 4.64426 0.00158817 6.04228 0 7.50049L0 13.5005C0.00158817 14.9587 0.581561 16.3567 1.61267 17.3878C2.64377 18.4189 4.0418 18.9989 5.5 19.0005H10.5V21.0005H8C7.60218 21.0005 7.22064 21.1585 6.93934 21.4398C6.65804 21.7211 6.5 22.1027 6.5 22.5005C6.5 22.8983 6.65804 23.2798 6.93934 23.5611C7.22064 23.8425 7.60218 24.0005 8 24.0005H16C16.3978 24.0005 16.7794 23.8425 17.0607 23.5611C17.342 23.2798 17.5 22.8983 17.5 22.5005C17.5 22.1027 17.342 21.7211 17.0607 21.4398C16.7794 21.1585 16.3978 21.0005 16 21.0005H13.5V19.0005H18.5C19.9582 18.9989 21.3562 18.4189 22.3873 17.3878C23.4184 16.3567 23.9984 14.9587 24 13.5005V7.50049C23.9984 6.04228 23.4184 4.64426 22.3873 3.61316C21.3562 2.58205 19.9582 2.00208 18.5 2.00049ZM21 13.5005C21 14.1635 20.7366 14.7994 20.2678 15.2683C19.7989 15.7371 19.163 16.0005 18.5 16.0005H5.5C4.83696 16.0005 4.20107 15.7371 3.73223 15.2683C3.26339 14.7994 3 14.1635 3 13.5005V7.50049C3 6.83745 3.26339 6.20156 3.73223 5.73272C4.20107 5.26388 4.83696 5.00049 5.5 5.00049H18.5C19.163 5.00049 19.7989 5.26388 20.2678 5.73272C20.7366 6.20156 21 6.83745 21 7.50049V13.5005Z" fill="#25280B"/>
</g>
<defs>
<clipPath id="clip0_327_5716">
<rect width="24" height="24" fill="white"/>
</clipPath>
</defs>
</svg>
