<svg width="24" height="24" viewBox="0 0 24 24" fill="none" xmlns="http://www.w3.org/2000/svg">
<g clip-path="url(#clip0_327_5995)">
<path d="M7.4525 14.0172C3.19089 14.4024 -0.0558482 18.0033 0.000728186 22.2819V22.4989C0.000728186 23.3273 0.672285 23.9988 1.50068 23.9988C2.32908 23.9988 3.00063 23.3273 3.00063 22.4989V22.2219C2.95554 19.5949 4.89423 17.3547 7.50049 17.0221C10.2516 16.7493 12.7031 18.7584 12.9759 21.5095C12.992 21.6722 13.0002 21.8355 13.0003 21.9989V22.4989C13.0003 23.3273 13.6719 23.9989 14.5003 23.9989C15.3287 23.9989 16.0002 23.3273 16.0002 22.4989V21.9989C15.9953 17.5758 12.4057 13.9942 7.98264 13.999C7.80573 13.9992 7.62893 14.0053 7.4525 14.0172Z" fill="#25280B"/>
<path d="M8.00055 12.0001C11.3141 12.0001 14.0004 9.31388 14.0004 6.0003C14.0004 2.68672 11.3141 0.000488281 8.00055 0.000488281C4.68696 0.000488281 2.00073 2.68672 2.00073 6.0003C2.00406 9.31253 4.68832 11.9968 8.00055 12.0001ZM8.00055 3.00039C9.65734 3.00039 11.0005 4.34351 11.0005 6.0003C11.0005 7.65709 9.65734 9.00021 8.00055 9.00021C6.34375 9.00021 5.00064 7.65709 5.00064 6.0003C5.00064 4.34351 6.34375 3.00039 8.00055 3.00039Z" fill="#25280B"/>
<path d="M22.5002 10.0004H21.0003V8.50044C21.0003 7.67204 20.3287 7.00049 19.5003 7.00049C18.6719 7.00049 18.0004 7.67204 18.0004 8.50044V10.0004H16.5004C15.672 10.0004 15.0005 10.6719 15.0005 11.5003C15.0005 12.3287 15.672 13.0003 16.5004 13.0003H18.0004V14.5002C18.0004 15.3286 18.6719 16.0002 19.5003 16.0002C20.3287 16.0002 21.0003 15.3286 21.0003 14.5002V13.0003H22.5002C23.3286 13.0003 24.0002 12.3287 24.0002 11.5003C24.0002 10.6719 23.3286 10.0004 22.5002 10.0004Z" fill="#25280B"/>
</g>
<defs>
<clipPath id="clip0_327_5995">
<rect width="24" height="24" fill="white"/>
</clipPath>
</defs>
</svg>
