<svg width="24" height="24" viewBox="0 0 24 24" fill="none" xmlns="http://www.w3.org/2000/svg">
<g clip-path="url(#clip0_327_5074)">
<path d="M12 0C5.37258 0 0 5.37258 0 12C0 18.6274 5.37258 24 12 24C18.6274 24 24 18.6274 24 12C23.9928 5.37553 18.6245 0.00717187 12 0ZM12 21C7.02942 21 3 16.9706 3 12C3 7.02942 7.02942 3 12 3C16.9706 3 21 7.02942 21 12C20.994 16.968 16.968 20.994 12 21Z" fill="#25280B"/>
<path d="M14.6 9.33299C15.186 9.91869 16.1358 9.91846 16.7215 9.33247C17.3072 8.74649 17.307 7.79666 16.721 7.21096C14.0761 4.56894 9.79022 4.57124 7.14821 7.21616C4.5062 9.86108 4.5085 14.147 7.15341 16.789C9.79627 19.429 14.0782 19.429 16.721 16.789C17.307 16.2033 17.3072 15.2534 16.7215 14.6675C16.1358 14.0815 15.186 14.0812 14.6 14.6669C13.1271 16.1401 10.7388 16.1403 9.2656 14.6674C7.79241 13.1944 7.79223 10.8061 9.26518 9.33294C10.7381 7.85975 13.1264 7.85957 14.5996 9.33252C14.5997 9.33271 14.5999 9.33285 14.6 9.33299Z" fill="#25280B"/>
</g>
<defs>
<clipPath id="clip0_327_5074">
<rect width="24" height="24" fill="white"/>
</clipPath>
</defs>
</svg>
