<svg width="24" height="24" viewBox="0 0 24 24" fill="none" xmlns="http://www.w3.org/2000/svg">
<g clip-path="url(#clip0_327_5600)">
<path d="M22.4 1.59265C20.588 -0.21435 17.4 -1.16635 11.983 2.60065C6.57096 -1.16535 3.37796 -0.21435 1.56996 1.59265C-0.238037 3.39965 -1.19004 6.59065 2.57796 12.0007C-1.19004 17.4107 -0.237037 20.6007 1.56996 22.4087C2.06847 22.9224 2.6664 23.3292 3.32728 23.6043C3.98817 23.8794 4.69816 24.017 5.41396 24.0087C7.11396 24.0087 9.27096 23.3087 11.983 21.4147C14.696 23.3037 16.851 24.0097 18.552 24.0097C19.2678 24.0183 19.9779 23.8808 20.6388 23.6057C21.2997 23.3306 21.8976 22.9236 22.396 22.4097C24.2 20.6007 25.157 17.4107 21.388 12.0007C25.157 6.59065 24.2 3.40065 22.4 1.59265ZM18.472 3.00865C18.8043 2.99796 19.1353 3.05515 19.4448 3.17671C19.7543 3.29827 20.0357 3.48165 20.272 3.71565C21.627 5.06965 20.857 7.31565 19.449 9.51565C18.743 8.69465 17.962 7.84065 17.049 6.93165C16.136 6.02265 15.285 5.24265 14.464 4.53665C15.6395 3.67849 17.0235 3.15087 18.472 3.00865ZM17.617 12.0007C16.649 13.1717 15.659 14.2147 14.929 14.9447C14.199 15.6747 13.154 16.6647 11.983 17.6317C10.812 16.6647 9.76796 15.6757 9.03796 14.9447C8.30796 14.2137 7.31696 13.1717 6.34996 12.0007C7.31696 10.8297 8.30696 9.78665 9.03796 9.05665C9.76896 8.32665 10.811 7.33565 11.983 6.36865C13.155 7.33565 14.198 8.32565 14.929 9.05665C15.66 9.78765 16.649 10.8297 17.617 12.0007ZM3.69396 3.71565C3.93015 3.4816 4.2116 3.29819 4.52109 3.17663C4.83059 3.05506 5.16162 2.99791 5.49396 3.00865C6.94203 3.15148 8.32536 3.67981 9.49996 4.53865C8.67796 5.24465 7.82396 6.02465 6.91496 6.93365C6.00596 7.84265 5.22296 8.70065 4.51696 9.51765C3.10996 7.31365 2.33896 5.06965 3.69396 3.71565ZM3.69396 20.2857C2.33896 18.9317 3.10996 16.6857 4.51696 14.4857C5.22296 15.3067 6.00396 16.1607 6.91696 17.0697C7.82996 17.9787 8.67896 18.7697 9.49596 19.4697C7.28996 20.8717 5.04796 21.6387 3.69396 20.2857ZM20.272 20.2857C18.917 21.6397 16.672 20.8717 14.472 19.4677C15.29 18.7677 16.148 17.9727 17.053 17.0677C17.958 16.1627 18.743 15.3047 19.453 14.4837C20.857 16.6877 21.627 18.9317 20.272 20.2857Z" fill="#25280B"/>
<path d="M12 14.0005C13.1046 14.0005 14 13.1051 14 12.0005C14 10.8959 13.1046 10.0005 12 10.0005C10.8954 10.0005 10 10.8959 10 12.0005C10 13.1051 10.8954 14.0005 12 14.0005Z" fill="#25280B"/>
</g>
<defs>
<clipPath id="clip0_327_5600">
<rect width="24" height="24" fill="white"/>
</clipPath>
</defs>
</svg>
