<svg width="24" height="24" viewBox="0 0 24 24" fill="none" xmlns="http://www.w3.org/2000/svg">
<g clip-path="url(#clip0_327_4968)">
<path d="M22.2931 12.6999L21.5611 13.4319L17.9751 9.84191C17.3083 9.20612 16.4224 8.85143 15.5011 8.85143C14.5798 8.85143 13.6939 9.20612 13.0271 9.84191L12.8531 10.0149C12.7593 10.1086 12.6322 10.1613 12.4996 10.1613C12.367 10.1613 12.2399 10.1086 12.1461 10.0149L8.04611 5.91491C7.76215 5.64669 7.38476 5.49983 6.9942 5.50553C6.60364 5.51124 6.23071 5.66907 5.9547 5.94546C5.6787 6.22186 5.5214 6.59501 5.51624 6.98558C5.51109 7.37615 5.65849 7.75333 5.92711 8.03691L10.0271 12.1369C10.6938 12.7729 11.5797 13.1278 12.5011 13.1278C13.4225 13.1278 14.3085 12.7729 14.9751 12.1369L15.1491 11.9639C15.2429 11.8702 15.37 11.8175 15.5026 11.8175C15.6352 11.8175 15.7623 11.8702 15.8561 11.9639L19.4411 15.5489L18.7081 16.2819C18.5683 16.4218 18.4731 16.5999 18.4345 16.7939C18.396 16.9878 18.4158 17.1889 18.4914 17.3716C18.5671 17.5543 18.6952 17.7104 18.8596 17.8203C19.0241 17.9302 19.2174 17.9889 19.4151 17.9889H22.5001C22.8979 17.9889 23.2795 17.8309 23.5608 17.5496C23.8421 17.2683 24.0001 16.8867 24.0001 16.4889V13.3999C23.9987 13.2028 23.939 13.0104 23.8286 12.8471C23.7182 12.6837 23.562 12.5567 23.3795 12.4819C23.1971 12.4071 22.9967 12.3879 22.8034 12.4266C22.6101 12.4654 22.4325 12.5605 22.2931 12.6999Z" fill="#25280B"/>
<path d="M22.5 21H5.5C4.83696 21 4.20107 20.7366 3.73223 20.2678C3.26339 19.7989 3 19.163 3 18.5V1.5C3 1.10218 2.84196 0.720644 2.56066 0.43934C2.27936 0.158035 1.89782 0 1.5 0C1.10218 0 0.720644 0.158035 0.43934 0.43934C0.158035 0.720644 0 1.10218 0 1.5L0 18.5C0.00158817 19.9582 0.581561 21.3562 1.61267 22.3873C2.64377 23.4184 4.0418 23.9984 5.5 24H22.5C22.8978 24 23.2794 23.842 23.5607 23.5607C23.842 23.2794 24 22.8978 24 22.5C24 22.1022 23.842 21.7206 23.5607 21.4393C23.2794 21.158 22.8978 21 22.5 21Z" fill="#25280B"/>
</g>
<defs>
<clipPath id="clip0_327_4968">
<rect width="24" height="24" fill="white"/>
</clipPath>
</defs>
</svg>
