<svg width="24" height="24" viewBox="0 0 24 24" fill="none" xmlns="http://www.w3.org/2000/svg">
<g clip-path="url(#clip0_327_5326)">
<path d="M23.9998 14C23.9989 13.6503 23.9059 13.3071 23.7304 13.0047C23.5549 12.7022 23.303 12.4513 22.9998 12.277V10.5C22.9967 7.7162 21.8894 5.04733 19.921 3.07889C17.9525 1.11044 15.2836 0.00317604 12.4999 0L11.4999 0C8.71606 0.00317604 6.04719 1.11044 4.07875 3.07889C2.11031 5.04733 1.00304 7.7162 0.999865 10.5V12.277C0.700039 12.4537 0.451515 12.7056 0.278857 13.0078C0.106198 13.31 0.0153809 13.652 0.0153809 14C0.0153809 14.348 0.106198 14.69 0.278857 14.9922C0.451515 15.2944 0.700039 15.5463 0.999865 15.723V16.5C1.00198 18.4885 1.79284 20.3949 3.1989 21.801C4.60496 23.207 6.51138 23.9979 8.49986 24H15.4998C17.4883 23.9979 19.3947 23.207 20.8008 21.801C22.2069 20.3949 22.9977 18.4885 22.9998 16.5V15.723C23.303 15.5487 23.5549 15.2978 23.7304 14.9953C23.9059 14.6929 23.9989 14.3497 23.9998 14ZM11.4999 3H12.4999C14.4883 3.00212 16.3947 3.79297 17.8008 5.19904C19.2069 6.6051 19.9977 8.51153 19.9998 10.5V12H3.99986V10.5C4.00198 8.51153 4.79283 6.6051 6.1989 5.19904C7.60496 3.79297 9.51138 3.00212 11.4999 3ZM15.4998 21H8.49986C7.30679 20.9987 6.16297 20.5241 5.31934 19.6805C4.47571 18.8369 4.00118 17.6931 3.99986 16.5V16.026C5.59186 16.152 6.17186 16.9 7.78386 18.299C8.29748 18.7506 8.95796 18.9996 9.64185 18.9996C10.3257 18.9996 10.9862 18.7506 11.4999 18.299C13.8178 16.287 13.8699 16 16.9998 16H19.9998V16.5C19.9985 17.6931 19.524 18.8369 18.6804 19.6805C17.8367 20.5241 16.6929 20.9987 15.4998 21ZM5.99986 8.5C5.99986 8.10218 6.15789 7.72064 6.4392 7.43934C6.7205 7.15804 7.10203 7 7.49986 7C7.89768 7 8.27921 7.15804 8.56052 7.43934C8.84182 7.72064 8.99986 8.10218 8.99986 8.5C8.99986 8.89782 8.84182 9.27936 8.56052 9.56066C8.27921 9.84196 7.89768 10 7.49986 10C7.10203 10 6.7205 9.84196 6.4392 9.56066C6.15789 9.27936 5.99986 8.89782 5.99986 8.5ZM9.99985 6.5C9.99985 6.10218 10.1579 5.72064 10.4392 5.43934C10.7205 5.15804 11.102 5 11.4999 5C11.8977 5 12.2792 5.15804 12.5605 5.43934C12.8418 5.72064 12.9999 6.10218 12.9999 6.5C12.9999 6.89782 12.8418 7.27936 12.5605 7.56066C12.2792 7.84196 11.8977 8 11.4999 8C11.102 8 10.7205 7.84196 10.4392 7.56066C10.1579 7.27936 9.99985 6.89782 9.99985 6.5Z" fill="#25280B"/>
</g>
<defs>
<clipPath id="clip0_327_5326">
<rect width="24" height="24" fill="white"/>
</clipPath>
</defs>
</svg>
