<svg width="24" height="24" viewBox="0 0 24 24" fill="none" xmlns="http://www.w3.org/2000/svg">
<g clip-path="url(#clip0_327_5564)">
<path d="M13.2399 0.0630931C12.2212 -0.0410631 11.1934 -0.0161725 10.1809 0.137109C9.40048 0.268687 8.87449 1.00795 9.00607 1.78837C9.02257 1.88925 9.0829 2.08509 9.0829 2.08509C9.29815 2.78091 9.99443 3.21066 10.7129 3.09108C11.1392 3.03061 11.5693 3.00019 11.9999 3.00009V21.0001C11.5693 21 11.1392 20.9696 10.7129 20.9091C9.99443 20.7895 9.2981 21.2193 9.0829 21.9151L9.04591 22.0411C8.81721 22.7953 9.24321 23.5921 9.99738 23.8208C10.053 23.8377 10.1096 23.8511 10.1669 23.8611C10.7735 23.9535 11.3863 24 11.9999 24.0001C18.6274 24.0068 24.0053 18.6396 24.012 12.0121C24.0181 5.85558 19.3642 0.693093 13.2399 0.0630931Z" fill="#25280B"/>
<path d="M3.00606 17.077L2.88705 17.145C2.19742 17.5276 1.94856 18.3969 2.3312 19.0865C2.3597 19.1379 2.39139 19.1875 2.42603 19.235C3.02435 20.0246 3.7172 20.7379 4.48905 21.359C5.11408 21.8409 6.01141 21.7248 6.49328 21.0998C6.52797 21.0548 6.65908 20.842 6.65908 20.842C7.02771 20.2254 6.88324 19.4312 6.32106 18.984C5.77413 18.5385 5.28142 18.0304 4.85308 17.47C4.42272 16.8949 3.63325 16.7269 3.00606 17.077Z" fill="#25280B"/>
<path d="M6.6589 3.16023L6.58892 3.04323C6.18481 2.36532 5.30768 2.14337 4.62978 2.54743C4.58098 2.57654 4.53392 2.60851 4.48892 2.6432C3.71604 3.26415 3.02248 3.97787 2.42393 4.76818C1.95926 5.40545 2.09918 6.2987 2.73644 6.76337C2.78393 6.79801 2.99993 6.92518 2.99993 6.92518C3.62735 7.27586 4.41748 7.10781 4.84793 6.53218C5.2774 5.97208 5.77076 5.464 6.31793 5.01817C6.88147 4.57211 7.02729 3.77743 6.6589 3.16023Z" fill="#25280B"/>
<path d="M3 12.0002C3.00023 11.6477 3.02063 11.2955 3.06098 10.9452C3.15291 10.2328 2.70309 9.56233 2.00897 9.37722L1.87598 9.34221C1.10194 9.14562 0.315094 9.61371 0.1185 10.3878C0.101438 10.4549 0.0892031 10.5233 0.0819844 10.5922C-0.0273281 11.5291 -0.0273281 12.4754 0.0819844 13.4122C0.165375 14.2065 0.876844 14.7827 1.67105 14.6993C1.7422 14.6918 2.01497 14.6262 2.01497 14.6262C2.70853 14.4411 3.15792 13.7711 3.06595 13.0592C3.02348 12.7078 3.00145 12.3542 3 12.0002Z" fill="#25280B"/>
</g>
<defs>
<clipPath id="clip0_327_5564">
<rect width="24" height="24" fill="white"/>
</clipPath>
</defs>
</svg>
