<svg width="24" height="24" viewBox="0 0 24 24" fill="none" xmlns="http://www.w3.org/2000/svg">
<path d="M17.0002 12.3508V8.49983C17.0002 8.102 16.8422 7.72047 16.5609 7.43917C16.2796 7.15786 15.8981 6.99983 15.5002 6.99983H15.0002V1.80983C15 1.50145 14.9211 1.19822 14.7708 0.928934C14.6205 0.659643 14.4039 0.433215 14.1415 0.271133C13.8792 0.10905 13.5798 0.0166885 13.2717 0.00281054C12.9636 -0.0110674 12.6571 0.0539985 12.3812 0.191835L10.4162 1.17483C9.99074 1.38726 9.63285 1.71405 9.38273 2.11855C9.13261 2.52305 9.00016 2.98925 9.00024 3.46483V6.99983H8.50024C8.10242 6.99983 7.72089 7.15786 7.43958 7.43917C7.15828 7.72047 7.00024 8.102 7.00024 8.49983V12.3508C6.40386 12.6337 5.89963 13.0795 5.54574 13.6367C5.19186 14.1938 5.00275 14.8398 5.00024 15.4998V18.4998C5.00183 19.958 5.5818 21.356 6.61291 22.3871C7.64402 23.4182 9.04204 23.9982 10.5002 23.9998H13.5002C14.9584 23.9982 16.3565 23.4182 17.3876 22.3871C18.4187 21.356 18.9987 19.958 19.0002 18.4998V15.4998C18.9977 14.8398 18.8086 14.1938 18.4547 13.6367C18.1009 13.0795 17.5966 12.6337 17.0002 12.3508ZM10.0002 11.9998V9.99982H14.0002V11.9998H10.0002ZM16.0002 18.4998C16.0002 19.1629 15.7369 19.7987 15.268 20.2676C14.7992 20.7364 14.1633 20.9998 13.5002 20.9998H10.5002C9.8372 20.9998 9.20132 20.7364 8.73248 20.2676C8.26364 19.7987 8.00024 19.1629 8.00024 18.4998V15.4998C8.00024 15.3672 8.05292 15.24 8.14669 15.1463C8.24046 15.0525 8.36764 14.9998 8.50024 14.9998H15.5002C15.6329 14.9998 15.76 15.0525 15.8538 15.1463C15.9476 15.24 16.0002 15.3672 16.0002 15.4998V18.4998Z" fill="#25280B"/>
</svg>
