<svg width="24" height="24" viewBox="0 0 24 24" fill="none" xmlns="http://www.w3.org/2000/svg">
<g clip-path="url(#clip0_327_5297)">
<path d="M13.4181 15.0001C14.9015 15.0001 16.3515 14.5603 17.5849 13.7362C18.8183 12.912 19.7796 11.7407 20.3472 10.3703C20.9149 8.99981 21.0634 7.49181 20.774 6.03695C20.4846 4.58209 19.7703 3.24572 18.7214 2.19683C17.6725 1.14793 16.3361 0.433629 14.8813 0.144239C13.4264 -0.14515 11.9184 0.00337517 10.548 0.571032C9.17755 1.13869 8.00621 2.09998 7.1821 3.33335C6.35799 4.56672 5.91813 6.01677 5.91813 7.50013C5.92025 9.4886 6.7111 11.395 8.11716 12.8011C9.52322 14.2072 11.4296 14.998 13.4181 15.0001ZM13.4181 3.00013C14.3081 3.00013 15.1782 3.26405 15.9182 3.75852C16.6582 4.25298 17.235 4.95579 17.5756 5.77805C17.9162 6.60032 18.0053 7.50512 17.8316 8.37804C17.658 9.25095 17.2294 10.0528 16.6001 10.6821C15.9708 11.3114 15.1689 11.74 14.296 11.9137C13.4231 12.0873 12.5183 11.9982 11.696 11.6576C10.8738 11.317 10.171 10.7402 9.67651 10.0002C9.18204 9.26017 8.91812 8.39015 8.91812 7.50013C8.91812 6.30666 9.39223 5.16206 10.2361 4.31815C11.0801 3.47423 12.2246 3.00013 13.4181 3.00013ZM23.7371 14.5561C22.6833 16.0914 21.2996 17.3715 19.6872 18.3029C18.0748 19.2343 16.2745 19.7934 14.4181 19.9391V21.0001H17.5001C17.8979 21.0001 18.2795 21.1582 18.5608 21.4395C18.8421 21.7208 19.0001 22.1023 19.0001 22.5001C19.0001 22.898 18.8421 23.2795 18.5608 23.5608C18.2795 23.8421 17.8979 24.0001 17.5001 24.0001H8.50012C8.1023 24.0001 7.72077 23.8421 7.43947 23.5608C7.15816 23.2795 7.00013 22.898 7.00013 22.5001C7.00013 22.1023 7.15816 21.7208 7.43947 21.4395C7.72077 21.1582 8.1023 21.0001 8.50012 21.0001H11.4181V19.8251C9.36495 19.4939 7.427 18.6552 5.78016 17.3851C4.13331 16.115 2.82971 14.4538 1.98767 12.5521C1.14563 10.6505 0.791802 8.56871 0.958306 6.49567C1.12481 4.42263 1.80637 2.42398 2.94113 0.681129C3.04731 0.513104 3.18582 0.367856 3.34862 0.253826C3.51142 0.139796 3.69525 0.0592581 3.88945 0.0168923C4.08364 -0.0254735 4.28432 -0.0288223 4.47982 0.00704053C4.67532 0.0429033 4.86174 0.117263 5.02825 0.225797C5.19476 0.334332 5.33805 0.474877 5.44977 0.639266C5.56149 0.803655 5.63943 0.98861 5.67906 1.18338C5.71868 1.37815 5.7192 1.57886 5.68059 1.77383C5.64198 1.96881 5.565 2.15416 5.45413 2.31913C4.05631 4.41553 3.54853 6.98136 4.0425 9.45215C4.53647 11.9229 5.99172 14.0963 8.08813 15.4941C10.1845 16.892 12.7503 17.3997 15.2211 16.9058C17.6919 16.4118 19.8653 14.9565 21.2631 12.8601C21.3747 12.6977 21.5173 12.5588 21.6825 12.4515C21.8478 12.3441 22.0327 12.2703 22.2265 12.2344C22.4203 12.1985 22.6192 12.201 22.812 12.242C23.0048 12.283 23.1877 12.3615 23.3501 12.4731C23.5126 12.5848 23.6514 12.7273 23.7588 12.8926C23.8661 13.0579 23.9399 13.2427 23.9758 13.4365C24.0118 13.6303 24.0092 13.8293 23.9682 14.022C23.9273 14.2148 23.8487 14.3977 23.7371 14.5601V14.5561Z" fill="#25280B"/>
</g>
<defs>
<clipPath id="clip0_327_5297">
<rect width="24" height="24" fill="white"/>
</clipPath>
</defs>
</svg>
