<svg width="24" height="24" viewBox="0 0 24 24" fill="none" xmlns="http://www.w3.org/2000/svg">
<g clip-path="url(#clip0_327_5606)">
<path d="M24.0001 9.87578C24.0526 8.56541 23.8337 7.25833 23.3572 6.03655C22.8807 4.81476 22.1569 3.70462 21.2311 2.77577C19.5829 1.19962 17.445 0.234966 15.1726 0.0421311C12.9002 -0.150704 10.6303 0.439897 8.7401 1.71577C8.2171 1.11862 7.55915 0.654888 6.82092 0.363099C6.08268 0.0713107 5.28548 -0.0401095 4.49554 0.0380952C3.70559 0.1163 2.94571 0.381872 2.27903 0.812748C1.61234 1.24362 1.05809 1.82736 0.662326 2.51548C0.266561 3.20359 0.040706 3.9762 0.00352352 4.76914C-0.0336589 5.56207 0.118905 6.35243 0.44854 7.07456C0.778176 7.79668 1.27537 8.42973 1.89881 8.9211C2.52225 9.41248 3.25394 9.74799 4.0331 9.89977C3.98322 11.658 4.34196 13.4037 5.0811 14.9998C5.1325 15.0918 5.1524 15.198 5.13778 15.3024C5.12315 15.4067 5.07481 15.5035 5.0001 15.5778L1.1861 18.2418V18.2558C0.832328 18.5457 0.543999 18.9073 0.340109 19.3168C0.136218 19.7263 0.0213932 20.1743 0.00319658 20.6313C-0.015 21.0884 0.0638451 21.5441 0.234538 21.9685C0.405231 22.3928 0.663899 22.7762 0.993502 23.0934C1.32311 23.4105 1.71616 23.6542 2.14679 23.8085C2.57741 23.9627 3.03583 24.024 3.49184 23.9882C3.94785 23.9524 4.39111 23.8205 4.79242 23.601C5.19373 23.3815 5.54398 23.0794 5.8201 22.7148L5.8301 22.7208L8.4001 18.9998C8.47283 18.9163 8.5712 18.8594 8.67978 18.8378C8.78837 18.8163 8.90103 18.8314 9.0001 18.8808C10.3857 19.586 11.9084 19.9809 13.4621 20.0378C13.8449 20.0405 14.2274 20.0137 14.6061 19.9578C16.9722 19.765 19.1904 18.7292 20.8571 17.0388C22.7826 15.1412 23.9075 12.5776 24.0001 9.87578ZM3.0001 4.99977C3.0001 4.60421 3.1174 4.21753 3.33716 3.88863C3.55693 3.55974 3.86928 3.30339 4.23474 3.15201C4.60019 3.00064 5.00232 2.96103 5.39028 3.0382C5.77824 3.11537 6.13461 3.30586 6.41432 3.58556C6.69402 3.86527 6.8845 4.22163 6.96167 4.60959C7.03884 4.99756 6.99924 5.39969 6.84786 5.76514C6.69649 6.13059 6.44014 6.44295 6.11124 6.66271C5.78234 6.88248 5.39566 6.99977 5.0001 6.99977C4.46967 6.99977 3.96096 6.78906 3.58589 6.41399C3.21082 6.03892 3.0001 5.53021 3.0001 4.99977ZM15.3781 16.7998L7.7461 9.17077C8.4376 8.71633 9.00551 8.09738 9.3989 7.36942C9.79229 6.64145 9.99887 5.82723 10.0001 4.99977C9.9919 4.83805 9.97555 4.67685 9.9511 4.51677C11.2702 3.47669 12.9182 2.94348 14.5965 3.01374C16.2749 3.084 17.8726 3.75308 19.1001 4.89977C19.7364 5.53908 20.2337 6.30305 20.5606 7.1437C20.8876 7.98436 21.0372 8.88354 21.0001 9.78477C20.9298 11.7218 20.1208 13.5584 18.7391 14.9178C17.8191 15.8501 16.6538 16.5027 15.3781 16.7998Z" fill="#25280B"/>
</g>
<defs>
<clipPath id="clip0_327_5606">
<rect width="24" height="24" fill="white"/>
</clipPath>
</defs>
</svg>
