<svg width="24" height="24" viewBox="0 0 24 24" fill="none" xmlns="http://www.w3.org/2000/svg">
<g clip-path="url(#clip0_327_5534)">
<path d="M22.5002 15.4995C22.1024 15.4995 21.7209 15.6575 21.4396 15.9388C21.1583 16.2202 21.0002 16.6017 21.0002 16.9995V18.4995C21.0002 19.1625 20.7369 19.7984 20.268 20.2673C19.7992 20.7361 19.1633 20.9995 18.5002 20.9995H17.0002C16.6024 20.9995 16.2209 21.1575 15.9396 21.4388C15.6583 21.7201 15.5002 22.1017 15.5002 22.4995C15.5002 22.8973 15.6583 23.2788 15.9396 23.5601C16.2209 23.8414 16.6024 23.9995 17.0002 23.9995H18.5002C19.9584 23.9979 21.3565 23.4179 22.3876 22.3868C23.4187 21.3557 23.9987 19.9577 24.0002 18.4995V16.9995C24.0002 16.6017 23.8422 16.2202 23.5609 15.9388C23.2796 15.6575 22.8981 15.4995 22.5002 15.4995Z" fill="#25280B"/>
<path d="M1.5 8.5C1.89782 8.5 2.27936 8.34196 2.56066 8.06066C2.84196 7.77936 3 7.39782 3 7V5.5C3 4.83696 3.26339 4.20107 3.73223 3.73223C4.20107 3.26339 4.83696 3 5.5 3H7C7.39782 3 7.77936 2.84196 8.06066 2.56066C8.34196 2.27936 8.5 1.89782 8.5 1.5C8.5 1.10218 8.34196 0.720644 8.06066 0.43934C7.77936 0.158035 7.39782 0 7 0L5.5 0C4.0418 0.00158817 2.64377 0.581561 1.61267 1.61267C0.581561 2.64377 0.00158817 4.0418 0 5.5L0 7C0 7.39782 0.158035 7.77936 0.43934 8.06066C0.720644 8.34196 1.10218 8.5 1.5 8.5Z" fill="#25280B"/>
<path d="M7 20.9995H5.5C4.83696 20.9995 4.20107 20.7361 3.73223 20.2673C3.26339 19.7984 3 19.1625 3 18.4995V16.9995C3 16.6017 2.84196 16.2202 2.56066 15.9388C2.27936 15.6575 1.89782 15.4995 1.5 15.4995C1.10218 15.4995 0.720644 15.6575 0.43934 15.9388C0.158035 16.2202 0 16.6017 0 16.9995L0 18.4995C0.00158817 19.9577 0.581561 21.3557 1.61267 22.3868C2.64377 23.4179 4.0418 23.9979 5.5 23.9995H7C7.39782 23.9995 7.77936 23.8414 8.06066 23.5601C8.34196 23.2788 8.5 22.8973 8.5 22.4995C8.5 22.1017 8.34196 21.7201 8.06066 21.4388C7.77936 21.1575 7.39782 20.9995 7 20.9995Z" fill="#25280B"/>
<path d="M18.5002 0H17.0002C16.6024 0 16.2209 0.158035 15.9396 0.43934C15.6583 0.720644 15.5002 1.10218 15.5002 1.5C15.5002 1.89782 15.6583 2.27936 15.9396 2.56066C16.2209 2.84196 16.6024 3 17.0002 3H18.5002C19.1633 3 19.7992 3.26339 20.268 3.73223C20.7369 4.20107 21.0002 4.83696 21.0002 5.5V7C21.0002 7.39782 21.1583 7.77936 21.4396 8.06066C21.7209 8.34196 22.1024 8.5 22.5002 8.5C22.8981 8.5 23.2796 8.34196 23.5609 8.06066C23.8422 7.77936 24.0002 7.39782 24.0002 7V5.5C23.9987 4.0418 23.4187 2.64377 22.3876 1.61267C21.3565 0.581561 19.9584 0.00158817 18.5002 0V0Z" fill="#25280B"/>
<path d="M11.9998 11.0005C13.9328 11.0005 15.4998 9.43349 15.4998 7.50049C15.4998 5.56749 13.9328 4.00049 11.9998 4.00049C10.0668 4.00049 8.49976 5.56749 8.49976 7.50049C8.49976 9.43349 10.0668 11.0005 11.9998 11.0005Z" fill="#25280B"/>
<path d="M6.10999 17.8476C6.08681 17.9904 6.09513 18.1365 6.13435 18.2758C6.17357 18.4151 6.24276 18.5441 6.33706 18.6538C6.43136 18.7635 6.5485 18.8513 6.68028 18.9111C6.81207 18.9708 6.95531 19.001 7.09999 18.9996H16.9C17.0448 19.0013 17.1883 18.9713 17.3203 18.9117C17.4523 18.8521 17.5697 18.7644 17.6643 18.6546C17.7588 18.5448 17.8281 18.4157 17.8675 18.2763C17.9068 18.1369 17.9152 17.9906 17.892 17.8476C17.6265 16.4803 16.8936 15.2479 15.8189 14.3619C14.7443 13.4758 13.3948 12.9912 12.002 12.9912C10.6091 12.9912 9.25969 13.4758 8.18504 14.3619C7.11038 15.2479 6.37747 16.4803 6.11199 17.8476H6.10999Z" fill="#25280B"/>
</g>
<defs>
<clipPath id="clip0_327_5534">
<rect width="24" height="24" fill="white"/>
</clipPath>
</defs>
</svg>
