<svg width="24" height="24" viewBox="0 0 24 24" fill="none" xmlns="http://www.w3.org/2000/svg">
<path d="M10.6805 24C8.25361 24.0031 5.92228 23.0545 4.18708 21.3579C0.55624 17.5848 0.627139 11.5957 4.34631 7.90959L10.1807 2.07622C12.5645 -0.376222 16.3918 -0.695289 19.1488 1.3286C22.0861 3.58365 22.6391 7.79283 20.384 10.7301C20.2079 10.9595 20.0171 11.1773 19.8129 11.3821L13.7075 17.4874C13.0203 18.2059 12.1084 18.668 11.1228 18.7974C9.78679 18.9438 8.46418 18.4243 7.58492 17.4078C6.2369 15.681 6.38101 13.2217 7.92146 11.6641L12.5759 7.0138C13.1661 6.42375 14.1229 6.42375 14.7131 7.0138C15.3032 7.60403 15.3032 8.56081 14.7131 9.15105L9.91564 13.9496C9.49351 14.372 9.49374 15.0566 9.91616 15.4787C10.3386 15.9008 11.0232 15.9006 11.4453 15.4782L17.6061 9.31835C18.8709 8.08852 19.1048 6.14233 18.1674 4.64784C17.0604 2.94269 14.7808 2.45773 13.0756 3.56471C12.8621 3.7033 12.6636 3.86366 12.4831 4.04324L6.40293 10.1285C4.10475 12.36 3.80619 15.9454 5.70363 18.5264C7.8141 21.275 11.7532 21.7923 14.5018 19.6819C14.7166 19.517 14.9205 19.3383 15.1122 19.1471L19.9106 14.3496C20.5009 13.7595 21.4576 13.7595 22.0479 14.3496C22.6379 14.9398 22.6379 15.8966 22.0479 16.4868L17.2494 21.2843C15.5083 23.0275 13.1442 24.0049 10.6805 24Z" fill="#25280B"/>
</svg>
