<svg width="24" height="24" viewBox="0 0 24 24" fill="none" xmlns="http://www.w3.org/2000/svg">
<g clip-path="url(#clip0_327_5981)">
<path d="M7.70003 15.0079C7.41874 15.2891 7.03727 15.4471 6.63953 15.4471C6.24178 15.4471 5.86032 15.2891 5.57903 15.0079L0.858026 10.2829C0.30862 9.7331 0 8.98765 0 8.2104C0 7.43315 0.30862 6.6877 0.858026 6.1379L5.58303 1.41291C5.86844 1.15351 6.24281 1.01401 6.62838 1.02339C7.01395 1.03278 7.38109 1.19031 7.65356 1.46329C7.92602 1.73627 8.08286 2.1037 8.09152 2.48929C8.10017 2.87488 7.95997 3.24898 7.70003 3.53391L4.46703 6.7009H18.68C20.0904 6.70223 21.4426 7.26301 22.44 8.2602C23.4374 9.25739 23.9984 10.6095 24 12.0199V18.7009C23.9987 20.1109 23.438 21.4628 22.441 22.4598C21.4439 23.4568 20.092 24.0176 18.682 24.0189H5.31803C4.9202 24.0189 4.53867 23.8608 4.25737 23.5795C3.97606 23.2982 3.81803 22.9167 3.81803 22.5189C3.81803 22.1211 3.97606 21.7395 4.25737 21.4582C4.53867 21.1769 4.9202 21.0189 5.31803 21.0189H18.681C19.2957 21.0184 19.8851 20.774 20.3199 20.3394C20.7546 19.9049 20.9992 19.3156 21 18.7009V12.0199C20.9995 11.4049 20.7549 10.8152 20.3199 10.3804C19.8849 9.94554 19.2951 9.70116 18.68 9.7009H4.52203L7.70003 12.8869C7.98123 13.1682 8.13921 13.5496 8.13921 13.9474C8.13921 14.3451 7.98123 14.7266 7.70003 15.0079Z" fill="#25280B"/>
</g>
<defs>
<clipPath id="clip0_327_5981">
<rect width="24" height="24" fill="white"/>
</clipPath>
</defs>
</svg>
