<svg width="24" height="24" viewBox="0 0 24 24" fill="none" xmlns="http://www.w3.org/2000/svg">
<g clip-path="url(#clip0_327_5554)">
<path d="M18.5 1.00049H13.5C12.0418 1.00208 10.6437 1.58205 9.61264 2.61316C8.58153 3.64426 8.00156 5.04228 7.99997 6.50049V12.6075C6.95145 12.0717 5.75866 11.8866 4.59706 12.0793C3.43547 12.272 2.36638 12.8325 1.54708 13.6782C0.727781 14.5239 0.201512 15.6102 0.0456923 16.7773C-0.110128 17.9444 0.112727 19.1307 0.681475 20.1617C1.25022 21.1927 2.13484 22.014 3.20519 22.5047C4.27554 22.9954 5.47512 23.1297 6.62747 22.8878C7.77982 22.6458 8.82411 22.0404 9.60671 21.1606C10.3893 20.2809 10.8689 19.1732 10.975 18.0005H11V6.50049C11 5.83745 11.2634 5.20156 11.7322 4.73272C12.201 4.26388 12.8369 4.00049 13.5 4.00049H18.5C19.163 4.00049 19.7989 4.26388 20.2677 4.73272C20.7366 5.20156 21 5.83745 21 6.50049V12.6075C19.9515 12.0717 18.7587 11.8866 17.5971 12.0793C16.4355 12.272 15.3664 12.8325 14.5471 13.6782C13.7278 14.5239 13.2015 15.6102 13.0457 16.7773C12.8899 17.9444 13.1127 19.1307 13.6815 20.1617C14.2502 21.1927 15.1348 22.014 16.2052 22.5047C17.2755 22.9954 18.4751 23.1297 19.6275 22.8878C20.7798 22.6458 21.8241 22.0404 22.6067 21.1606C23.3893 20.2809 23.8689 19.1732 23.975 18.0005H24V6.50049C23.9984 5.04228 23.4184 3.64426 22.3873 2.61316C21.3562 1.58205 19.9582 1.00208 18.5 1.00049ZM5.49997 20.0005C5.00551 20.0005 4.52216 19.8539 4.11104 19.5792C3.69992 19.3045 3.37949 18.914 3.19027 18.4572C3.00105 18.0004 2.95154 17.4977 3.048 17.0128C3.14447 16.5278 3.38257 16.0824 3.7322 15.7327C4.08183 15.3831 4.52729 15.145 5.01224 15.0485C5.49719 14.9521 5.99986 15.0016 6.45668 15.1908C6.91349 15.38 7.30394 15.7004 7.57864 16.1116C7.85335 16.5227 7.99997 17.006 7.99997 17.5005C7.99997 18.1635 7.73658 18.7994 7.26774 19.2683C6.79889 19.7371 6.16301 20.0005 5.49997 20.0005ZM18.5 20.0005C18.0055 20.0005 17.5222 19.8539 17.111 19.5792C16.6999 19.3045 16.3795 18.914 16.1903 18.4572C16.0011 18.0004 15.9515 17.4977 16.048 17.0128C16.1445 16.5278 16.3826 16.0824 16.7322 15.7327C17.0818 15.3831 17.5273 15.145 18.0122 15.0485C18.4972 14.9521 18.9999 15.0016 19.4567 15.1908C19.9135 15.38 20.3039 15.7004 20.5786 16.1116C20.8533 16.5227 21 17.006 21 17.5005C21 18.1635 20.7366 18.7994 20.2677 19.2683C19.7989 19.7371 19.163 20.0005 18.5 20.0005Z" fill="#25280B"/>
</g>
<defs>
<clipPath id="clip0_327_5554">
<rect width="24" height="24" fill="white"/>
</clipPath>
</defs>
</svg>
