<svg width="24" height="24" viewBox="0 0 24 24" fill="none" xmlns="http://www.w3.org/2000/svg">
<g clip-path="url(#clip0_327_5785)">
<path d="M8 21H3.409C3.30061 20.9997 3.19673 20.9566 3.12009 20.8799C3.04344 20.8033 3.00026 20.6994 3 20.591V3.409C3.00026 3.30061 3.04344 3.19673 3.12009 3.12009C3.19673 3.04344 3.30061 3.00026 3.409 3H8C8.39782 3 8.77936 2.84196 9.06066 2.56066C9.34196 2.27936 9.5 1.89782 9.5 1.5C9.5 1.10218 9.34196 0.720644 9.06066 0.43934C8.77936 0.158035 8.39782 0 8 0L3.409 0C2.5052 0.00105862 1.63872 0.36056 0.999642 0.999642C0.36056 1.63872 0.00105862 2.5052 0 3.409L0 20.591C0.00105862 21.4948 0.36056 22.3613 0.999642 23.0004C1.63872 23.6394 2.5052 23.9989 3.409 24H8C8.39782 24 8.77936 23.842 9.06066 23.5607C9.34196 23.2794 9.5 22.8978 9.5 22.5C9.5 22.1022 9.34196 21.7206 9.06066 21.4393C8.77936 21.158 8.39782 21 8 21Z" fill="#25280B"/>
<path d="M22.6822 8.81715L18.8002 4.93815C18.6609 4.79888 18.4955 4.68842 18.3135 4.61308C18.1315 4.53773 17.9364 4.49898 17.7394 4.49902C17.5424 4.49907 17.3473 4.53792 17.1653 4.61335C16.9834 4.68878 16.818 4.79932 16.6787 4.93865C16.5395 5.07798 16.429 5.24338 16.3537 5.4254C16.2783 5.60742 16.2396 5.8025 16.2396 5.9995C16.2397 6.39736 16.3979 6.77889 16.6792 7.06015L20.0912 10.4712L6.50024 10.4992C6.10242 10.4992 5.72089 10.6572 5.43958 10.9385C5.15828 11.2198 5.00024 11.6013 5.00024 11.9992C5.00024 12.397 5.15828 12.7785 5.43958 13.0598C5.72089 13.3411 6.10242 13.4992 6.50024 13.4992L20.1462 13.4742L16.6792 16.9412C16.4144 17.2256 16.2703 17.6018 16.2774 17.9904C16.2844 18.379 16.442 18.7497 16.717 19.0244C16.9919 19.2991 17.3628 19.4563 17.7514 19.463C18.14 19.4697 18.516 19.3252 18.8002 19.0602L22.6792 15.1812C23.0971 14.7633 23.4286 14.2672 23.6547 13.7212C23.8809 13.1753 23.9973 12.5901 23.9973 11.9992C23.9973 11.4082 23.8809 10.823 23.6547 10.2771C23.4286 9.73109 23.0971 9.23501 22.6792 8.81715H22.6822Z" fill="#25280B"/>
</g>
<defs>
<clipPath id="clip0_327_5785">
<rect width="24" height="24" fill="white"/>
</clipPath>
</defs>
</svg>
