<svg width="24" height="24" viewBox="0 0 24 24" fill="none" xmlns="http://www.w3.org/2000/svg">
<path d="M20.5002 21H8.49324C8.84761 20.0403 9.01956 19.0228 9.00024 18V14H14.5002C14.8981 14 15.2796 13.842 15.5609 13.5607C15.8422 13.2794 16.0002 12.8978 16.0002 12.5C16.0002 12.1022 15.8422 11.7206 15.5609 11.4393C15.2796 11.158 14.8981 11 14.5002 11H9.00024V8C9.00276 6.71551 9.49824 5.48098 10.3845 4.55117C11.2707 3.62136 12.48 3.06721 13.7629 3.00306C15.0458 2.93892 16.3044 3.36968 17.2789 4.20645C18.2535 5.04322 18.8696 6.22216 19.0002 7.5C19.0002 7.89782 19.1583 8.27936 19.4396 8.56066C19.7209 8.84196 20.1024 9 20.5002 9C20.8981 9 21.2796 8.84196 21.5609 8.56066C21.8422 8.27936 22.0002 7.89782 22.0002 7.5C22.0002 3.505 18.2622 0 14.0002 0C11.8792 0.00238211 9.8458 0.846002 8.34602 2.34578C6.84625 3.84555 6.00263 5.879 6.00024 8V11H4.50024C4.10242 11 3.72089 11.158 3.43958 11.4393C3.15828 11.7206 3.00024 12.1022 3.00024 12.5C3.00024 12.8978 3.15828 13.2794 3.43958 13.5607C3.72089 13.842 4.10242 14 4.50024 14H6.00024V18C6.00024 20.583 5.26324 21 3.50024 21C3.10242 21 2.72089 21.158 2.43958 21.4393C2.15828 21.7206 2.00024 22.1022 2.00024 22.5C2.00024 22.8978 2.15828 23.2794 2.43958 23.5607C2.72089 23.842 3.10242 24 3.50024 24H20.5002C20.8981 24 21.2796 23.842 21.5609 23.5607C21.8422 23.2794 22.0002 22.8978 22.0002 22.5C22.0002 22.1022 21.8422 21.7206 21.5609 21.4393C21.2796 21.158 20.8981 21 20.5002 21Z" fill="#25280B"/>
</svg>
