<svg width="24" height="24" viewBox="0 0 24 24" fill="none" xmlns="http://www.w3.org/2000/svg">
<g clip-path="url(#clip0_327_4924)">
<path d="M20.6999 14.025C20.0332 13.3898 19.1477 13.0355 18.2269 13.0355C17.306 13.0355 16.4205 13.3898 15.7539 14.025L15.3449 14.425C12.7893 13.2596 10.7434 11.2066 9.58686 8.64701L9.97486 8.25301C10.6192 7.60068 10.9838 6.72279 10.991 5.80592C10.9983 4.88905 10.6478 4.00548 10.0139 3.34301L7.86186 1.02501C7.20263 0.394848 6.32791 0.0397806 5.41598 0.0321626C4.50404 0.0245446 3.62352 0.364949 2.95386 0.984006C2.95386 0.984006 1.88686 1.91401 1.86186 1.93801C-6.03314 10.207 13.7849 30.038 22.0619 22.138C22.0859 22.113 23.0159 21.047 23.0159 21.047C23.6565 20.3781 24.0074 19.4834 23.9922 18.5574C23.9771 17.6313 23.5971 16.7486 22.9349 16.101L20.6999 14.025ZM20.8569 18.967C20.8319 18.991 19.9079 20.05 19.9079 20.05C14.6549 24.773 -0.910144 10.127 3.94986 4.10001C3.94986 4.10001 5.00886 3.17601 5.03386 3.15101C5.11896 3.06054 5.23543 3.00601 5.35941 2.99857C5.4834 2.99113 5.60555 3.03136 5.70086 3.11101L7.85386 5.42401C7.90317 5.47008 7.94233 5.52594 7.96883 5.58801C7.99532 5.65009 8.00857 5.71701 8.00772 5.78449C8.00687 5.85198 7.99195 5.91855 7.96391 5.97993C7.93586 6.04132 7.89531 6.09618 7.84486 6.14101L6.73686 7.26701C6.53233 7.47491 6.39285 7.73794 6.33548 8.02388C6.27811 8.30983 6.30535 8.6063 6.41386 8.87701C7.15904 10.8719 8.32443 12.6833 9.83102 14.1883C11.3376 15.6934 13.1502 16.8569 15.1459 17.6C15.4145 17.7027 15.7071 17.7261 15.9886 17.6672C16.2702 17.6084 16.5289 17.4698 16.7339 17.268L17.8679 16.15C18.1579 15.936 18.3089 15.938 18.6159 16.19L20.8539 18.264C20.9464 18.3576 20.9983 18.4839 20.9983 18.6155C20.9983 18.7471 20.9464 18.8734 20.8539 18.967H20.8569ZM14.9999 8.00001V3.52601C14.9999 3.32826 15.0586 3.13496 15.1685 2.97055C15.2783 2.80614 15.4345 2.678 15.6172 2.60233C15.7999 2.52666 16.0009 2.50685 16.1949 2.54542C16.3888 2.58399 16.567 2.6792 16.7069 2.81901L17.8939 4.00601L21.4369 0.442006C21.7191 0.168028 22.0977 0.0158807 22.491 0.0183399C22.8844 0.0207991 23.261 0.177668 23.5398 0.455153C23.8186 0.732638 23.9772 1.10853 23.9815 1.50186C23.9859 1.89519 23.8355 2.27447 23.5629 2.55801L20.0149 6.12701L21.1809 7.29301C21.3207 7.43286 21.4159 7.61102 21.4544 7.80497C21.493 7.99893 21.4732 8.19996 21.3975 8.38266C21.3219 8.56536 21.1937 8.72152 21.0293 8.83141C20.8649 8.94129 20.6716 8.99996 20.4739 9.00001H15.9999C15.7346 9.00001 15.4803 8.89465 15.2927 8.70711C15.1052 8.51958 14.9999 8.26522 14.9999 8.00001Z" fill="#25280B"/>
</g>
<defs>
<clipPath id="clip0_327_4924">
<rect width="24" height="24" fill="white"/>
</clipPath>
</defs>
</svg>
