<svg width="24" height="24" viewBox="0 0 24 24" fill="none" xmlns="http://www.w3.org/2000/svg">
<g clip-path="url(#clip0_327_5517)">
<path d="M12 19C13.8559 18.9979 15.6351 18.2597 16.9474 16.9474C18.2597 15.6351 18.9979 13.8559 19 12V7C19 5.14348 18.2625 3.36301 16.9497 2.05025C15.637 0.737498 13.8565 0 12 0C10.1435 0 8.36301 0.737498 7.05025 2.05025C5.7375 3.36301 5 5.14348 5 7V12C5.00212 13.8559 5.7403 15.6351 7.05259 16.9474C8.36489 18.2597 10.1441 18.9979 12 19ZM12 3C13.0609 3 14.0783 3.42143 14.8284 4.17157C15.5786 4.92172 16 5.93913 16 7V8H14.5C14.1022 8 13.7206 8.15804 13.4393 8.43934C13.158 8.72064 13 9.10218 13 9.5C13 9.89782 13.158 10.2794 13.4393 10.5607C13.7206 10.842 14.1022 11 14.5 11H16V12C16 13.0609 15.5786 14.0783 14.8284 14.8284C14.0783 15.5786 13.0609 16 12 16C10.9391 16 9.92172 15.5786 9.17157 14.8284C8.42143 14.0783 8 13.0609 8 12V11H9.5C9.89782 11 10.2794 10.842 10.5607 10.5607C10.842 10.2794 11 9.89782 11 9.5C11 9.10218 10.842 8.72064 10.5607 8.43934C10.2794 8.15804 9.89782 8 9.5 8H8V7C8 5.93913 8.42143 4.92172 9.17157 4.17157C9.92172 3.42143 10.9391 3 12 3Z" fill="#25280B"/>
<path d="M22.5 11.5005C22.1022 11.5005 21.7206 11.6585 21.4393 11.9398C21.158 12.2211 21 12.6027 21 13.0005V13.3895C20.9976 15.4073 20.195 17.3418 18.7682 18.7686C17.3413 20.1955 15.4068 20.9981 13.389 21.0005H10.611C8.59325 20.9978 6.6589 20.1951 5.23213 18.7684C3.80537 17.3416 3.00265 15.4072 3 13.3895V13.0005C3 12.6027 2.84196 12.2211 2.56066 11.9398C2.27936 11.6585 1.89782 11.5005 1.5 11.5005C1.10218 11.5005 0.720644 11.6585 0.43934 11.9398C0.158035 12.2211 0 12.6027 0 13.0005L0 13.3895C0.00317611 16.2027 1.12214 18.8998 3.1114 20.8891C5.10066 22.8784 7.79776 23.9973 10.611 24.0005H13.389C16.2022 23.9973 18.8993 22.8784 20.8886 20.8891C22.8779 18.8998 23.9968 16.2027 24 13.3895V13.0005C24 12.6027 23.842 12.2211 23.5607 11.9398C23.2794 11.6585 22.8978 11.5005 22.5 11.5005Z" fill="#25280B"/>
</g>
<defs>
<clipPath id="clip0_327_5517">
<rect width="24" height="24" fill="white"/>
</clipPath>
</defs>
</svg>
