<svg width="24" height="24" viewBox="0 0 24 24" fill="none" xmlns="http://www.w3.org/2000/svg">
<g clip-path="url(#clip0_327_5630)">
<path d="M11.9962 0C12.8242 0 13.4953 0.671195 13.4953 1.49915V6.49631C13.4953 7.32426 12.8242 7.99546 11.9962 7.99546C11.1683 7.99546 10.4971 7.32426 10.4971 6.49631V1.49915C10.4971 0.671195 11.1682 0 11.9962 0Z" fill="#25280B"/>
<path d="M15.4941 4.93754C15.4868 5.44079 15.7405 5.91199 16.1648 6.18282C19.9329 8.48508 21.1211 13.4061 18.8188 17.1742C16.5165 20.9422 11.5956 22.1305 7.82745 19.8283C4.05935 17.526 2.87109 12.605 5.1734 8.83686C5.83125 7.7602 6.73458 6.85448 7.80951 6.19378C8.24103 5.92295 8.5016 5.44795 8.49813 4.93848C8.50043 4.11053 7.83111 3.43751 7.00316 3.43521C6.71879 3.43441 6.44004 3.51453 6.19948 3.66622C1.04171 6.86989 -0.542367 13.6481 2.66126 18.8058C5.86489 23.9635 12.6431 25.5476 17.8008 22.344C22.9585 19.1403 24.5426 12.3622 21.339 7.20444C20.4472 5.76877 19.2365 4.55802 17.8008 3.66627C17.0982 3.22304 16.1694 3.43329 15.7261 4.13587C15.5747 4.37583 15.4943 4.65378 15.4941 4.93754Z" fill="#25280B"/>
</g>
<defs>
<clipPath id="clip0_327_5630">
<rect width="24" height="24" fill="white"/>
</clipPath>
</defs>
</svg>
