<svg width="24" height="24" viewBox="0 0 24 24" fill="none" xmlns="http://www.w3.org/2000/svg">
<g clip-path="url(#clip0_327_5775)">
<path d="M18.589 0.00063938H5.411C3.98874 -0.0100219 2.62033 0.543881 1.60593 1.54084C0.591536 2.5378 0.013995 3.89641 0 5.31864L0 7.18264C0 7.58047 0.158035 7.962 0.43934 8.2433C0.720644 8.5246 1.10218 8.68264 1.5 8.68264C1.89782 8.68264 2.27936 8.5246 2.56066 8.2433C2.84196 7.962 3 7.58047 3 7.18264V5.31864C3.01339 4.69188 3.27467 4.09599 3.72658 3.66151C4.1785 3.22703 4.7842 2.98938 5.411 3.00064H18.589C19.2158 2.98938 19.8215 3.22703 20.2734 3.66151C20.7253 4.09599 20.9866 4.69188 21 5.31864V18.6826C20.9866 19.3094 20.7253 19.9053 20.2734 20.3398C19.8215 20.7743 19.2158 21.0119 18.589 21.0006H5.411C4.7842 21.0119 4.1785 20.7743 3.72658 20.3398C3.27467 19.9053 3.01339 19.3094 3 18.6826V16.8186C3 16.4208 2.84196 16.0393 2.56066 15.758C2.27936 15.4767 1.89782 15.3186 1.5 15.3186C1.10218 15.3186 0.720644 15.4767 0.43934 15.758C0.158035 16.0393 0 16.4208 0 16.8186L0 18.6826C0.013995 20.1049 0.591536 21.4635 1.60593 22.4604C2.62033 23.4574 3.98874 24.0113 5.411 24.0006H18.589C20.0113 24.0113 21.3797 23.4574 22.3941 22.4604C23.4085 21.4635 23.986 20.1049 24 18.6826V5.31864C23.986 3.89641 23.4085 2.5378 22.3941 1.54084C21.3797 0.543881 20.0113 -0.0100219 18.589 0.00063938Z" fill="#25280B"/>
<path d="M3.5 11.9992C3.5 12.397 3.65804 12.7785 3.93934 13.0598C4.22064 13.3411 4.60218 13.4992 5 13.4992L14.975 13.4722L11.509 16.9382C11.2276 17.2194 11.0695 17.6009 11.0694 17.9988C11.0693 18.3967 11.2272 18.7783 11.5085 19.0597C11.7898 19.341 12.1713 19.4992 12.5691 19.4993C12.967 19.4994 13.3486 19.3414 13.63 19.0602L18.216 14.4742C18.541 14.1491 18.7989 13.7633 18.9748 13.3386C19.1507 12.914 19.2413 12.4588 19.2413 11.9992C19.2413 11.5395 19.1507 11.0843 18.9748 10.6597C18.7989 10.235 18.541 9.84916 18.216 9.52415L13.634 4.93815C13.4947 4.79888 13.3293 4.68842 13.1472 4.61308C12.9652 4.53773 12.7701 4.49898 12.5731 4.49902C12.3761 4.49907 12.1811 4.53792 11.9991 4.61335C11.8171 4.68878 11.6518 4.79932 11.5125 4.93865C11.2312 5.22004 11.0733 5.60165 11.0734 5.9995C11.0734 6.1965 11.1123 6.39156 11.1877 6.57355C11.2631 6.75554 11.3737 6.92088 11.513 7.06015L14.926 10.4722L5 10.4992C4.60218 10.4992 4.22064 10.6572 3.93934 10.9385C3.65804 11.2198 3.5 11.6013 3.5 11.9992Z" fill="#25280B"/>
</g>
<defs>
<clipPath id="clip0_327_5775">
<rect width="24" height="24" fill="white"/>
</clipPath>
</defs>
</svg>
