<svg width="24" height="24" viewBox="0 0 24 24" fill="none" xmlns="http://www.w3.org/2000/svg">
<g clip-path="url(#clip0_327_5137)">
<path d="M16.652 15.548C16.9031 15.8525 17.0241 16.2437 16.9887 16.6368C16.9533 17.0299 16.7645 17.3932 16.463 17.648C15.4797 18.4565 14.2641 18.9301 12.993 19C12.189 18.992 11.415 18.6932 10.814 18.159C10.739 18.0963 10.6601 18.0382 10.578 17.985C10.175 18.1328 9.80222 18.3527 9.478 18.634C9.177 18.8884 8.788 19.0141 8.39507 18.9839C8.00215 18.9538 7.63687 18.7702 7.37819 18.4729C7.11952 18.1756 6.98823 17.7885 7.01271 17.3952C7.03718 17.0018 7.21546 16.634 7.509 16.371C8.37571 15.5886 9.47233 15.1076 10.635 15C11.3864 15.0144 12.1075 15.2983 12.667 15.8C12.923 16 12.937 16 12.993 16C13.5616 15.9324 14.0994 15.7049 14.544 15.344C14.8508 15.0922 15.245 14.9722 15.6402 15.0104C16.0353 15.0487 16.3991 15.242 16.652 15.548ZM15.5 10H8.5C8.10218 10 7.72064 10.1581 7.43934 10.4394C7.15804 10.7207 7 11.1022 7 11.5C7 11.8978 7.15804 12.2794 7.43934 12.5607C7.72064 12.842 8.10218 13 8.5 13H15.5C15.8978 13 16.2794 12.842 16.5607 12.5607C16.842 12.2794 17 11.8978 17 11.5C17 11.1022 16.842 10.7207 16.5607 10.4394C16.2794 10.1581 15.8978 10 15.5 10ZM22 7.15702V18.5C21.9984 19.9582 21.4184 21.3562 20.3873 22.3874C19.3562 23.4185 17.9582 23.9984 16.5 24H7.5C6.0418 23.9984 4.64377 23.4185 3.61267 22.3874C2.58156 21.3562 2.00159 19.9582 2 18.5V5.50002C2.00159 4.04182 2.58156 2.64379 3.61267 1.61269C4.64377 0.581581 6.0418 0.00160807 7.5 1.99011e-05H14.843C15.5656 -0.00193016 16.2813 0.139451 16.9489 0.415979C17.6164 0.692507 18.2225 1.09869 18.732 1.61102L20.389 3.26802C20.9013 3.77754 21.3075 4.38361 21.584 5.05115C21.8606 5.7187 22.0019 6.43447 22 7.15702ZM19 18.5V7.00002H17C16.4696 7.00002 15.9609 6.78931 15.5858 6.41423C15.2107 6.03916 15 5.53045 15 5.00002V3.00002H7.5C6.83696 3.00002 6.20107 3.26341 5.73223 3.73225C5.26339 4.20109 5 4.83698 5 5.50002V18.5C5 19.1631 5.26339 19.7989 5.73223 20.2678C6.20107 20.7366 6.83696 21 7.5 21H16.5C17.163 21 17.7989 20.7366 18.2678 20.2678C18.7366 19.7989 19 19.1631 19 18.5Z" fill="#25280B"/>
</g>
<defs>
<clipPath id="clip0_327_5137">
<rect width="24" height="24" fill="white"/>
</clipPath>
</defs>
</svg>
