<svg width="24" height="24" viewBox="0 0 24 24" fill="none" xmlns="http://www.w3.org/2000/svg">
<g clip-path="url(#clip0_327_4824)">
<path d="M17.7348 21.0161H13.4998V4.54308L16.6848 7.72808C16.9662 8.00934 17.3478 8.1673 17.7456 8.1672C17.9426 8.16716 18.1377 8.12831 18.3197 8.05288C18.5017 7.97745 18.667 7.86691 18.8063 7.72758C18.9455 7.58824 19.056 7.42285 19.1314 7.24082C19.2067 7.0588 19.2455 6.86372 19.2454 6.66672C19.2454 6.46972 19.2065 6.27466 19.1311 6.09268C19.0556 5.91069 18.9451 5.74535 18.8058 5.60608L14.0748 0.876083C13.5164 0.341571 12.7733 0.0432129 12.0003 0.0432129C11.2273 0.0432129 10.4842 0.341571 9.92578 0.876083L5.19378 5.60608C4.91238 5.88734 4.75424 6.26887 4.75415 6.66672C4.75406 7.06458 4.91202 7.44618 5.19328 7.72758C5.47454 8.00897 5.85607 8.16711 6.25392 8.1672C6.65178 8.1673 7.03338 8.00934 7.31478 7.72808L10.4998 4.47908V21.0161H6.26478C5.86695 21.0161 5.48542 21.1741 5.20412 21.4554C4.92281 21.7367 4.76478 22.1182 4.76478 22.5161C4.76478 22.9139 4.92281 23.2954 5.20412 23.5767C5.48542 23.858 5.86695 24.0161 6.26478 24.0161H17.7348C18.1326 24.0161 18.5141 23.858 18.7954 23.5767C19.0767 23.2954 19.2348 22.9139 19.2348 22.5161C19.2348 22.1182 19.0767 21.7367 18.7954 21.4554C18.5141 21.1741 18.1326 21.0161 17.7348 21.0161Z" fill="#25280B"/>
</g>
<defs>
<clipPath id="clip0_327_4824">
<rect width="24" height="24" fill="white"/>
</clipPath>
</defs>
</svg>
