<svg width="24" height="24" viewBox="0 0 24 24" fill="none" xmlns="http://www.w3.org/2000/svg">
<g clip-path="url(#clip0_327_4933)">
<path d="M5.32396 23.9819H18.681C19.5771 23.9825 20.4589 23.7561 21.244 23.3241C22.0291 22.892 22.6922 22.2683 23.1713 21.5109C23.6504 20.7536 23.9301 19.8873 23.9842 18.9928C24.0384 18.0982 23.8653 17.2045 23.481 16.3949L16.82 3.09495C16.3977 2.17278 15.7184 1.39204 14.8634 0.846422C14.0084 0.300803 13.0142 0.0134846 12 0.0189469C10.9931 0.0113857 10.0053 0.293463 9.15427 0.831565C8.30323 1.36967 7.62485 2.1411 7.19996 3.05395L0.499959 16.4339C0.1239 17.2437 -0.0419489 18.1352 0.0177441 19.026C0.0774372 19.9169 0.360746 20.7783 0.84148 21.5306C1.32221 22.283 1.98486 22.902 2.76816 23.3304C3.55146 23.7589 4.43014 23.983 5.32296 23.9819H5.32396ZM3.21396 17.7159L9.89996 4.35795C10.0883 3.95446 10.3888 3.61368 10.7655 3.37624C11.1422 3.1388 11.5792 3.01474 12.0245 3.01885C12.4698 3.02297 12.9045 3.15508 13.2767 3.39943C13.649 3.64378 13.9431 3.99005 14.124 4.39695L20.786 17.6969C20.9496 18.0494 21.0216 18.4374 20.9956 18.8251C20.9695 19.2128 20.8461 19.5876 20.6367 19.915C20.4274 20.2423 20.1389 20.5116 19.7979 20.6979C19.457 20.8843 19.0745 20.9816 18.686 20.9809H16.659L13.707 15.0859C13.5556 14.7611 13.3147 14.4862 13.0125 14.2936C12.7103 14.1009 12.3593 13.9986 12.001 13.9986C11.6426 13.9986 11.2916 14.1009 10.9894 14.2936C10.6872 14.4862 10.4463 14.7611 10.295 15.0859L7.34496 20.9859H5.32396C4.93693 20.9869 4.55586 20.8906 4.21573 20.7059C3.8756 20.5213 3.58729 20.2541 3.37726 19.929C3.16724 19.6039 3.04223 19.2313 3.01369 18.8453C2.98516 18.4594 3.05402 18.0724 3.21396 17.7199V17.7159Z" fill="#25280B"/>
</g>
<defs>
<clipPath id="clip0_327_4933">
<rect width="24" height="24" fill="white"/>
</clipPath>
</defs>
</svg>
