<svg width="24" height="24" viewBox="0 0 24 24" fill="none" xmlns="http://www.w3.org/2000/svg">
<g clip-path="url(#clip0_327_5693)">
<path d="M21.5668 4.40001C21.3527 3.16689 20.7098 2.04909 19.7515 1.24399C18.7933 0.438897 17.5814 -0.00170027 16.3298 6.39834e-06H7.65682C6.40509 -0.00193627 5.19294 0.438554 4.23449 1.24367C3.27603 2.04878 2.63295 3.16672 2.41882 4.40001L0.0808244 17.765C-0.0531596 18.5294 -0.0182003 19.3138 0.183248 20.0632C0.384696 20.8127 0.747749 21.5089 1.24692 22.1031C1.74608 22.6973 2.36927 23.175 3.07271 23.5027C3.77615 23.8304 4.5428 24.0001 5.31882 24H18.6808C19.4571 23.9999 20.224 23.8298 20.9276 23.5018C21.6312 23.1737 22.2545 22.6956 22.7537 22.1011C23.2528 21.5065 23.6158 20.8099 23.8171 20.0601C24.0184 19.3104 24.0531 18.5256 23.9188 17.761L21.5668 4.40001ZM20.4558 20.172C20.2386 20.4315 19.967 20.6401 19.6603 20.7832C19.3536 20.9262 19.0192 21.0002 18.6808 21H5.31882C4.98052 21.0001 4.64629 20.9262 4.33962 20.7834C4.03295 20.6405 3.76127 20.4323 3.54368 20.1732C3.3261 19.9142 3.16788 19.6106 3.08014 19.2839C2.9924 18.9572 2.97727 18.6152 3.03582 18.282L5.37382 4.91801C5.46719 4.38047 5.74749 3.89321 6.16522 3.54227C6.58294 3.19133 7.11124 2.99927 7.65682 3.00001H16.3298C16.8752 2.99906 17.4033 3.19095 17.8209 3.54174C18.2385 3.89253 18.5186 4.37965 18.6118 4.91701L20.9638 18.28C21.0228 18.6133 21.0079 18.9555 20.9201 19.2825C20.8323 19.6094 20.6738 19.9131 20.4558 20.172ZM13.4998 5.50001V6.50001C13.4998 6.89783 13.3418 7.27936 13.0605 7.56067C12.7792 7.84197 12.3976 8.00001 11.9998 8.00001C11.602 8.00001 11.2205 7.84197 10.9392 7.56067C10.6579 7.27936 10.4998 6.89783 10.4998 6.50001V5.50001C10.4998 5.10218 10.6579 4.72065 10.9392 4.43935C11.2205 4.15804 11.602 4.00001 11.9998 4.00001C12.3976 4.00001 12.7792 4.15804 13.0605 4.43935C13.3418 4.72065 13.4998 5.10218 13.4998 5.50001ZM13.4998 11.5V12.5C13.4998 12.8978 13.3418 13.2794 13.0605 13.5607C12.7792 13.842 12.3976 14 11.9998 14C11.602 14 11.2205 13.842 10.9392 13.5607C10.6579 13.2794 10.4998 12.8978 10.4998 12.5V11.5C10.4998 11.1022 10.6579 10.7207 10.9392 10.4393C11.2205 10.158 11.602 10 11.9998 10C12.3976 10 12.7792 10.158 13.0605 10.4393C13.3418 10.7207 13.4998 11.1022 13.4998 11.5ZM13.4998 17.5V18.5C13.4998 18.8978 13.3418 19.2794 13.0605 19.5607C12.7792 19.842 12.3976 20 11.9998 20C11.602 20 11.2205 19.842 10.9392 19.5607C10.6579 19.2794 10.4998 18.8978 10.4998 18.5V17.5C10.4998 17.1022 10.6579 16.7207 10.9392 16.4393C11.2205 16.158 11.602 16 11.9998 16C12.3976 16 12.7792 16.158 13.0605 16.4393C13.3418 16.7207 13.4998 17.1022 13.4998 17.5Z" fill="#25280B"/>
</g>
<defs>
<clipPath id="clip0_327_5693">
<rect width="24" height="24" fill="white"/>
</clipPath>
</defs>
</svg>
