<svg width="24" height="24" viewBox="0 0 24 24" fill="none" xmlns="http://www.w3.org/2000/svg">
<g clip-path="url(#clip0_327_5808)">
<path d="M22.167 13.4791L19.7184 14.0626C19.4104 14.141 19.1158 14.2648 18.8442 14.43L16.8527 13.2072C17.0678 12.4171 17.0678 11.5837 16.8527 10.7936L18.8442 9.57078C19.1158 9.73596 19.4104 9.85981 19.7184 9.93823C19.7184 9.93823 22.399 10.5626 22.5145 10.5626C23.3394 10.5547 24.0016 9.87959 23.9938 9.05468C23.9873 8.37336 23.5205 7.78278 22.859 7.61909L20.4065 7.03259C20.3508 7.01904 20.3032 6.98295 20.275 6.93303C20.2449 6.88498 20.2356 6.82676 20.2492 6.77173L20.8327 4.32218C21.0714 3.53257 20.6248 2.69895 19.8352 2.46026C19.0456 2.22157 18.2119 2.66815 17.9732 3.45776C17.9555 3.51631 17.9415 3.57584 17.9311 3.63612L17.3476 6.08567C17.2791 6.39265 17.2566 6.70807 17.2809 7.02167L15.2894 8.24942C14.7774 7.80856 14.1807 7.47711 13.5359 7.27559V4.93057C13.8185 4.78737 14.0776 4.60203 14.3046 4.38092L16.086 2.60051C16.6692 2.01701 16.6689 1.07121 16.0854 0.488043C15.5019 -0.0951758 14.5561 -0.0949413 13.973 0.488559L12.1926 2.2699C12.1102 2.3524 11.9765 2.3525 11.894 2.27009C11.894 2.27004 11.8939 2.26995 11.8938 2.2699L10.1115 0.488512C9.52796 -0.0949882 8.58198 -0.0949882 7.99848 0.488512C7.41498 1.07201 7.41498 2.018 7.99848 2.6015L9.77987 4.3819C10.0068 4.60264 10.2661 4.78765 10.5486 4.93057V7.27559C9.90516 7.47893 9.31013 7.8117 8.80004 8.2534L6.80354 7.02167C6.82848 6.70578 6.80598 6.38792 6.73684 6.07868L6.15334 3.63612C5.97493 2.83076 5.1774 2.3225 4.37204 2.5009C3.56668 2.67931 3.05841 3.47684 3.23682 4.2822C3.24024 4.29757 3.2439 4.3129 3.24779 4.32814L3.83129 6.77768C3.84488 6.83276 3.83555 6.89098 3.80541 6.93898C3.77729 6.98895 3.72966 7.025 3.67398 7.03854L1.22541 7.61904C0.423008 7.81062 -0.0721796 8.61635 0.119399 9.41871C0.279711 10.0903 0.879477 10.5645 1.5699 10.5655C1.6854 10.5655 4.36595 9.94118 4.36595 9.94118C4.67396 9.86276 4.96862 9.73892 5.24021 9.57373L7.2317 10.7965C7.01663 11.5867 7.01663 12.42 7.2317 13.2102L5.24021 14.433C4.96862 14.2678 4.67396 14.1439 4.36595 14.0655L1.91738 13.482C1.12899 13.2393 0.293117 13.6817 0.0503986 14.4701C-0.19232 15.2585 0.250086 16.0944 1.03848 16.3371C1.09974 16.3559 1.16218 16.3708 1.22532 16.3817L3.67388 16.9652C3.72957 16.9787 3.7772 17.0148 3.80532 17.0647C3.83546 17.1128 3.84479 17.171 3.8312 17.226L3.24774 19.6756C3.05527 20.478 3.54966 21.2845 4.35202 21.4769C5.15438 21.6694 5.96087 21.175 6.15334 20.3727L6.73684 17.9231C6.80607 17.6135 6.82857 17.2954 6.80354 16.9791L8.80004 15.7514C9.31013 16.1931 9.90516 16.5259 10.5486 16.7292V19.0702C10.2661 19.2142 10.007 19.3998 9.77987 19.6209L7.99848 21.3993C7.41498 21.9828 7.41498 22.9287 7.99848 23.5122C8.58198 24.0957 9.52796 24.0957 10.1115 23.5122L11.8919 21.7309C11.9743 21.6484 12.1079 21.6483 12.1904 21.7307C12.1905 21.7307 12.1906 21.7308 12.1906 21.7309L13.971 23.5122C14.5545 24.0957 15.5005 24.0957 16.084 23.5122C16.6675 22.9287 16.6675 21.9828 16.084 21.3993L14.3026 19.6189C14.0759 19.3986 13.8174 19.2137 13.5359 19.0702V16.7252C14.1793 16.5218 14.7743 16.1891 15.2844 15.7474L17.2759 16.9751C17.2509 17.291 17.2734 17.6089 17.3426 17.9181L17.9261 20.3676C18.1186 21.17 18.925 21.6644 19.7274 21.4719C20.5298 21.2794 21.0241 20.473 20.8317 19.6706L20.2482 17.2211C20.2346 17.166 20.2439 17.1078 20.2741 17.0598C20.3022 17.0098 20.3498 16.9737 20.4055 16.9602L22.8541 16.3767C23.6564 16.1842 24.1508 15.3777 23.9583 14.5754C23.7659 13.773 22.9594 13.2786 22.157 13.4711L22.167 13.4791ZM12.0422 13.9919C10.9423 13.9919 10.0507 13.1003 10.0507 12.0004C10.0507 10.9005 10.9423 10.0089 12.0422 10.0089C13.1421 10.0089 14.0337 10.9005 14.0337 12.0004C14.0337 13.1003 13.1421 13.9919 12.0422 13.9919Z" fill="#25280B"/>
</g>
<defs>
<clipPath id="clip0_327_5808">
<rect width="24" height="24" fill="white"/>
</clipPath>
</defs>
</svg>
