<svg width="24" height="24" viewBox="0 0 24 24" fill="none" xmlns="http://www.w3.org/2000/svg">
<g clip-path="url(#clip0_327_5875)">
<path d="M21.765 5.81825L15.192 1.03725C14.3124 0.400162 13.2616 0.0423303 12.176 0.0102539H12.152H12.133H12.108C12.037 0.0102539 11.967 0.0102539 11.897 0.0102539H11.861H11.842H11.826C10.7392 0.041531 9.68706 0.399791 8.807 1.03825L2.235 5.81825C1.54376 6.32295 0.981178 6.98344 0.592867 7.74616C0.204556 8.50888 0.00144477 9.35238 0 10.2083C0.00211081 10.9481 0.296945 11.657 0.82009 12.1802C1.34323 12.7033 2.05216 12.9981 2.792 13.0003H10.5V22.5003C10.5 22.8981 10.658 23.2796 10.9393 23.5609C11.2206 23.8422 11.6022 24.0003 12 24.0003C12.3978 24.0003 12.7794 23.8422 13.0607 23.5609C13.342 23.2796 13.5 22.8981 13.5 22.5003V13.0003H21.208C21.9478 12.9981 22.6568 12.7033 23.1799 12.1802C23.7031 11.657 23.9979 10.9481 24 10.2083C23.9986 9.35238 23.7954 8.50888 23.4071 7.74616C23.0188 6.98344 22.4562 6.32295 21.765 5.81825ZM14.638 10.0003H9.362V9.83825C9.36157 9.38177 9.49622 8.93536 9.749 8.55525C9.77 8.52326 9.789 8.49225 9.808 8.46025L12 4.56125L14.192 8.46126C14.211 8.49325 14.23 8.52425 14.251 8.55625C14.5038 8.93636 14.6384 9.38277 14.638 9.83925V10.0003ZM4 8.24426L8.206 5.18425L7.217 6.94425C6.65724 7.80558 6.35985 8.81102 6.361 9.83825V10.0003H3.009C3.03951 9.65384 3.14371 9.31796 3.31463 9.0151C3.48554 8.71225 3.71922 8.44943 4 8.24426ZM17.638 10.0003V9.83825C17.6392 8.81102 17.3418 7.80558 16.782 6.94425L15.792 5.18425L20 8.24426C20.2808 8.44943 20.5145 8.71225 20.6854 9.0151C20.8563 9.31796 20.9605 9.65384 20.991 10.0003H17.638Z" fill="#25280B"/>
<path d="M4.591 18.0005H3V15.5005C3 15.1027 2.84196 14.7211 2.56066 14.4398C2.27936 14.1585 1.89782 14.0005 1.5 14.0005C1.10218 14.0005 0.720644 14.1585 0.43934 14.4398C0.158035 14.7211 0 15.1027 0 15.5005L0 22.5005C0 22.8983 0.158035 23.2798 0.43934 23.5611C0.720644 23.8425 1.10218 24.0005 1.5 24.0005C1.89782 24.0005 2.27936 23.8425 2.56066 23.5611C2.84196 23.2798 3 22.8983 3 22.5005V21.0005H4.591C4.69939 21.0008 4.80327 21.0439 4.87991 21.1206C4.95656 21.1972 4.99974 21.3011 5 21.4095V22.5005C5 22.8983 5.15804 23.2798 5.43934 23.5611C5.72064 23.8425 6.10218 24.0005 6.5 24.0005C6.89782 24.0005 7.27936 23.8425 7.56066 23.5611C7.84196 23.2798 8 22.8983 8 22.5005V21.4095C7.99894 20.5057 7.63944 19.6392 7.00036 19.0001C6.36128 18.361 5.4948 18.0015 4.591 18.0005Z" fill="#25280B"/>
<path d="M22.5 14.0005C22.1022 14.0005 21.7206 14.1585 21.4393 14.4398C21.158 14.7211 21 15.1027 21 15.5005V18.0005H19.409C18.5052 18.0015 17.6387 18.361 16.9996 19.0001C16.3606 19.6392 16.0011 20.5057 16 21.4095V22.5005C16 22.8983 16.158 23.2798 16.4393 23.5611C16.7206 23.8425 17.1022 24.0005 17.5 24.0005C17.8978 24.0005 18.2794 23.8425 18.5607 23.5611C18.842 23.2798 19 22.8983 19 22.5005V21.4095C19.0003 21.3011 19.0434 21.1972 19.1201 21.1206C19.1967 21.0439 19.3006 21.0008 19.409 21.0005H21V22.5005C21 22.8983 21.158 23.2798 21.4393 23.5611C21.7206 23.8425 22.1022 24.0005 22.5 24.0005C22.8978 24.0005 23.2793 23.8425 23.5606 23.5611C23.8419 23.2798 24 22.8983 24 22.5005V15.5005C24 15.1027 23.8419 14.7211 23.5606 14.4398C23.2793 14.1585 22.8978 14.0005 22.5 14.0005Z" fill="#25280B"/>
</g>
<defs>
<clipPath id="clip0_327_5875">
<rect width="24" height="24" fill="white"/>
</clipPath>
</defs>
</svg>
