<svg width="24" height="24" viewBox="0 0 24 24" fill="none" xmlns="http://www.w3.org/2000/svg">
<g clip-path="url(#clip0_327_5386)">
<path d="M10.5442 7.00049H22.5442C22.942 7.00049 23.3236 6.84245 23.6049 6.56115C23.8862 6.27984 24.0442 5.89831 24.0442 5.50049C24.0442 5.10266 23.8862 4.72113 23.6049 4.43983C23.3236 4.15852 22.942 4.00049 22.5442 4.00049H10.5442C10.1464 4.00049 9.76484 4.15852 9.48353 4.43983C9.20223 4.72113 9.04419 5.10266 9.04419 5.50049C9.04419 5.89831 9.20223 6.27984 9.48353 6.56115C9.76484 6.84245 10.1464 7.00049 10.5442 7.00049Z" fill="#25280B"/>
<path d="M22.5442 10.9995H10.5442C10.1464 10.9995 9.76484 11.1575 9.48353 11.4389C9.20223 11.7202 9.04419 12.1017 9.04419 12.4995C9.04419 12.8973 9.20223 13.2789 9.48353 13.5602C9.76484 13.8415 10.1464 13.9995 10.5442 13.9995H22.5442C22.942 13.9995 23.3236 13.8415 23.6049 13.5602C23.8862 13.2789 24.0442 12.8973 24.0442 12.4995C24.0442 12.1017 23.8862 11.7202 23.6049 11.4389C23.3236 11.1575 22.942 10.9995 22.5442 10.9995Z" fill="#25280B"/>
<path d="M22.5442 18H10.5442C10.1464 18 9.76484 18.158 9.48353 18.4393C9.20223 18.7206 9.04419 19.1022 9.04419 19.5C9.04419 19.8978 9.20223 20.2794 9.48353 20.5607C9.76484 20.842 10.1464 21 10.5442 21H22.5442C22.942 21 23.3236 20.842 23.6049 20.5607C23.8862 20.2794 24.0442 19.8978 24.0442 19.5C24.0442 19.1022 23.8862 18.7206 23.6049 18.4393C23.3236 18.158 22.942 18 22.5442 18Z" fill="#25280B"/>
<path d="M5.13004 6.99985C5.32779 6.99981 5.52109 6.94114 5.6855 6.83125C5.84991 6.72137 5.97805 6.5652 6.05372 6.3825C6.12939 6.1998 6.14919 5.99877 6.11062 5.80482C6.07206 5.61086 5.97685 5.4327 5.83704 5.29285L3.75104 3.20685C3.56351 3.01938 3.3092 2.91406 3.04404 2.91406C2.77887 2.91406 2.52457 3.01938 2.33704 3.20685L0.251039 5.29285C0.111229 5.4327 0.016023 5.61086 -0.0225445 5.80482C-0.0611121 5.99877 -0.0413091 6.1998 0.0343609 6.3825C0.110031 6.5652 0.238171 6.72137 0.40258 6.83125C0.56699 6.94114 0.760289 6.99981 0.958039 6.99985H1.54404V17.9999H0.958039C0.760289 17.9999 0.56699 18.0586 0.40258 18.1684C0.238171 18.2783 0.110031 18.4345 0.0343609 18.6172C-0.0413091 18.7999 -0.0611121 19.0009 -0.0225445 19.1949C0.016023 19.3888 0.111229 19.567 0.251039 19.7069L2.30004 21.7549C2.48757 21.9423 2.74187 22.0476 3.00704 22.0476C3.2722 22.0476 3.52651 21.9423 3.71404 21.7549L5.76204 19.7069C5.90191 19.5669 5.99714 19.3887 6.03567 19.1946C6.07421 19.0006 6.05432 18.7995 5.97853 18.6167C5.90273 18.434 5.77444 18.2778 5.60987 18.168C5.44531 18.0582 5.25187 17.9997 5.05404 17.9999H4.54404V6.99985H5.13004Z" fill="#25280B"/>
</g>
<defs>
<clipPath id="clip0_327_5386">
<rect width="24" height="24" fill="white"/>
</clipPath>
</defs>
</svg>
