<svg width="24" height="24" viewBox="0 0 24 24" fill="none" xmlns="http://www.w3.org/2000/svg">
<g clip-path="url(#clip0_327_5479)">
<path d="M20.469 1.14653L20.438 1.13553L17.847 0.27253C16.8445 -0.0608204 15.7656 -0.0890116 14.747 0.19153L9.44 1.73453C8.91369 1.87776 8.35369 1.83029 7.859 1.60053L7.359 1.37053C6.55122 1.0348 5.67309 0.903521 4.80244 0.988327C3.93178 1.07313 3.0955 1.37141 2.36769 1.85671C1.63988 2.34202 1.04302 2.99937 0.630019 3.77051C0.217015 4.54164 0.00061638 5.40276 0 6.27753L0 17.8005C0.00231329 18.949 0.375654 20.066 1.06439 20.985C1.75312 21.904 2.72037 22.5759 3.822 22.9005L6.562 23.7575C7.07541 23.9179 7.61011 23.9999 8.148 24.0005C8.62579 23.9909 9.1009 23.9265 9.564 23.8085L15.1 22.2805C15.5093 22.1686 15.9416 22.1721 16.349 22.2905L18.608 22.9415C19.25 23.0973 19.9189 23.1053 20.5644 22.9649C21.2099 22.8245 21.8151 22.5393 22.3343 22.1309C22.8535 21.7226 23.2732 21.2016 23.5618 20.6074C23.8503 20.0131 24.0002 19.3611 24 18.7005V6.15453C23.9984 5.05787 23.6584 3.98841 23.0265 3.09213C22.3945 2.19585 21.5014 1.51641 20.469 1.14653ZM14 3.53453V19.4705L10 20.5755V4.66853L14 3.53453ZM4.682 20.0275C4.19848 19.8882 3.77317 19.5959 3.4699 19.1943C3.16663 18.7928 3.00175 18.3037 3 17.8005V6.27753C2.99697 5.89534 3.08985 5.5185 3.27014 5.1815C3.45043 4.8445 3.71238 4.5581 4.032 4.34853C4.41609 4.08926 4.86859 3.95002 5.332 3.94853C5.61432 3.94784 5.894 4.0029 6.155 4.11053L7 4.46453V20.7525L4.682 20.0275ZM21 18.7005C20.9998 18.9018 20.9551 19.1005 20.8692 19.2825C20.7833 19.4645 20.6583 19.6253 20.5031 19.7534C20.3478 19.8815 20.1662 19.9738 19.9712 20.0236C19.7762 20.0734 19.5726 20.0795 19.375 20.0415L17 19.3705V3.15353L19.475 3.97653C19.9215 4.13986 20.3072 4.43629 20.5799 4.82578C20.8526 5.21527 20.9993 5.67906 21 6.15453V18.7005Z" fill="#25280B"/>
</g>
<defs>
<clipPath id="clip0_327_5479">
<rect width="24" height="24" fill="white"/>
</clipPath>
</defs>
</svg>
