<svg width="24" height="24" viewBox="0 0 24 24" fill="none" xmlns="http://www.w3.org/2000/svg">
<g clip-path="url(#clip0_327_5747)">
<path d="M1.5 20.9996H13.062C16.696 20.9996 19.608 19.2836 20.851 16.4096C20.9697 16.1446 21.0194 15.8539 20.9955 15.5645C20.9715 15.2751 20.8747 14.9965 20.714 14.7546C20.5635 14.5223 20.3566 14.3318 20.1127 14.2009C19.8689 14.0699 19.5958 14.0028 19.319 14.0056H15.009C14.9025 13.9996 14.7969 14.0292 14.709 14.0896L12.726 15.4116C12.1521 15.7943 11.4778 15.9989 10.788 15.9996H1.5C1.10218 15.9996 0.720644 15.8416 0.43934 15.5603C0.158035 15.279 0 14.8975 0 14.4996C0 14.1018 0.158035 13.7203 0.43934 13.439C0.720644 13.1577 1.10218 12.9996 1.5 12.9996H10.788C10.8874 12.9997 10.9845 12.9701 11.067 12.9146L13.049 11.5926C13.6233 11.2092 14.2985 11.005 14.989 11.0056H16.771C15.9744 9.29969 14.8163 7.78741 13.377 6.57363C12.8216 6.2015 12.1686 6.0018 11.5 5.99963H1.5C1.10218 5.99963 0.720644 5.84159 0.43934 5.56029C0.158035 5.27898 0 4.89745 0 4.49963C0 4.1018 0.158035 3.72027 0.43934 3.43897C0.720644 3.15766 1.10218 2.99963 1.5 2.99963H4.181L4.087 2.64263C3.94458 2.10251 4.02255 1.52795 4.30376 1.04532C4.58497 0.562696 5.04639 0.211549 5.5865 0.0691278C6.12661 -0.0732935 6.70118 0.00467765 7.18381 0.285888C7.66643 0.567099 8.01758 1.02851 8.16 1.56863L8.537 2.99963H11.5C12.8603 3.00168 14.184 3.44056 15.276 4.25163C17.4326 6.07482 19.0818 8.42398 20.064 11.0716C20.7026 11.1728 21.3132 11.4059 21.8568 11.7561C22.4003 12.1063 22.8649 12.5659 23.221 13.1056C23.653 13.7641 23.9139 14.5199 23.98 15.3046C24.0462 16.0893 23.9156 16.8781 23.6 17.5996C21.872 21.6066 17.931 23.9996 13.062 23.9996H1.5C1.10218 23.9996 0.720644 23.8416 0.43934 23.5603C0.158035 23.279 0 22.8975 0 22.4996C0 22.1018 0.158035 21.7203 0.43934 21.439C0.720644 21.1577 1.10218 20.9996 1.5 20.9996ZM9.5 10.9996C9.89782 10.9996 10.2794 10.8416 10.5607 10.5603C10.842 10.279 11 9.89745 11 9.49963C11 9.1018 10.842 8.72027 10.5607 8.43897C10.2794 8.15766 9.89782 7.99963 9.5 7.99963L1.5 7.99363C1.10218 7.99363 0.720644 8.15166 0.43934 8.43297C0.158035 8.71427 0 9.09581 0 9.49363C0 9.89145 0.158035 10.273 0.43934 10.5543C0.720644 10.8356 1.10218 10.9936 1.5 10.9936L9.5 10.9996ZM9 18.5056C9 18.209 8.91203 17.9189 8.7472 17.6723C8.58238 17.4256 8.34811 17.2333 8.07403 17.1198C7.79994 17.0063 7.49834 16.9766 7.20736 17.0345C6.91639 17.0923 6.64912 17.2352 6.43934 17.445C6.22956 17.6547 6.0867 17.922 6.02882 18.213C5.97094 18.504 6.00065 18.8056 6.11418 19.0797C6.22771 19.3537 6.41997 19.588 6.66664 19.7528C6.91332 19.9177 7.20333 20.0056 7.5 20.0056C7.89782 20.0056 8.27936 19.8476 8.56066 19.5663C8.84196 19.285 9 18.9035 9 18.5056ZM4 18.5056C4 18.209 3.91203 17.9189 3.7472 17.6723C3.58238 17.4256 3.34811 17.2333 3.07403 17.1198C2.79994 17.0063 2.49834 16.9766 2.20736 17.0345C1.91639 17.0923 1.64912 17.2352 1.43934 17.445C1.22956 17.6547 1.0867 17.922 1.02882 18.213C0.970944 18.504 1.00065 18.8056 1.11418 19.0797C1.22771 19.3537 1.41997 19.588 1.66664 19.7528C1.91332 19.9177 2.20333 20.0056 2.5 20.0056C2.89782 20.0056 3.27936 19.8476 3.56066 19.5663C3.84196 19.285 4 18.9035 4 18.5056ZM14 18.5056C14 18.209 13.912 17.9189 13.7472 17.6723C13.5824 17.4256 13.3481 17.2333 13.074 17.1198C12.7999 17.0063 12.4983 16.9766 12.2074 17.0345C11.9164 17.0923 11.6491 17.2352 11.4393 17.445C11.2296 17.6547 11.0867 17.922 11.0288 18.213C10.9709 18.504 11.0006 18.8056 11.1142 19.0797C11.2277 19.3537 11.42 19.588 11.6666 19.7528C11.9133 19.9177 12.2033 20.0056 12.5 20.0056C12.8978 20.0056 13.2794 19.8476 13.5607 19.5663C13.842 19.285 14 18.9035 14 18.5056Z" fill="#25280B"/>
</g>
<defs>
<clipPath id="clip0_327_5747">
<rect width="24" height="24" fill="white"/>
</clipPath>
</defs>
</svg>
