<svg width="24" height="24" viewBox="0 0 24 24" fill="none" xmlns="http://www.w3.org/2000/svg">
<g clip-path="url(#clip0_327_5467)">
<path d="M14.5001 13.0005C14.2034 13.0005 13.9134 12.9125 13.6667 12.7477C13.42 12.5829 13.2278 12.3486 13.1142 12.0745C13.0007 11.8005 12.971 11.4989 13.0289 11.2079C13.0868 10.9169 13.2296 10.6496 13.4394 10.4399C13.6492 10.2301 13.9165 10.0872 14.2074 10.0293C14.4984 9.97146 14.8 10.0012 15.0741 10.1147C15.3482 10.2282 15.5825 10.4205 15.7473 10.6672C15.9121 10.9138 16.0001 11.2038 16.0001 11.5005C16.0001 11.8983 15.842 12.2799 15.5607 12.5612C15.2794 12.8425 14.8979 13.0005 14.5001 13.0005ZM21.8871 8.06752C21.4254 5.78733 20.1881 3.7375 18.3855 2.26675C16.583 0.795994 14.3265 -0.00482894 12.0001 0.000514853C5.05307 0.000514853 3.00007 4.58252 1.78107 7.31952C1.53486 7.99621 1.18539 8.63073 0.745067 9.20052C0.465066 9.35996 0.243848 9.60532 0.114163 9.90028C-0.0155217 10.1952 -0.0467793 10.5241 0.0250179 10.8382C0.096815 11.1524 0.26785 11.435 0.512803 11.6443C0.757755 11.8537 1.0636 11.9786 1.38507 12.0005C3.66938 12.092 5.94976 11.7398 8.10007 10.9635C7.99339 11.2398 7.9709 11.5415 8.03544 11.8306C8.09998 12.1197 8.24866 12.3832 8.46274 12.5879C8.67681 12.7926 8.9467 12.9294 9.23838 12.9809C9.53006 13.0324 9.83047 12.9965 10.1017 12.8775C10.373 12.7586 10.603 12.562 10.7627 12.3125C10.9224 12.0631 11.0047 11.7719 10.9991 11.4758C10.9936 11.1797 10.9005 10.8918 10.7316 10.6484C10.5627 10.4051 10.3256 10.2173 10.0501 10.1085C11.3432 9.44457 12.5264 8.58551 13.5581 7.56152C13.8395 7.28012 13.9975 6.89847 13.9975 6.50052C13.9975 6.10256 13.8395 5.72091 13.5581 5.43952C13.2767 5.15812 12.895 5.00003 12.4971 5.00003C12.0991 5.00003 11.7175 5.15812 11.4361 5.43952C9.50172 7.27738 7.03867 8.46081 4.39507 8.82252L4.52007 8.54452C5.68107 5.94552 7.00007 3.00052 12.0001 3.00052C13.7512 2.99628 15.4416 3.64206 16.7438 4.81277C18.0461 5.98349 18.8675 7.59583 19.0491 9.33752C19.0832 9.65999 19.2209 9.96272 19.4416 10.2003C19.6623 10.4379 19.954 10.5977 20.2731 10.6555C20.4765 10.6922 20.6606 10.7991 20.7934 10.9575C20.9263 11.1159 20.9994 11.3158 21.0001 11.5225C21.0003 11.6527 20.9747 11.7817 20.9245 11.9019C20.8744 12.0221 20.8008 12.1311 20.7081 12.2225C20.5218 12.4069 20.2702 12.5101 20.0081 12.5095H19.9971H19.8351C19.5045 12.4844 19.1749 12.5687 18.8969 12.7494C18.619 12.9301 18.4082 13.1972 18.2971 13.5095C17.7858 14.7812 16.9211 15.8798 15.8052 16.6757C14.6893 17.4715 13.3689 17.9312 12.0001 18.0005C10.7233 17.8916 9.49459 17.4628 8.42726 16.7537C7.35993 16.0447 6.48839 15.0782 5.89307 13.9435C5.81992 13.7606 5.71146 13.5939 5.57388 13.4528C5.43629 13.3118 5.27228 13.1993 5.09121 13.1217C4.72551 12.9649 4.31251 12.9598 3.94307 13.1075C3.57362 13.2552 3.27799 13.5437 3.12121 13.9094C2.96443 14.2751 2.95934 14.6881 3.10707 15.0575C3.92618 16.8759 5.28546 18.3979 7.00007 19.4165V22.5005C7.00007 22.8983 7.1581 23.2799 7.43941 23.5612C7.72071 23.8425 8.10224 24.0005 8.50007 24.0005C8.89789 24.0005 9.27942 23.8425 9.56073 23.5612C9.84203 23.2799 10.0001 22.8983 10.0001 22.5005V20.7325C10.6528 20.9059 11.3248 20.996 12.0001 21.0005C12.6753 20.9898 13.3468 20.8978 14.0001 20.7265V22.5005C14.0001 22.8983 14.1581 23.2799 14.4394 23.5612C14.7207 23.8425 15.1022 24.0005 15.5001 24.0005C15.8979 24.0005 16.2794 23.8425 16.5607 23.5612C16.842 23.2799 17.0001 22.8983 17.0001 22.5005V19.4555C18.5784 18.4784 19.8634 17.0929 20.7191 15.4455C21.6388 15.2794 22.4711 14.7957 23.0707 14.0788C23.6703 13.3618 23.9992 12.4572 24.0001 11.5225C24 10.8079 23.8026 10.1072 23.4298 9.49763C23.057 8.88802 22.5231 8.39315 21.8871 8.06752Z" fill="#25280B"/>
</g>
<defs>
<clipPath id="clip0_327_5467">
<rect width="24" height="24" fill="white"/>
</clipPath>
</defs>
</svg>
