<svg width="24" height="24" viewBox="0 0 24 24" fill="none" xmlns="http://www.w3.org/2000/svg">
<path d="M7.69994 5.12677C7.57543 4.87743 7.38392 4.6677 7.14688 4.52111C6.90984 4.37452 6.63664 4.29688 6.35794 4.29688C6.07924 4.29688 5.80604 4.37452 5.569 4.52111C5.33196 4.6677 5.14045 4.87743 5.01594 5.12677L0.15994 14.8268C0.0451507 15.0554 -0.00924738 15.3096 0.00191745 15.5652C0.0130823 15.8208 0.0894389 16.0693 0.223728 16.2871C0.358017 16.5049 0.545774 16.6847 0.76915 16.8094C0.992526 16.9341 1.24409 16.9997 1.49994 16.9998C1.77882 16.9999 2.05224 16.9224 2.28947 16.7758C2.52671 16.6291 2.71837 16.4193 2.84294 16.1698L3.43494 14.9998H9.28294L9.86794 16.1698C9.99251 16.4193 10.1842 16.6291 10.4214 16.7758C10.6586 16.9224 10.9321 16.9999 11.2109 16.9998C11.4674 17.0005 11.7198 16.9355 11.9439 16.811C12.1681 16.6864 12.3566 16.5064 12.4914 16.2883C12.6262 16.0701 12.7029 15.821 12.714 15.5648C12.7251 15.3086 12.6703 15.0538 12.5549 14.8248L7.69994 5.12677ZM4.93494 11.9998L6.35894 9.15177L7.78294 11.9998H4.93494Z" fill="#25280B"/>
<path d="M22.5 6.49951C22.1948 6.50078 21.8974 6.59508 21.6472 6.76983C21.3971 6.94457 21.2062 7.19145 21.1 7.47751C20.4436 7.16579 19.7266 7.00259 19 6.99951C17.6739 6.99951 16.4021 7.52629 15.4645 8.46398C14.5268 9.40166 14 10.6734 14 11.9995C14 13.3256 14.5268 14.5974 15.4645 15.535C16.4021 16.4727 17.6739 16.9995 19 16.9995C19.7266 16.9964 20.4436 16.8332 21.1 16.5215C21.2252 16.8472 21.46 17.119 21.7641 17.2902C22.0681 17.4615 22.4224 17.5213 22.7658 17.4595C23.1092 17.3977 23.4203 17.2181 23.6456 16.9516C23.8709 16.6851 23.9962 16.3484 24 15.9995V7.99951C24 7.60169 23.8419 7.22015 23.5606 6.93885C23.2793 6.65755 22.8978 6.49951 22.5 6.49951ZM19 13.9995C18.6044 13.9995 18.2177 13.8822 17.8888 13.6624C17.56 13.4427 17.3036 13.1303 17.1522 12.7649C17.0009 12.3994 16.9613 11.9973 17.0384 11.6093C17.1156 11.2214 17.3061 10.865 17.5858 10.5853C17.8655 10.3056 18.2218 10.1151 18.6098 10.0379C18.9978 9.96077 19.3999 10.0004 19.7654 10.1517C20.1308 10.3031 20.4432 10.5595 20.6629 10.8884C20.8827 11.2173 21 11.6039 21 11.9995C21 12.5299 20.7893 13.0386 20.4142 13.4137C20.0391 13.7888 19.5304 13.9995 19 13.9995Z" fill="#25280B"/>
</svg>
