<svg width="24" height="24" viewBox="0 0 24 24" fill="none" xmlns="http://www.w3.org/2000/svg">
<g clip-path="url(#clip0_327_5290)">
<path d="M1.05605 22.6111L3.06705 23.2361C3.09105 23.2461 3.11205 23.2601 3.13705 23.2681C3.16205 23.2761 3.18705 23.2741 3.21205 23.2811L5.31205 23.9331C5.6921 24.0509 6.10337 24.0128 6.45538 23.8274C6.80738 23.6419 7.07129 23.3242 7.18905 22.9441C7.3068 22.5641 7.26876 22.1528 7.08329 21.8008C6.89781 21.4488 6.5801 21.1849 6.20005 21.0671L5.55605 20.8671L6.20005 19.0001C7.31509 19.0025 8.40083 18.6432 9.29427 17.976C10.1877 17.3089 10.8406 16.3699 11.155 15.3001L12 12.8111L12.818 15.2211C13.1251 16.3068 13.7774 17.2629 14.6763 17.9448C15.5753 18.6266 16.6718 18.9971 17.8 19.0001L18.4471 20.8691L17.803 21.0691C17.423 21.1869 17.1053 21.4508 16.9198 21.8028C16.7343 22.1548 16.6963 22.5661 16.814 22.9461C16.9318 23.3262 17.1957 23.6439 17.5477 23.8294C17.8997 24.0148 18.311 24.0529 18.691 23.9351L20.791 23.2831C20.8161 23.2761 20.841 23.2831 20.866 23.2701C20.8911 23.2571 20.9121 23.2481 20.9361 23.2381L22.9471 22.6131C23.1386 22.5577 23.3171 22.4647 23.4723 22.3395C23.6274 22.2143 23.7561 22.0594 23.8506 21.8839C23.9452 21.7084 24.0039 21.5158 24.0232 21.3173C24.0424 21.1189 24.022 20.9186 23.963 20.7281C23.9039 20.5377 23.8075 20.3609 23.6794 20.2082C23.5513 20.0555 23.394 19.9298 23.2167 19.8385C23.0394 19.7473 22.8457 19.6923 22.647 19.6768C22.4482 19.6613 22.2483 19.6855 22.059 19.7481L21.313 19.9791L20.67 18.1231C21.6009 17.5252 22.3113 16.6399 22.6935 15.6017C23.0757 14.5635 23.1089 13.4289 22.788 12.3701L21.0961 7.37014C20.845 6.53281 20.2748 5.82778 19.5085 5.4072C18.7422 4.98662 17.8412 4.88423 17 5.12214L13.45 6.10614C12.9009 6.261 12.4013 6.55558 12 6.96114C11.599 6.55605 11.1003 6.26123 10.552 6.10514L7.00005 5.12314C6.16735 4.88265 5.27355 4.97837 4.51066 5.38973C3.74777 5.80109 3.17667 6.49527 2.92005 7.32314L1.19105 12.4441C0.891093 13.495 0.937434 14.6144 1.32321 15.6369C1.70899 16.6593 2.4137 17.5304 3.33305 18.1211L2.69005 19.9771L1.94405 19.7461C1.75476 19.6835 1.55489 19.6593 1.35612 19.6748C1.15735 19.6903 0.963674 19.7453 0.786405 19.8365C0.609136 19.9278 0.451836 20.0535 0.323701 20.2062C0.195567 20.3589 0.0991688 20.5357 0.0401433 20.7261C-0.0188822 20.9166 -0.0393508 21.1169 -0.020066 21.3153C-0.000781083 21.5138 0.0578703 21.7064 0.152459 21.8819C0.247048 22.0574 0.375677 22.2123 0.530825 22.3375C0.685972 22.4627 0.864526 22.5557 1.05605 22.6111ZM14.041 9.16014C14.0632 9.12088 14.093 9.08648 14.1288 9.05899C14.1645 9.0315 14.2054 9.01149 14.249 9.00014L17.799 8.01614C17.8285 8.0068 17.8591 8.00142 17.89 8.00014C17.9707 8.00296 18.0483 8.03217 18.1108 8.08328C18.1733 8.1344 18.2173 8.20461 18.236 8.28314L19.157 11.0001H14.557L14.019 9.41314C14.0052 9.37171 14 9.32787 14.0038 9.28435C14.0076 9.24083 14.0203 9.19855 14.041 9.16014ZM6.10705 8.00014C6.13881 8.00046 6.17039 8.00483 6.20105 8.01313L9.75105 9.00014C9.79494 9.01184 9.836 9.03231 9.87175 9.06033C9.9075 9.08834 9.9372 9.12332 9.95905 9.16314C9.99597 9.22432 10.0105 9.29644 10 9.36714L9.44705 11.0001H4.84705L5.78005 8.24014C5.80195 8.17056 5.84547 8.10978 5.90427 8.06662C5.96307 8.02346 6.03411 8.00017 6.10705 8.00014Z" fill="#25280B"/>
<path d="M16.5002 4.00048C16.6972 4.00057 16.8923 3.96185 17.0744 3.88652C17.2564 3.8112 17.4218 3.70075 17.5612 3.56148L18.5612 2.56148C18.8426 2.28009 19.0007 1.89843 19.0007 1.50048C19.0007 1.10253 18.8426 0.720875 18.5612 0.439481C18.2798 0.158086 17.8981 0 17.5002 0C17.1022 0 16.7206 0.158086 16.4392 0.439481L15.4392 1.43948C15.2293 1.64926 15.0863 1.9166 15.0284 2.20766C14.9704 2.49872 15.0001 2.80042 15.1137 3.0746C15.2273 3.34877 15.4197 3.58309 15.6665 3.7479C15.9133 3.91271 16.2034 4.00062 16.5002 4.00048Z" fill="#25280B"/>
<path d="M6.43899 3.56148C6.72038 3.84288 7.10204 4.00096 7.49999 4.00096C7.89794 4.00096 8.27959 3.84288 8.56099 3.56148C8.84238 3.28009 9.00047 2.89843 9.00047 2.50048C9.00047 2.10253 8.84238 1.72088 8.56099 1.43948L7.56099 0.439481C7.27959 0.158086 6.89794 -2.96497e-09 6.49999 0C6.10204 2.96498e-09 5.72039 0.158086 5.43899 0.439481C5.1576 0.720875 4.99951 1.10253 4.99951 1.50048C4.99951 1.89843 5.1576 2.28009 5.43899 2.56148L6.43899 3.56148Z" fill="#25280B"/>
<path d="M12 4C12.3978 4 12.7794 3.84196 13.0607 3.56066C13.342 3.27936 13.5 2.89782 13.5 2.5V1.5C13.5 1.10218 13.342 0.720644 13.0607 0.43934C12.7794 0.158035 12.3978 0 12 0C11.6022 0 11.2206 0.158035 10.9393 0.43934C10.658 0.720644 10.5 1.10218 10.5 1.5V2.5C10.5 2.89782 10.658 3.27936 10.9393 3.56066C11.2206 3.84196 11.6022 4 12 4Z" fill="#25280B"/>
</g>
<defs>
<clipPath id="clip0_327_5290">
<rect width="24" height="24" fill="white"/>
</clipPath>
</defs>
</svg>
