<svg width="24" height="24" viewBox="0 0 24 24" fill="none" xmlns="http://www.w3.org/2000/svg">
<path d="M18.5 22.0005H5.5C4.0418 21.9989 2.64377 21.4189 1.61267 20.3878C0.581561 19.3567 0.00158817 17.9587 0 16.5005L0 7.50049C0.00158817 6.04228 0.581561 4.64426 1.61267 3.61316C2.64377 2.58205 4.0418 2.00208 5.5 2.00049H18.5C19.9582 2.00208 21.3562 2.58205 22.3873 3.61316C23.4184 4.64426 23.9984 6.04228 24 7.50049V16.5005C23.9984 17.9587 23.4184 19.3567 22.3873 20.3878C21.3562 21.4189 19.9582 21.9989 18.5 22.0005ZM5.5 5.00049C4.83696 5.00049 4.20107 5.26388 3.73223 5.73272C3.26339 6.20156 3 6.83745 3 7.50049V16.5005C3 17.1635 3.26339 17.7994 3.73223 18.2683C4.20107 18.7371 4.83696 19.0005 5.5 19.0005H18.5C19.163 19.0005 19.7989 18.7371 20.2678 18.2683C20.7366 17.7994 21 17.1635 21 16.5005V7.50049C21 6.83745 20.7366 6.20156 20.2678 5.73272C19.7989 5.26388 19.163 5.00049 18.5 5.00049H5.5Z" fill="#25280B"/>
<path d="M17.5 12H11.5C11.1022 12 10.7206 11.842 10.4393 11.5607C10.158 11.2794 10 10.8978 10 10.5C10 10.1022 10.158 9.72064 10.4393 9.43934C10.7206 9.15804 11.1022 9 11.5 9H17.5C17.8978 9 18.2794 9.15804 18.5607 9.43934C18.842 9.72064 19 10.1022 19 10.5C19 10.8978 18.842 11.2794 18.5607 11.5607C18.2794 11.842 17.8978 12 17.5 12Z" fill="#25280B"/>
<path d="M12.5 17.0005H6.5C6.10218 17.0005 5.72064 16.8425 5.43934 16.5611C5.15804 16.2798 5 15.8983 5 15.5005C5 15.1027 5.15804 14.7211 5.43934 14.4398C5.72064 14.1585 6.10218 14.0005 6.5 14.0005H12.5C12.8978 14.0005 13.2794 14.1585 13.5607 14.4398C13.842 14.7211 14 15.1027 14 15.5005C14 15.8983 13.842 16.2798 13.5607 16.5611C13.2794 16.8425 12.8978 17.0005 12.5 17.0005Z" fill="#25280B"/>
<path d="M6.5 12C7.32843 12 8 11.3284 8 10.5C8 9.67157 7.32843 9 6.5 9C5.67157 9 5 9.67157 5 10.5C5 11.3284 5.67157 12 6.5 12Z" fill="#25280B"/>
<path d="M17.5 17.0093C18.3284 17.0093 19 16.3377 19 15.5093C19 14.6809 18.3284 14.0093 17.5 14.0093C16.6716 14.0093 16 14.6809 16 15.5093C16 16.3377 16.6716 17.0093 17.5 17.0093Z" fill="#25280B"/>
</svg>
