<svg width="24" height="24" viewBox="0 0 24 24" fill="none" xmlns="http://www.w3.org/2000/svg">
<path d="M8.00026 22.3599C9.06239 23.4057 10.4916 23.9943 11.9821 24C13.4727 24.0056 14.9063 23.4277 15.9763 22.3899L19.7843 18.8529C21.8424 16.7756 22.9971 13.9696 22.9971 11.0454C22.9971 8.12117 21.8424 5.31521 19.7843 3.23791C18.7649 2.21182 17.5527 1.39748 16.2174 0.841782C14.8821 0.286084 13.4501 0 12.0038 0C10.5574 0 9.12539 0.286084 7.79008 0.841782C6.45477 1.39748 5.24257 2.21182 4.22326 3.23791C2.15992 5.32338 1.00609 8.14088 1.01396 11.0746C1.02183 14.0083 2.19076 16.8195 4.26526 18.8939L8.00026 22.3599ZM6.34626 5.35391C7.0868 4.60795 7.96764 4.0159 8.93802 3.61189C9.9084 3.20787 10.9491 2.99987 12.0003 2.99987C13.0514 2.99987 14.0921 3.20787 15.0625 3.61189C16.0329 4.0159 16.9137 4.60795 17.6543 5.35391C19.1526 6.85898 19.9975 8.89377 20.0062 11.0175C20.0148 13.1412 19.1863 15.1827 17.7003 16.6999L13.9003 20.2249C13.3827 20.7185 12.6934 20.9913 11.9782 20.9857C11.263 20.9801 10.5781 20.6965 10.0683 20.1949L6.34626 16.7369C4.8453 15.2229 4.00315 13.1773 4.00315 11.0454C4.00315 8.9135 4.8453 6.86789 6.34626 5.35391ZM7.00026 10.9999C7.00026 10.6021 7.15829 10.2205 7.4396 9.93924C7.7209 9.65794 8.10243 9.4999 8.50026 9.4999H15.5003C15.8981 9.4999 16.2796 9.65794 16.5609 9.93924C16.8422 10.2205 17.0003 10.6021 17.0003 10.9999C17.0003 11.3977 16.8422 11.7793 16.5609 12.0606C16.2796 12.3419 15.8981 12.4999 15.5003 12.4999H8.50026C8.10243 12.4999 7.7209 12.3419 7.4396 12.0606C7.15829 11.7793 7.00026 11.3977 7.00026 10.9999Z" fill="#25280B"/>
</svg>
