<svg width="24" height="24" viewBox="0 0 24 24" fill="none" xmlns="http://www.w3.org/2000/svg">
<g clip-path="url(#clip0_327_5947)">
<path d="M17.7281 -0.00043319C16.3989 -0.00099733 15.0785 0.215519 13.8191 0.640567C13.2353 0.854788 12.6215 0.975933 12.0001 0.999567C11.3783 0.975839 10.7642 0.854699 10.1801 0.640567C8.92099 0.215487 7.60094 -0.0010317 6.27206 -0.00043319C5.44195 -0.0241888 4.61574 0.121801 3.84404 0.42859C3.07235 0.73538 2.37142 1.19651 1.78421 1.78372C1.197 2.37093 0.735868 3.07186 0.429078 3.84356C0.122289 4.61525 -0.0237005 5.44146 5.50917e-05 6.27157C5.50917e-05 12.3996 3.08306 18.3886 5.40006 22.3616C5.70255 22.876 6.13792 23.2995 6.66049 23.5877C7.18306 23.8759 7.77357 24.0182 8.37006 23.9996C9.08732 23.9604 9.76163 23.6453 10.2518 23.1202C10.7421 22.5952 11.0102 21.9008 11.0001 21.1826V14.9996C11.0001 14.7344 11.1054 14.48 11.2929 14.2925C11.4805 14.1049 11.7348 13.9996 12.0001 13.9996C12.2653 13.9996 12.5196 14.1049 12.7072 14.2925C12.8947 14.48 13.0001 14.7344 13.0001 14.9996V21.1826C12.9902 21.9004 13.2581 22.5943 13.7478 23.1193C14.2376 23.6443 14.9112 23.9597 15.6281 23.9996C16.2243 24.0183 16.8147 23.8763 17.3372 23.5885C17.8597 23.3006 18.2952 22.8776 18.5981 22.3636C20.9171 18.3886 24.0001 12.3996 24.0001 6.27157C24.0238 5.44146 23.8778 4.61525 23.571 3.84356C23.2642 3.07186 22.8031 2.37093 22.2159 1.78372C21.6287 1.19651 20.9278 0.73538 20.1561 0.42859C19.3844 0.121801 18.5582 -0.0241888 17.7281 -0.00043319ZM16.0001 20.8596V14.9996C16.0001 13.9387 15.5786 12.9213 14.8285 12.1711C14.0783 11.421 13.0609 10.9996 12.0001 10.9996C10.9392 10.9996 9.92177 11.421 9.17163 12.1711C8.42148 12.9213 8.00006 13.9387 8.00006 14.9996V20.8596C5.85506 17.1876 3.00006 11.6756 3.00006 6.27157C2.97905 5.83632 3.04931 5.40149 3.20631 4.995C3.36331 4.58851 3.60359 4.21935 3.91171 3.91123C4.21984 3.6031 4.589 3.36282 4.99549 3.20582C5.40198 3.04882 5.83681 2.97856 6.27206 2.99957C7.30551 2.99888 8.33176 3.17161 9.30806 3.51057C10.1739 3.81474 11.0825 3.97979 12.0001 3.99957C12.9173 3.9798 13.8255 3.81475 14.6911 3.51057C15.6677 3.17161 16.6943 2.99888 17.7281 2.99957C18.1635 2.97794 18.5986 3.04776 19.0053 3.20455C19.4121 3.36133 19.7815 3.60159 20.0898 3.90984C20.398 4.2181 20.6383 4.58752 20.7951 4.99429C20.9519 5.40106 21.0217 5.83616 21.0001 6.27157C21.0001 11.6756 18.1451 17.1876 16.0001 20.8596Z" fill="#25280B"/>
</g>
<defs>
<clipPath id="clip0_327_5947">
<rect width="24" height="24" fill="white"/>
</clipPath>
</defs>
</svg>
