<svg width="24" height="24" viewBox="0 0 24 24" fill="none" xmlns="http://www.w3.org/2000/svg">
<g clip-path="url(#clip0_327_4955)">
<path d="M20.9997 13.5001C20.4115 13.5006 19.8365 13.6745 19.3467 14.0001L18.3277 13.4911C18.5834 12.4066 18.5561 11.2745 18.2482 10.2036C17.9404 9.13264 17.3624 8.15883 16.5698 7.37564C15.7772 6.59245 14.7965 6.02618 13.722 5.73119C12.6474 5.4362 11.5151 5.4224 10.4337 5.69112L9.83368 4.61012C10.1874 4.05265 10.3473 3.39407 10.2887 2.73647C10.23 2.07888 9.95609 1.45899 9.50934 0.97289C9.06259 0.486795 8.46797 0.161645 7.81764 0.0478402C7.16732 -0.0659642 6.49761 0.0379335 5.91234 0.343428C5.32706 0.648923 4.85891 1.13895 4.58044 1.73756C4.30197 2.33616 4.22873 3.00991 4.3721 3.65437C4.51546 4.29882 4.8674 4.87799 5.37337 5.30209C5.87935 5.7262 6.51109 5.97155 7.17068 6.00012L7.77068 7.07412C6.60165 8.07598 5.82685 9.4608 5.58468 10.9812C5.34251 12.5017 5.64874 14.0587 6.44868 15.3741L3.63968 18.0691C2.99499 17.9281 2.3218 18.0037 1.72438 18.284C1.12695 18.5643 0.638637 19.0338 0.335057 19.6198C0.0314777 20.2058 -0.0704234 20.8755 0.0451367 21.5252C0.160697 22.1749 0.487269 22.7684 0.974274 23.2138C1.46128 23.6591 2.08154 23.9314 2.73899 23.9886C3.39643 24.0457 4.05438 23.8845 4.61093 23.5299C5.16747 23.1753 5.59155 22.647 5.81748 22.027C6.04342 21.4069 6.0586 20.7297 5.86068 20.1001L8.55368 17.5141C9.88325 18.3475 11.4697 18.6709 13.0194 18.4246C14.5691 18.1782 15.9771 17.3787 16.9827 16.1741L18.0057 16.6851C18.0418 17.2695 18.2481 17.8305 18.5992 18.299C18.9502 18.7676 19.4307 19.1232 19.9814 19.3219C20.5321 19.5207 21.129 19.554 21.6984 19.4177C22.2678 19.2814 22.7848 18.9815 23.1858 18.5549C23.5868 18.1283 23.8542 17.5937 23.9551 17.017C24.056 16.4403 23.9859 15.8466 23.7535 15.3093C23.5211 14.7719 23.1365 14.3143 22.6472 13.9928C22.1579 13.6713 21.5852 13.5001 20.9997 13.5001ZM11.9997 15.5001C11.3074 15.5001 10.6308 15.2949 10.0552 14.9103C9.47961 14.5257 9.03101 13.9791 8.7661 13.3395C8.5012 12.7 8.43189 11.9962 8.56693 11.3173C8.70198 10.6384 9.03533 10.0147 9.52481 9.52525C10.0143 9.03577 10.6379 8.70242 11.3169 8.56737C11.9958 8.43233 12.6995 8.50164 13.3391 8.76654C13.9786 9.03145 14.5252 9.48005 14.9098 10.0556C15.2944 10.6312 15.4997 11.3079 15.4997 12.0001C15.4997 12.9284 15.1309 13.8186 14.4746 14.475C13.8182 15.1314 12.9279 15.5001 11.9997 15.5001Z" fill="#25280B"/>
</g>
<defs>
<clipPath id="clip0_327_4955">
<rect width="24" height="24" fill="white"/>
</clipPath>
</defs>
</svg>
