<svg width="24" height="24" viewBox="0 0 24 24" fill="none" xmlns="http://www.w3.org/2000/svg">
<g clip-path="url(#clip0_327_5437)">
<path d="M10.4093 19.5873C8.8213 21.234 6.2351 21.3859 4.46523 19.9363C3.41119 19.0237 2.87278 17.6515 3.02497 16.2657C3.15676 15.2439 3.63431 14.2979 4.37822 13.5852L7.25477 10.7066C7.84045 10.1208 7.84045 9.17111 7.25477 8.58525C6.66891 7.99958 5.71924 7.99958 5.13338 8.58525L2.31786 11.4018C1.03447 12.6394 0.225112 14.2874 0.0304036 16.0596C-0.333274 20.0512 2.6077 23.5819 6.59929 23.9456C8.74286 24.1409 10.8626 23.3746 12.3857 21.8537L15.3943 18.8461C15.9799 18.2603 15.9799 17.3106 15.3943 16.7247C14.8084 16.1391 13.8587 16.1391 13.2729 16.7247L10.4093 19.5873Z" fill="#25280B"/>
<path d="M21.1615 1.46745C18.1747 -0.726995 14.0271 -0.382961 11.4427 2.27361L8.61113 5.10615C8.02546 5.69201 8.02546 6.64168 8.61113 7.22754C9.19699 7.81322 10.1467 7.81322 10.7325 7.22754L13.6091 4.35399C15.1624 2.74742 17.6757 2.56645 19.4432 3.93391C21.2624 5.42566 21.5279 8.10971 20.0361 9.92894C19.9488 10.0354 19.8564 10.1376 19.7592 10.2351L16.7506 13.2437C16.165 13.8295 16.165 14.7792 16.7506 15.3651C17.3365 15.9507 18.2862 15.9507 18.872 15.3651L21.8806 12.3565C24.713 9.51505 24.7057 4.91552 21.8642 2.08313C21.6435 1.86305 21.4087 1.65742 21.1615 1.46745Z" fill="#25280B"/>
<path d="M8.61106 13.2459L13.2725 8.58445C13.8584 7.99854 14.8083 7.99854 15.3942 8.58445C15.9801 9.17036 15.9801 10.1203 15.3942 10.7062L10.7328 15.3676C10.1469 15.9535 9.19697 15.9535 8.61106 15.3676C8.02515 14.7817 8.02515 13.8318 8.61106 13.2459Z" fill="#25280B"/>
</g>
<defs>
<clipPath id="clip0_327_5437">
<rect width="24" height="24" fill="white"/>
</clipPath>
</defs>
</svg>
