<svg width="24" height="24" viewBox="0 0 24 24" fill="none" xmlns="http://www.w3.org/2000/svg">
<path d="M8.43908 12.4389L9.87908 10.9999L8.43908 9.5609C8.15769 9.27951 7.9996 8.89786 7.9996 8.4999C7.9996 8.10195 8.15769 7.7203 8.43908 7.43891C8.72048 7.15751 9.10213 6.99942 9.50008 6.99942C9.89804 6.99942 10.2797 7.15751 10.5611 7.43891L12.0001 8.8789L13.4391 7.43891C13.7205 7.15751 14.1021 6.99942 14.5001 6.99942C14.898 6.99942 15.2797 7.15751 15.5611 7.43891C15.8425 7.7203 16.0006 8.10195 16.0006 8.4999C16.0006 8.89786 15.8425 9.27951 15.5611 9.5609L14.1211 10.9999L15.5611 12.4389C15.8425 12.7203 16.0006 13.102 16.0006 13.4999C16.0006 13.8979 15.8425 14.2795 15.5611 14.5609C15.2797 14.8423 14.898 15.0004 14.5001 15.0004C14.1021 15.0004 13.7205 14.8423 13.4391 14.5609L12.0001 13.1209L10.5611 14.5609C10.2797 14.8423 9.89804 15.0004 9.50008 15.0004C9.10213 15.0004 8.72048 14.8423 8.43908 14.5609C8.15769 14.2795 7.9996 13.8979 7.9996 13.4999C7.9996 13.102 8.15769 12.7203 8.43908 12.4389ZM4.26208 18.8939C2.18759 16.8195 1.01865 14.0083 1.01078 11.0746C1.00291 8.14088 2.15675 5.32338 4.22008 3.23791C5.23939 2.21182 6.4516 1.39748 7.78691 0.841782C9.12222 0.286084 10.5543 0 12.0006 0C13.4469 0 14.8789 0.286084 16.2143 0.841782C17.5496 1.39748 18.7618 2.21182 19.7811 3.23791C21.84 5.31483 22.9951 8.12093 22.9951 11.0454C22.9951 13.9699 21.84 16.776 19.7811 18.8529L15.9731 22.3899C14.9033 23.4268 13.4703 24.0041 11.9805 23.9985C10.4906 23.9929 9.06208 23.4048 8.00008 22.3599L4.26208 18.8939ZM6.34608 16.7369L10.0681 20.1909C10.5781 20.6926 11.2632 20.9762 11.9785 20.9818C12.6938 20.9874 13.3833 20.7145 13.9011 20.2209L17.7001 16.6999C19.1853 15.1833 20.0135 13.1428 20.0055 11.0201C19.9975 8.89736 19.1538 6.8632 17.6571 5.3579C16.9165 4.61195 16.0357 4.0199 15.0653 3.61589C14.0949 3.21187 13.0542 3.00387 12.0031 3.00387C10.952 3.00387 9.91122 3.21187 8.94085 3.61589C7.97047 4.0199 7.08963 4.61195 6.34908 5.3579C4.84894 6.87133 4.00702 8.91585 4.00646 11.0468C4.0059 13.1777 4.84674 15.2227 6.34608 16.7369Z" fill="#25280B"/>
</svg>
