<svg width="24" height="24" viewBox="0 0 24 24" fill="none" xmlns="http://www.w3.org/2000/svg">
<g clip-path="url(#clip0_327_4867)">
<path d="M0.220887 4.28296C0.118285 4.11475 0.0498275 3.92797 0.0194268 3.73329C-0.0109739 3.53862 -0.00272264 3.33986 0.0437093 3.14838C0.0901413 2.95689 0.173844 2.77643 0.290036 2.6173C0.406228 2.45817 0.552633 2.32349 0.720887 2.22096L3.98889 0.22096C4.15694 0.109054 4.34586 0.0322275 4.54432 -0.00491617C4.74277 -0.0420598 4.94669 -0.0387559 5.14384 0.00479747C5.34099 0.0483509 5.52732 0.131257 5.69166 0.248548C5.856 0.36584 5.99497 0.515101 6.10024 0.687388C6.20551 0.859676 6.27492 1.05144 6.3043 1.2512C6.33368 1.45095 6.32243 1.65458 6.27123 1.84988C6.22003 2.04519 6.12992 2.22814 6.00632 2.38779C5.88271 2.54743 5.72815 2.68048 5.55189 2.77896L2.28289 4.77896C2.11468 4.88156 1.9279 4.95002 1.73322 4.98042C1.53855 5.01082 1.33979 5.00257 1.1483 4.95614C0.956818 4.90971 0.776357 4.826 0.617228 4.70981C0.458099 4.59362 0.323421 4.44721 0.220887 4.27896V4.28296ZM23.2879 17.983C22.9493 17.7741 22.5417 17.7083 22.1546 17.8C21.7676 17.8917 21.4328 18.1334 21.2239 18.472L19.2239 21.713C19.1157 21.8806 19.0421 22.0681 19.0073 22.2645C18.9725 22.4609 18.9772 22.6623 19.0212 22.8569C19.0652 23.0515 19.1475 23.2353 19.2634 23.3977C19.3793 23.56 19.5264 23.6976 19.6961 23.8025C19.8659 23.9073 20.0548 23.9772 20.2519 24.0081C20.4489 24.039 20.6502 24.0303 20.8439 23.9825C21.0375 23.9347 21.2197 23.8487 21.3797 23.7296C21.5398 23.6105 21.6744 23.4607 21.7759 23.289L23.7759 20.048C23.8796 19.8803 23.9493 19.6938 23.981 19.4992C24.0126 19.3046 24.0055 19.1057 23.9602 18.9138C23.9149 18.7219 23.8322 18.5408 23.7168 18.3809C23.6014 18.2211 23.4557 18.0855 23.2879 17.982V17.983ZM20.8349 15.483L17.2349 21.348C16.7971 22.0651 16.2015 22.673 15.4935 23.1255C14.7855 23.5779 13.9836 23.863 13.1489 23.959C12.9288 23.9844 12.7074 23.9974 12.4859 23.998C11.2567 23.9931 10.0647 23.5766 9.09989 22.815C8.31512 23.5758 7.26371 23.9993 6.17066 23.9947C5.07762 23.9901 4.02978 23.5579 3.25141 22.7905C2.47303 22.0231 2.02596 20.9815 2.00586 19.8886C1.98577 18.7958 2.39425 17.7385 3.14389 16.943L1.64989 15.443C1.05195 14.85 0.59707 14.1285 0.319823 13.3333C0.0425759 12.5381 -0.0497417 11.6902 0.0498873 10.854C0.144685 10.0261 0.426941 9.23066 0.875209 8.5282C1.32348 7.82573 1.92596 7.23468 2.63689 6.79996L8.12389 3.41296C9.63742 2.4445 11.4066 1.95226 13.2029 1.99986C14.9991 2.04745 16.7398 2.6327 18.1999 3.67996L19.4399 2.43896C19.7213 2.15756 20.1029 1.99948 20.5009 1.99948C20.8988 1.99948 21.2805 2.15756 21.5619 2.43896C21.8433 2.72035 22.0014 3.10201 22.0014 3.49996C22.0014 3.89791 21.8433 4.27956 21.5619 4.56096L20.3229 5.79996C21.3181 7.19966 21.8947 8.85356 21.9854 10.5686C22.076 12.2837 21.677 13.9891 20.8349 15.486V15.483ZM17.2349 6.77596C16.2646 5.79976 14.989 5.18559 13.6208 5.03583C12.2526 4.88607 10.8744 5.20976 9.71589 5.95296L4.21589 9.35296C3.89144 9.55198 3.61657 9.82227 3.41212 10.1433C3.20766 10.4644 3.079 10.8278 3.03589 11.206C2.9902 11.5925 3.03328 11.9843 3.16186 12.3517C3.29044 12.7191 3.50113 13.0523 3.77789 13.326L10.6899 20.254C10.9638 20.5267 11.2959 20.7339 11.6613 20.8601C12.0267 20.9864 12.4159 21.0283 12.7998 20.9828C13.1837 20.9373 13.5523 20.8055 13.8781 20.5974C14.2038 20.3893 14.4783 20.1102 14.6809 19.781L18.2539 13.963C18.8877 12.8175 19.1312 11.4967 18.9476 10.2005C18.7639 8.90434 18.163 7.70323 17.2359 6.77896L17.2349 6.77596Z" fill="#25280B"/>
</g>
<defs>
<clipPath id="clip0_327_4867">
<rect width="24" height="24" fill="white"/>
</clipPath>
</defs>
</svg>
