<svg width="24" height="24" viewBox="0 0 24 24" fill="none" xmlns="http://www.w3.org/2000/svg">
<g clip-path="url(#clip0_327_5003)">
<path d="M23.9758 15.5001C23.9056 16.4131 23.6715 17.306 23.2848 18.1361C23.1161 18.4964 22.8112 18.7749 22.4372 18.9104C22.0631 19.0459 21.6506 19.0273 21.2903 18.8586C20.93 18.6899 20.6514 18.385 20.5159 18.011C20.3805 17.6369 20.3991 17.2244 20.5678 16.8641C20.8019 16.3602 20.9431 15.8182 20.9848 15.2641C21.0853 13.9473 20.6774 12.6421 19.8451 11.6168C19.0127 10.5916 17.8191 9.92424 16.5098 9.75209C16.1835 9.70873 15.8805 9.55923 15.6476 9.32665C15.4146 9.09407 15.2646 8.79133 15.2208 8.46509C15.1313 7.79076 14.9084 7.14101 14.565 6.5538C14.2216 5.9666 13.7646 5.45371 13.2208 5.04509C12.6679 4.6286 12.0375 4.32667 11.3664 4.15701C10.6953 3.98736 9.99714 3.95339 9.31277 4.05709C8.27043 4.21393 7.30326 4.69286 6.54671 5.42682C5.79016 6.16078 5.28213 7.11299 5.09377 8.15009C4.8735 9.27017 5.03401 10.4317 5.54977 11.4501C5.85914 12.0296 5.92635 12.7081 5.73669 13.337C5.54703 13.966 5.11594 14.4942 4.53777 14.8061C3.97266 15.0879 3.52115 15.5548 3.25841 16.1291C2.99567 16.7033 2.93757 17.3502 3.09377 17.9621C3.28632 18.5681 3.67112 19.0949 4.1899 19.4627C4.70867 19.8304 5.33316 20.0191 5.96877 20.0001H8.49977C8.89759 20.0001 9.27913 20.1581 9.56043 20.4394C9.84173 20.7207 9.99977 21.1023 9.99977 21.5001C9.99977 21.8979 9.84173 22.2794 9.56043 22.5608C9.27913 22.8421 8.89759 23.0001 8.49977 23.0001H5.96877C4.66795 23.0255 3.39539 22.6191 2.35 21.8446C1.3046 21.07 0.545298 19.9709 0.19077 18.7191C-0.111373 17.5395 -0.0322066 16.2946 0.416915 15.1628C0.866037 14.031 1.66204 13.0705 2.69077 12.4191C1.9579 10.7721 1.79387 8.92803 2.22452 7.17752C2.65518 5.42701 3.65604 3.86955 5.0694 2.75055C6.48277 1.63154 8.22828 1.01462 10.0309 0.996971C11.8335 0.979327 13.5908 1.56197 15.0258 2.65309C16.4565 3.73859 17.492 5.26306 17.9738 6.99309C19.8084 7.49008 21.412 8.61193 22.5077 10.165C23.6035 11.7181 24.1227 13.605 23.9758 15.5001ZM18.5628 19.0001H16.9998V14.5001C16.9998 14.1023 16.8417 13.7207 16.5604 13.4394C16.2791 13.1581 15.8976 13.0001 15.4998 13.0001C15.1019 13.0001 14.7204 13.1581 14.4391 13.4394C14.1578 13.7207 13.9998 14.1023 13.9998 14.5001V19.0001H12.4368C12.2452 18.9999 12.0578 19.0565 11.8984 19.1629C11.7391 19.2693 11.6148 19.4205 11.5415 19.5975C11.4681 19.7745 11.4489 19.9693 11.4864 20.1572C11.5238 20.3451 11.6162 20.5177 11.7518 20.6531L14.8148 23.7161C14.9046 23.8063 15.0114 23.8778 15.1289 23.9266C15.2465 23.9754 15.3725 24.0006 15.4998 24.0006C15.6271 24.0006 15.7531 23.9754 15.8706 23.9266C15.9882 23.8778 16.0949 23.8063 16.1848 23.7161L19.2478 20.6531C19.3834 20.5177 19.4757 20.3451 19.5132 20.1572C19.5506 19.9693 19.5314 19.7745 19.4581 19.5975C19.3847 19.4205 19.2605 19.2693 19.1011 19.1629C18.9417 19.0565 18.7544 18.9999 18.5628 19.0001Z" fill="#25280B"/>
</g>
<defs>
<clipPath id="clip0_327_5003">
<rect width="24" height="24" fill="white"/>
</clipPath>
</defs>
</svg>
