<svg width="24" height="24" viewBox="0 0 24 24" fill="none" xmlns="http://www.w3.org/2000/svg">
<g clip-path="url(#clip0_327_5873)">
<path d="M20.4908 3.50999C18.8128 1.83353 16.6755 0.692167 14.349 0.230198C12.0225 -0.231771 9.61125 0.00638992 7.42007 0.914575C5.22889 1.82276 3.35616 3.3602 2.0386 5.33253C0.721048 7.30487 0.0178223 9.62356 0.0178223 11.9955C0.0178223 14.3674 0.721048 16.6861 2.0386 18.6585C3.35616 20.6308 5.22889 22.1682 7.42007 23.0764C9.61125 23.9846 12.0225 24.2228 14.349 23.7608C16.6755 23.2988 18.8128 22.1575 20.4908 20.481C22.7379 18.2287 23.9999 15.1771 23.9999 11.9955C23.9999 8.81392 22.7379 5.76226 20.4908 3.50999ZM20.7658 9.98599C19.0013 9.90461 17.3307 9.16712 16.0817 7.91808C14.8327 6.66904 14.0952 4.99853 14.0138 3.23399C15.6634 3.60392 17.1739 4.43501 18.3694 5.63044C19.5648 6.82586 20.3959 8.33638 20.7658 9.98599ZM3.24481 14.001C5.01021 14.0822 6.68161 14.8199 7.93125 16.0695C9.1809 17.3192 9.91864 18.9906 9.9998 20.756C8.3491 20.3867 6.83749 19.5555 5.64141 18.3594C4.44533 17.1633 3.61412 15.6517 3.24481 14.001ZM18.3698 18.36C16.923 19.8069 15.0244 20.715 12.9898 20.933C12.9592 18.311 11.904 15.8051 10.0498 13.951C8.1957 12.0968 5.68977 11.0416 3.06781 11.011C3.28592 8.97645 4.19391 7.07787 5.64079 5.63098C7.08768 4.1841 8.98626 3.2761 11.0208 3.05799C11.0537 5.67992 12.1092 8.18535 13.9623 10.0404C15.8155 11.8955 18.3199 12.9535 20.9418 12.989C20.7222 15.0203 19.8147 16.9154 18.3698 18.36Z" fill="#25280B"/>
</g>
<defs>
<clipPath id="clip0_327_5873">
<rect width="24" height="24" fill="white"/>
</clipPath>
</defs>
</svg>
