<svg width="24" height="24" viewBox="0 0 24 24" fill="none" xmlns="http://www.w3.org/2000/svg">
<g clip-path="url(#clip0_327_5550)">
<path d="M18.9394 22.4595C18.9394 23.2853 18.27 23.9547 17.4442 23.9547H1.49541C0.669611 23.9547 0.000189563 23.2853 0.000189563 22.4595C0.000189563 21.6337 0.669611 20.9643 1.49541 20.9643H17.4443C18.27 20.9643 18.9394 21.6337 18.9394 22.4595ZM24.0002 8.50428C24.0002 11.5007 21.6079 14.9835 18.5178 14.9835H17.0346C16.4723 17.3299 14.3746 18.9848 11.9618 18.9856H6.97781C4.40808 18.9912 2.21452 17.13 1.80141 14.5937L0.0630021 5.09422C-0.342748 2.7469 1.23117 0.515137 3.57849 0.109434C3.82022 0.0676686 4.06505 0.0465748 4.31035 0.0463873H14.6292C16.8868 0.0452154 18.7598 1.79234 18.9155 4.04454C22.1013 4.17514 24.0002 5.8129 24.0002 8.50428ZM15.9341 4.55492C16.0436 3.83431 15.5483 3.16132 14.8277 3.05178C14.762 3.04179 14.6957 3.03678 14.6293 3.03678H4.31035C3.58149 3.03959 2.99288 3.6327 2.99564 4.36161C2.99592 4.4344 3.00221 4.50706 3.01449 4.57882L4.75589 14.0794C4.92492 15.1773 5.86692 15.9895 6.97777 15.9952H11.9618C13.0685 15.9966 14.0123 15.1939 14.1886 14.1013V14.0774L15.9341 4.55492ZM21.0098 8.50428C21.0098 8.05672 21.0098 7.00906 18.5248 7.00906L17.6117 11.9931H18.5178C19.6591 11.9931 21.0098 10.0992 21.0098 8.50428Z" fill="#25280B"/>
</g>
<defs>
<clipPath id="clip0_327_5550">
<rect width="24" height="24" fill="white"/>
</clipPath>
</defs>
</svg>
