<svg width="24" height="24" viewBox="0 0 24 24" fill="none" xmlns="http://www.w3.org/2000/svg">
<path d="M17.7 3H6.3C4.4 3 2.7 4 1.7 5.7C0.6 7.6 0 9.8 0 12C0 16.9 2 22 5.3 22C7.1 22 8.6 20.6 9.3 18.3C9.4 18.1 9.5 18 9.7 18H14.3C14.5 18 14.7 18.1 14.7 18.3C15.7 21.5 17.6 22 18.6 22C22 22 24 16.9 24 12C24 9.8 23.4 7.6 22.3 5.6C21.4 4 19.6 3 17.7 3ZM18.7 19C18.4 19 18 18.5 17.7 17.4C17.2 16 15.9 15 14.4 15H9.7C8.2 15 6.9 16 6.4 17.4C6.1 18.4 5.6 19 5.3 19C4.7 18.9 3 16.4 3 12C3 10.3 3.5 8.6 4.3 7.1C4.7 6.4 5.5 6 6.3 6H17.7C18.5 6 19.3 6.4 19.7 7.1C20.6 8.6 21 10.3 21 12C21 16.4 19.3 18.9 18.7 19Z" fill="#25280B"/>
<path d="M10.5002 9.00049H10.0002V8.50049C10.0002 7.70049 9.30024 7.00049 8.50024 7.00049C7.70024 7.00049 7.00024 7.70049 7.00024 8.50049V9.00049H6.50024C5.70024 9.00049 5.00024 9.70049 5.00024 10.5005C5.00024 11.3005 5.70024 12.0005 6.50024 12.0005H7.00024V12.5005C7.00024 13.3005 7.70024 14.0005 8.50024 14.0005C9.30024 14.0005 10.0002 13.3005 10.0002 12.5005V12.0005H10.5002C11.3002 12.0005 12.0002 11.3005 12.0002 10.5005C12.0002 9.70049 11.3002 9.00049 10.5002 9.00049Z" fill="#25280B"/>
<path d="M17 11.9995C18.1046 11.9995 19 11.1041 19 9.99951C19 8.89494 18.1046 7.99951 17 7.99951C15.8954 7.99951 15 8.89494 15 9.99951C15 11.1041 15.8954 11.9995 17 11.9995Z" fill="#25280B"/>
</svg>
