<svg width="24" height="24" viewBox="0 0 24 24" fill="none" xmlns="http://www.w3.org/2000/svg">
<g clip-path="url(#clip0_327_5749)">
<path d="M22.4997 18.972C22.3042 18.9684 22.1099 19.0038 21.9282 19.0761C21.7465 19.1484 21.581 19.2561 21.4414 19.3931C21.3017 19.53 21.1908 19.6934 21.1149 19.8736C21.0391 20.0539 20.9999 20.2474 20.9997 20.443C20.8756 20.6244 20.707 20.771 20.51 20.8685C20.313 20.966 20.0942 21.0113 19.8747 21C19.6084 21.0015 19.3456 20.9387 19.1087 20.817C20.5777 19.1473 21.5603 17.1065 21.9497 14.917C22.082 14.1713 21.9621 13.4027 21.609 12.7327C21.2559 12.0627 20.6897 11.5294 19.9997 11.217V8.5C19.9984 7.30693 19.5239 6.16311 18.6802 5.31948C17.8366 4.47585 16.6928 4.00132 15.4997 4H14.9997V3C14.9997 2.20435 14.6836 1.44129 14.121 0.87868C13.5584 0.31607 12.7954 0 11.9997 0C11.2041 0 10.441 0.31607 9.87838 0.87868C9.31578 1.44129 8.99971 2.20435 8.99971 3V4H8.49971C7.30664 4.00132 6.16281 4.47585 5.31919 5.31948C4.47556 6.16311 4.00103 7.30693 3.9997 8.5V11.083C3.3158 11.399 2.75569 11.9324 2.40675 12.6001C2.0578 13.2677 1.93964 14.0321 2.0707 14.774C2.46981 17.0004 3.44246 19.0842 4.8927 20.82C4.65459 20.94 4.39135 21.0017 4.1247 21C3.90654 21.0085 3.68966 20.9629 3.49338 20.8673C3.29709 20.7717 3.1275 20.629 2.9997 20.452C2.99334 20.0542 2.8292 19.6752 2.54339 19.3984C2.25759 19.1216 1.87353 18.9696 1.4757 18.976C1.07788 18.9824 0.698877 19.1465 0.422073 19.4323C0.14527 19.7181 -0.00666124 20.1022 -0.000296047 20.5C-0.000296047 22.364 1.9277 24 4.1247 24C5.06247 24.002 5.97879 23.7196 6.7527 23.19C7.52567 23.717 8.43912 23.9998 9.37467 24.0016C10.3102 24.0033 11.2247 23.7241 11.9997 23.2C12.7764 23.7252 13.6929 24.0049 14.6304 24.0029C15.5679 24.001 16.4833 23.7174 17.2577 23.189C18.0281 23.7174 18.9405 24.0002 19.8747 24C22.0717 24 23.9997 22.364 23.9997 20.5C24.0013 20.0991 23.8447 19.7137 23.5638 19.4276C23.283 19.1415 22.9006 18.9778 22.4997 18.972ZM8.49971 7H15.4997C15.8975 7 16.2791 7.15804 16.5604 7.43934C16.8417 7.72064 16.9997 8.10218 16.9997 8.5V10.3L13.0757 9.174C12.407 8.94787 11.6839 8.93877 11.0097 9.148L6.9997 10.221V8.5C6.9997 8.10218 7.15774 7.72064 7.43904 7.43934C7.72035 7.15804 8.10188 7 8.49971 7ZM9.37471 21C9.16039 21.0131 8.946 20.9757 8.74871 20.891C8.55143 20.8062 8.37676 20.6764 8.23871 20.512C8.01915 19.9822 7.71521 19.4915 7.33871 19.059C6.15062 17.7003 5.3521 16.0455 5.0277 14.27C5.00785 14.1824 5.01489 14.0909 5.04789 14.0074C5.0809 13.9239 5.13834 13.8523 5.2127 13.802L10.4997 12.388V20.537C10.3591 20.6938 10.1849 20.8169 9.99012 20.8971C9.79534 20.9772 9.58498 21.0124 9.37471 21ZM14.6247 21C14.212 21.0076 13.8112 20.8618 13.4997 20.591V12.418L18.7387 13.93C18.8307 13.9694 18.9063 14.0395 18.9525 14.1282C18.9988 14.217 19.013 14.319 18.9927 14.417C18.6751 16.153 17.8681 17.7622 16.6667 19.055C16.2869 19.49 15.9809 19.9842 15.7607 20.518C15.6224 20.6818 15.4475 20.8108 15.2502 20.8945C15.0529 20.9782 14.8386 21.0144 14.6247 21Z" fill="#25280B"/>
</g>
<defs>
<clipPath id="clip0_327_5749">
<rect width="24" height="24" fill="white"/>
</clipPath>
</defs>
</svg>
