<svg width="24" height="24" viewBox="0 0 24 24" fill="none" xmlns="http://www.w3.org/2000/svg">
<path d="M21.2549 6.27C20.9382 5.87278 20.5358 5.55224 20.0778 5.33233C19.6198 5.11242 19.118 4.99882 18.6099 5H15.1209L15.2939 3.444C15.3077 3.32201 15.3658 3.20934 15.4573 3.12746C15.5488 3.04558 15.6672 3.00021 15.7899 3H19.4999C19.8978 3 20.2793 2.84196 20.5606 2.56066C20.8419 2.27936 20.9999 1.89782 20.9999 1.5C20.9999 1.10218 20.8419 0.720644 20.5606 0.43934C20.2793 0.158035 19.8978 0 19.4999 0L15.7899 0C14.9288 0.000132528 14.0979 0.31774 13.4562 0.892067C12.8146 1.46639 12.4071 2.25712 12.3119 3.113L12.0999 5H5.38993C4.88852 4.9999 4.39333 5.11106 3.94007 5.32547C3.48681 5.53988 3.08678 5.85219 2.76881 6.2399C2.45084 6.6276 2.22287 7.08102 2.10132 7.56748C1.97978 8.05394 1.96769 8.56131 2.06593 9.053L3.48593 19.379C3.64725 20.6545 4.26807 21.8275 5.23211 22.6781C6.19615 23.5287 7.43725 23.9987 8.72293 24H15.2769C16.5593 23.9998 17.7978 23.5328 18.7611 22.6863C19.7244 21.8398 20.3468 20.6717 20.5119 19.4L21.9329 9.058C22.0319 8.57202 22.0225 8.0702 21.9053 7.58829C21.7881 7.10638 21.566 6.65626 21.2549 6.27ZM18.6099 8C18.669 7.99774 18.7277 8.00934 18.7814 8.03388C18.8351 8.05841 18.8824 8.0952 18.9193 8.14128C18.9563 8.18737 18.9819 8.24147 18.9942 8.29925C19.0064 8.35703 19.005 8.41688 18.9899 8.474C18.9809 8.515 18.7749 10 18.7749 10H14.5649L14.7869 8H18.6099ZM5.08593 8.146C5.12179 8.09973 5.16793 8.06245 5.22069 8.03711C5.27346 8.01177 5.3314 7.99906 5.38993 8H11.7679L11.5459 10H5.22493C5.22493 10 5.01893 8.513 5.00993 8.474C4.99647 8.41717 4.99632 8.35799 5.00951 8.3011C5.02269 8.2442 5.04884 8.19112 5.08593 8.146ZM15.2769 21H8.72293C8.16527 20.9986 7.62739 20.7932 7.21071 20.4226C6.79403 20.052 6.52734 19.5417 6.46093 18.988L5.63693 13H18.3629L17.5369 19.006C17.4673 19.5564 17.1994 20.0626 16.7834 20.4297C16.3674 20.7967 15.8317 20.9995 15.2769 21ZM13.8239 16.664L13.7139 17.664C13.6704 18.0596 13.4716 18.4217 13.1611 18.6706C12.8506 18.9196 12.454 19.035 12.0584 18.9915C11.6629 18.948 11.3008 18.7492 11.0518 18.4387C10.8029 18.1282 10.6874 17.7316 10.7309 17.336L10.8419 16.336C10.8629 16.1397 10.9224 15.9495 11.017 15.7763C11.1116 15.6031 11.2394 15.4502 11.3932 15.3265C11.547 15.2027 11.7238 15.1106 11.9132 15.0553C12.1027 15 12.3013 14.9826 12.4975 15.0042C12.6937 15.0258 12.8837 15.0859 13.0566 15.1811C13.2295 15.2762 13.382 15.4046 13.5052 15.5588C13.6284 15.713 13.72 15.89 13.7747 16.0796C13.8294 16.2693 13.8461 16.4679 13.8239 16.664Z" fill="#25280B"/>
</svg>
