<svg width="24" height="24" viewBox="0 0 24 24" fill="none" xmlns="http://www.w3.org/2000/svg">
<g clip-path="url(#clip0_327_5269)">
<path d="M23.069 0.533805C22.78 0.303074 22.4423 0.140904 22.0815 0.0594957C21.7207 -0.0219126 21.3462 -0.0204392 20.986 0.0638049C20.072 0.321593 19.2269 0.780047 18.5125 1.40577C17.798 2.03148 17.2321 2.80871 16.856 3.6808C13.6733 2.83981 10.3268 2.83981 7.14404 3.6808C6.76751 2.80883 6.20136 2.03175 5.48677 1.40607C4.77217 0.780389 3.92711 0.321851 3.01304 0.0638049C2.65254 -0.0193619 2.27793 -0.0201471 1.91709 0.0615079C1.55625 0.143163 1.21847 0.305155 0.928907 0.535425C0.639339 0.765695 0.405439 1.05831 0.244617 1.39149C0.0837954 1.72468 0.000194909 2.08984 3.88147e-05 2.45981V9.9598C-0.00382015 11.411 0.280102 12.8485 0.835381 14.1892C1.39066 15.53 2.20627 16.7473 3.23504 17.7708L7.68104 22.2098C8.82986 23.3489 10.3822 23.9881 12 23.9881C13.6179 23.9881 15.1702 23.3489 16.319 22.2098L20.765 17.7658C21.794 16.7424 22.6097 15.5251 23.165 14.1844C23.7203 12.8436 24.0041 11.406 24 9.9548V2.45981C24.0009 2.08922 23.9175 1.72328 23.7563 1.38963C23.595 1.05598 23.36 0.763338 23.069 0.533805ZM4.85004 5.9748C4.91289 6.16322 5.01253 6.33728 5.14319 6.48688C5.27384 6.63648 5.43291 6.75864 5.61115 6.84627C5.7894 6.9339 5.98327 6.98526 6.18152 6.99737C6.37977 7.00948 6.57846 6.9821 6.76604 6.9168C8.45759 6.36126 10.2204 6.05242 12 5.9998C13.7796 6.05297 15.5424 6.3618 17.234 6.9168C17.4217 6.98207 17.6204 7.00941 17.8187 6.99724C18.017 6.98507 18.2109 6.93362 18.3892 6.84589C18.5674 6.75816 18.7265 6.63589 18.8571 6.48618C18.9877 6.33647 19.0873 6.16231 19.15 5.9738C19.4453 4.88991 20.097 3.93704 21 3.26881V7.16881C19.1212 7.4653 17.3345 8.18545 15.7752 9.2747C14.2159 10.364 12.9249 11.7938 12 13.4558C11.075 11.7939 9.78399 10.3643 8.22471 9.27526C6.66542 8.18619 4.87876 7.46619 3.00004 7.16981V3.2698C3.90307 3.93804 4.55476 4.89091 4.85004 5.9748ZM5.35704 15.6448C3.91841 14.2107 3.08053 12.2821 3.01404 10.2518C3.70706 10.4178 4.38327 10.6474 5.03404 10.9378C5.09437 11.5264 5.30893 12.0886 5.65604 12.5678C6.02469 13.0436 6.50351 13.4225 7.05124 13.672C7.59896 13.9214 8.19915 14.034 8.80004 13.9998C9.81641 15.5281 10.3867 17.3094 10.447 19.1438C10.128 19.3493 9.85278 19.6157 9.63704 19.9278L5.35704 15.6448ZM18.644 15.6448L14.36 19.9268C14.1443 19.6147 13.869 19.3483 13.55 19.1428C13.6114 17.3084 14.1828 15.5275 15.2 13.9998C15.8013 14.0344 16.402 13.9222 16.9502 13.6729C17.4985 13.4236 17.9779 13.0447 18.347 12.5688C18.6942 12.0896 18.9087 11.5274 18.969 10.9388C19.6199 10.6486 20.2961 10.4189 20.989 10.2528C20.9214 12.2829 20.0828 14.211 18.644 15.6448Z" fill="#25280B"/>
</g>
<defs>
<clipPath id="clip0_327_5269">
<rect width="24" height="24" fill="white"/>
</clipPath>
</defs>
</svg>
