<svg width="24" height="24" viewBox="0 0 24 24" fill="none" xmlns="http://www.w3.org/2000/svg">
<g clip-path="url(#clip0_327_4869)">
<path d="M9.50021 7.99992C9.79688 7.99992 10.0869 8.08789 10.3336 8.25272C10.5802 8.41754 10.7725 8.65181 10.886 8.9259C10.9996 9.19999 11.0293 9.50159 10.9714 9.79256C10.9135 10.0835 10.7706 10.3508 10.5609 10.5606C10.3511 10.7704 10.0838 10.9132 9.79284 10.9711C9.50187 11.029 9.20027 10.9993 8.92618 10.8857C8.65209 10.7722 8.41783 10.58 8.253 10.3333C8.08818 10.0866 8.00021 9.79659 8.00021 9.49992C8.00021 9.1021 8.15824 8.72057 8.43955 8.43926C8.72085 8.15796 9.10238 7.99992 9.50021 7.99992ZM20.5002 6.99992C19.6024 7.03307 18.7516 7.41022 18.1242 8.05329C17.4968 8.69636 17.1406 9.5561 17.1296 10.4545C17.1185 11.3529 17.4534 12.2211 18.0648 12.8794C18.6763 13.5377 19.5174 13.9357 20.4142 13.9909C19.1642 17.5759 15.9682 20.1909 11.5692 20.9909C11.5017 21.0036 11.4323 21.0008 11.3661 20.9826C11.2999 20.9644 11.2387 20.9313 11.1872 20.8859C11.1281 20.8375 11.0805 20.7764 11.0482 20.7072C11.0158 20.638 10.9994 20.5623 11.0002 20.4859V18.8709C13.0632 18.5505 14.9606 17.5515 16.3922 16.0319C16.5277 15.8888 16.6336 15.7205 16.704 15.5365C16.7744 15.3524 16.8079 15.1564 16.8025 14.9594C16.7971 14.7625 16.753 14.5685 16.6726 14.3886C16.5923 14.2087 16.4773 14.0464 16.3342 13.9109C16.1911 13.7755 16.0228 13.6695 15.8388 13.5991C15.6547 13.5287 15.4586 13.4953 15.2617 13.5006C15.0647 13.506 14.8708 13.5502 14.6909 13.6305C14.511 13.7109 14.3487 13.8258 14.2132 13.9689C13.6091 14.6129 12.8789 15.1255 12.0681 15.4749C11.2572 15.8243 10.3831 16.003 9.50021 15.9999C8.38573 16.001 7.28971 15.7155 6.31739 15.1708C5.34507 14.6261 4.52913 13.8406 3.94793 12.8897C3.36673 11.9388 3.03979 10.8544 2.99851 9.74067C2.95723 8.62695 3.20301 7.52134 3.71222 6.53C4.22144 5.53866 4.977 4.6949 5.90633 4.07976C6.83566 3.46461 7.90755 3.09875 9.01904 3.0173C10.1305 2.93586 11.2443 3.14157 12.2534 3.61468C13.2624 4.08779 14.1329 4.8124 14.7812 5.71892C14.8952 5.88086 15.0402 6.01861 15.2078 6.12423C15.3753 6.22984 15.5621 6.30123 15.7574 6.33427C15.9527 6.36732 16.1526 6.36136 16.3455 6.31675C16.5385 6.27213 16.7207 6.18975 16.8817 6.07434C17.0426 5.95894 17.1792 5.8128 17.2833 5.64436C17.3875 5.47592 17.4573 5.28851 17.4887 5.09296C17.5201 4.8974 17.5124 4.69757 17.4662 4.50499C17.4199 4.31241 17.336 4.13089 17.2192 3.97092C16.31 2.69595 15.0998 1.6655 13.6962 0.97125C12.2926 0.276999 10.7391 -0.0595168 9.174 -0.0083553C7.6089 0.0428062 6.08073 0.480059 4.72544 1.2645C3.37016 2.04893 2.2298 3.15623 1.40584 4.48785C0.581878 5.81947 0.0998636 7.33412 0.00268695 8.89703C-0.0944897 10.4599 0.196186 12.0226 0.848848 13.4461C1.50151 14.8695 2.49592 16.1095 3.74359 17.0558C4.99127 18.0021 6.45351 18.6253 8.00021 18.8699V20.4899C7.9998 21.0053 8.11294 21.5144 8.33157 21.981C8.55021 22.4477 8.86898 22.8604 9.26521 23.1899C9.88787 23.7123 10.6744 23.999 11.4872 23.9999C11.6945 23.9996 11.9013 23.9809 12.1052 23.9439C19.2202 22.6519 24.0002 17.2499 24.0002 10.4999C23.9937 9.57369 23.6228 8.68725 22.9678 8.03228C22.3129 7.37732 21.4264 7.00647 20.5002 6.99992Z" fill="#25280B"/>
</g>
<defs>
<clipPath id="clip0_327_4869">
<rect width="24" height="24" fill="white"/>
</clipPath>
</defs>
</svg>
