<svg width="24" height="24" viewBox="0 0 24 24" fill="none" xmlns="http://www.w3.org/2000/svg">
<g clip-path="url(#clip0_327_5921)">
<path d="M19.9997 11.0005C18.9389 11.0005 17.9215 11.4219 17.1713 12.1721C16.4212 12.9222 15.9998 13.9396 15.9998 15.0005V20.0005C15.9998 21.0614 16.4212 22.0788 17.1713 22.8289C17.9215 23.5791 18.9389 24.0005 19.9997 24.0005C21.0606 24.0005 22.078 23.5791 22.8282 22.8289C23.5783 22.0788 23.9997 21.0614 23.9997 20.0005V15.0005C23.9997 13.9396 23.5783 12.9222 22.8282 12.1721C22.078 11.4219 21.0606 11.0005 19.9997 11.0005ZM20.9997 20.0005C20.9997 20.2657 20.8944 20.5201 20.7069 20.7076C20.5193 20.8951 20.265 21.0005 19.9997 21.0005C19.7345 21.0005 19.4802 20.8951 19.2926 20.7076C19.1051 20.5201 18.9998 20.2657 18.9998 20.0005V15.0005C18.9998 14.7353 19.1051 14.4809 19.2926 14.2934C19.4802 14.1058 19.7345 14.0005 19.9997 14.0005C20.265 14.0005 20.5193 14.1058 20.7069 14.2934C20.8944 14.4809 20.9997 14.7353 20.9997 15.0005V20.0005Z" fill="#25280B"/>
<path d="M22.2931 2.7075L20.9701 4.0305C19.0084 1.82262 16.3013 0.415758 13.367 0.0791805C10.4328 -0.257397 7.47748 0.499956 5.06676 2.20628C2.65604 3.9126 0.959263 6.44804 0.301194 9.32728C-0.356875 12.2065 0.0699949 15.2273 1.5001 17.8115C1.59563 17.9838 1.72417 18.1356 1.87837 18.2582C2.03257 18.3808 2.20941 18.4719 2.39879 18.5261C2.58818 18.5804 2.7864 18.5969 2.98214 18.5745C3.17788 18.5522 3.3673 18.4915 3.5396 18.396C3.71189 18.3005 3.86368 18.1719 3.9863 18.0177C4.10892 17.8635 4.19997 17.6867 4.25424 17.4973C4.30852 17.3079 4.32496 17.1097 4.30263 16.914C4.2803 16.7182 4.21964 16.5288 4.1241 16.3565C3.04306 14.4062 2.72525 12.1238 3.23235 9.95232C3.73945 7.78087 5.03529 5.87529 6.86832 4.6055C8.70135 3.33572 10.9408 2.79231 13.1519 3.08076C15.3631 3.36922 17.3882 4.46895 18.8341 6.1665L17.7071 7.2935C17.5673 7.43335 17.4721 7.61151 17.4335 7.80546C17.3949 7.99942 17.4148 8.20045 17.4904 8.38315C17.5661 8.56585 17.6942 8.72201 17.8586 8.8319C18.0231 8.94178 18.2163 9.00045 18.4141 9.0005H23.0001C23.2653 9.0005 23.5197 8.89514 23.7072 8.7076C23.8947 8.52007 24.0001 8.26571 24.0001 8.0005V3.4145C24.0001 3.21675 23.9414 3.02345 23.8315 2.85904C23.7216 2.69463 23.5655 2.56649 23.3828 2.49082C23.2001 2.41515 22.999 2.39535 22.8051 2.43391C22.6111 2.47248 22.433 2.56769 22.2931 2.7075Z" fill="#25280B"/>
<path d="M12.574 11.1138C12.2999 11.0002 11.9982 10.9704 11.7072 11.0283C11.4162 11.0861 11.1488 11.229 10.939 11.4388L7.18899 15.1888C6.9076 15.4702 6.74951 15.8519 6.74951 16.2498C6.74951 16.6478 6.9076 17.0294 7.18899 17.3108C7.47039 17.5922 7.85204 17.7503 8.24999 17.7503C8.64794 17.7503 9.0296 17.5922 9.31099 17.3108L10.5 16.1208V22.4998C10.5 22.8976 10.658 23.2792 10.9393 23.5605C11.2206 23.8418 11.6022 23.9998 12 23.9998C12.3978 23.9998 12.7793 23.8418 13.0607 23.5605C13.342 23.2792 13.5 22.8976 13.5 22.4998V12.4998C13.5 12.2031 13.4121 11.9131 13.2472 11.6664C13.0824 11.4197 12.8481 11.2274 12.574 11.1138Z" fill="#25280B"/>
</g>
<defs>
<clipPath id="clip0_327_5921">
<rect width="24" height="24" fill="white"/>
</clipPath>
</defs>
</svg>
