<svg width="24" height="24" viewBox="0 0 24 24" fill="none" xmlns="http://www.w3.org/2000/svg">
<g clip-path="url(#clip0_327_4857)">
<path d="M19.9998 8V10H22.4998C22.8976 10 23.2792 10.158 23.5605 10.4393C23.8418 10.7206 23.9998 11.1022 23.9998 11.5C23.9998 11.8978 23.8418 12.2794 23.5605 12.5607C23.2792 12.842 22.8976 13 22.4998 13H19.9998V15H22.4998C22.8976 15 23.2792 15.158 23.5605 15.4393C23.8418 15.7206 23.9998 16.1022 23.9998 16.5C23.9998 16.8978 23.8418 17.2794 23.5605 17.5607C23.2792 17.842 22.8976 18 22.4998 18H19.9998V22.5C19.9998 22.8978 19.8418 23.2794 19.5605 23.5607C19.2792 23.842 18.8976 24 18.4998 24C18.102 24 17.7205 23.842 17.4392 23.5607C17.1579 23.2794 16.9998 22.8978 16.9998 22.5V4.5C17.0012 3.30693 17.4757 2.16311 18.3193 1.31948C19.1629 0.475854 20.3068 0.00132343 21.4998 0L22.4998 0C22.8976 0 23.2792 0.158035 23.5605 0.43934C23.8418 0.720644 23.9998 1.10218 23.9998 1.5C23.9998 1.89783 23.8418 2.27936 23.5605 2.56066C23.2792 2.84196 22.8976 3 22.4998 3H21.4998C21.102 3 20.7205 3.15804 20.4392 3.43934C20.1579 3.72064 19.9998 4.10218 19.9998 4.5V5H22.4998C22.8976 5 23.2792 5.15804 23.5605 5.43934C23.8418 5.72064 23.9998 6.10218 23.9998 6.5C23.9998 6.89783 23.8418 7.27936 23.5605 7.56066C23.2792 7.84197 22.8976 8 22.4998 8H19.9998ZM15.9998 19.25C16.0034 20.1782 15.7342 21.0869 15.2257 21.8634C14.7171 22.6398 13.9916 23.2497 13.1393 23.6173C12.287 23.9848 11.3455 24.0938 10.4318 23.9307C9.51804 23.7677 8.67237 23.3397 7.99984 22.7C7.51993 23.1535 6.95057 23.5016 6.32824 23.7222C5.70592 23.9428 5.04437 24.0309 4.38601 23.9809C3.72765 23.9308 3.08701 23.7438 2.50517 23.4317C1.92332 23.1196 1.4131 22.6894 1.00723 22.1686C0.601359 21.6478 0.308788 21.048 0.148276 20.4076C-0.0122372 19.7671 -0.0371495 19.1002 0.0751358 18.4495C0.187421 17.7989 0.434426 17.1789 0.800314 16.6293C1.1662 16.0797 1.6429 15.6126 2.19984 15.258C3.35384 13.858 4.91184 11.758 6.21284 9.784C4.48984 6.946 2.99984 3.829 2.99984 1.5C2.99984 1.10218 3.15788 0.720644 3.43918 0.43934C3.72049 0.158035 4.10202 0 4.49984 0C4.89767 0 5.2792 0.158035 5.5605 0.43934C5.8418 0.720644 5.99984 1.10218 5.99984 1.5C5.99984 2.808 6.82684 4.768 7.99984 6.865C9.17284 4.765 9.99984 2.807 9.99984 1.5C9.99984 1.10218 10.1579 0.720644 10.4392 0.43934C10.7205 0.158035 11.102 0 11.4998 0C11.8977 0 12.2792 0.158035 12.5605 0.43934C12.8418 0.720644 12.9998 1.10218 12.9998 1.5C12.9998 3.829 11.5088 6.947 9.78284 9.781C11.0828 11.756 12.6408 13.858 13.7958 15.254C14.4698 15.6807 15.0252 16.2707 15.4105 16.9692C15.7958 17.6678 15.9985 18.4523 15.9998 19.25ZM6.49984 19.25C6.49984 18.9039 6.3972 18.5655 6.20491 18.2778C6.01262 17.99 5.73931 17.7657 5.41954 17.6332C5.09977 17.5008 4.7479 17.4661 4.40843 17.5336C4.06897 17.6012 3.75715 17.7678 3.51241 18.0126C3.26766 18.2573 3.10099 18.5691 3.03347 18.9086C2.96595 19.2481 3.0006 19.5999 3.13305 19.9197C3.26551 20.2395 3.48981 20.5128 3.77759 20.7051C4.06538 20.8974 4.40372 21 4.74984 21C5.21381 20.9995 5.65862 20.8149 5.98669 20.4869C6.31477 20.1588 6.49931 19.714 6.49984 19.25ZM7.99984 15.8C8.47539 15.3575 9.03661 15.0171 9.64884 14.8C9.14884 14.142 8.58584 13.362 7.99984 12.516C7.41384 13.362 6.84784 14.142 6.35084 14.8C6.96307 15.0171 7.52428 15.3575 7.99984 15.8ZM12.9998 19.246C12.999 18.9001 12.8957 18.5621 12.703 18.2748C12.5102 17.9876 12.2366 17.7639 11.9168 17.6321C11.5969 17.5002 11.2452 17.4661 10.906 17.5341C10.5668 17.6021 10.2553 17.7691 10.011 18.014C9.76665 18.2589 9.60037 18.5707 9.53317 18.9101C9.46597 19.2494 9.50086 19.6011 9.63343 19.9206C9.766 20.2402 9.9903 20.5132 10.278 20.7053C10.5657 20.8975 10.9039 21 11.2498 21C11.7138 20.9995 12.1586 20.8149 12.4867 20.4869C12.8148 20.1588 12.9993 19.714 12.9998 19.25V19.246Z" fill="#25280B"/>
</g>
<defs>
<clipPath id="clip0_327_4857">
<rect width="24" height="24" fill="white"/>
</clipPath>
</defs>
</svg>
