<svg width="24" height="24" viewBox="0 0 24 24" fill="none" xmlns="http://www.w3.org/2000/svg">
<g clip-path="url(#clip0_327_4999)">
<path d="M11.671 23.9999C11.212 24.0001 10.7574 23.9096 10.3334 23.7337C9.90934 23.5578 9.5242 23.3 9.20004 22.9749L5.81004 19.5559C5.52998 19.2733 5.37364 18.8911 5.37542 18.4932C5.3772 18.0953 5.53696 17.7145 5.81954 17.4344C6.10213 17.1544 6.4844 16.998 6.88226 16.9998C7.28012 17.0016 7.66098 17.1613 7.94104 17.4439L11.326 20.8579C11.4195 20.9495 11.5452 21.0009 11.676 21.0009C11.8069 21.0009 11.9326 20.9495 12.026 20.8579L17.44 15.4429C17.7214 15.1615 18.1031 15.0034 18.501 15.0034C18.899 15.0034 19.2806 15.1615 19.562 15.4429C19.8434 15.7243 20.0015 16.106 20.0015 16.5039C20.0015 16.9019 19.8434 17.2835 19.562 17.5649L14.147 22.9789C13.822 23.3038 13.4359 23.5613 13.0109 23.7365C12.586 23.9118 12.1307 24.0013 11.671 23.9999ZM2.08504 18.8999C2.46834 18.7782 2.78863 18.5111 2.9771 18.1558C3.16557 17.8005 3.2072 17.3855 3.09304 16.9999C2.93659 16.3879 2.99457 15.7408 3.25732 15.1663C3.52007 14.5919 3.97173 14.1248 4.53704 13.8429C5.11534 13.5314 5.54658 13.0034 5.73627 12.3745C5.92596 11.7457 5.85864 11.0673 5.54904 10.4879C5.0335 9.4695 4.87301 8.30802 5.09304 7.18794C5.2821 6.15232 5.78996 5.20163 6.54566 4.46871C7.30135 3.73578 8.26713 3.25724 9.30804 3.09994C9.99248 2.99638 10.6907 3.03051 11.3618 3.20034C12.0329 3.37017 12.6633 3.67227 13.216 4.08894C13.7602 4.49701 14.2174 5.00962 14.5609 5.59673C14.9043 6.18384 15.1271 6.83361 15.216 7.50794C15.2598 7.8345 15.4098 8.13758 15.6429 8.37038C15.8761 8.60317 16.1794 8.75272 16.506 8.79594C17.8205 8.97008 19.0177 9.64276 19.85 10.6748C20.6824 11.7069 21.0863 13.0194 20.978 14.3409V14.3939C20.9644 14.5881 20.9895 14.7831 21.052 14.9675C21.1145 15.1519 21.213 15.322 21.342 15.4678C21.4709 15.6137 21.6276 15.7324 21.8029 15.8171C21.9782 15.9018 22.1686 15.9507 22.363 15.9609C22.7639 15.9822 23.1571 15.8457 23.4586 15.5807C23.76 15.3157 23.9458 14.9432 23.976 14.5429C24.1225 12.6484 23.6033 10.7621 22.508 9.20934C21.4127 7.65658 19.8099 6.53463 17.976 6.03694C17.5022 4.30244 16.4643 2.77511 15.026 1.69595C14.1577 1.03857 13.167 0.561028 12.1118 0.291274C11.0567 0.0215188 9.95832 -0.0350268 8.88104 0.124947C7.22049 0.372024 5.67866 1.13183 4.47111 2.29815C3.26355 3.46446 2.45065 4.97897 2.14604 6.62994C1.8295 8.25545 2.01829 9.93892 2.68704 11.4539C1.65911 12.1044 0.863558 13.0637 0.414443 14.1942C-0.0346712 15.3247 -0.114276 16.5684 0.187044 17.7469L0.234044 17.9209C0.322152 18.2248 0.507457 18.4915 0.76158 18.6801C1.0157 18.8686 1.32463 18.9687 1.64104 18.9649C1.79138 18.9645 1.94088 18.9426 2.08504 18.8999Z" fill="#25280B"/>
</g>
<defs>
<clipPath id="clip0_327_4999">
<rect width="24" height="24" fill="white"/>
</clipPath>
</defs>
</svg>
