<svg width="24" height="24" viewBox="0 0 24 24" fill="none" xmlns="http://www.w3.org/2000/svg">
<g clip-path="url(#clip0_327_5220)">
<path d="M16.0002 11.5C16.0002 11.8978 15.8422 12.2794 15.5609 12.5607C15.2796 12.842 14.8981 13 14.5002 13H14.0002V16C14.0004 16.1008 13.9903 16.2013 13.9702 16.3C13.9108 16.8761 13.6855 17.4226 13.3217 17.8733C12.9578 18.3239 12.4711 18.6593 11.9204 18.8387C11.3697 19.0182 10.7788 19.034 10.2193 18.8843C9.65983 18.7346 9.1558 18.4257 8.76835 17.9952C8.3809 17.5647 8.12668 17.0311 8.03652 16.4589C7.94636 15.8868 8.02413 15.3008 8.2604 14.772C8.49666 14.2433 8.88128 13.7944 9.36761 13.4798C9.85393 13.1653 10.4211 12.9986 11.0002 13V12.5C11.0002 11.837 11.2636 11.2011 11.7325 10.7323C12.2013 10.2634 12.8372 10 13.5002 10H14.5002C14.8981 10 15.2796 10.1581 15.5609 10.4394C15.8422 10.7207 16.0002 11.1022 16.0002 11.5ZM22.0002 8.15702V18.5C21.9984 19.9581 21.4183 21.356 20.3873 22.3871C19.3562 23.4181 17.9584 23.9982 16.5002 24H7.50024C6.04212 23.9982 4.64425 23.4181 3.6132 22.3871C2.58215 21.356 2.0021 19.9581 2.00024 18.5V5.50002C2.0021 4.0419 2.58215 2.64403 3.6132 1.61298C4.64425 0.58193 6.04212 0.00187216 7.50024 1.99011e-05H13.8432C14.5658 -0.00193016 15.2816 0.139451 15.9491 0.415979C16.6167 0.692507 17.2227 1.09869 17.7322 1.61102L20.3892 4.26802C20.9016 4.77754 21.3078 5.38361 21.5843 6.05115C21.8608 6.7187 22.0022 7.43447 22.0002 8.15702ZM19.0002 18.5V9.00002H15.0002C14.4698 9.00002 13.9611 8.78931 13.586 8.41423C13.211 8.03916 13.0002 7.53045 13.0002 7.00002V3.00002H7.50024C6.8372 3.00002 6.20132 3.26341 5.73248 3.73225C5.26364 4.20109 5.00024 4.83698 5.00024 5.50002V18.5C5.00024 19.1631 5.26364 19.7989 5.73248 20.2678C6.20132 20.7366 6.8372 21 7.50024 21H16.5002C17.1633 21 17.7992 20.7366 18.268 20.2678C18.7369 19.7989 19.0002 19.1631 19.0002 18.5Z" fill="#25280B"/>
</g>
<defs>
<clipPath id="clip0_327_5220">
<rect width="24" height="24" fill="white"/>
</clipPath>
</defs>
</svg>
