<svg width="24" height="24" viewBox="0 0 24 24" fill="none" xmlns="http://www.w3.org/2000/svg">
<g clip-path="url(#clip0_327_5301)">
<path d="M12 9.99989C10.9963 10.0008 9.99392 10.0713 9 10.2109V8.93989L13.609 7.03189C13.644 7.01789 13.679 7.00189 13.709 6.98489C14.0917 6.79161 14.4184 6.50314 14.6574 6.14719C14.8965 5.79124 15.04 5.37979 15.0741 4.95237C15.1083 4.52495 15.0319 4.09593 14.8524 3.70654C14.6729 3.31715 14.3962 2.98049 14.049 2.72889C14 2.69289 9.618 0.264892 9.618 0.264892C9.23693 0.0743641 8.81349 -0.015616 8.38787 0.00349273C7.96225 0.0226014 7.54858 0.150165 7.18612 0.374075C6.82365 0.597985 6.52443 0.910812 6.31684 1.28286C6.10925 1.65492 6.00019 2.07385 6 2.49989V10.8829C2.361 12.0589 0 14.2999 0 16.9999C0 20.9909 5.159 23.9999 12 23.9999C18.841 23.9999 24 20.9909 24 16.9999C24 13.0089 18.841 9.99989 12 9.99989ZM12 20.9999C6.849 20.9999 3 18.8879 3 16.9999C3 15.9749 4.14 14.8869 6 14.0999V16.4999C6 16.8977 6.15804 17.2792 6.43934 17.5606C6.72064 17.8419 7.10218 17.9999 7.5 17.9999C7.89782 17.9999 8.27936 17.8419 8.56066 17.5606C8.84196 17.2792 9 16.8977 9 16.4999V13.2539C9.99098 13.0842 10.9946 12.9993 12 12.9999C17.151 12.9999 21 15.1119 21 16.9999C21 18.8879 17.151 20.9999 12 20.9999ZM17 16.9999C17 17.3955 16.8827 17.7821 16.6629 18.111C16.4432 18.4399 16.1308 18.6963 15.7654 18.8477C15.3999 18.999 14.9978 19.0386 14.6098 18.9615C14.2219 18.8843 13.8655 18.6938 13.5858 18.4141C13.3061 18.1344 13.1156 17.778 13.0384 17.3901C12.9613 17.0021 13.0009 16.6 13.1522 16.2345C13.3036 15.8691 13.56 15.5567 13.8889 15.337C14.2178 15.1172 14.6044 14.9999 15 14.9999C15.5304 14.9999 16.0391 15.2106 16.4142 15.5857C16.7893 15.9608 17 16.4695 17 16.9999Z" fill="#25280B"/>
</g>
<defs>
<clipPath id="clip0_327_5301">
<rect width="24" height="24" fill="white"/>
</clipPath>
</defs>
</svg>
