<svg width="24" height="24" viewBox="0 0 24 24" fill="none" xmlns="http://www.w3.org/2000/svg">
<g clip-path="url(#clip0_327_5415)">
<path d="M12.9998 0C6.93478 0 1.99978 4.037 1.99978 9C2.00256 9.37551 2.03398 9.75027 2.09378 10.121C2.07578 10.138 2.05478 10.149 2.03678 10.167C1.38519 10.8206 0.980255 11.6798 0.890914 12.5984C0.801574 13.517 1.03335 14.4381 1.54678 15.205C0.512296 16.3929 -0.0396385 17.9253 -0.000222819 19.5C-0.01779 20.0957 0.0865955 20.6887 0.306524 21.2426C0.526453 21.7966 0.857282 22.2997 1.2787 22.7211C1.70012 23.1425 2.20323 23.4733 2.75713 23.6933C3.31104 23.9132 3.90406 24.0176 4.49978 24C4.89322 23.9997 5.2706 23.8439 5.54955 23.5664C5.82851 23.289 5.9864 22.9124 5.98878 22.519C5.99178 22.1235 5.83927 21.7426 5.56412 21.4585C5.28896 21.1743 4.91319 21.0097 4.51778 21C4.31468 21.0217 4.10932 20.9979 3.91653 20.9304C3.72375 20.863 3.54837 20.7535 3.40309 20.61C3.25781 20.4664 3.14625 20.2923 3.0765 20.1004C3.00675 19.9084 2.98054 19.7033 2.99978 19.5C2.97815 18.9785 3.07717 18.459 3.28912 17.9821C3.50107 17.5051 3.82024 17.0835 4.22178 16.75C5.29445 16.9395 6.38259 17.0276 7.47178 17.013C7.63978 17.013 7.79678 17.003 7.96378 17C9.55999 17.6625 11.2716 18.0023 12.9998 18C19.0648 18 23.9998 13.963 23.9998 9C23.9998 4.037 19.0648 0 12.9998 0ZM12.9998 15C12.0753 14.9975 11.1554 14.8707 10.2648 14.623C9.61136 13.0255 8.73974 11.5262 7.67478 10.168C6.96171 9.4583 6.00536 9.04645 4.99978 9.016V9C4.99978 5.691 8.58878 3 12.9998 3C17.4108 3 20.9998 5.691 20.9998 9C20.9998 12.309 17.4108 15 12.9998 15Z" fill="#25280B"/>
</g>
<defs>
<clipPath id="clip0_327_5415">
<rect width="24" height="24" fill="white"/>
</clipPath>
</defs>
</svg>
