<svg width="24" height="24" viewBox="0 0 24 24" fill="none" xmlns="http://www.w3.org/2000/svg">
<g clip-path="url(#clip0_327_5334)">
<path d="M19.882 4.4372C18.6465 2.7808 16.9709 1.50437 15.0459 0.753094C13.1209 0.00181907 11.0236 -0.194147 8.99276 0.187484C6.96188 0.569116 5.07885 1.51303 3.55786 2.91186C2.03687 4.31069 0.938961 6.10829 0.389017 8.1002C-0.0527562 9.75183 -0.101972 11.4839 0.245305 13.158C0.592582 14.832 1.32672 16.4016 2.38901 17.7412C2.76708 18.2037 2.98187 18.7781 3.00001 19.3752V19.4852C2.99948 20.6802 3.47293 21.8267 4.31653 22.6731C5.16013 23.5195 6.305 23.9968 7.50001 24.0002H12.5C13.4373 23.9991 14.351 23.7058 15.1138 23.1611C15.8767 22.6164 16.4507 21.8474 16.756 20.9612C17.9415 20.8223 19.0492 20.2997 19.9103 19.4731C20.7714 18.6465 21.3388 17.5611 21.526 16.3822L21.67 15.4972C22.3146 15.4645 22.9204 15.1794 23.3565 14.7035C23.7925 14.2276 24.0237 13.5992 24 12.9542C24 11.3552 21.053 5.8822 19.882 4.4372ZM20.394 12.5002C20.0379 12.5004 19.6935 12.6272 19.4223 12.8581C19.1512 13.0889 18.971 13.4087 18.914 13.7602L18.565 15.9002C18.472 16.4866 18.1725 17.0206 17.7205 17.4056C17.2685 17.7907 16.6938 18.0016 16.1 18.0002H15.5C15.303 18.0002 15.108 18.039 14.926 18.1144C14.744 18.1898 14.5786 18.3002 14.4393 18.4395C14.3001 18.5788 14.1896 18.7442 14.1142 18.9262C14.0388 19.1082 14 19.3032 14 19.5002C14 19.898 13.842 20.2796 13.5607 20.5609C13.2794 20.8422 12.8978 21.0002 12.5 21.0002H7.50001C7.1004 20.9976 6.71813 20.8366 6.43697 20.5526C6.15581 20.2687 5.99868 19.8848 6.00001 19.4852V19.3752C5.98719 18.1107 5.55057 16.8871 4.76001 15.9002C3.97973 14.9283 3.43954 13.7862 3.18326 12.5665C2.92699 11.3468 2.96185 10.0839 3.28501 8.8802C3.69659 7.41411 4.51488 6.09452 5.64518 5.07411C6.77548 4.05371 8.1716 3.37419 9.67201 3.1142C10.1148 3.03966 10.563 3.00153 11.012 3.0002C12.2758 3.00115 13.5219 3.29782 14.6506 3.8665C15.7792 4.43517 16.7592 5.26006 17.512 6.2752C18.8418 8.22409 19.9566 10.3113 20.837 12.5002H20.394ZM16.225 8.0512C16.0296 7.70473 15.7046 7.45005 15.3215 7.34316C14.9384 7.23627 14.5285 7.28592 14.182 7.4812L13.474 7.8812C13.1787 7.64211 12.8507 7.44646 12.5 7.3002V6.5002C12.5 6.10237 12.342 5.72084 12.0607 5.43954C11.7794 5.15823 11.3978 5.0002 11 5.0002C10.6022 5.0002 10.2206 5.15823 9.93935 5.43954C9.65804 5.72084 9.50001 6.10237 9.50001 6.5002V7.3002C9.14914 7.44739 8.82114 7.64405 8.52601 7.8842L7.81801 7.4842C7.64624 7.38741 7.45709 7.32541 7.26136 7.30172C7.06563 7.27804 6.86715 7.29314 6.67725 7.34616C6.48736 7.39919 6.30976 7.48909 6.15461 7.61075C5.99946 7.7324 5.86979 7.88343 5.77301 8.0552C5.67623 8.22697 5.61422 8.41612 5.59054 8.61185C5.56685 8.80758 5.58195 9.00606 5.63498 9.19595C5.74206 9.57947 5.99711 9.90473 6.34401 10.1002L7.05101 10.5002C7.02358 10.6656 7.00655 10.8326 7.00001 11.0002C7.0063 11.1698 7.02333 11.3388 7.05101 11.5062L6.34401 11.9062C5.99737 12.1017 5.74258 12.4268 5.63568 12.8101C5.52879 13.1935 5.57855 13.6036 5.77401 13.9502C5.96947 14.2968 6.29463 14.5516 6.67796 14.6585C7.06128 14.7654 7.47137 14.7157 7.81801 14.5202L8.52601 14.1202C8.82139 14.3589 9.14937 14.5542 9.50001 14.7002V15.5002C9.50001 15.898 9.65804 16.2796 9.93935 16.5609C10.2206 16.8422 10.6022 17.0002 11 17.0002C11.3978 17.0002 11.7794 16.8422 12.0607 16.5609C12.342 16.2796 12.5 15.898 12.5 15.5002V14.7002C12.8509 14.553 13.1789 14.3563 13.474 14.1162L14.182 14.5162C14.5286 14.7117 14.9387 14.7614 15.3221 14.6545C15.7054 14.5476 16.0305 14.2928 16.226 13.9462C16.4215 13.5996 16.4712 13.1895 16.3643 12.8061C16.2574 12.4228 16.0026 12.0977 15.656 11.9022L14.949 11.5022C14.9765 11.3361 14.9935 11.1684 15 11.0002C14.9937 10.8306 14.9767 10.6616 14.949 10.4942L15.656 10.0942C16.0023 9.89866 16.2568 9.5736 16.3635 9.1905C16.4702 8.80739 16.4204 8.39759 16.225 8.0512ZM12 11.0002C12 11.198 11.9414 11.3913 11.8315 11.5558C11.7216 11.7202 11.5654 11.8484 11.3827 11.9241C11.2 11.9998 10.9989 12.0196 10.8049 11.981C10.6109 11.9424 10.4328 11.8472 10.2929 11.7073C10.153 11.5675 10.0578 11.3893 10.0192 11.1953C9.98063 11.0013 10.0004 10.8002 10.0761 10.6175C10.1518 10.4348 10.28 10.2786 10.4444 10.1687C10.6089 10.0588 10.8022 10.0002 11 10.0002C11.2652 10.0002 11.5196 10.1056 11.7071 10.2931C11.8946 10.4806 12 10.735 12 11.0002Z" fill="#25280B"/>
</g>
<defs>
<clipPath id="clip0_327_5334">
<rect width="24" height="24" fill="white"/>
</clipPath>
</defs>
</svg>
