<svg width="24" height="24" viewBox="0 0 24 24" fill="none" xmlns="http://www.w3.org/2000/svg">
<g clip-path="url(#clip0_327_5194)">
<path d="M22.965 6.0186C23.2926 5.69124 23.5525 5.30253 23.7298 4.87468C23.9071 4.44683 23.9984 3.98823 23.9984 3.5251C23.9984 3.06196 23.9071 2.60337 23.7298 2.17552C23.5525 1.74767 23.2926 1.35896 22.965 1.0316C22.2938 0.39107 21.4017 0.0336914 20.474 0.0336914C19.5462 0.0336914 18.6541 0.39107 17.983 1.0316L16.547 2.4696C15.713 3.3046 13.829 3.0696 12.563 2.3696C11.9058 2.01018 11.1406 1.90091 10.409 2.06199C9.67744 2.22306 9.02894 2.6436 8.58343 3.24582C8.13792 3.84804 7.92555 4.59121 7.98558 5.3379C8.04561 6.08459 8.37399 6.78429 8.90999 7.3076L9.98699 8.3846L2.17199 16.4386C1.63047 16.9734 1.25535 17.6535 1.09191 18.3969C0.928482 19.1402 0.983732 19.915 1.25099 20.6276L0.438992 21.4386C0.157598 21.72 -0.000488281 22.1016 -0.000488281 22.4996C-0.000488281 22.8976 0.157598 23.2792 0.438992 23.5606C0.720387 23.842 1.10204 24.0001 1.49999 24.0001C1.89794 24.0001 2.2796 23.842 2.56099 23.5606L3.26699 22.8536C4.01419 23.2231 4.859 23.3472 5.68091 23.2083C6.50282 23.0693 7.25984 22.6743 7.84399 22.0796L15.644 14.0416L16.692 15.0896C17.216 15.6223 17.9147 15.9479 18.6596 16.0063C19.4046 16.0648 20.1455 15.8522 20.7462 15.4077C21.3468 14.9632 21.7667 14.3168 21.9286 13.5873C22.0904 12.8578 21.9833 12.0944 21.627 11.4376C20.927 10.1706 20.695 8.2876 21.527 7.4526L22.965 6.0186ZM5.70699 19.9746C5.61303 20.0665 5.50188 20.139 5.3799 20.188C5.25791 20.237 5.12747 20.2614 4.99603 20.26C4.86459 20.2586 4.73472 20.2313 4.61383 20.1796C4.49295 20.128 4.38342 20.0531 4.29149 19.9591C4.19957 19.8651 4.12705 19.754 4.07808 19.632C4.02911 19.51 4.00464 19.3796 4.00608 19.2481C4.00752 19.1167 4.03484 18.9868 4.08647 18.8659C4.1381 18.7451 4.21303 18.6355 4.30699 18.5436L12.107 10.5056L13.52 11.9196L5.70699 19.9746ZM20.846 3.8996L19.409 5.3316C17.475 7.2646 17.739 10.5936 18.964 12.9686C18.9438 12.9883 18.9167 12.9994 18.8885 12.9994C18.8603 12.9994 18.8332 12.9883 18.813 12.9686L11.031 5.1866C11 5.1506 11 5.0706 11.116 4.9996C13.405 6.2596 16.735 6.5236 18.668 4.5906L20.107 3.1516C20.2066 3.05974 20.3379 3.01004 20.4734 3.01291C20.6088 3.01579 20.7379 3.07102 20.8335 3.16702C20.9291 3.26302 20.9838 3.39233 20.9862 3.5278C20.9885 3.66327 20.9383 3.79437 20.846 3.8936V3.8996Z" fill="#25280B"/>
</g>
<defs>
<clipPath id="clip0_327_5194">
<rect width="24" height="24" fill="white"/>
</clipPath>
</defs>
</svg>
