<svg width="24" height="24" viewBox="0 0 24 24" fill="none" xmlns="http://www.w3.org/2000/svg">
<g clip-path="url(#clip0_327_5735)">
<path d="M11.1599 11.6934L10.4429 10.9474C10.1673 10.6609 9.78912 10.4955 9.39159 10.4876C8.99407 10.4797 8.60968 10.63 8.3229 10.9054C8.18087 11.0419 8.06711 11.205 7.98814 11.3855C7.90916 11.566 7.8665 11.7602 7.8626 11.9572C7.8587 12.1542 7.89363 12.35 7.9654 12.5334C8.03718 12.7169 8.14438 12.8844 8.2809 13.0264L9.4399 14.2324C9.6557 14.4609 9.91491 14.644 10.2023 14.7711C10.4898 14.8981 10.7997 14.9666 11.1139 14.9724H11.1509C11.7738 14.9706 12.371 14.7234 12.8129 14.2844L16.7739 10.3224C17.0551 10.0411 17.2131 9.65965 17.2131 9.2619C17.2131 8.86415 17.0551 8.48269 16.7739 8.2014C16.6346 8.06201 16.4692 7.95143 16.2871 7.87599C16.1051 7.80055 15.91 7.76172 15.7129 7.76172C15.5158 7.76172 15.3207 7.80055 15.1387 7.87599C14.9566 7.95143 14.7912 8.06201 14.6519 8.2014L11.1599 11.6934Z" fill="#25280B"/>
<path d="M11.9999 23.999C11.7902 23.9991 11.5827 23.9551 11.3909 23.87C10.9999 23.699 1.90894 19.568 1.90894 11.999V7.24601C1.90769 6.09129 2.27044 4.96556 2.94563 4.02881C3.62081 3.09206 4.57408 2.39196 5.66994 2.02801L11.5249 0.0760076C11.8334 -0.0259869 12.1665 -0.0259869 12.4749 0.0760076L18.3299 2.02801C19.4257 2.39209 20.3789 3.09223 21.0541 4.02895C21.7292 4.96567 22.092 6.09133 22.0909 7.24601V11.999C22.0909 20.617 12.8669 23.791 12.4749 23.922C12.3218 23.9732 12.1614 23.9993 11.9999 23.999ZM11.9999 3.08001L6.61894 4.87401C6.121 5.03985 5.68789 5.3582 5.38098 5.78393C5.07407 6.20966 4.90892 6.72118 4.90894 7.24601V11.999C4.90894 16.734 10.3299 19.951 12.0769 20.864C13.8339 20.131 19.0909 17.481 19.0909 11.999V7.24601C19.091 6.72118 18.9258 6.20966 18.6189 5.78393C18.312 5.3582 17.8789 5.03985 17.3809 4.87401L11.9999 3.08001Z" fill="#25280B"/>
</g>
<defs>
<clipPath id="clip0_327_5735">
<rect width="24" height="24" fill="white"/>
</clipPath>
</defs>
</svg>
