<svg width="24" height="24" viewBox="0 0 24 24" fill="none" xmlns="http://www.w3.org/2000/svg">
<g clip-path="url(#clip0_327_5007)">
<path d="M22.4193 10C21.3228 8.51105 19.7588 7.43261 17.9773 6.937C17.4217 4.8997 16.1002 3.15596 14.289 2.07024C12.4778 0.984518 10.317 0.640826 8.2583 1.111C7.08422 1.37948 5.98397 1.9041 5.03625 2.64734C4.08854 3.39058 3.31677 4.33406 2.77617 5.41031C2.23556 6.48655 1.93946 7.66897 1.90906 8.87298C1.87866 10.077 2.1147 11.2728 2.6003 12.375C1.58568 13.0416 0.806667 14.0107 0.373735 15.1449C-0.0591964 16.2791 -0.124074 17.5209 0.188302 18.694C0.531711 19.9499 1.28431 21.0554 2.3269 21.8354C3.3695 22.6153 4.6425 23.0252 5.9443 23H8.5003C8.89813 23 9.27966 22.842 9.56096 22.5607C9.84227 22.2794 10.0003 21.8978 10.0003 21.5C10.0003 21.1022 9.84227 20.7206 9.56096 20.4393C9.27966 20.158 8.89813 20 8.5003 20H5.9443C5.31224 20.0172 4.69195 19.8268 4.17833 19.4581C3.66472 19.0893 3.28606 18.5624 3.1003 17.958C3.00296 17.6004 2.9776 17.227 3.02567 16.8595C3.07373 16.492 3.19429 16.1377 3.38033 15.8171C3.56637 15.4966 3.81421 15.2162 4.10946 14.9921C4.40471 14.7681 4.7415 14.6049 5.1003 14.512C5.33829 14.4506 5.55753 14.3316 5.73876 14.1656C5.91999 13.9996 6.05764 13.7916 6.13962 13.5599C6.22159 13.3282 6.24538 13.0799 6.20888 12.8368C6.17238 12.5938 6.07672 12.3634 5.9303 12.166C5.45104 11.5196 5.12834 10.7707 4.98761 9.97841C4.84689 9.1861 4.89196 8.37193 5.1193 7.6C5.36932 6.7363 5.84324 5.95405 6.49302 5.33254C7.1428 4.71104 7.94534 4.27237 8.8193 4.061C9.23367 3.96404 9.65775 3.91472 10.0833 3.914C11.2087 3.91063 12.3041 4.27669 13.2013 4.956C14.3021 5.79127 15.0264 7.02919 15.2153 8.398C15.2578 8.72593 15.4068 9.03081 15.6396 9.2657C15.8723 9.5006 16.1758 9.65249 16.5033 9.698C17.1953 9.79282 17.8613 10.0254 18.462 10.382C19.0626 10.7385 19.5857 11.2119 20.0003 11.774C20.4138 12.337 20.7086 12.9781 20.8667 13.6585C21.0249 14.3389 21.0431 15.0443 20.9203 15.732C20.7933 16.4096 20.5284 17.0538 20.142 17.6248C19.7557 18.1957 19.2561 18.6812 18.6743 19.051C18.4666 19.188 18.2962 19.3746 18.1786 19.5938C18.0609 19.8131 17.9997 20.0582 18.0003 20.307C17.9981 20.578 18.0686 20.8446 18.2045 21.079C18.3404 21.3135 18.5367 21.5072 18.773 21.6399C19.0092 21.7727 19.2767 21.8397 19.5476 21.8339C19.8186 21.8281 20.083 21.7497 20.3133 21.607C21.246 21.0081 22.0444 20.2223 22.658 19.2992C23.2717 18.3761 23.6872 17.3358 23.8783 16.244C24.0713 15.1587 24.0415 14.0454 23.7906 12.972C23.5398 11.8986 23.0732 10.8874 22.4193 10Z" fill="#25280B"/>
<path d="M15.5002 22.4999V16.9999H17.1632C17.3609 16.9999 17.5542 16.9412 17.7186 16.8313C17.883 16.7215 18.0112 16.5653 18.0869 16.3826C18.1625 16.1999 18.1823 15.9989 18.1438 15.8049C18.1052 15.611 18.01 15.4328 17.8702 15.2929L14.7072 12.1299C14.5197 11.9425 14.2653 11.8372 14.0002 11.8372C13.735 11.8372 13.4807 11.9425 13.2932 12.1299L10.1302 15.2929C9.99038 15.4328 9.89517 15.611 9.85661 15.8049C9.81804 15.9989 9.83784 16.1999 9.91351 16.3826C9.98918 16.5653 10.1173 16.7215 10.2817 16.8313C10.4461 16.9412 10.6394 16.9999 10.8372 16.9999H12.5002V22.4999C12.5002 22.8978 12.6582 23.2793 12.9395 23.5606C13.2208 23.8419 13.6024 23.9999 14.0002 23.9999C14.398 23.9999 14.7795 23.8419 15.0608 23.5606C15.3421 23.2793 15.5002 22.8978 15.5002 22.4999Z" fill="#25280B"/>
</g>
<defs>
<clipPath id="clip0_327_5007">
<rect width="24" height="24" fill="white"/>
</clipPath>
</defs>
</svg>
