<svg width="24" height="24" viewBox="0 0 24 24" fill="none" xmlns="http://www.w3.org/2000/svg">
<g clip-path="url(#clip0_327_5706)">
<path d="M23.145 11.6997C22.6318 11.0132 21.9216 10.4994 21.109 10.2267C21.4988 9.09973 21.7866 7.94008 21.969 6.76168C22.0392 6.25533 21.991 5.7396 21.8282 5.25502C21.6654 4.77045 21.3924 4.33023 21.0308 3.96895C20.6691 3.60768 20.2286 3.33519 19.7439 3.17291C19.2591 3.01063 18.7433 2.96297 18.237 3.03368C18.064 3.05768 17.396 3.15668 16.53 3.35768L16.5 2.74368C16.4 0.0996797 13.213 -0.95632 11 1.09168C8.15405 -1.49232 4.36605 0.93568 5.81505 4.26668C4.53177 4.68193 3.44582 5.55426 2.76365 6.71783C2.08148 7.88139 1.85065 9.25506 2.11505 10.5777C1.2903 11.0571 0.650568 11.7997 0.298564 12.6863C-0.0534392 13.5729 -0.0972917 14.5521 0.174048 15.4667C0.829515 17.7463 2.04949 19.8237 3.72105 21.5067C5.36669 23.1135 7.57808 24.0089 9.87805 23.9997H14.122C16.422 24.0089 18.6334 23.1135 20.279 21.5067C21.9506 19.8236 23.1709 17.7462 23.827 15.4667C24.016 14.8292 24.0528 14.1563 23.9343 13.502C23.8159 12.8478 23.5455 12.2304 23.145 11.6997ZM18.647 5.99968C18.6943 5.99189 18.7428 5.99554 18.7884 6.01033C18.834 6.02512 18.8753 6.05062 18.909 6.08468C18.9441 6.11942 18.9703 6.16208 18.9855 6.20907C19.0006 6.25606 19.0042 6.306 18.996 6.35468C18.8097 7.52935 18.5041 8.68197 18.084 9.79468C18.0614 9.85999 18.0433 9.92683 18.03 9.99468H13.056C12.9693 9.58678 12.986 9.16368 13.1046 8.76388C13.2232 8.36409 13.4399 8.00032 13.735 7.70568C14.405 7.04168 16.563 6.29068 18.647 5.99968ZM7.50005 6.99968C7.87024 6.99989 8.23573 7.08261 8.56993 7.24183C8.90414 7.40104 9.19865 7.63273 9.43206 7.92007C9.66547 8.2074 9.83191 8.54314 9.91926 8.90288C10.0066 9.26262 10.0127 9.6373 9.93705 9.99968H5.06305C4.9874 9.6373 4.99348 9.26262 5.08083 8.90288C5.16819 8.54314 5.33462 8.2074 5.56803 7.92007C5.80144 7.63273 6.09596 7.40104 6.43016 7.24183C6.76437 7.08261 7.12986 6.99989 7.50005 6.99968ZM20.947 14.6257C20.4275 16.4175 19.4705 18.0519 18.162 19.3817C17.0797 20.43 15.6288 21.0111 14.122 20.9997H9.87805C8.37108 21.0112 6.92002 20.4297 5.83805 19.3807C4.52964 18.0518 3.57284 16.418 3.05405 14.6267C2.99636 14.436 2.9844 14.2344 3.01915 14.0383C3.0539 13.8421 3.13437 13.6569 3.25405 13.4977C3.36893 13.3408 3.51959 13.2136 3.69351 13.1266C3.86744 13.0396 4.05961 12.9954 4.25405 12.9977H19.754C19.9485 12.9954 20.1407 13.0396 20.3146 13.1266C20.4885 13.2136 20.6392 13.3408 20.754 13.4977C20.8722 13.6575 20.9513 13.8428 20.9848 14.0387C21.0183 14.2346 21.0054 14.4357 20.947 14.6257Z" fill="#25280B"/>
</g>
<defs>
<clipPath id="clip0_327_5706">
<rect width="24" height="24" fill="white"/>
</clipPath>
</defs>
</svg>
