<svg width="24" height="24" viewBox="0 0 24 24" fill="none" xmlns="http://www.w3.org/2000/svg">
<g clip-path="url(#clip0_327_5048)">
<path d="M23.1359 18.8547C22.6623 18.7192 22.2309 18.4654 21.8826 18.117C21.5342 17.7687 21.2804 17.3373 21.1449 16.8637C21.0737 16.615 20.9235 16.3962 20.7169 16.2405C20.5103 16.0847 20.2586 16.0005 19.9999 16.0005C19.7412 16.0005 19.4895 16.0847 19.283 16.2405C19.0764 16.3962 18.9261 16.615 18.8549 16.8637C18.7195 17.3373 18.4656 17.7687 18.1173 18.117C17.7689 18.4654 17.3376 18.7192 16.8639 18.8547C16.6152 18.9259 16.3964 19.0761 16.2407 19.2827C16.085 19.4893 16.0007 19.741 16.0007 19.9997C16.0007 20.2584 16.085 20.5101 16.2407 20.7166C16.3964 20.9232 16.6152 21.0735 16.8639 21.1447C17.3376 21.2801 17.7689 21.534 18.1173 21.8823C18.4656 22.2307 18.7195 22.662 18.8549 23.1357C18.9261 23.3844 19.0764 23.6032 19.283 23.7589C19.4895 23.9146 19.7412 23.9989 19.9999 23.9989C20.2586 23.9989 20.5103 23.9146 20.7169 23.7589C20.9235 23.6032 21.0737 23.3844 21.1449 23.1357C21.2804 22.662 21.5342 22.2307 21.8826 21.8823C22.2309 21.534 22.6623 21.2801 23.1359 21.1447C23.3846 21.0735 23.6034 20.9232 23.7591 20.7166C23.9149 20.5101 23.9991 20.2584 23.9991 19.9997C23.9991 19.741 23.9149 19.4893 23.7591 19.2827C23.6034 19.0761 23.3846 18.9259 23.1359 18.8547Z" fill="#25280B"/>
<path d="M15.1369 2.85517C14.6631 2.71988 14.2315 2.46608 13.883 2.11773C13.5345 1.76937 13.2805 1.33794 13.1449 0.864172C13.0737 0.615456 12.9235 0.396689 12.7169 0.240952C12.5103 0.0852144 12.2586 0.000976562 11.9999 0.000976562C11.7412 0.000976562 11.4895 0.0852144 11.283 0.240952C11.0764 0.396689 10.9261 0.615456 10.8549 0.864172C10.7195 1.33783 10.4656 1.76918 10.1173 2.11752C9.76893 2.46587 9.33758 2.71974 8.86393 2.85517C8.61521 2.92638 8.39644 3.07663 8.24071 3.28321C8.08497 3.48979 8.00073 3.74146 8.00073 4.00017C8.00073 4.25888 8.08497 4.51055 8.24071 4.71713C8.39644 4.92371 8.61521 5.07397 8.86393 5.14517C9.33758 5.28061 9.76893 5.53447 10.1173 5.88282C10.4656 6.23117 10.7195 6.66252 10.8549 7.13617C10.9261 7.38489 11.0764 7.60365 11.283 7.75939C11.4895 7.91513 11.7412 7.99937 11.9999 7.99937C12.2586 7.99937 12.5103 7.91513 12.7169 7.75939C12.9235 7.60365 13.0737 7.38489 13.1449 7.13617C13.2804 6.66252 13.5342 6.23117 13.8826 5.88282C14.2309 5.53447 14.6623 5.28061 15.1359 5.14517C15.3847 5.07407 15.6035 4.92392 15.7593 4.7174C15.9152 4.51089 15.9995 4.25926 15.9996 4.00055C15.9997 3.74184 15.9156 3.49013 15.76 3.28348C15.6043 3.07683 15.3856 2.92649 15.1369 2.85517Z" fill="#25280B"/>
<path d="M0.86294 21.1447C1.3366 21.2801 1.76794 21.534 2.11629 21.8823C2.46464 22.2307 2.71851 22.662 2.85394 23.1357C2.92515 23.3844 3.0754 23.6032 3.28198 23.7589C3.48856 23.9146 3.74023 23.9989 3.99894 23.9989C4.25765 23.9989 4.50932 23.9146 4.7159 23.7589C4.92248 23.6032 5.07273 23.3844 5.14394 23.1357C5.27937 22.662 5.53324 22.2307 5.88159 21.8823C6.22994 21.534 6.66128 21.2801 7.13494 21.1447C7.38366 21.0735 7.60242 20.9232 7.75816 20.7166C7.9139 20.5101 7.99814 20.2584 7.99814 19.9997C7.99814 19.741 7.9139 19.4893 7.75816 19.2827C7.60242 19.0761 7.38366 18.9259 7.13494 18.8547C6.66128 18.7192 6.22994 18.4654 5.88159 18.117C5.53324 17.7687 5.27937 17.3373 5.14394 16.8637C5.07273 16.615 4.92248 16.3962 4.7159 16.2405C4.50932 16.0847 4.25765 16.0005 3.99894 16.0005C3.74023 16.0005 3.48856 16.0847 3.28198 16.2405C3.0754 16.3962 2.92515 16.615 2.85394 16.8637C2.7186 17.3372 2.46488 17.7685 2.11672 18.1168C1.76855 18.4652 1.33741 18.7191 0.86394 18.8547C0.615193 18.9258 0.39636 19.0759 0.240533 19.2824C0.084705 19.489 0.000357227 19.7406 0.000244254 19.9993C0.000131282 20.258 0.0842593 20.5097 0.239906 20.7164C0.395554 20.923 0.614255 21.0734 0.86294 21.1447Z" fill="#25280B"/>
<path d="M5.5 15C6.32843 15 7 14.3284 7 13.5C7 12.6716 6.32843 12 5.5 12C4.67157 12 4 12.6716 4 13.5C4 14.3284 4.67157 15 5.5 15Z" fill="#25280B"/>
<path d="M1.5 11C2.32843 11 3 10.3284 3 9.5C3 8.67157 2.32843 8 1.5 8C0.671573 8 0 8.67157 0 9.5C0 10.3284 0.671573 11 1.5 11Z" fill="#25280B"/>
<path d="M5.5 6.99976C6.32843 6.99976 7 6.32818 7 5.49976C7 4.67133 6.32843 3.99976 5.5 3.99976C4.67157 3.99976 4 4.67133 4 5.49976C4 6.32818 4.67157 6.99976 5.5 6.99976Z" fill="#25280B"/>
<path d="M1.5 3C2.32843 3 3 2.32843 3 1.5C3 0.671573 2.32843 0 1.5 0C0.671573 0 0 0.671573 0 1.5C0 2.32843 0.671573 3 1.5 3Z" fill="#25280B"/>
<path d="M22.5 15C23.3284 15 24 14.3284 24 13.5C24 12.6716 23.3284 12 22.5 12C21.6716 12 21 12.6716 21 13.5C21 14.3284 21.6716 15 22.5 15Z" fill="#25280B"/>
<path d="M18.5 11C19.3284 11 20 10.3284 20 9.5C20 8.67157 19.3284 8 18.5 8C17.6716 8 17 8.67157 17 9.5C17 10.3284 17.6716 11 18.5 11Z" fill="#25280B"/>
<path d="M22.5 6.99976C23.3284 6.99976 24 6.32818 24 5.49976C24 4.67133 23.3284 3.99976 22.5 3.99976C21.6716 3.99976 21 4.67133 21 5.49976C21 6.32818 21.6716 6.99976 22.5 6.99976Z" fill="#25280B"/>
<path d="M18.5 3C19.3284 3 20 2.32843 20 1.5C20 0.671573 19.3284 0 18.5 0C17.6716 0 17 0.671573 17 1.5C17 2.32843 17.6716 3 18.5 3Z" fill="#25280B"/>
<path d="M14.5 24C15.3284 24 16 23.3284 16 22.5C16 21.6716 15.3284 21 14.5 21C13.6716 21 13 21.6716 13 22.5C13 23.3284 13.6716 24 14.5 24Z" fill="#25280B"/>
<path d="M10.5 20C11.3284 20 12 19.3284 12 18.5C12 17.6716 11.3284 17 10.5 17C9.67157 17 9 17.6716 9 18.5C9 19.3284 9.67157 20 10.5 20Z" fill="#25280B"/>
<path d="M14.5 16C15.3284 16 16 15.3284 16 14.5C16 13.6716 15.3284 13 14.5 13C13.6716 13 13 13.6716 13 14.5C13 15.3284 13.6716 16 14.5 16Z" fill="#25280B"/>
<path d="M10.5 12C11.3284 12 12 11.3284 12 10.5C12 9.67157 11.3284 9 10.5 9C9.67157 9 9 9.67157 9 10.5C9 11.3284 9.67157 12 10.5 12Z" fill="#25280B"/>
</g>
<defs>
<clipPath id="clip0_327_5048">
<rect width="24" height="24" fill="white"/>
</clipPath>
</defs>
</svg>
