<svg width="24" height="24" viewBox="0 0 24 24" fill="none" xmlns="http://www.w3.org/2000/svg">
<g clip-path="url(#clip0_327_5610)">
<path d="M20.0001 9.00038H18.3741L14.3151 1.83638C13.9975 1.23598 13.5107 0.741968 12.915 0.415603C12.3194 0.0892373 11.641 -0.0551353 10.9641 0.000382655C10.4933 0.0117968 10.0314 0.130294 9.61329 0.34688C9.19519 0.563467 8.83192 0.872451 8.55106 1.25038C8.25398 1.64617 8.05496 2.10675 7.9703 2.59433C7.88565 3.08191 7.91778 3.58262 8.06406 4.05538L9.70506 9.00038H8.12306C7.7945 9.00101 7.46905 8.93666 7.16546 8.81104C6.86186 8.68541 6.58611 8.50099 6.35406 8.26838L4.93706 6.85138C4.49972 6.41384 3.93433 6.12705 3.32295 6.03264C2.71156 5.93824 2.086 6.04113 1.53706 6.32638C1.1967 6.50209 0.895817 6.74546 0.652845 7.04156C0.409873 7.33767 0.229934 7.68027 0.124056 8.04838C-0.0983851 8.80338 -0.0184127 9.6153 0.347056 10.3124C0.347056 10.3124 1.98206 14.1774 2.01206 14.2294C2.49414 15.0703 3.18938 15.7692 4.02771 16.2557C4.86603 16.7421 5.8178 16.999 6.78706 17.0004H9.45506L8.20006 19.7714C8.02272 20.245 7.96273 20.7544 8.02521 21.2563C8.08769 21.7581 8.27079 22.2373 8.55885 22.6529C8.84691 23.0685 9.23135 23.4082 9.6793 23.6429C10.1272 23.8775 10.6254 24.0002 11.1311 24.0004C11.741 24.0004 12.3403 23.8411 12.8697 23.5382C13.3991 23.2353 13.8401 22.7993 14.1491 22.2734L17.9901 17.0004H20.0001C21.0609 17.0004 22.0783 16.579 22.8285 15.8288C23.5786 15.0787 24.0001 14.0612 24.0001 13.0004C24.0001 11.9395 23.5786 10.9221 22.8285 10.172C22.0783 9.42181 21.0609 9.00038 20.0001 9.00038ZM10.9291 3.16538C10.9241 3.14838 10.9001 3.00038 11.0531 3.00038H11.2451C11.3386 2.99641 11.4312 3.02122 11.5102 3.07147C11.5892 3.12171 11.6509 3.19497 11.6871 3.28138L14.9261 9.00038H12.8651L10.9291 3.16538ZM20.0001 14.0004H17.2271C16.9907 14.0005 16.7577 14.0564 16.5471 14.1636C16.3365 14.2709 16.1542 14.4263 16.0151 14.6174C16.0151 14.6174 11.6001 20.6834 11.5701 20.7394C11.5271 20.8183 11.4637 20.8842 11.3864 20.9302C11.3091 20.9761 11.2209 21.0004 11.1311 21.0004C10.9701 21.0004 10.9981 20.8794 10.9921 20.8794L13.1461 16.1194C13.2496 15.8909 13.2941 15.6402 13.2757 15.3901C13.2572 15.1399 13.1764 14.8984 13.0405 14.6877C12.9046 14.4769 12.718 14.3035 12.4978 14.1834C12.2776 14.0634 12.0309 14.0004 11.7801 14.0004H6.78706C6.35999 13.9996 5.94018 13.8898 5.56743 13.6814C5.19467 13.473 4.88132 13.1728 4.65706 12.8094L3.20006 9.35438L4.23406 10.3894C4.74371 10.9015 5.3498 11.3076 6.01732 11.5841C6.68484 11.8606 7.40054 12.0021 8.12306 12.0004H20.0001C20.2653 12.0004 20.5196 12.1057 20.7072 12.2933C20.8947 12.4808 21.0001 12.7352 21.0001 13.0004C21.0001 13.2656 20.8947 13.52 20.7072 13.7075C20.5196 13.895 20.2653 14.0004 20.0001 14.0004Z" fill="#25280B"/>
</g>
<defs>
<clipPath id="clip0_327_5610">
<rect width="24" height="24" fill="white"/>
</clipPath>
</defs>
</svg>
