<svg width="24" height="24" viewBox="0 0 24 24" fill="none" xmlns="http://www.w3.org/2000/svg">
<g clip-path="url(#clip0_327_5490)">
<path d="M19.0839 9.034C17.2966 9.25862 15.5303 9.62647 13.8019 10.134C14.4919 8.062 16.3849 6.989 19.0019 6.989C19.2763 7.00925 19.5519 6.97267 19.8115 6.88155C20.0711 6.79043 20.3091 6.64672 20.5107 6.45942C20.7122 6.27212 20.8729 6.04525 20.9828 5.793C21.0926 5.54076 21.1493 5.26856 21.1491 4.99342C21.149 4.71829 21.0921 4.44615 20.982 4.19401C20.8719 3.94187 20.7109 3.71516 20.5092 3.52806C20.3075 3.34096 20.0693 3.1975 19.8096 3.10664C19.5499 3.01577 19.2743 2.97947 18.9999 3C15.6859 3 13.4999 5.7 13.4999 9V1.5C13.4999 1.10218 13.3419 0.720644 13.0606 0.43934C12.7793 0.158035 12.3977 0 11.9999 0C11.6021 0 11.2205 0.158035 10.9392 0.43934C10.6579 0.720644 10.4999 1.10218 10.4999 1.5V9C10.4999 5.7 8.3139 3 4.9999 3C4.72844 2.98511 4.4568 3.02573 4.20156 3.11936C3.94633 3.213 3.71287 3.35769 3.51544 3.54459C3.31801 3.73149 3.16076 3.95668 3.05329 4.2064C2.94582 4.45612 2.89039 4.72513 2.89039 4.997C2.89039 5.26887 2.94582 5.53788 3.05329 5.7876C3.16076 6.03732 3.31801 6.26251 3.51544 6.44941C3.71287 6.63631 3.94633 6.781 4.20156 6.87464C4.4568 6.96827 4.72844 7.00888 4.9999 6.994C7.6149 6.994 9.5079 8.067 10.1999 10.139C8.47153 9.63147 6.70518 9.26362 4.9179 9.039C4.33212 8.96252 3.73675 9.01334 3.17241 9.18799C2.60807 9.36265 2.08807 9.65701 1.6479 10.051C1.11845 10.5356 0.697807 11.1271 0.413732 11.7862C0.129657 12.4454 -0.0113915 13.1573 -0.000104759 13.875C-0.000104759 23.27 5.4759 24 7.1539 24C8.35888 23.9386 9.51119 23.4869 10.4369 22.713C10.8718 22.314 11.4162 22.0542 11.9999 21.967C12.5839 22.0543 13.1285 22.3141 13.5639 22.713C14.4895 23.487 15.6419 23.9388 16.8469 24C18.5239 24 23.9999 23.27 23.9999 13.875C24.0121 13.1566 23.8718 12.4438 23.588 11.7838C23.3043 11.1237 22.8836 10.5314 22.3539 10.046C21.9139 9.65167 21.394 9.35709 20.8296 9.18242C20.2652 9.00775 19.6697 8.95712 19.0839 9.034ZM16.8469 21C16.2626 20.9127 15.7177 20.6529 15.2819 20.254C14.3565 19.4803 13.2045 19.0286 11.9999 18.967C10.795 19.0289 9.64282 19.4805 8.7169 20.254C8.28196 20.653 7.73764 20.9128 7.1539 21C3.7209 21 2.9999 17.125 2.9999 13.875C2.99001 13.5823 3.04099 13.2908 3.1496 13.0188C3.25822 12.7468 3.42211 12.5004 3.6309 12.295C3.75291 12.1835 3.89792 12.1002 4.05569 12.0509C4.21346 12.0017 4.38013 11.9877 4.5439 12.01C6.89692 12.3005 9.20609 12.875 11.4209 13.721C11.6044 13.7972 11.8012 13.8365 11.9999 13.8365C12.1986 13.8365 12.3954 13.7972 12.5789 13.721C14.794 12.8749 17.1035 12.3004 19.4569 12.01C19.6205 11.9876 19.7871 12.0015 19.9447 12.0508C20.1023 12.1 20.2472 12.1834 20.3689 12.295C20.5777 12.5004 20.7416 12.7468 20.8502 13.0188C20.9588 13.2908 21.0098 13.5823 20.9999 13.875C20.9999 17.125 20.2789 21 16.8469 21Z" fill="#25280B"/>
<path d="M17.83 14.5232C15.309 15.1002 12 16.1482 12 16.1482C14.009 16.3612 16.056 18.1992 17.114 18.4932C18.223 18.8012 18.641 17.6492 18.981 15.7682C19.02 15.6052 19.0183 15.435 18.9759 15.2729C18.9335 15.1107 18.8518 14.9614 18.738 14.8383C18.6242 14.7152 18.4818 14.6221 18.3234 14.5671C18.1651 14.5122 17.9956 14.4971 17.83 14.5232Z" fill="#25280B"/>
<path d="M5.019 15.7682C5.359 17.6492 5.777 18.8012 6.886 18.4932C7.944 18.1992 9.98601 16.3612 12 16.1482C12 16.1482 8.691 15.0962 6.17 14.5232C6.00441 14.4971 5.83493 14.5122 5.67656 14.5671C5.51818 14.6221 5.3758 14.7152 5.262 14.8383C5.1482 14.9614 5.06649 15.1107 5.02411 15.2729C4.98172 15.435 4.97997 15.6052 5.019 15.7682Z" fill="#25280B"/>
</g>
<defs>
<clipPath id="clip0_327_5490">
<rect width="24" height="24" fill="white"/>
</clipPath>
</defs>
</svg>
