<svg width="24" height="24" viewBox="0 0 24 24" fill="none" xmlns="http://www.w3.org/2000/svg">
<path d="M22.5519 13.2099L20.7999 6.91592C20.2348 4.88787 19.0081 3.10684 17.3148 1.85581C15.6215 0.604776 13.5586 -0.0445095 11.454 0.0111103C9.34946 0.0667302 7.32381 0.824065 5.69894 2.16279C4.07407 3.50152 2.94317 5.34485 2.48592 7.39992L1.13192 13.4889C0.953295 14.2928 0.957472 15.1266 1.14414 15.9287C1.33082 16.7307 1.69522 17.4806 2.21045 18.1231C2.72569 18.7655 3.37861 19.284 4.12103 19.6403C4.86345 19.9967 5.67641 20.1818 6.49992 20.1819H6.89992C7.21815 21.2824 7.88536 22.2498 8.80105 22.9382C9.71674 23.6266 10.8313 23.9988 11.9769 23.9988C13.1225 23.9988 14.2371 23.6266 15.1528 22.9382C16.0685 22.2498 16.7357 21.2824 17.0539 20.1819H17.2469C18.0949 20.182 18.9313 19.9861 19.691 19.6094C20.4506 19.2327 21.1129 18.6854 21.6261 18.0104C22.1392 17.3354 22.4893 16.5508 22.6491 15.7181C22.8088 14.8853 22.7739 14.0269 22.5469 13.2099H22.5519ZM19.2429 16.1939C19.0108 16.5021 18.7099 16.7519 18.3643 16.9235C18.0187 17.095 17.6378 17.1835 17.2519 17.1819H6.49992C6.12563 17.1818 5.75613 17.0977 5.41869 16.9358C5.08125 16.7738 4.78449 16.5381 4.55029 16.2462C4.3161 15.9542 4.15045 15.6133 4.06558 15.2488C3.98071 14.8843 3.97878 14.5053 4.05992 14.1399L5.41392 8.03992C5.72484 6.63599 6.49647 5.37642 7.60597 4.46171C8.71547 3.547 10.0991 3.02973 11.5365 2.99224C12.974 2.95475 14.3827 3.3992 15.5383 4.25483C16.694 5.11047 17.5302 6.32811 17.9139 7.71392L19.6619 14.0079C19.7674 14.3797 19.7844 14.771 19.7117 15.1506C19.6389 15.5302 19.4784 15.8875 19.2429 16.1939Z" fill="#25280B"/>
</svg>
