<svg width="24" height="24" viewBox="0 0 24 24" fill="none" xmlns="http://www.w3.org/2000/svg">
<g clip-path="url(#clip0_327_5342)">
<path d="M17.2499 1.85059C16.2242 1.86051 15.2151 2.11053 14.3034 2.58061C13.3917 3.05069 12.6028 3.72776 11.9999 4.55759C11.397 3.72776 10.6081 3.05069 9.69638 2.58061C8.7847 2.11053 7.77559 1.86051 6.7499 1.85059C4.89167 1.92479 3.13842 2.73176 1.87351 4.09505C0.608611 5.45833 -0.0650268 7.26701 -0.000101359 9.12559C-0.000101359 13.6776 4.6739 18.5506 8.5999 21.8376C9.55323 22.6392 10.7588 23.0787 12.0044 23.0787C13.25 23.0787 14.4556 22.6392 15.4089 21.8376C19.3309 18.5506 24.0089 13.6776 24.0089 9.12559C24.0738 7.26551 23.3989 5.45552 22.1321 4.09198C20.8653 2.72844 19.1097 1.92247 17.2499 1.85059ZM13.4769 19.5386C13.0633 19.8868 12.54 20.0778 11.9994 20.0778C11.4588 20.0778 10.9355 19.8868 10.5219 19.5386C5.7419 15.5306 2.9999 11.7356 2.9999 9.12559C2.93614 8.0628 3.29418 7.01776 3.99628 6.21737C4.69838 5.41697 5.68786 4.92583 6.7499 4.85059C7.81193 4.92583 8.80142 5.41697 9.50352 6.21737C10.2056 7.01776 10.5637 8.0628 10.4999 9.12559C10.4999 9.52341 10.6579 9.90494 10.9392 10.1862C11.2205 10.4676 11.6021 10.6256 11.9999 10.6256C12.3977 10.6256 12.7793 10.4676 13.0606 10.1862C13.3419 9.90494 13.4999 9.52341 13.4999 9.12559C13.4361 8.0628 13.7942 7.01776 14.4963 6.21737C15.1984 5.41697 16.1879 4.92583 17.2499 4.85059C18.3119 4.92583 19.3014 5.41697 20.0035 6.21737C20.7056 7.01776 21.0637 8.0628 20.9999 9.12559C20.9999 11.7356 18.2579 15.5306 13.4769 19.5386Z" fill="#25280B"/>
</g>
<defs>
<clipPath id="clip0_327_5342">
<rect width="24" height="24" fill="white"/>
</clipPath>
</defs>
</svg>
