<svg width="24" height="24" viewBox="0 0 24 24" fill="none" xmlns="http://www.w3.org/2000/svg">
<g clip-path="url(#clip0_327_5569)">
<path d="M20.5 7.00038H16.5C15.5717 7.00038 14.6815 7.36913 14.0251 8.02551C13.3687 8.68189 13 9.57213 13 10.5004V15.0004H11V11.5004C10.9979 10.3921 10.6615 9.3103 10.0348 8.3963C9.408 7.4823 8.52005 6.77866 7.487 6.37738C8.10152 5.9536 8.56446 5.34443 8.80818 4.63886C9.05191 3.93329 9.06367 3.16827 8.84174 2.45554C8.61982 1.74282 8.17583 1.11971 7.57462 0.677236C6.97341 0.23476 6.24648 -0.00390625 5.5 -0.00390625C4.75352 -0.00390625 4.02659 0.23476 3.42538 0.677236C2.82417 1.11971 2.38018 1.74282 2.15826 2.45554C1.93633 3.16827 1.94809 3.93329 2.19182 4.63886C2.43555 5.34443 2.89848 5.9536 3.513 6.37738C2.47995 6.77866 1.592 7.4823 0.965244 8.3963C0.338486 9.3103 0.00207836 10.3921 0 11.5004L0 22.5004C0 22.8982 0.158035 23.2797 0.43934 23.561C0.720644 23.8424 1.10218 24.0004 1.5 24.0004C1.89782 24.0004 2.27936 23.8424 2.56066 23.561C2.84196 23.2797 3 22.8982 3 22.5004V18.0004H21V22.5004C21 22.8982 21.158 23.2797 21.4393 23.561C21.7206 23.8424 22.1022 24.0004 22.5 24.0004C22.8978 24.0004 23.2794 23.8424 23.5607 23.561C23.842 23.2797 24 22.8982 24 22.5004V10.5004C24 9.57213 23.6313 8.68189 22.9749 8.02551C22.3185 7.36913 21.4283 7.00038 20.5 7.00038ZM5.5 9.00038C6.16304 9.00038 6.79893 9.26378 7.26777 9.73262C7.73661 10.2015 8 10.8373 8 11.5004V15.0004H3V11.5004C3 10.8373 3.26339 10.2015 3.73223 9.73262C4.20107 9.26378 4.83696 9.00038 5.5 9.00038ZM16 15.0004V10.5004C16 10.3678 16.0527 10.2406 16.1464 10.1468C16.2402 10.0531 16.3674 10.0004 16.5 10.0004H17V10.5004C17 10.8982 17.158 11.2797 17.4393 11.561C17.7206 11.8424 18.1022 12.0004 18.5 12.0004C18.8978 12.0004 19.2794 11.8424 19.5607 11.561C19.842 11.2797 20 10.8982 20 10.5004V10.0004H20.5C20.6326 10.0004 20.7598 10.0531 20.8536 10.1468C20.9473 10.2406 21 10.3678 21 10.5004V15.0004H16Z" fill="#25280B"/>
</g>
<defs>
<clipPath id="clip0_327_5569">
<rect width="24" height="24" fill="white"/>
</clipPath>
</defs>
</svg>
