<svg width="24" height="24" viewBox="0 0 24 24" fill="none" xmlns="http://www.w3.org/2000/svg">
<path d="M8 4.00049H4C2.93913 4.00049 1.92172 4.42192 1.17157 5.17206C0.421427 5.92221 0 6.93962 0 8.00049L0 12.0005C0 12.5309 0.210714 13.0396 0.585786 13.4147C0.960859 13.7898 1.46957 14.0005 2 14.0005H7C6.99841 15.3261 6.47112 16.5969 5.53378 17.5343C4.59644 18.4716 3.32559 18.9989 2 19.0005C1.60218 19.0005 1.22064 19.1585 0.93934 19.4398C0.658035 19.7211 0.5 20.1027 0.5 20.5005C0.5 20.8983 0.658035 21.2798 0.93934 21.5611C1.22064 21.8425 1.60218 22.0005 2 22.0005C4.121 21.9981 6.15445 21.1545 7.65422 19.6547C9.154 18.1549 9.99762 16.1215 10 14.0005V6.00049C10 5.47006 9.78929 4.96135 9.41421 4.58627C9.03914 4.2112 8.53043 4.00049 8 4.00049Z" fill="#25280B"/>
<path d="M22 4.00049H18C16.9391 4.00049 15.9217 4.42192 15.1716 5.17206C14.4214 5.92221 14 6.93962 14 8.00049V12.0005C14 12.5309 14.2107 13.0396 14.5858 13.4147C14.9609 13.7898 15.4696 14.0005 16 14.0005H21C20.9984 15.3261 20.4711 16.5969 19.5338 17.5343C18.5964 18.4716 17.3256 18.9989 16 19.0005C15.6022 19.0005 15.2206 19.1585 14.9393 19.4398C14.658 19.7211 14.5 20.1027 14.5 20.5005C14.5 20.8983 14.658 21.2798 14.9393 21.5611C15.2206 21.8425 15.6022 22.0005 16 22.0005C18.121 21.9981 20.1544 21.1545 21.6542 19.6547C23.154 18.1549 23.9976 16.1215 24 14.0005V6.00049C24 5.47006 23.7893 4.96135 23.4142 4.58627C23.0391 4.2112 22.5304 4.00049 22 4.00049Z" fill="#25280B"/>
</svg>
