<svg width="24" height="24" viewBox="0 0 24 24" fill="none" xmlns="http://www.w3.org/2000/svg">
<g clip-path="url(#clip0_327_5571)">
<path d="M24 3.94054C24.0053 3.42073 23.9063 2.90513 23.709 2.42421C23.5116 1.94329 23.2199 1.50681 22.851 1.14054C22.1188 0.414306 21.1312 0.00398997 20.0999 -0.00236644C19.0687 -0.00872286 18.0761 0.389387 17.335 1.10654L7.16399 11.0325C6.35089 11.0067 5.5411 11.1474 4.78442 11.4461C4.02773 11.7449 3.34016 12.1952 2.76399 12.7695C1.14699 14.3885 0.245995 18.5415 0.0349946 20.0065C-0.0367742 20.5038 -0.000878662 21.0106 0.140251 21.4928C0.281381 21.9749 0.524451 22.4211 0.853007 22.8011C1.18156 23.1812 1.58793 23.4862 2.04461 23.6955C2.50129 23.9049 2.99762 24.0137 3.49999 24.0145C3.67166 24.0146 3.84311 24.0022 4.01299 23.9775C5.476 23.7675 9.62799 22.8675 11.248 21.2475C11.878 20.6129 12.3571 19.8447 12.6498 18.9998C12.9425 18.1548 13.0413 17.2549 12.939 16.3665L22.819 6.72554C23.1917 6.36358 23.4882 5.93071 23.691 5.45241C23.8938 4.97411 23.9989 4.46006 24 3.94054ZM9.12299 19.1265C8.47099 19.7775 5.77699 20.6925 3.58199 21.0085C3.50351 21.0208 3.42324 21.0144 3.34771 20.9898C3.27218 20.9652 3.20352 20.9231 3.1473 20.867C3.09109 20.8109 3.0489 20.7423 3.02417 20.6668C2.99945 20.5913 2.99288 20.511 3.00499 20.4325C3.32099 18.2325 4.23599 15.5425 4.88699 14.8905C5.44933 14.33 6.21097 14.0152 7.00499 14.0152C7.79902 14.0152 8.56066 14.33 9.12299 14.8905C9.46292 15.2362 9.71289 15.6599 9.85099 16.1245C9.86883 16.247 9.90245 16.3667 9.95099 16.4805C10.0365 16.9557 10.0059 17.4444 9.86173 17.9052C9.71756 18.3659 9.46411 18.7849 9.12299 19.1265ZM20.723 4.57754L11.723 13.3565C11.5761 13.1508 11.4161 12.9547 11.244 12.7695C10.9824 12.5105 10.6976 12.2762 10.393 12.0695L19.43 3.25554C19.6045 3.08633 19.8385 2.99237 20.0816 2.99387C20.3247 2.99536 20.5575 3.09219 20.73 3.26354C20.8166 3.34986 20.8852 3.45256 20.9317 3.56564C20.9783 3.67872 21.0019 3.79993 21.0011 3.92222C21.0004 4.0445 20.9753 4.16542 20.9274 4.27792C20.8795 4.39043 20.8097 4.49228 20.722 4.57754H20.723Z" fill="#25280B"/>
</g>
<defs>
<clipPath id="clip0_327_5571">
<rect width="24" height="24" fill="white"/>
</clipPath>
</defs>
</svg>
