<svg width="24" height="24" viewBox="0 0 24 24" fill="none" xmlns="http://www.w3.org/2000/svg">
<g clip-path="url(#clip0_327_5085)">
<path d="M23.2579 4.94715C22.1294 3.59936 20.6949 2.5411 19.0741 1.86074C17.4533 1.18037 15.6932 0.897638 13.9409 1.03615C13.751 0.830755 13.5356 0.650612 13.2999 0.500154C12.8908 0.247081 12.4319 0.085252 11.9545 0.0257125C11.4772 -0.0338271 10.9926 0.0103246 10.5339 0.155154C8.51577 0.782194 6.64487 1.80977 5.03302 3.17643C3.42116 4.5431 2.10147 6.22078 1.15286 8.10915C0.74802 8.9097 0.411492 9.74299 0.146856 10.6002C0.00584973 11.055 -0.0356065 11.5348 0.0253036 12.0071C0.0862137 12.4794 0.248063 12.933 0.499856 13.3372C0.653911 13.5776 0.839196 13.7965 1.05086 13.9882C0.918859 15.7324 1.20441 17.483 1.88385 19.095C2.5633 20.7069 3.61707 22.1337 4.95786 23.2572C5.32786 23.5661 5.76286 23.7874 6.23039 23.9046C6.69791 24.0218 7.18588 24.0319 7.65786 23.9342C8.14785 23.8362 8.60932 23.6286 9.00765 23.3269C9.40598 23.0253 9.73084 22.6373 9.95786 22.1922L13.1679 15.9172C13.808 15.6978 14.3896 15.3351 14.8682 14.8567C15.3469 14.3784 15.71 13.7971 15.9299 13.1572L22.1869 9.94815C22.6318 9.72102 23.0196 9.39611 23.3211 8.99779C23.6226 8.59946 23.83 8.13806 23.9279 7.64815C24.0267 7.17655 24.0179 6.6887 23.9018 6.22101C23.7858 5.75332 23.5657 5.31787 23.2579 4.94715ZM3.01486 11.4842C3.62663 9.4959 4.71276 7.68625 6.17961 6.21121C7.64647 4.73617 9.45004 3.63998 11.4349 3.01715C11.4814 3.00216 11.5306 2.99718 11.5792 3.00252C11.6278 3.00786 11.6747 3.02341 11.7169 3.04815C11.7526 3.06931 11.783 3.09831 11.8059 3.13296C11.8287 3.16761 11.8434 3.207 11.8489 3.24815L13.1649 11.4482C13.2004 11.6816 13.1807 11.9201 13.1073 12.1445C13.0339 12.3689 12.9089 12.573 12.7423 12.7403C12.5757 12.9076 12.3721 13.0335 12.148 13.1078C11.9239 13.1821 11.6854 13.2028 11.4519 13.1682L3.25186 11.8862C3.21054 11.8797 3.17118 11.8641 3.1366 11.8406C3.10201 11.8171 3.07307 11.7862 3.05186 11.7502C3.026 11.7115 3.00925 11.6675 3.00284 11.6214C2.99643 11.5753 3.00054 11.5284 3.01486 11.4842ZM7.29286 20.8252C7.27052 20.8683 7.2388 20.9058 7.20003 20.9351C7.16127 20.9643 7.11645 20.9845 7.06886 20.9942C7.03771 21.003 7.00487 21.0042 6.97317 20.9976C6.94147 20.991 6.91185 20.9768 6.88686 20.9562C6.01825 20.2305 5.31492 19.3275 4.82405 18.3076C4.33319 17.2878 4.06615 16.1747 4.04086 15.0432L9.79086 15.9432L7.29286 20.8252ZM20.8239 7.27915L15.9359 9.78515L15.0109 4.01715C16.1484 4.03863 17.268 4.30452 18.2938 4.79678C19.3195 5.28903 20.2274 5.99615 20.9559 6.87015C20.9766 6.89526 20.9909 6.92505 20.9975 6.95694C21.0042 6.98884 21.0029 7.02186 20.9939 7.05315C20.9842 7.10115 20.964 7.14637 20.9345 7.18548C20.9051 7.2246 20.8673 7.25661 20.8239 7.27915Z" fill="#25280B"/>
</g>
<defs>
<clipPath id="clip0_327_5085">
<rect width="24" height="24" fill="white"/>
</clipPath>
</defs>
</svg>
