<svg width="24" height="24" viewBox="0 0 24 24" fill="none" xmlns="http://www.w3.org/2000/svg">
<g clip-path="url(#clip0_327_5212)">
<path d="M15.561 13.561L14.121 15L15.561 16.439C15.8424 16.7204 16.0005 17.1021 16.0005 17.5C16.0005 17.898 15.8424 18.2796 15.561 18.561C15.2796 18.8424 14.898 19.0005 14.5 19.0005C14.102 19.0005 13.7204 18.8424 13.439 18.561L12 17.121L10.561 18.561C10.2796 18.8424 9.89795 19.0005 9.5 19.0005C9.10205 19.0005 8.72039 18.8424 8.439 18.561C8.15761 18.2796 7.99952 17.898 7.99952 17.5C7.99952 17.1021 8.15761 16.7204 8.439 16.439L9.879 15L8.439 13.561C8.15761 13.2796 7.99952 12.898 7.99952 12.5C7.99952 12.1021 8.15761 11.7204 8.439 11.439C8.72039 11.1576 9.10205 10.9995 9.5 10.9995C9.89795 10.9995 10.2796 11.1576 10.561 11.439L12 12.879L13.439 11.439C13.5783 11.2997 13.7437 11.1892 13.9258 11.1138C14.1078 11.0384 14.303 10.9995 14.5 10.9995C14.697 10.9995 14.8922 11.0384 15.0742 11.1138C15.2563 11.1892 15.4217 11.2997 15.561 11.439C15.7003 11.5784 15.8109 11.7438 15.8863 11.9258C15.9617 12.1079 16.0005 12.303 16.0005 12.5C16.0005 12.6971 15.9617 12.8922 15.8863 13.0742C15.8109 13.2563 15.7003 13.4217 15.561 13.561ZM22 8.15702V18.5C21.9984 19.9582 21.4184 21.3562 20.3873 22.3874C19.3562 23.4185 17.9582 23.9984 16.5 24H7.5C6.0418 23.9984 4.64377 23.4185 3.61267 22.3874C2.58156 21.3562 2.00159 19.9582 2 18.5V5.50002C2.00159 4.04182 2.58156 2.64379 3.61267 1.61269C4.64377 0.581581 6.0418 0.00160807 7.5 1.99011e-05H13.843C14.5656 -0.00193016 15.2813 0.139451 15.9489 0.415979C16.6164 0.692507 17.2225 1.09869 17.732 1.61102L20.389 4.26802C20.9013 4.77754 21.3075 5.38361 21.584 6.05115C21.8606 6.7187 22.0019 7.43447 22 8.15702ZM19 18.5V9.00002H15C14.4696 9.00002 13.9609 8.78931 13.5858 8.41423C13.2107 8.03916 13 7.53045 13 7.00002V3.00002H7.5C6.83696 3.00002 6.20107 3.26341 5.73223 3.73225C5.26339 4.20109 5 4.83698 5 5.50002V18.5C5 19.1631 5.26339 19.7989 5.73223 20.2678C6.20107 20.7366 6.83696 21 7.5 21H16.5C17.163 21 17.7989 20.7366 18.2678 20.2678C18.7366 19.7989 19 19.1631 19 18.5Z" fill="#25280B"/>
</g>
<defs>
<clipPath id="clip0_327_5212">
<rect width="24" height="24" fill="white"/>
</clipPath>
</defs>
</svg>
