<svg width="24" height="24" viewBox="0 0 24 24" fill="none" xmlns="http://www.w3.org/2000/svg">
<path d="M21 10.2565V5.49951C20.9987 4.30644 20.5241 3.16262 19.6805 2.31899C18.8369 1.47537 17.6931 1.00084 16.5 0.999512H4.5C3.30693 1.00084 2.16311 1.47537 1.31948 2.31899C0.475854 3.16262 0.00132343 4.30644 0 5.49951L0 16.4995C0.00338218 17.3387 0.308182 18.1488 0.858852 18.782C1.40952 19.4153 2.1694 19.8296 3 19.9495V19.9995C3 20.7952 3.31607 21.5582 3.87868 22.1208C4.44129 22.6834 5.20435 22.9995 6 22.9995C6.79565 22.9995 7.55871 22.6834 8.12132 22.1208C8.68393 21.5582 9 20.7952 9 19.9995H15C15 20.7952 15.3161 21.5582 15.8787 22.1208C16.4413 22.6834 17.2044 22.9995 18 22.9995C18.7956 22.9995 19.5587 22.6834 20.1213 22.1208C20.6839 21.5582 21 20.7952 21 19.9995C21 19.9825 21 19.9665 21 19.9495C21.8306 19.8296 22.5905 19.4153 23.1411 18.782C23.6918 18.1488 23.9966 17.3387 24 16.4995V14.4995C23.9989 13.5692 23.71 12.6619 23.1729 11.9023C22.6358 11.1426 21.8768 10.5677 21 10.2565ZM3 5.99951H6V9.99951H3V5.99951ZM9 5.99951H12V16.9995H9V5.99951ZM15 5.99951H18V9.99951H15V5.99951ZM3 12.9995H6V16.9995H3.5C3.36739 16.9995 3.24021 16.9468 3.14645 16.8531C3.05268 16.7593 3 16.6321 3 16.4995V12.9995ZM21 16.4995C21 16.6321 20.9473 16.7593 20.8536 16.8531C20.7598 16.9468 20.6326 16.9995 20.5 16.9995H15V12.9995H19.5C19.8978 12.9995 20.2794 13.1575 20.5607 13.4389C20.842 13.7202 21 14.1017 21 14.4995V16.4995Z" fill="#25280B"/>
</svg>
