<svg width="24" height="24" viewBox="0 0 24 24" fill="none" xmlns="http://www.w3.org/2000/svg">
<g clip-path="url(#clip0_327_5381)">
<path d="M2.99801 9.99335C3.02537 6.13004 6.17941 3.02035 10.0428 3.04776C13.4585 3.07198 16.3573 5.55953 16.8998 8.93205L19.9867 10.0533C19.9867 10.0333 19.9867 10.0134 19.9867 9.99335C19.9867 4.4742 15.5125 0 9.99335 0C4.47415 0 0 4.4742 0 9.99335C0 15.5125 4.4742 19.9867 9.99335 19.9867C10.0143 19.9867 10.0333 19.9867 10.0543 19.9867L8.93304 16.8997C5.52201 16.3767 3.00204 13.4443 2.99801 9.99335Z" fill="#25280B"/>
<path d="M13.5578 8.06948C13.7287 8.06948 13.8975 8.09848 14.0674 8.11445C13.0348 5.85995 10.3699 4.86944 8.11543 5.90211C5.86093 6.93478 4.87041 9.59959 5.90309 11.8541C6.34909 12.8277 7.12838 13.6099 8.1004 14.0595C7.82772 11.0362 10.0575 8.36432 13.0808 8.09169C13.2394 8.07735 13.3985 8.06995 13.5578 8.06948Z" fill="#25280B"/>
<path d="M23.5423 21.4224L20.899 18.7791L22.5639 17.1142C23.5948 16.0838 23.5951 14.4127 22.5646 13.3818C22.2918 13.1088 21.9623 12.8989 21.5995 12.7671L14.7661 10.2828C12.9506 9.62272 10.9438 10.5593 10.2838 12.3748C10.003 13.1471 10.0031 13.9936 10.284 14.7658L12.7684 21.5993C13.0747 22.4484 13.7954 23.0808 14.6772 23.2742C14.8668 23.3162 15.0605 23.3376 15.2548 23.3381C15.953 23.3375 16.6223 23.0588 17.1145 22.5636L18.7794 20.8987L21.4227 23.542C21.9978 24.1375 22.9468 24.154 23.5423 23.5788C24.1377 23.0037 24.1542 22.0547 23.5791 21.4592C23.567 21.4467 23.5547 21.4344 23.5423 21.4224ZM15.3896 20.0463L13.1012 13.7415C13.0289 13.5595 13.0753 13.3518 13.2181 13.2178C13.3509 13.0729 13.56 13.0262 13.7418 13.1009L20.0466 15.3893L15.3896 20.0463Z" fill="#25280B"/>
</g>
<defs>
<clipPath id="clip0_327_5381">
<rect width="24" height="24" fill="white"/>
</clipPath>
</defs>
</svg>
