<svg width="24" height="24" viewBox="0 0 24 24" fill="none" xmlns="http://www.w3.org/2000/svg">
<g clip-path="url(#clip0_327_5156)">
<path d="M18.4999 0H12.9999C12.6021 0 12.2205 0.158035 11.9392 0.43934C11.6579 0.720644 11.4999 1.10218 11.4999 1.5C11.4999 1.89782 11.6579 2.27936 11.9392 2.56066C12.2205 2.84196 12.6021 3 12.9999 3H18.4999C18.6152 3.00348 18.7302 3.01518 18.8439 3.035L0.443875 21.435C0.16248 21.7164 0.00439453 22.098 0.00439453 22.496C0.00439453 22.894 0.16248 23.2756 0.443875 23.557C0.72527 23.8384 1.10692 23.9965 1.50488 23.9965C1.90283 23.9965 2.28448 23.8384 2.56588 23.557L20.9659 5.157C20.9853 5.27038 20.9967 5.38501 20.9999 5.5V11C20.9999 11.3978 21.1579 11.7794 21.4392 12.0607C21.7205 12.342 22.1021 12.5 22.4999 12.5C22.8977 12.5 23.2792 12.342 23.5605 12.0607C23.8418 11.7794 23.9999 11.3978 23.9999 11V5.5C23.998 4.04188 23.418 2.64401 22.3869 1.61296C21.3559 0.58191 19.958 0.00185226 18.4999 0V0Z" fill="#25280B"/>
<path d="M6.5 11C7.39002 11 8.26004 10.7361 9.00007 10.2416C9.74009 9.74715 10.3169 9.04434 10.6575 8.22208C10.9981 7.39981 11.0872 6.49501 10.9135 5.6221C10.7399 4.74918 10.3113 3.94736 9.68198 3.31802C9.05264 2.68868 8.25082 2.2601 7.37791 2.08647C6.50499 1.91283 5.60019 2.00195 4.77792 2.34254C3.95566 2.68314 3.25285 3.25991 2.75839 3.99994C2.26392 4.73996 2 5.60999 2 6.5C2.00132 7.69307 2.47585 8.83689 3.31948 9.68052C4.16311 10.5241 5.30693 10.9987 6.5 11ZM6.5 5C6.79667 5 7.08668 5.08798 7.33336 5.2528C7.58003 5.41762 7.77229 5.65189 7.88582 5.92598C7.99935 6.20007 8.02906 6.50167 7.97118 6.79264C7.9133 7.08361 7.77044 7.35088 7.56066 7.56066C7.35088 7.77044 7.08361 7.9133 6.79264 7.97118C6.50166 8.02906 6.20006 7.99935 5.92597 7.88582C5.65189 7.77229 5.41762 7.58003 5.2528 7.33336C5.08797 7.08668 5 6.79667 5 6.5C5 6.10218 5.15804 5.72065 5.43934 5.43934C5.72064 5.15804 6.10218 5 6.5 5Z" fill="#25280B"/>
<path d="M17.5 13C16.61 13 15.74 13.2639 14.9999 13.7584C14.2599 14.2529 13.6831 14.9557 13.3425 15.7779C13.0019 16.6002 12.9128 17.505 13.0865 18.3779C13.2601 19.2508 13.6887 20.0526 14.318 20.682C14.9474 21.3113 15.7492 21.7399 16.6221 21.9135C17.495 22.0872 18.3998 21.998 19.2221 21.6574C20.0443 21.3169 20.7472 20.7401 21.2416 20.0001C21.7361 19.26 22 18.39 22 17.5C21.9987 16.3069 21.5241 15.1631 20.6805 14.3195C19.8369 13.4759 18.6931 13.0013 17.5 13ZM17.5 19C17.2033 19 16.9133 18.912 16.6666 18.7472C16.42 18.5824 16.2277 18.3481 16.1142 18.074C16.0007 17.7999 15.9709 17.4983 16.0288 17.2074C16.0867 16.9164 16.2296 16.6491 16.4393 16.4393C16.6491 16.2296 16.9164 16.0867 17.2074 16.0288C17.4983 15.9709 17.7999 16.0006 18.074 16.1142C18.3481 16.2277 18.5824 16.42 18.7472 16.6666C18.912 16.9133 19 17.2033 19 17.5C19 17.8978 18.842 18.2793 18.5607 18.5607C18.2794 18.842 17.8978 19 17.5 19Z" fill="#25280B"/>
</g>
<defs>
<clipPath id="clip0_327_5156">
<rect width="24" height="24" fill="white"/>
</clipPath>
</defs>
</svg>
