<svg width="24" height="24" viewBox="0 0 24 24" fill="none" xmlns="http://www.w3.org/2000/svg">
<g clip-path="url(#clip0_327_4957)">
<path d="M18.556 11.3851H14.011C13.8283 11.3857 13.6471 11.3503 13.4781 11.2808C13.3091 11.2112 13.1554 11.109 13.026 10.98C12.8966 10.8509 12.7939 10.6975 12.7239 10.5287C12.6539 10.3599 12.6179 10.1789 12.618 9.99607V5.43307C12.6193 4.90775 12.5 4.38915 12.2692 3.91723C12.0384 3.44531 11.7024 3.03266 11.287 2.71107C10.8901 2.39812 10.4267 2.18032 9.93251 2.0744C9.43828 1.96848 8.92635 1.97726 8.43604 2.10007C6.52742 2.57515 4.77911 3.54831 3.36965 4.92015C1.9602 6.29199 0.94012 8.01335 0.413604 9.90842C-0.112913 11.8035 -0.126998 13.8044 0.372786 15.7066C0.87257 17.6089 1.86831 19.3445 3.25831 20.736C4.64831 22.1276 6.38276 23.1253 8.28449 23.6272C10.1862 24.1291 12.1871 24.1172 14.0828 23.5928C15.9784 23.0684 17.7009 22.0502 19.0743 20.6423C20.4477 19.2344 21.4228 17.4872 21.9 15.5791C22.024 15.0878 22.0334 14.5746 21.9276 14.0791C21.8219 13.5836 21.6037 13.119 21.29 12.7211C20.9648 12.3064 20.5498 11.9708 20.0763 11.7394C19.6028 11.508 19.083 11.3869 18.556 11.3851ZM18.989 14.8441C18.6424 16.2391 17.9314 17.5171 16.9288 18.5472C15.9261 19.5773 14.6679 20.3226 13.2827 20.7069C11.8975 21.0911 10.4351 21.1005 9.0451 20.7341C7.65509 20.3677 6.38735 19.6387 5.37156 18.6215C4.35577 17.6044 3.62839 16.3357 3.26383 14.9452C2.89927 13.5547 2.91061 12.0923 3.29669 10.7076C3.68277 9.32297 4.42973 8.0657 5.46117 7.06444C6.49261 6.06318 7.77151 5.35387 9.16704 5.00907C9.19059 5.00317 9.21476 5.00015 9.23904 5.00007C9.3124 5.00285 9.38276 5.02993 9.43904 5.07707C9.49305 5.11954 9.53689 5.17355 9.56734 5.23515C9.59779 5.29674 9.61409 5.36437 9.61504 5.43307V9.99407C9.61491 10.5709 9.72847 11.142 9.94923 11.6749C10.17 12.2078 10.4936 12.6919 10.9016 13.0996C11.3096 13.5073 11.794 13.8306 12.327 14.051C12.86 14.2714 13.4312 14.3846 14.008 14.3841H18.553C18.6235 14.3846 18.693 14.401 18.7562 14.4322C18.8194 14.4634 18.8747 14.5085 18.918 14.5641C18.9516 14.6015 18.9757 14.6466 18.988 14.6953C19.0004 14.7441 19.0007 14.7951 18.989 14.8441Z" fill="#25280B"/>
<path d="M23.6513 7.44593C23.1909 5.7534 22.2965 4.21043 21.0567 2.96971C19.8168 1.72899 18.2745 0.833523 16.5823 0.371932C16.2835 0.287279 15.9692 0.272862 15.6639 0.329806C15.3587 0.38675 15.0707 0.513513 14.8226 0.700189C14.5744 0.886865 14.3728 1.1284 14.2334 1.40591C14.0941 1.68342 14.0208 1.9894 14.0193 2.29993V6.99993C14.0193 7.79558 14.3354 8.55864 14.898 9.12125C15.4606 9.68386 16.2236 9.99993 17.0193 9.99993H21.7383C22.047 9.99696 22.3508 9.92287 22.6262 9.78341C22.9015 9.64395 23.1411 9.44288 23.3261 9.19582C23.5112 8.94876 23.6368 8.66236 23.6932 8.35887C23.7496 8.05538 23.7352 7.74298 23.6513 7.44593Z" fill="#25280B"/>
</g>
<defs>
<clipPath id="clip0_327_4957">
<rect width="24" height="24" fill="white"/>
</clipPath>
</defs>
</svg>
