<svg width="24" height="24" viewBox="0 0 24 24" fill="none" xmlns="http://www.w3.org/2000/svg">
<g clip-path="url(#clip0_327_5659)">
<path d="M12 0C9.62663 0 7.30655 0.703788 5.33316 2.02236C3.35977 3.34094 1.8217 5.21509 0.913451 7.4078C0.00519943 9.60051 -0.232441 12.0133 0.230582 14.3411C0.693605 16.6689 1.83649 18.8071 3.51472 20.4853C5.19295 22.1635 7.33115 23.3064 9.65892 23.7694C11.9867 24.2324 14.3995 23.9948 16.5922 23.0866C18.7849 22.1783 20.6591 20.6402 21.9776 18.6668C23.2962 16.6935 24 14.3734 24 12C23.9966 8.81846 22.7312 5.76821 20.4815 3.51852C18.2318 1.26883 15.1815 0.00344108 12 0V0ZM12 21C10.22 21 8.47992 20.4722 6.99987 19.4832C5.51983 18.4943 4.36628 17.0887 3.68509 15.4442C3.0039 13.7996 2.82567 11.99 3.17294 10.2442C3.5202 8.49836 4.37737 6.89471 5.63604 5.63604C6.89472 4.37737 8.49836 3.5202 10.2442 3.17293C11.99 2.82567 13.7996 3.0039 15.4442 3.68508C17.0887 4.36627 18.4943 5.51983 19.4832 6.99987C20.4722 8.47991 21 10.22 21 12C20.9971 14.3861 20.0479 16.6736 18.3608 18.3607C16.6736 20.0479 14.3861 20.9971 12 21Z" fill="#25280B"/>
<path d="M11.9998 6.99951C11.0109 6.99951 10.0442 7.29276 9.22191 7.84216C8.39966 8.39157 7.7588 9.17246 7.38036 10.0861C7.00192 10.9997 6.90291 12.0051 7.09583 12.975C7.28876 13.9449 7.76496 14.8358 8.46422 15.535C9.16349 16.2343 10.0544 16.7105 11.0243 16.9034C11.9942 17.0964 12.9995 16.9973 13.9132 16.6189C14.8268 16.2405 15.6077 15.5996 16.1571 14.7774C16.7065 13.9551 16.9998 12.9884 16.9998 11.9995C16.9982 10.6739 16.4709 9.40307 15.5335 8.46573C14.5962 7.52839 13.3254 7.0011 11.9998 6.99951ZM11.9998 13.9995C11.6042 13.9995 11.2175 13.8822 10.8886 13.6625C10.5597 13.4427 10.3034 13.1303 10.152 12.7649C10.0006 12.3994 9.96102 11.9973 10.0382 11.6093C10.1154 11.2214 10.3058 10.865 10.5855 10.5853C10.8652 10.3056 11.2216 10.1151 11.6096 10.0379C11.9975 9.96077 12.3997 10.0004 12.7651 10.1518C13.1306 10.3031 13.4429 10.5595 13.6627 10.8884C13.8825 11.2173 13.9998 11.6039 13.9998 11.9995C13.9998 12.5299 13.789 13.0387 13.414 13.4137C13.0389 13.7888 12.5302 13.9995 11.9998 13.9995Z" fill="#25280B"/>
</g>
<defs>
<clipPath id="clip0_327_5659">
<rect width="24" height="24" fill="white"/>
</clipPath>
</defs>
</svg>
