<svg width="24" height="24" viewBox="0 0 24 24" fill="none" xmlns="http://www.w3.org/2000/svg">
<g clip-path="url(#clip0_327_4928)">
<path d="M20.6999 14.025C20.0332 13.3898 19.1477 13.0355 18.2269 13.0355C17.306 13.0355 16.4205 13.3898 15.7539 14.025L15.3449 14.425C12.7889 13.2598 10.7426 11.2068 9.58588 8.647L9.97488 8.253C10.6192 7.60068 10.9838 6.72279 10.9911 5.80592C10.9983 4.88905 10.6478 4.00548 10.0139 3.343L7.86088 1.025C7.21171 0.376101 6.33361 0.00818426 5.41577 0.000515313C4.49793 -0.00715363 3.61381 0.346039 2.95388 0.984C2.95388 0.984 1.88789 1.914 1.86289 1.938C-6.03711 10.206 13.7849 30.038 22.0629 22.138C22.0869 22.113 23.0169 21.047 23.0169 21.047C23.6575 20.3781 24.0084 19.4834 23.9932 18.5573C23.9781 17.6313 23.5981 16.7485 22.9359 16.101L20.6999 14.025ZM20.8569 18.967C20.8319 18.991 19.9079 20.05 19.9079 20.05C14.6549 24.774 -0.911112 10.126 3.94988 4.1C3.94988 4.1 5.00888 3.176 5.03288 3.151C5.1196 3.06296 5.23585 3.01016 5.3592 3.00277C5.48256 2.99539 5.60428 3.03394 5.70088 3.111L7.85388 5.424C7.90317 5.46999 7.94231 5.52576 7.9688 5.58775C7.99528 5.64974 8.00853 5.71658 8.00768 5.78399C8.00683 5.8514 7.99191 5.91788 7.96388 5.97919C7.93584 6.04049 7.89531 6.09527 7.84488 6.14L6.73588 7.266C6.53133 7.4741 6.39191 7.73735 6.33472 8.0235C6.27753 8.30964 6.30504 8.60626 6.41388 8.877C7.15906 10.8719 8.32445 12.6833 9.83104 14.1883C11.3376 15.6934 13.1502 16.8569 15.1459 17.6C15.4145 17.7027 15.7071 17.7261 15.9886 17.6672C16.2702 17.6083 16.5289 17.4698 16.7339 17.268L17.8679 16.15C18.1579 15.936 18.3089 15.938 18.6159 16.19L20.8539 18.264C20.9464 18.3576 20.9983 18.4839 20.9983 18.6155C20.9983 18.7471 20.9464 18.8734 20.8539 18.967H20.8569ZM23.9999 1V5.474C23.9998 5.67175 23.9411 5.86505 23.8313 6.02946C23.7214 6.19387 23.5652 6.32201 23.3825 6.39768C23.1998 6.47335 22.9988 6.49315 22.8048 6.45458C22.6109 6.41602 22.4327 6.32081 22.2929 6.181L21.1269 5.015L17.5579 8.563C17.2743 8.83564 16.8951 8.986 16.5017 8.98169C16.1084 8.97738 15.7325 8.81873 15.455 8.53994C15.1775 8.26114 15.0207 7.8845 15.0182 7.49116C15.0157 7.09782 15.1679 6.71924 15.4419 6.437L19.0059 2.894L17.8189 1.707C17.6791 1.56715 17.5839 1.38898 17.5453 1.19503C17.5067 1.00108 17.5265 0.800045 17.6022 0.617345C17.6779 0.434646 17.806 0.278483 17.9704 0.168598C18.1348 0.0587141 18.3281 4.22243e-05 18.5259 0L22.9999 0C23.2651 0 23.5194 0.105357 23.707 0.292893C23.8945 0.48043 23.9999 0.734784 23.9999 1Z" fill="#25280B"/>
</g>
<defs>
<clipPath id="clip0_327_4928">
<rect width="24" height="24" fill="white"/>
</clipPath>
</defs>
</svg>
