<svg width="24" height="24" viewBox="0 0 24 24" fill="none" xmlns="http://www.w3.org/2000/svg">
<g clip-path="url(#clip0_327_5181)">
<path d="M12 0C5.37258 0 0 5.37258 0 12C0 18.6274 5.37258 24 12 24C18.6274 24 24 18.6274 24 12C23.9928 5.37553 18.6245 0.00717187 12 0ZM12 21C7.02942 21 3 16.9706 3 12C3 7.02942 7.02942 3 12 3C16.9706 3 21 7.02942 21 12C20.9945 16.9683 16.9683 20.9945 12 21Z" fill="#25280B"/>
<path d="M12 15.0913C12.8284 15.0913 13.5 14.4197 13.5 13.5913V6.59131C13.5 5.76289 12.8284 5.09131 12 5.09131C11.1716 5.09131 10.5 5.76289 10.5 6.59131V13.5913C10.5 14.4197 11.1716 15.0913 12 15.0913Z" fill="#25280B"/>
<path d="M12.0051 19C12.8336 19 13.5051 18.3284 13.5051 17.5C13.5051 16.6716 12.8336 16 12.0051 16C11.1767 16 10.5051 16.6716 10.5051 17.5C10.5051 18.3284 11.1767 19 12.0051 19Z" fill="#25280B"/>
</g>
<defs>
<clipPath id="clip0_327_5181">
<rect width="24" height="24" fill="white"/>
</clipPath>
</defs>
</svg>
