<svg width="24" height="24" viewBox="0 0 24 24" fill="none" xmlns="http://www.w3.org/2000/svg">
<g clip-path="url(#clip0_327_5173)">
<path d="M22.306 7.82687L15.761 1.55687C14.7672 0.563344 13.4206 0.00346732 12.0153 -0.000467402C10.6101 -0.00440212 9.26036 0.547925 8.261 1.53587L1.694 7.82687C1.15939 8.34148 0.733888 8.95847 0.442849 9.64105C0.151811 10.3236 0.00120109 11.0578 0 11.7999L0 18.4999C0.00158817 19.9581 0.581561 21.3561 1.61267 22.3872C2.64377 23.4183 4.0418 23.9983 5.5 23.9999H18.5C19.9582 23.9983 21.3562 23.4183 22.3873 22.3872C23.4184 21.3561 23.9984 19.9581 24 18.4999V11.7999C23.9988 11.0578 23.8482 10.3236 23.5571 9.64105C23.2661 8.95847 22.8406 8.34148 22.306 7.82687ZM10.36 3.67987C10.5778 3.46403 10.836 3.29331 11.1199 3.17751C11.4038 3.06171 11.7078 3.0031 12.0144 3.00505C12.321 3.007 12.6242 3.06947 12.9066 3.18888C13.189 3.30828 13.445 3.48228 13.66 3.70087L19.042 8.85687L13.766 14.2679C13.2897 14.7227 12.6565 14.9764 11.998 14.9764C11.3395 14.9764 10.7063 14.7227 10.23 14.2679L4.887 8.92287L10.36 3.67987ZM21 18.4999C21 19.1629 20.7366 19.7988 20.2678 20.2676C19.7989 20.7365 19.163 20.9999 18.5 20.9999H5.5C4.83696 20.9999 4.20107 20.7365 3.73223 20.2676C3.26339 19.7988 3 19.1629 3 18.4999V11.7999C3.0007 11.641 3.01711 11.4825 3.049 11.3269L8.111 16.3899C9.1478 17.4177 10.5493 17.9932 12.0092 17.9908C13.4691 17.9884 14.8686 17.4081 15.902 16.3769L20.926 11.2259C20.9732 11.4136 20.9981 11.6063 21 11.7999V18.4999Z" fill="#25280B"/>
</g>
<defs>
<clipPath id="clip0_327_5173">
<rect width="24" height="24" fill="white"/>
</clipPath>
</defs>
</svg>
