<svg width="24" height="24" viewBox="0 0 24 24" fill="none" xmlns="http://www.w3.org/2000/svg">
<g clip-path="url(#clip0_327_5247)">
<path d="M23.9999 11.6001C24.0123 10.3799 23.3991 9.23842 22.3749 8.57509C22.9437 6.95767 23.1535 5.23581 22.9899 3.52909C22.9742 2.72424 22.5855 1.97232 21.9379 1.4941C21.3178 1.03131 20.5176 0.883463 19.7729 1.09407C18.2154 1.53788 16.7563 2.27321 15.473 3.26106C15.0494 2.44567 14.5566 1.6681 14 0.937041C13.143 -0.139912 11.5753 -0.318271 10.4983 0.538697C10.3509 0.656025 10.2172 0.789666 10.1 0.937041C9.53141 1.68329 9.02952 2.47801 8.59996 3.31206C7.29745 2.29688 5.81076 1.54337 4.22198 1.09304C3.47892 0.883791 2.68082 1.03159 2.06198 1.49303C1.41403 1.97143 1.02524 2.72382 1.00996 3.52904C0.846041 5.23557 1.05524 6.95739 1.62295 8.57504C0.599666 9.23898 -0.0126625 10.3803 -5.31057e-05 11.6001C-5.31057e-05 16.5331 7.33996 19.6661 9.99993 20.6391C9.70748 20.9037 9.45187 21.2064 9.23995 21.5391C8.92593 22.0342 8.92204 22.6651 9.22996 23.1641C9.55537 23.6876 10.1296 24.0042 10.7459 24.0001H13.2539C13.8722 24.0037 14.4476 23.6845 14.7719 23.1581C15.0798 22.6592 15.0759 22.0282 14.762 21.5331C14.6414 21.3441 14.5049 21.1658 14.354 21.0001H16.4999C17.3284 21.0001 17.9999 21.6716 17.9999 22.5001C17.9999 23.3285 18.6715 24.0001 19.4999 24.0001C20.3284 24.0001 20.9999 23.3285 20.9999 22.5001C20.9942 20.8203 20.0507 19.2845 18.5549 18.52C21.2819 16.9321 23.9999 14.6001 23.9999 11.6001ZM17.1826 5.80032C17.2124 5.75565 17.2799 5.67503 17.2799 5.67503C18.0771 4.99642 19.0019 4.48403 20 4.16804C20.0972 5.25662 19.9654 6.35349 19.613 7.38803C19.3876 7.7057 19.0401 7.91513 18.6539 7.96604C18.2626 8.0236 17.8648 7.91767 17.5539 7.67303C16.9342 7.25846 16.768 6.42001 17.1826 5.80032ZM12.0509 3.35307C12.7353 4.30417 13.2434 5.37043 13.5509 6.50106C13.5509 7.32948 12.8794 8.00106 12.0509 8.00106C11.2225 8.00106 10.5509 7.32948 10.5509 6.50106C10.8591 5.37062 11.3671 4.30449 12.0509 3.35307ZM3.96852 4.16804C4.96659 4.48407 5.89138 4.99642 6.68854 5.67503C6.68854 5.67503 6.75604 5.75565 6.7859 5.80032C7.20046 6.42001 7.0342 7.25846 6.41451 7.67303C6.10363 7.91762 5.70585 8.0236 5.31449 7.96604C4.92834 7.91518 4.58085 7.7057 4.35548 7.38803C4.00307 6.35354 3.87121 5.25662 3.96852 4.16804ZM20.9999 11.6001C20.9999 13.5351 18.0759 15.4931 15.3459 16.8061C15.6385 16.1467 15.8513 15.4548 15.9799 14.7451C16.1152 13.9277 15.5623 13.1554 14.7449 13.0201C13.9275 12.8847 13.1552 13.4377 13.0199 14.2551C12.827 15.135 12.4909 15.9772 12.0249 16.7481C11.5551 15.942 11.1981 15.0752 10.9639 14.1721C10.7827 13.3635 9.98043 12.8549 9.17188 13.036C8.36334 13.2172 7.85474 14.0195 8.03587 14.828C8.19867 15.5177 8.42737 16.1901 8.71888 16.836C5.97093 15.523 2.99995 13.5501 2.99995 11.6001C2.98781 11.2811 3.23652 11.0126 3.55551 11.0005C3.56432 11.0002 3.57313 11 3.58195 11.0001H20.4179C20.7372 10.9976 20.9979 11.2544 21.0004 11.5736C21.0004 11.5824 21.0003 11.5913 20.9999 11.6001Z" fill="#25280B"/>
</g>
<defs>
<clipPath id="clip0_327_5247">
<rect width="24" height="24" fill="white"/>
</clipPath>
</defs>
</svg>
