<svg width="24" height="24" viewBox="0 0 24 24" fill="none" xmlns="http://www.w3.org/2000/svg">
<g clip-path="url(#clip0_327_5410)">
<path d="M20.214 4.39234L12.734 0.192343C12.5098 0.0665529 12.2571 0.000488281 12 0.000488281C11.7429 0.000488281 11.4902 0.0665529 11.266 0.192343L3.786 4.39234C3.24464 4.69701 2.79398 5.14007 2.48015 5.67617C2.16633 6.21227 2.00062 6.82214 2 7.44334V17.5003C2.00212 19.2236 2.68762 20.8757 3.90614 22.0942C5.12467 23.3127 6.77674 23.9982 8.5 24.0003H15.5C17.2233 23.9982 18.8753 23.3127 20.0939 22.0942C21.3124 20.8757 21.9979 19.2236 22 17.5003V7.44334C21.9993 6.82216 21.8335 6.21233 21.5197 5.67625C21.2059 5.14017 20.7553 4.69708 20.214 4.39234ZM19 17.5003C19 18.4286 18.6313 19.3188 17.9749 19.9752C17.3185 20.6316 16.4283 21.0003 15.5 21.0003H8.5C7.57174 21.0003 6.6815 20.6316 6.02513 19.9752C5.36875 19.3188 5 18.4286 5 17.5003V7.44334C4.99998 7.35458 5.02358 7.2674 5.0684 7.19078C5.11321 7.11415 5.17762 7.05084 5.255 7.00734L12 3.22134L18.744 7.00734C18.8216 7.05071 18.8862 7.11397 18.9312 7.1906C18.9762 7.26723 18.9999 7.35448 19 7.44334V17.5003Z" fill="#25280B"/>
<path d="M12 11.0005C13.1046 11.0005 14 10.1051 14 9.00048C14 7.89592 13.1046 7.00049 12 7.00049C10.8954 7.00049 10 7.89592 10 9.00048C10 10.1051 10.8954 11.0005 12 11.0005Z" fill="#25280B"/>
</g>
<defs>
<clipPath id="clip0_327_5410">
<rect width="24" height="24" fill="white"/>
</clipPath>
</defs>
</svg>
