<svg width="24" height="24" viewBox="0 0 24 24" fill="none" xmlns="http://www.w3.org/2000/svg">
<g clip-path="url(#clip0_327_5688)">
<path d="M1.1559 3.16656L1.6559 4.16656C1.84271 4.50512 2.15304 4.75846 2.52214 4.87371C2.89124 4.98897 3.29059 4.95723 3.63685 4.78513C3.98312 4.61303 4.24955 4.31386 4.38054 3.95005C4.51154 3.58624 4.49698 3.1859 4.3399 2.83256L3.8399 1.83256C3.75768 1.64761 3.63888 1.48121 3.49065 1.34339C3.34242 1.20556 3.16783 1.09916 2.97739 1.03059C2.78696 0.962023 2.58462 0.932704 2.38255 0.944402C2.18048 0.956099 1.98287 1.00857 1.80162 1.09866C1.62037 1.18874 1.45923 1.31458 1.32789 1.46859C1.19656 1.6226 1.09775 1.80159 1.03742 1.9948C0.977091 2.188 0.956486 2.39142 0.976848 2.59279C0.99721 2.79417 1.05812 2.98934 1.1559 3.16656Z" fill="#25280B"/>
<path d="M11.1611 1.82438L10.6611 2.82438C10.5664 3.0008 10.5081 3.19437 10.4894 3.39369C10.4708 3.59301 10.4922 3.79405 10.5525 3.98496C10.6127 4.17586 10.7106 4.35278 10.8403 4.50527C10.97 4.65776 11.1289 4.78275 11.3077 4.87286C11.4865 4.96298 11.6814 5.0164 11.8812 5.02998C12.0809 5.04355 12.2813 5.01701 12.4706 4.95192C12.66 4.88682 12.8343 4.78449 12.9835 4.65096C13.1326 4.51742 13.2535 4.35538 13.3391 4.17438L13.8391 3.17438C13.9337 2.99797 13.9921 2.8044 14.0107 2.60507C14.0294 2.40575 14.0079 2.20471 13.9477 2.01381C13.8874 1.8229 13.7895 1.64599 13.6598 1.49349C13.5301 1.341 13.3712 1.21601 13.1924 1.1259C13.0137 1.03578 12.8187 0.982363 12.619 0.968786C12.4192 0.955209 12.2188 0.981749 12.0295 1.04684C11.8402 1.11194 11.6658 1.21427 11.5167 1.34781C11.3675 1.48134 11.2466 1.64339 11.1611 1.82438Z" fill="#25280B"/>
<path d="M6 1.5V2.5C6 2.89782 6.15804 3.27936 6.43934 3.56066C6.72064 3.84196 7.10218 4 7.5 4C7.89782 4 8.27936 3.84196 8.56066 3.56066C8.84196 3.27936 9 2.89782 9 2.5V1.5C9 1.10218 8.84196 0.720644 8.56066 0.43934C8.27936 0.158035 7.89782 0 7.5 0C7.10218 0 6.72064 0.158035 6.43934 0.43934C6.15804 0.720644 6 1.10218 6 1.5Z" fill="#25280B"/>
<path d="M15.9999 7.99983C14.1427 7.99803 12.3433 8.64535 10.9129 9.82983C10.4972 9.6148 10.0619 9.44 9.61292 9.30783L10.3489 7.83483C10.5456 7.43981 10.584 6.98455 10.4561 6.5622C10.3282 6.13985 10.0437 5.78234 9.66092 5.56283C9.00375 5.18566 8.25759 4.99126 7.49992 4.99983C6.68871 4.98992 5.89186 5.21422 5.20492 5.64583C4.86024 5.87784 4.61305 6.22863 4.5105 6.63126C4.40795 7.0339 4.45722 7.4602 4.64892 7.82883L5.38892 9.30783C4.3482 9.6097 3.38526 10.1335 2.56637 10.8432C1.74749 11.5529 1.09211 12.4316 0.645353 13.4188C0.198597 14.406 -0.0289263 15.4784 -0.021555 16.5619C-0.0141837 17.6455 0.227907 18.7147 0.688053 19.6957C1.1482 20.6768 1.81547 21.5465 2.64394 22.245C3.4724 22.9434 4.44238 23.4541 5.48711 23.7418C6.53184 24.0295 7.6265 24.0874 8.69574 23.9114C9.76499 23.7355 10.7834 23.33 11.6809 22.7228C12.7267 23.3973 13.9155 23.8185 15.1526 23.953C16.3898 24.0874 17.6413 23.9314 18.8075 23.4973C19.9738 23.0632 21.0227 22.363 21.8709 21.4524C22.7191 20.5418 23.3432 19.4458 23.6935 18.2517C24.0438 17.0576 24.1106 15.7982 23.8888 14.5737C23.667 13.3492 23.1625 12.1933 22.4156 11.198C21.6686 10.2026 20.6997 9.39527 19.586 8.84008C18.4723 8.28489 17.2444 7.99718 15.9999 7.99983ZM2.99992 16.4998C3.00125 15.3068 3.47578 14.1629 4.3194 13.3193C5.16303 12.4757 6.30685 12.0011 7.49992 11.9998C7.9891 12.0054 8.47398 12.0919 8.93492 12.2558C8.24563 13.5495 7.92691 15.0084 8.0139 16.4717C8.10089 17.935 8.59021 19.3459 9.42792 20.5488C8.82732 20.8421 8.16832 20.9963 7.49992 20.9998C6.30685 20.9985 5.16303 20.524 4.3194 19.6803C3.47578 18.8367 3.00125 17.6929 2.99992 16.4998ZM15.9999 20.9998C15.2504 20.9959 14.5117 20.8211 13.8399 20.4888C14.6777 19.1682 15.079 17.6175 14.9871 16.0562C14.8953 14.495 14.3148 13.0021 13.3279 11.7888C13.9824 11.373 14.7247 11.1153 15.496 11.036C16.2674 10.9567 17.0466 11.0581 17.7719 11.3322C18.4973 11.6062 19.1489 12.0454 19.6751 12.6149C20.2014 13.1843 20.5878 13.8685 20.8038 14.6132C21.0199 15.3579 21.0595 16.1427 20.9198 16.9054C20.78 17.6681 20.4645 18.3877 19.9984 19.0074C19.5323 19.6271 18.9283 20.1297 18.2343 20.4755C17.5403 20.8214 16.7753 21.0009 15.9999 20.9998Z" fill="#25280B"/>
</g>
<defs>
<clipPath id="clip0_327_5688">
<rect width="24" height="24" fill="white"/>
</clipPath>
</defs>
</svg>
