<svg width="24" height="24" viewBox="0 0 24 24" fill="none" xmlns="http://www.w3.org/2000/svg">
<g clip-path="url(#clip0_327_5324)">
<path d="M22.7999 5.98335L21.4669 4.65435L22.5609 3.56135C22.8423 3.27995 23.0003 2.8983 23.0003 2.50035C23.0003 2.10239 22.8423 1.72074 22.5609 1.43935C22.2795 1.15795 21.8978 0.999865 21.4999 0.999865C21.1019 0.999865 20.7203 1.15795 20.4389 1.43935L19.3459 2.53335L18.0169 1.20035C17.6349 0.818396 17.1815 0.515417 16.6824 0.308707C16.1834 0.101998 15.6485 -0.00439453 15.1084 -0.00439453C14.5682 -0.00439454 14.0333 0.101998 13.5343 0.308707C13.0352 0.515417 12.5818 0.818396 12.1999 1.20035C11.8179 1.5823 11.5149 2.03574 11.3082 2.53478C11.1015 3.03382 10.9951 3.56869 10.9951 4.10885C10.9951 4.649 11.1015 5.18387 11.3082 5.68292C11.5149 6.18196 11.8179 6.6354 12.1999 7.01735L13.5289 8.34635L8.34586 13.5333L7.01686 12.2003C6.63491 11.8184 6.18147 11.5154 5.68243 11.3087C5.18339 11.102 4.64852 10.9956 4.10836 10.9956C3.5682 10.9956 3.03333 11.102 2.53429 11.3087C2.03525 11.5154 1.58181 11.8184 1.19986 12.2003C0.428475 12.9717 -0.00488281 14.0179 -0.00488281 15.1088C-0.00488281 16.1997 0.428475 17.246 1.19986 18.0173L2.52886 19.3463L1.43886 20.4393C1.15746 20.7207 0.999377 21.1024 0.999377 21.5003C0.999377 21.8983 1.15746 22.28 1.43886 22.5613C1.72025 22.8427 2.10191 23.0008 2.49986 23.0008C2.89781 23.0008 3.27946 22.8427 3.56086 22.5613L4.65386 21.4673L5.98286 22.8003C6.75424 23.5717 7.80046 24.0051 8.89136 24.0051C9.98226 24.0051 11.0285 23.5717 11.7999 22.8003C12.5712 22.029 13.0046 20.9827 13.0046 19.8918C13.0046 18.8009 12.5712 17.7547 11.7999 16.9833L10.4709 15.6553L15.6589 10.4673L16.9829 11.8003C17.3648 12.1823 17.8182 12.4853 18.3173 12.692C18.8163 12.8987 19.3512 13.0051 19.8914 13.0051C20.4315 13.0051 20.9664 12.8987 21.4654 12.692C21.9645 12.4853 22.4179 12.1823 22.7999 11.8003C23.1818 11.4184 23.4848 10.965 23.6915 10.4659C23.8982 9.96687 24.0046 9.432 24.0046 8.89185C24.0046 8.35169 23.8982 7.81682 23.6915 7.31778C23.4848 6.81874 23.1818 6.3653 22.7999 5.98335ZM9.67486 20.6743C9.46307 20.876 9.18182 20.9885 8.88936 20.9885C8.5969 20.9885 8.31564 20.876 8.10386 20.6743L3.32486 15.9003C3.116 15.6915 2.99866 15.4082 2.99866 15.1128C2.99866 14.8175 3.116 14.5342 3.32486 14.3253C3.53372 14.1165 3.81699 13.9992 4.11236 13.9992C4.40773 13.9992 4.691 14.1165 4.89986 14.3253L9.67486 19.1003C9.88285 19.3087 9.99967 19.591 9.99967 19.8853C9.99967 20.1797 9.88285 20.462 9.67486 20.6703V20.6743ZM20.6749 9.67435C20.4631 9.87604 20.1818 9.98854 19.8894 9.98854C19.5969 9.98854 19.3156 9.87604 19.1039 9.67435L14.3249 4.90035C14.116 4.69149 13.9987 4.40822 13.9987 4.11285C13.9987 3.81748 14.116 3.5342 14.3249 3.32535C14.5337 3.11649 14.817 2.99915 15.1124 2.99915C15.4077 2.99915 15.691 3.11649 15.8999 3.32535L20.6749 8.10035C20.8828 8.30865 20.9997 8.59098 20.9997 8.88535C20.9997 9.17971 20.8828 9.46204 20.6749 9.67035V9.67435Z" fill="#25280B"/>
</g>
<defs>
<clipPath id="clip0_327_5324">
<rect width="24" height="24" fill="white"/>
</clipPath>
</defs>
</svg>
