<svg width="24" height="24" viewBox="0 0 24 24" fill="none" xmlns="http://www.w3.org/2000/svg">
<g clip-path="url(#clip0_327_5515)">
<path d="M18.4491 16.0001C17.7195 15.9982 16.9967 16.1413 16.3229 16.4211C15.6491 16.7009 15.0377 17.1119 14.5241 17.6301C12.2441 19.9151 9.00605 21.0301 4.62405 21.0301H3.52405C3.41952 21.0333 3.31661 21.0037 3.22978 20.9454C3.14296 20.8871 3.07661 20.8031 3.04005 20.7051C2.99629 20.6085 2.98385 20.5006 3.00447 20.3966C3.0251 20.2926 3.07775 20.1976 3.15505 20.1251L3.66605 19.6131C5.97737 19.464 8.1544 18.4749 9.78705 16.8321L13.6211 12.9841C13.6701 12.9841 13.7211 12.9961 13.7681 12.9981C13.8551 12.9981 13.9421 13.0041 14.0281 13.0041C15.6358 13.0023 17.1772 12.3629 18.3141 11.2261L19.2261 10.3131C19.8197 9.71654 20.2831 9.00324 20.5868 8.21833C20.8905 7.43341 21.0279 6.59399 20.9902 5.75322C20.9526 4.91245 20.7409 4.08865 20.3683 3.33398C19.9958 2.57931 19.4706 1.91021 18.8261 1.36907C17.6198 0.408635 16.0995 -0.0689319 14.5607 0.0292067C13.0219 0.127345 11.5745 0.794176 10.5001 1.90007L9.92205 2.48007C9.25703 3.14567 8.74636 3.94926 8.42616 4.834C8.10597 5.71873 7.98406 6.66302 8.06905 7.60007L4.32005 11.3561C2.68229 12.9941 1.69722 15.1725 1.54905 17.4841L1.03305 18.0001C0.540275 18.4937 0.204765 19.1222 0.0688716 19.8063C-0.0670219 20.4904 0.00279227 21.1994 0.269502 21.8439C0.536212 22.4884 0.987863 23.0394 1.56745 23.4274C2.14704 23.8154 2.82858 24.023 3.52605 24.0241H4.62605C9.84405 24.0241 13.7771 22.6241 16.6491 19.7461C16.8847 19.5085 17.1651 19.3201 17.4741 19.1917C17.7831 19.0633 18.1145 18.9975 18.4491 18.9981C19.127 18.9997 19.7766 19.2704 20.255 19.7509C20.7334 20.2313 21.0014 20.8821 21.0001 21.5601V22.5261C21.0001 22.9239 21.1581 23.3054 21.4394 23.5867C21.7207 23.868 22.1022 24.0261 22.5001 24.0261C22.8979 24.0261 23.2794 23.868 23.5607 23.5867C23.842 23.3054 24.0001 22.9239 24.0001 22.5261V21.5601C24.0001 20.087 23.4155 18.6742 22.3748 17.6317C21.334 16.5893 19.9221 16.0025 18.4491 16.0001ZM12.0411 4.60007L12.6181 4.02207C13.2543 3.37555 14.121 3.00797 15.0281 3.00007C15.7102 2.99269 16.3729 3.22763 16.8981 3.66307C17.2242 3.93692 17.49 4.27552 17.6785 4.65743C17.867 5.03934 17.9741 5.45623 17.9931 5.8817C18.0121 6.30717 17.9425 6.73195 17.7888 7.12913C17.6351 7.52631 17.4005 7.88725 17.1001 8.18907L16.1881 9.10307C15.8886 9.4036 15.5298 9.63831 15.1344 9.79215C14.7391 9.946 14.316 10.0156 13.8922 9.99648C13.4684 9.97737 13.0533 9.86998 12.6734 9.68118C12.2935 9.49238 11.9572 9.22633 11.6861 8.90007C11.2039 8.26596 10.9734 7.47589 11.0389 6.68199C11.1045 5.88809 11.4614 5.14651 12.0411 4.60007ZM6.44105 13.4801L9.26205 10.6491C9.30705 10.7071 9.33705 10.7721 9.38405 10.8281C9.71322 11.2179 10.0906 11.5643 10.5071 11.8591L7.66405 14.7101C6.85655 15.5229 5.84957 16.1091 4.74405 16.4101C5.04415 15.2998 5.63034 14.2878 6.44405 13.4751L6.44105 13.4801Z" fill="#25280B"/>
</g>
<defs>
<clipPath id="clip0_327_5515">
<rect width="24" height="24" fill="white"/>
</clipPath>
</defs>
</svg>
