<svg width="24" height="24" viewBox="0 0 24 24" fill="none" xmlns="http://www.w3.org/2000/svg">
<g clip-path="url(#clip0_327_6036)">
<path d="M22.5109 16.4635C22.3138 16.4636 22.1187 16.4249 21.9367 16.3496C21.7546 16.2742 21.5892 16.1638 21.4499 16.0245C20.1362 14.7133 18.3559 13.9769 16.4999 13.9769C14.6438 13.9769 12.8635 14.7133 11.5499 16.0245C11.2681 16.3058 10.8861 16.4636 10.4879 16.4632C10.0898 16.4628 9.70813 16.3043 9.42686 16.0225C9.1456 15.7407 8.9878 15.3587 8.98818 14.9606C8.98855 14.5625 9.14707 14.1808 9.42886 13.8995C11.3054 12.0264 13.8485 10.9744 16.4999 10.9744C19.1513 10.9744 21.6943 12.0264 23.5709 13.8995C23.7804 14.1093 23.923 14.3764 23.9808 14.6672C24.0386 14.958 24.0089 15.2594 23.8954 15.5334C23.782 15.8073 23.59 16.0415 23.3435 16.2063C23.0971 16.3711 22.8073 16.4593 22.5109 16.4595V16.4635ZM20.0349 19.5635C20.1743 19.4242 20.2848 19.2588 20.3603 19.0768C20.4357 18.8947 20.4745 18.6996 20.4745 18.5025C20.4745 18.3055 20.4357 18.1103 20.3603 17.9283C20.2848 17.7462 20.1743 17.5808 20.0349 17.4415C19.0972 16.5042 17.8257 15.9776 16.4999 15.9776C15.174 15.9776 13.9025 16.5042 12.9649 17.4415C12.8255 17.5808 12.715 17.7461 12.6396 17.9281C12.5641 18.1101 12.5253 18.3052 12.5252 18.5022C12.5252 18.6992 12.5639 18.8942 12.6393 19.0763C12.7146 19.2583 12.8251 19.4237 12.9644 19.563C13.2456 19.8444 13.6272 20.0025 14.025 20.0026C14.222 20.0027 14.4171 19.9639 14.5991 19.8886C14.7811 19.8132 14.9465 19.7028 15.0859 19.5635C15.4669 19.2001 15.9733 18.9974 16.4999 18.9974C17.0264 18.9974 17.5328 19.2001 17.9139 19.5635C18.1952 19.8447 18.5766 20.0027 18.9744 20.0027C19.3721 20.0027 19.7536 19.8447 20.0349 19.5635ZM16.4999 20.9995C16.2032 20.9995 15.9132 21.0875 15.6665 21.2523C15.4198 21.4171 15.2276 21.6514 15.114 21.9255C15.0005 22.1996 14.9708 22.5012 15.0287 22.7922C15.0866 23.0831 15.2294 23.3504 15.4392 23.5602C15.649 23.77 15.9163 23.9128 16.2072 23.9707C16.4982 24.0286 16.7998 23.9989 17.0739 23.8853C17.348 23.7718 17.5822 23.5795 17.7471 23.3329C17.9119 23.0862 17.9999 22.7962 17.9999 22.4995C17.9999 22.1017 17.8418 21.7202 17.5605 21.4389C17.2792 21.1576 16.8977 20.9995 16.4999 20.9995ZM10.4999 20.4995C10.4999 20.1017 10.3418 19.7202 10.0605 19.4389C9.77922 19.1576 9.39769 18.9995 8.99986 18.9995H5.96786C5.33225 19.0185 4.70777 18.8298 4.18899 18.4621C3.67022 18.0943 3.28541 17.5676 3.09286 16.9615C2.93666 16.3496 2.99477 15.7027 3.2575 15.1285C3.52024 14.5543 3.97176 14.0874 4.53686 13.8055C5.11504 13.4936 5.54612 12.9654 5.73578 12.3365C5.92544 11.7075 5.85823 11.029 5.54886 10.4495C5.0331 9.43115 4.87259 8.26959 5.09286 7.14951C5.28098 6.11298 5.78843 5.16118 6.5442 4.42729C7.29997 3.69339 8.26625 3.21412 9.30786 3.05651C9.99239 2.95301 10.6907 2.98708 11.3619 3.15672C12.0331 3.32637 12.6637 3.62819 13.2169 4.04451C13.7607 4.45313 14.2177 4.96602 14.5611 5.55323C14.9045 6.14043 15.1274 6.79018 15.2169 7.46451C15.2607 7.79075 15.4107 8.09349 15.6436 8.32607C15.8766 8.55865 16.1796 8.70815 16.5059 8.75151C17.2932 8.8543 18.0461 9.13767 18.7059 9.57951C19.0374 9.80017 19.443 9.8801 19.8334 9.80171C20.2239 9.72332 20.5672 9.49304 20.7879 9.16151C21.0085 8.82999 21.0885 8.42439 21.0101 8.03394C20.9317 7.64349 20.7014 7.30017 20.3699 7.07951C19.635 6.59406 18.8271 6.22944 17.9769 5.99951C17.5027 4.26434 16.4645 2.73635 15.0259 1.65651C14.1576 0.999343 13.1671 0.521991 12.1121 0.252407C11.0571 -0.0171775 9.95891 -0.0735756 8.88186 0.0865147C7.22165 0.332668 5.67988 1.09152 4.47213 2.25695C3.26438 3.42239 2.45105 4.93613 2.14586 6.58651C1.82859 8.21233 2.01741 9.89634 2.68686 11.4115C1.65814 12.063 0.862131 13.0234 0.413009 14.1552C-0.0361128 15.287 -0.115279 16.532 0.186864 17.7115C0.540227 18.9652 1.29943 20.0662 2.34555 20.8421C3.39167 21.6181 4.66563 22.0251 5.96786 21.9995H8.99986C9.39769 21.9995 9.77922 21.8415 10.0605 21.5602C10.3418 21.2789 10.4999 20.8973 10.4999 20.4995Z" fill="#25280B"/>
</g>
<defs>
<clipPath id="clip0_327_6036">
<rect width="24" height="24" fill="white"/>
</clipPath>
</defs>
</svg>
