<svg width="24" height="24" viewBox="0 0 24 24" fill="none" xmlns="http://www.w3.org/2000/svg">
<g clip-path="url(#clip0_327_5249)">
<path d="M23.263 14.7596C23.0087 14.4907 22.6963 14.2835 22.3497 14.1538C22.003 14.0242 21.6313 13.9755 21.263 14.0116C18.3676 14.1852 15.623 15.3612 13.5 17.3376V14.8186C14.922 14.4803 16.1886 13.6729 17.0957 12.5267C18.0028 11.3805 18.4974 9.9623 18.5 8.50061C18.5 5.52761 16.484 3.07061 14.513 1.05961C13.8417 0.402297 12.9395 0.0341797 12 0.0341797C11.0605 0.0341797 10.1583 0.402297 9.48699 1.05961C7.51599 3.07061 5.49999 5.52761 5.49999 8.50061C5.50253 9.9623 5.99721 11.3805 6.90429 12.5267C7.81137 13.6729 9.078 14.4803 10.5 14.8186V17.3376C8.37688 15.3614 5.6323 14.1855 2.73699 14.0116C2.36868 13.9759 1.99709 14.0247 1.65051 14.1544C1.30392 14.284 0.991485 14.491 0.736988 14.7596C0.465128 15.0515 0.262266 15.4007 0.143363 15.7815C0.0244608 16.1623 -0.00744875 16.5649 0.0499883 16.9596C0.860988 22.6326 6.64999 24.0676 10.609 24.0676C15.621 24.2106 22.709 23.9106 23.95 16.9596C24.0071 16.5649 23.9751 16.1623 23.8562 15.7816C23.7373 15.4009 23.5346 15.0517 23.263 14.7596ZM8.49999 8.50061C8.68926 6.94346 9.39317 5.49413 10.5 4.38261V7.50061C10.5 7.89843 10.658 8.27996 10.9393 8.56127C11.2206 8.84257 11.6022 9.00061 12 9.00061C12.3978 9.00061 12.7793 8.84257 13.0606 8.56127C13.342 8.27996 13.5 7.89843 13.5 7.50061V4.38261C14.6068 5.49413 15.3107 6.94346 15.5 8.50061C15.5 9.42887 15.1312 10.3191 14.4749 10.9755C13.8185 11.6319 12.9282 12.0006 12 12.0006C11.0717 12.0006 10.1815 11.6319 9.52512 10.9755C8.86874 10.3191 8.49999 9.42887 8.49999 8.50061ZM3.12699 17.0776C4.44517 17.2105 5.71744 17.6342 6.85202 18.3184C7.9866 19.0025 8.95521 19.9298 9.68799 21.0336C7.36899 20.9006 3.91699 20.1626 3.12699 17.0776ZM14.312 21.0336C15.0449 19.9299 16.0135 19.0026 17.1481 18.3185C18.2826 17.6344 19.5548 17.2106 20.873 17.0776C20.084 20.1626 16.631 20.9006 14.312 21.0336Z" fill="#25280B"/>
</g>
<defs>
<clipPath id="clip0_327_5249">
<rect width="24" height="24" fill="white"/>
</clipPath>
</defs>
</svg>
