<svg width="24" height="24" viewBox="0 0 24 24" fill="none" xmlns="http://www.w3.org/2000/svg">
<g clip-path="url(#clip0_327_5408)">
<path d="M18.4509 15.95C17.7218 15.948 16.9996 16.0907 16.326 16.3698C15.6524 16.649 15.0409 17.0589 14.5269 17.576C12.2239 19.88 8.9849 21 4.6269 21H3.5269C3.42217 21.001 3.31954 20.9706 3.23225 20.9127C3.14496 20.8548 3.07703 20.7721 3.0372 20.6753C2.99738 20.5784 2.9875 20.4718 3.00883 20.3693C3.03017 20.2667 3.08174 20.1729 3.1569 20.1L5.4639 17.8L16.9169 14.746C18.0882 14.4328 19.1234 13.7417 19.8617 12.7799C20.6 11.8181 21.0001 10.6395 20.9999 9.427V5.5C20.9981 4.04188 20.418 2.64401 19.3869 1.61296C18.3559 0.58191 16.958 0.00185226 15.4999 0L11.5729 0C10.3613 0.000918071 9.18381 0.401536 8.22304 1.13974C7.26227 1.87795 6.57188 2.9125 6.2589 4.083L3.1049 15.91L1.0349 17.982C0.542231 18.4752 0.206796 19.1033 0.0709845 19.787C-0.0648271 20.4708 0.00507939 21.1794 0.271871 21.8235C0.538662 22.4675 0.990365 23.018 1.5699 23.4054C2.14944 23.7928 2.83081 23.9997 3.5279 24H4.6279C9.7499 24 13.7949 22.553 16.6489 19.7C17.0053 19.3438 17.4592 19.1012 17.9534 19.0029C18.4475 18.9045 18.9597 18.9548 19.4253 19.1474C19.8909 19.34 20.289 19.6663 20.5692 20.085C20.8495 20.5038 20.9993 20.9961 20.9999 21.5V22.5C20.9999 22.8978 21.1579 23.2794 21.4392 23.5607C21.7205 23.842 22.1021 24 22.4999 24C22.8977 24 23.2793 23.842 23.5606 23.5607C23.8419 23.2794 23.9999 22.8978 23.9999 22.5V21.5C23.9986 20.0286 23.4136 18.6179 22.3732 17.5774C21.3329 16.5369 19.9223 15.9516 18.4509 15.95ZM9.1569 4.856C9.26878 4.44102 9.48616 4.06206 9.7879 3.756L13.6999 7.438L17.3289 3.808C17.7587 4.26673 17.9985 4.8714 17.9999 5.5V9.427C17.9987 9.99181 17.8062 10.5395 17.4539 10.981L13.6999 7.438L6.6609 14.371L6.6169 14.383L9.1569 4.856Z" fill="#25280B"/>
</g>
<defs>
<clipPath id="clip0_327_5408">
<rect width="24" height="24" fill="white"/>
</clipPath>
</defs>
</svg>
