<svg width="24" height="24" viewBox="0 0 24 24" fill="none" xmlns="http://www.w3.org/2000/svg">
<g clip-path="url(#clip0_327_5078)">
<path d="M23.8681 5.31214C23.9975 4.9354 24.035 4.53319 23.9775 4.13902C23.9199 3.74486 23.769 3.37015 23.5373 3.04611C23.3057 2.72208 22.9999 2.45809 22.6455 2.27615C22.2912 2.09421 21.8985 1.99958 21.5001 2.00014H18.9491C19.0166 1.79351 19.0387 1.57477 19.014 1.35882C18.9893 1.14286 18.9183 0.934779 18.8059 0.748749C18.6934 0.562719 18.5422 0.403116 18.3625 0.28082C18.1828 0.158524 17.9789 0.0764091 17.7646 0.0400739C17.5503 0.00373866 17.3306 0.0140369 17.1207 0.0702667C16.9107 0.126497 16.7153 0.227336 16.5479 0.365911C16.3804 0.504486 16.2448 0.677539 16.1503 0.873273C16.0557 1.06901 16.0045 1.28282 16.0001 1.50014C16.0001 1.63275 15.9475 1.75993 15.8537 1.85369C15.7599 1.94746 15.6327 2.00014 15.5001 2.00014H8.50013C8.36752 2.00014 8.24034 1.94746 8.14657 1.85369C8.05281 1.75993 8.00013 1.63275 8.00013 1.50014C7.99572 1.28282 7.94451 1.06901 7.84998 0.873273C7.75546 0.677539 7.61984 0.504486 7.45238 0.365911C7.28491 0.227336 7.08954 0.126497 6.87958 0.0702667C6.66961 0.0140369 6.44999 0.00373866 6.23569 0.0400739C6.02138 0.0764091 5.81743 0.158524 5.63773 0.28082C5.45804 0.403116 5.30682 0.562719 5.1944 0.748749C5.08197 0.934779 5.01097 1.14286 4.98625 1.35882C4.96153 1.57477 4.98365 1.79351 5.05113 2.00014H2.50013C2.10179 1.99958 1.70908 2.09421 1.35471 2.27615C1.00035 2.45809 0.694592 2.72208 0.462913 3.04611C0.231233 3.37015 0.0803391 3.74486 0.0228005 4.13902C-0.0347381 4.53319 0.00274471 4.9354 0.132126 5.31214C0.470355 6.44006 1.03521 7.48709 1.79213 8.38914L5.03113 21.8061C5.10388 22.4102 5.39512 22.9668 5.84993 23.3709C6.30474 23.7751 6.8917 23.9989 7.50013 24.0001H16.5001C17.1086 23.9989 17.6955 23.7751 18.1503 23.3709C18.6051 22.9668 18.8964 22.4102 18.9691 21.8061L22.2081 8.38914C22.965 7.48709 23.5299 6.44006 23.8681 5.31214ZM16.5591 19.0061L13.5001 19.0001V14.5001C13.5046 13.4568 13.8751 12.4482 14.5471 11.6501C14.7907 11.8461 15.0893 11.961 15.4014 11.979C15.7135 11.9969 16.0234 11.9169 16.2877 11.7501C16.5521 11.5833 16.7578 11.3381 16.876 11.0488C16.9942 10.7594 17.0191 10.4403 16.9471 10.1361C17.2915 10.0492 17.645 10.0036 18.0001 10.0001C18.0001 10.0001 18.6561 9.99014 18.7361 9.98714L16.5591 19.0061ZM7.44113 19.0061L5.26413 9.98714C5.34413 9.99014 6.00013 10.0001 6.00013 10.0001C6.35394 10.0039 6.70606 10.0495 7.04913 10.1361C6.97717 10.4403 7.00204 10.7594 7.12027 11.0488C7.23849 11.3381 7.44416 11.5833 7.70853 11.7501C7.9729 11.9169 8.28277 11.9969 8.59484 11.979C8.90691 11.961 9.20558 11.8461 9.44913 11.6501C10.1226 12.4476 10.4946 13.4563 10.5001 14.5001V19.0001L7.44113 19.0061ZM16.5341 5.00014C17.394 5.58383 18.2038 6.23809 18.9551 6.95614C18.8081 6.98314 18.0001 7.00014 18.0001 7.00014C16.8354 7.00072 15.6868 7.27258 14.6453 7.79417C13.6039 8.31576 12.6982 9.07275 12.0001 10.0051C11.302 9.07275 10.3964 8.31576 9.35495 7.79417C8.31351 7.27258 7.16489 7.00072 6.00013 7.00014C6.00013 7.00014 5.19213 6.98314 5.04513 6.95614C5.79658 6.23824 6.60637 5.58399 7.46613 5.00014H16.5341Z" fill="#25280B"/>
</g>
<defs>
<clipPath id="clip0_327_5078">
<rect width="24" height="24" fill="white"/>
</clipPath>
</defs>
</svg>
