<svg width="24" height="24" viewBox="0 0 24 24" fill="none" xmlns="http://www.w3.org/2000/svg">
<g clip-path="url(#clip0_327_5827)">
<path d="M15.9909 5.00049C15.4513 5.00197 14.9266 5.17714 14.4944 5.50007C14.0621 5.82299 13.7453 6.27651 13.5909 6.79349L9.57789 20.4245C9.4484 20.8765 9.17593 21.2744 8.80131 21.5585C8.42668 21.8426 7.97006 21.9977 7.49989 22.0005C7.04112 21.9956 6.59485 21.8504 6.22105 21.5844C5.84725 21.3184 5.56383 20.9443 5.40889 20.5125L3.09889 13.8125C2.94443 13.3709 2.6867 12.9726 2.34716 12.6508C2.00762 12.329 1.5961 12.093 1.14689 11.9625C0.955418 11.9161 0.774956 11.8325 0.615803 11.7164C0.45665 11.6003 0.321923 11.454 0.219315 11.2858C0.0120869 10.9462 -0.0517364 10.5382 0.041885 10.1515C0.135506 9.7648 0.378904 9.43115 0.718532 9.22392C1.05816 9.01669 1.4662 8.95287 1.85289 9.04649C2.78714 9.29501 3.64658 9.76787 4.35657 10.424C5.06655 11.0801 5.6056 11.8997 5.92689 12.8115L7.41789 17.1415L10.7179 5.95049C11.0568 4.81357 11.7524 3.81579 12.7019 3.10451C13.6514 2.39324 14.8045 2.00617 15.9909 2.00049H22.4999C22.8977 2.00049 23.2792 2.15852 23.5605 2.43983C23.8419 2.72113 23.9999 3.10266 23.9999 3.50049C23.9999 3.89831 23.8419 4.27984 23.5605 4.56115C23.2792 4.84245 22.8977 5.00049 22.4999 5.00049H15.9909ZM23.3999 11.3005C23.2423 11.1823 23.063 11.0963 22.8722 11.0474C22.6813 10.9985 22.4828 10.9877 22.2878 11.0156C21.8939 11.0718 21.5386 11.2822 21.2999 11.6005L19.4999 14.0005L17.6999 11.6005C17.5817 11.4429 17.4336 11.3101 17.2641 11.2098C17.0946 11.1094 16.907 11.0434 16.712 11.0156C16.517 10.9877 16.3184 10.9985 16.1276 11.0474C15.9368 11.0963 15.7575 11.1823 15.5999 11.3005C15.4423 11.4187 15.3095 11.5668 15.2092 11.7362C15.1088 11.9057 15.0428 12.0934 15.015 12.2884C14.9871 12.4834 14.9979 12.6819 15.0468 12.8728C15.0957 13.0636 15.1817 13.2429 15.2999 13.4005L17.6249 16.5005L15.2999 19.6005C15.1817 19.7581 15.0957 19.9374 15.0468 20.1282C14.9979 20.319 14.9871 20.5176 15.015 20.7126C15.0428 20.9076 15.1088 21.0952 15.2092 21.2647C15.3095 21.4342 15.4423 21.5823 15.5999 21.7005C15.7575 21.8187 15.9368 21.9047 16.1276 21.9536C16.3184 22.0024 16.517 22.0133 16.712 21.9854C16.907 21.9576 17.0946 21.8916 17.2641 21.7912C17.4336 21.6908 17.5817 21.5581 17.6999 21.4005L19.4999 19.0005L21.2999 21.4005C21.5386 21.7188 21.8939 21.9292 22.2878 21.9854C22.6816 22.0417 23.0816 21.9392 23.3999 21.7005C23.7181 21.4618 23.9286 21.1064 23.9848 20.7126C24.0411 20.3188 23.9386 19.9188 23.6999 19.6005L21.3749 16.5005L23.6999 13.4005C23.9386 13.0822 24.0411 12.6822 23.9848 12.2884C23.9286 11.8945 23.7181 11.5392 23.3999 11.3005Z" fill="#25280B"/>
</g>
<defs>
<clipPath id="clip0_327_5827">
<rect width="24" height="24" fill="white"/>
</clipPath>
</defs>
</svg>
