<svg width="24" height="24" viewBox="0 0 24 24" fill="none" xmlns="http://www.w3.org/2000/svg">
<g clip-path="url(#clip0_327_5668)">
<path d="M7.72583 3.04276L8.34483 2.04276C8.7355 1.42692 9.27543 0.919764 9.91449 0.568365C10.5536 0.216966 11.271 0.0327148 12.0003 0.0327148C12.7296 0.0327148 13.4471 0.216966 14.0862 0.568365C14.7252 0.919764 15.2652 1.42692 15.6558 2.04276L17.7868 5.43076L19.1448 4.50376C19.3897 4.33661 19.6787 4.24578 19.9751 4.24275C20.2716 4.23973 20.5623 4.32463 20.8106 4.48675C21.0589 4.64886 21.2535 4.88091 21.3699 5.15358C21.4864 5.42626 21.5194 5.72733 21.4648 6.01876L20.7288 9.96176C20.6434 10.4204 20.4008 10.8349 20.0427 11.1339C19.6845 11.4329 19.2334 11.5976 18.7668 11.5998C18.6368 11.5998 14.4668 10.7918 14.4668 10.7918C14.1769 10.7345 13.9103 10.593 13.7006 10.3848C13.4908 10.1766 13.3472 9.9111 13.2879 9.62161C13.2285 9.33212 13.2559 9.03153 13.3667 8.75758C13.4776 8.48362 13.6669 8.24851 13.9108 8.08176L15.3058 7.12876L13.1058 3.63576C12.99 3.44793 12.8282 3.2927 12.6358 3.18467C12.4433 3.07664 12.2266 3.01938 12.0059 3.01828C11.7852 3.01718 11.5679 3.07227 11.3744 3.17838C11.1809 3.28448 11.0176 3.4381 10.8998 3.62476L10.2788 4.62476C10.175 4.79239 10.0391 4.93792 9.87896 5.05304C9.71884 5.16816 9.53762 5.25062 9.34563 5.2957C9.15365 5.34079 8.95466 5.34761 8.76004 5.31579C8.56541 5.28398 8.37896 5.21413 8.21133 5.11026C8.0437 5.00638 7.89817 4.87051 7.78305 4.71039C7.66793 4.55027 7.58547 4.36904 7.54039 4.17706C7.49531 3.98507 7.48848 3.78609 7.5203 3.59147C7.55212 3.39684 7.62196 3.21039 7.72583 3.04276ZM23.3528 14.4618L22.7748 13.5308C22.6722 13.361 22.5369 13.2132 22.3768 13.0961C22.2167 12.979 22.035 12.8947 21.8421 12.8483C21.6493 12.8019 21.4491 12.7942 21.2532 12.8256C21.0574 12.8571 20.8697 12.9271 20.701 13.0316C20.5324 13.1361 20.3862 13.273 20.2708 13.4344C20.1555 13.5957 20.0732 13.7784 20.029 13.9718C19.9847 14.1651 19.9792 14.3654 20.0128 14.5609C20.0464 14.7564 20.1185 14.9433 20.2248 15.1108L20.8028 16.0428C20.9234 16.2387 20.9894 16.4633 20.9941 16.6933C20.9988 16.9234 20.942 17.1505 20.8296 17.3512C20.7172 17.5519 20.5532 17.719 20.3545 17.8351C20.1559 17.9512 19.9299 18.0122 19.6998 18.0118H14.9998V16.4998C15.0002 16.2075 14.9152 15.9215 14.7553 15.6768C14.5953 15.4322 14.3674 15.2397 14.0995 15.1228C13.8316 15.006 13.5354 14.9699 13.2473 15.0191C12.9592 15.0683 12.6918 15.2006 12.4778 15.3998L9.69983 17.9918C9.48588 18.1766 9.31356 18.4048 9.19424 18.6611C9.07493 18.9175 9.01133 19.1962 9.00764 19.479C9.00396 19.7617 9.06027 20.042 9.17286 20.3014C9.28545 20.5608 9.45177 20.7934 9.66083 20.9838L12.4788 23.5998C12.6928 23.7986 12.9602 23.9306 13.2481 23.9796C13.536 24.0286 13.832 23.9925 14.0997 23.8757C14.3674 23.7589 14.5952 23.5665 14.7551 23.322C14.915 23.0776 15 22.7918 14.9998 22.4998V21.0118H19.6998C20.4649 21.013 21.2164 20.8097 21.8765 20.423C22.5366 20.0362 23.0813 19.4801 23.4543 18.8121C23.8272 18.1441 24.0149 17.3885 23.9977 16.6236C23.9806 15.8588 23.7593 15.1124 23.3568 14.4618H23.3528ZM8.09983 8.38076C8.04987 8.12146 7.94926 7.87456 7.80375 7.6542C7.65824 7.43383 7.4707 7.24433 7.25186 7.09655C7.03301 6.94877 6.78717 6.8456 6.5284 6.79295C6.26963 6.74031 6.00302 6.73923 5.74383 6.78976L1.83783 7.55876C1.54764 7.61579 1.28079 7.75733 1.07081 7.96559C0.860838 8.17385 0.717108 8.43953 0.657692 8.72924C0.598275 9.01895 0.625823 9.31976 0.736874 9.59385C0.847924 9.86795 1.03752 10.1031 1.28183 10.2698L2.66183 11.2118L0.647832 14.4618C0.240307 15.1089 0.0158007 15.8544 -0.00180775 16.6189C-0.0194162 17.3835 0.170531 18.1385 0.547832 18.8038C0.917987 19.4788 1.46445 20.0408 2.12893 20.4296C2.7934 20.8185 3.55098 21.0197 4.32083 21.0118L5.51483 20.9998C5.91266 20.9958 6.29261 20.8339 6.5711 20.5498C6.84959 20.2657 7.00381 19.8826 6.99983 19.4848C6.99585 19.0869 6.834 18.707 6.54989 18.4285C6.26577 18.15 5.88266 17.9958 5.48483 17.9998L4.29983 18.0118C4.06986 18.0118 3.84405 17.9504 3.64571 17.834C3.44738 17.7177 3.2837 17.5504 3.17158 17.3496C3.05947 17.1489 3.00298 16.9218 3.00794 16.6919C3.01291 16.4619 3.07915 16.2375 3.19983 16.0418L5.14383 12.9058L6.51583 13.8428C6.76065 14.0098 7.04947 14.1006 7.34583 14.1036C7.64219 14.1067 7.93281 14.0218 8.18101 13.8599C8.42921 13.6979 8.62387 13.466 8.74041 13.1935C8.85695 12.921 8.89016 12.6201 8.83583 12.3288L8.09983 8.38076Z" fill="#25280B"/>
</g>
<defs>
<clipPath id="clip0_327_5668">
<rect width="24" height="24" fill="white"/>
</clipPath>
</defs>
</svg>
