<svg width="24" height="24" viewBox="0 0 24 24" fill="none" xmlns="http://www.w3.org/2000/svg">
<path d="M10.9569 12.3539C10.9104 12.3074 10.8734 12.2523 10.8482 12.1915C10.823 12.1308 10.81 12.0657 10.81 11.9999C10.81 11.9341 10.823 11.869 10.8482 11.8083C10.8734 11.7475 10.9104 11.6923 10.9569 11.6459L15.5429 7.06088C15.8243 6.77962 15.9824 6.39809 15.9825 6.00024C15.9826 5.60238 15.8247 5.22078 15.5434 4.93938C15.2622 4.65799 14.8806 4.49985 14.4828 4.49976C14.0849 4.49966 13.7033 4.65762 13.4219 4.93888L8.83593 9.52488C8.1807 10.1819 7.81274 11.072 7.81274 11.9999C7.81274 12.9278 8.1807 13.8178 8.83593 14.4749L13.4219 19.0609C13.7033 19.3421 14.0849 19.5001 14.4828 19.5C14.8806 19.4999 15.2622 19.3418 15.5434 19.0604C15.8247 18.779 15.9826 18.3974 15.9825 17.9995C15.9824 17.6017 15.8243 17.2201 15.5429 16.9389L10.9569 12.3539Z" fill="#25280B"/>
</svg>
