<svg width="24" height="24" viewBox="0 0 24 24" fill="none" xmlns="http://www.w3.org/2000/svg">
<g clip-path="url(#clip0_327_5702)">
<path d="M22.0238 1.97543C18.4998 -1.55357 9.37678 -0.177571 4.59977 4.59943C-0.177226 9.37643 -1.55123 18.4994 1.97577 22.0234C3.62243 23.4292 5.75209 24.1381 7.91278 23.9994C12.1831 23.9604 16.2829 22.3186 19.3998 19.3994C24.1768 14.6204 25.5508 5.49943 22.0238 1.97543ZM17.2778 17.2754C15.1069 19.2728 12.362 20.5356 9.43277 20.8844L3.11377 14.5674C3.462 11.6379 4.72444 8.8926 6.72178 6.72143C8.89295 4.7241 11.6383 3.46166 14.5678 3.11343L20.8858 9.43143C20.5375 12.3609 19.2751 15.1063 17.2778 17.2774V17.2754ZM17.5608 11.5584C17.4215 11.6978 17.2561 11.8084 17.074 11.8838C16.892 11.9593 16.6968 11.9981 16.4998 11.9981C16.3027 11.9981 16.1076 11.9593 15.9255 11.8838C15.7435 11.8084 15.5781 11.6978 15.4388 11.5584L14.9998 11.1204L14.1208 11.9994L14.5608 12.4384C14.8422 12.7198 15.0003 13.1015 15.0003 13.4994C15.0003 13.8974 14.8422 14.279 14.5608 14.5604C14.2794 14.8418 13.8977 14.9999 13.4998 14.9999C13.1018 14.9999 12.7202 14.8418 12.4388 14.5604L11.9998 14.1204L11.1208 14.9994L11.5608 15.4384C11.8422 15.7198 12.0003 16.1015 12.0003 16.4994C12.0003 16.8974 11.8422 17.279 11.5608 17.5604C11.2794 17.8418 10.8977 17.9999 10.4998 17.9999C10.1018 17.9999 9.72017 17.8418 9.43878 17.5604L6.43878 14.5604C6.29944 14.4211 6.18892 14.2557 6.11351 14.0736C6.03811 13.8916 5.99929 13.6965 5.99929 13.4994C5.99929 13.1015 6.15738 12.7198 6.43878 12.4384C6.72017 12.157 7.10182 11.999 7.49978 11.999C7.89773 11.999 8.27938 12.157 8.56077 12.4384L8.99977 12.8784L9.87877 11.9994L9.43878 11.5604C9.15738 11.279 8.99929 10.8974 8.99929 10.4994C8.99929 10.1015 9.15738 9.71982 9.43878 9.43843C9.72017 9.15703 10.1018 8.99895 10.4998 8.99895C10.8977 8.99895 11.2794 9.15703 11.5608 9.43843L11.9998 9.87843L12.8788 8.99943L12.4388 8.56043C12.1574 8.27903 11.9993 7.89738 11.9993 7.49943C11.9993 7.30238 12.0381 7.10727 12.1135 6.92522C12.1889 6.74317 12.2994 6.57776 12.4388 6.43843C12.5781 6.2991 12.7435 6.18857 12.9256 6.11317C13.1076 6.03776 13.3027 5.99895 13.4998 5.99895C13.8977 5.99895 14.2794 6.15703 14.5608 6.43843L17.5608 9.43843C17.7002 9.57773 17.8107 9.74313 17.8862 9.92518C17.9616 10.1072 18.0005 10.3024 18.0005 10.4994C18.0005 10.6965 17.9616 10.8916 17.8862 11.0737C17.8107 11.2557 17.7002 11.4211 17.5608 11.5604V11.5584Z" fill="#25280B"/>
</g>
<defs>
<clipPath id="clip0_327_5702">
<rect width="24" height="24" fill="white"/>
</clipPath>
</defs>
</svg>
