<svg width="24" height="24" viewBox="0 0 24 24" fill="none" xmlns="http://www.w3.org/2000/svg">
<path d="M7.99979 22.3599C9.06193 23.4057 10.4911 23.9943 11.9817 24C13.4722 24.0056 14.9058 23.4277 15.9758 22.3899L19.7828 18.8529C21.8417 16.776 22.9968 13.9699 22.9968 11.0454C22.9968 8.12093 21.8417 5.31483 19.7828 3.23791C18.7635 2.21182 17.5513 1.39748 16.216 0.841782C14.8807 0.286084 13.4486 0 12.0023 0C10.556 0 9.12393 0.286084 7.78862 0.841782C6.45331 1.39748 5.2411 2.21182 4.22179 3.23791C2.15846 5.32338 1.00462 8.14088 1.01249 11.0746C1.02036 14.0083 2.1893 16.8195 4.26379 18.8939L7.99979 22.3599ZM6.34579 5.35391C7.08634 4.60795 7.96718 4.0159 8.93755 3.61189C9.90793 3.20787 10.9487 2.99987 11.9998 2.99987C13.0509 2.99987 14.0917 3.20787 15.062 3.61189C16.0324 4.0159 16.9132 4.60795 17.6538 5.35391C19.1521 6.85898 19.9971 8.89377 20.0057 11.0175C20.0143 13.1412 19.1858 15.1827 17.6998 16.6999L13.8998 20.2249C13.382 20.7185 12.6926 20.9914 11.9772 20.9858C11.2619 20.9802 10.5768 20.6966 10.0668 20.1949L6.34579 16.7369C4.84483 15.2229 4.00269 13.1773 4.00269 11.0454C4.00269 8.9135 4.84483 6.86789 6.34579 5.35391ZM6.99979 10.9999C6.99979 10.6021 7.15783 10.2205 7.43913 9.93924C7.72044 9.65794 8.10197 9.4999 8.49979 9.4999H10.4998V7.49991C10.4998 7.10208 10.6578 6.72055 10.9391 6.43924C11.2204 6.15794 11.602 5.99991 11.9998 5.99991C12.3976 5.99991 12.7791 6.15794 13.0605 6.43924C13.3418 6.72055 13.4998 7.10208 13.4998 7.49991V9.4999H15.4998C15.8976 9.4999 16.2791 9.65794 16.5605 9.93924C16.8418 10.2205 16.9998 10.6021 16.9998 10.9999C16.9998 11.3977 16.8418 11.7793 16.5605 12.0606C16.2791 12.3419 15.8976 12.4999 15.4998 12.4999H13.4998V14.4999C13.4998 14.8977 13.3418 15.2793 13.0605 15.5606C12.7791 15.8419 12.3976 15.9999 11.9998 15.9999C11.602 15.9999 11.2204 15.8419 10.9391 15.5606C10.6578 15.2793 10.4998 14.8977 10.4998 14.4999V12.4999H8.49979C8.10197 12.4999 7.72044 12.3419 7.43913 12.0606C7.15783 11.7793 6.99979 11.3977 6.99979 10.9999Z" fill="#25280B"/>
</svg>
