<svg width="24" height="24" viewBox="0 0 24 24" fill="none" xmlns="http://www.w3.org/2000/svg">
<g clip-path="url(#clip0_327_5012)">
<path d="M2.54003 20.5001C2.32899 20.5001 2.12033 20.4555 1.92768 20.3694C1.73503 20.2832 1.56273 20.1574 1.42203 20.0001C0.835005 19.349 0.413145 18.5664 0.192032 17.7181C-0.109637 16.5385 -0.030245 15.2937 0.418836 14.1621C0.867917 13.0304 1.66364 12.0699 2.69203 11.4181C2.0238 9.90329 1.83502 8.2203 2.15103 6.59509C2.45481 4.9438 3.26713 3.42875 4.47437 2.26186C5.6816 1.09497 7.22337 0.334592 8.88403 0.0870902C10.8605 -0.207658 12.8766 0.230945 14.552 1.32019C16.2274 2.40943 17.4464 4.07404 17.979 6.00009C20.0367 6.56664 21.7951 7.90813 22.885 9.74309C23.0683 10.0848 23.1121 10.4843 23.0073 10.8576C22.9025 11.231 22.6571 11.5492 22.3227 11.7456C21.9883 11.9419 21.5909 12.0012 21.2138 11.9108C20.8367 11.8205 20.5092 11.5876 20.3 11.2611C19.8984 10.5846 19.3491 10.0077 18.6932 9.57339C18.0372 9.13909 17.2916 8.85868 16.512 8.75309C16.1856 8.70967 15.8825 8.56003 15.6495 8.32726C15.4166 8.09448 15.2667 7.79151 15.223 7.46509C15.1336 6.7909 14.9106 6.1413 14.5672 5.55426C14.2238 4.96722 13.7668 4.45451 13.223 4.04609C12.67 3.62942 12.0395 3.32724 11.3683 3.15725C10.6971 2.98726 9.99869 2.95287 9.31403 3.05609C8.27264 3.21437 7.3067 3.69402 6.55119 4.42802C5.79567 5.16202 5.28832 6.1137 5.10003 7.15009C4.87953 8.27005 5.03968 9.43159 5.55503 10.4501C5.86444 11.0299 5.93134 11.7088 5.74108 12.3379C5.55082 12.9669 5.11892 13.4949 4.54003 13.8061C3.9752 14.0883 3.52417 14.5556 3.26213 15.1301C3.00009 15.7046 2.94288 16.3515 3.10003 16.9631C3.19916 17.3487 3.39028 17.7045 3.65703 18.0001C3.85002 18.2159 3.97645 18.4828 4.02107 18.7689C4.06569 19.0549 4.0266 19.3477 3.90852 19.612C3.79043 19.8763 3.59839 20.1008 3.35557 20.2584C3.11274 20.4159 2.82951 20.4999 2.54003 20.5001ZM18.85 24.0001C19.2226 23.9931 19.5935 23.9482 19.957 23.8661C21.0904 23.6172 22.1066 22.9928 22.8407 22.0942C23.5749 21.1956 23.984 20.0753 24.0019 18.9151C24.0197 17.7548 23.6451 16.6225 22.9389 15.7017C22.2327 14.781 21.2363 14.1257 20.111 13.8421C19.9957 13.8198 19.8829 13.7863 19.774 13.7421C19.2292 12.4842 18.2839 11.4417 17.0852 10.7767C15.8865 10.1117 14.5016 9.86154 13.146 10.0651C11.7322 10.2905 10.4424 11.0053 9.50183 12.0847C8.56129 13.1642 8.02976 14.5397 8.00003 15.9711C7.9939 16.2888 8.01329 16.6065 8.05803 16.9211C7.37718 17.2624 6.8172 17.8041 6.45344 18.4732C6.08967 19.1423 5.93957 19.9068 6.02333 20.6638C6.10709 21.4208 6.42069 22.1339 6.92194 22.7073C7.42319 23.2808 8.08804 23.6869 8.82703 23.8711C9.13668 23.9504 9.45445 23.9937 9.77403 24.0001H18.85ZM17.012 14.9141C17.2137 15.3919 17.534 15.8103 17.9426 16.1297C18.3512 16.4491 18.8347 16.6588 19.347 16.7391C19.8255 16.8485 20.252 17.1184 20.5558 17.5039C20.8596 17.8894 21.0222 18.3673 21.0167 18.858C21.0112 19.3488 20.8379 19.8229 20.5256 20.2015C20.2133 20.5801 19.7808 20.8404 19.3 20.9391C19.1428 20.9753 18.9823 20.9961 18.821 21.0011H9.81403C9.64572 20.9839 9.48477 20.9232 9.34697 20.825C9.20918 20.7269 9.09927 20.5946 9.02803 20.4411C8.90503 19.9831 9.32803 19.6161 9.62803 19.4911C10.1565 19.2696 10.5904 18.8698 10.8543 18.3612C11.1182 17.8527 11.1952 17.2676 11.072 16.7081C11.0227 16.4849 11.0003 16.2566 11.005 16.0281C11.0219 15.3097 11.2867 14.6193 11.7546 14.074C12.2224 13.5286 12.8646 13.1619 13.572 13.0361C13.7293 13.0129 13.888 13.0008 14.047 13.0001C14.6745 12.9933 15.2901 13.1711 15.8172 13.5114C16.3444 13.8517 16.7599 14.3395 17.012 14.9141Z" fill="#25280B"/>
</g>
<defs>
<clipPath id="clip0_327_5012">
<rect width="24" height="24" fill="white"/>
</clipPath>
</defs>
</svg>
