<svg width="24" height="24" viewBox="0 0 24 24" fill="none" xmlns="http://www.w3.org/2000/svg">
<g clip-path="url(#clip0_327_5399)">
<path d="M6.50008 15.9998C6.79675 15.9998 7.08676 16.0878 7.33343 16.2526C7.58011 16.4175 7.77237 16.6517 7.8859 16.9258C7.99943 17.1999 8.02913 17.5015 7.97126 17.7925C7.91338 18.0835 7.77052 18.3507 7.56074 18.5605C7.35096 18.7703 7.08368 18.9132 6.79271 18.971C6.50174 19.0289 6.20014 18.9992 5.92605 18.8857C5.65196 18.7721 5.4177 18.5799 5.25287 18.3332C5.08805 18.0865 5.00008 17.7965 5.00008 17.4998C5.00008 17.102 5.15811 16.7205 5.43942 16.4392C5.72072 16.1579 6.10225 15.9998 6.50008 15.9998ZM9.50008 23.8608C10.8874 23.6021 12.1806 22.9783 13.2467 22.0536C14.3127 21.1288 15.113 19.9367 15.5651 18.5998C15.9929 17.3637 16.1029 16.0397 15.8851 14.7498L16.5661 14.0608C16.8455 13.7786 17.0016 13.397 17.0001 12.9998V10.9998H17.5001C17.8284 10.9998 18.1535 10.9352 18.4568 10.8095C18.7601 10.6839 19.0357 10.4998 19.2678 10.2676C19.5 10.0355 19.6841 9.75987 19.8098 9.45656C19.9354 9.15324 20.0001 8.82815 20.0001 8.49985V7.99985H21.2511C21.7421 7.99969 22.2223 7.85563 22.6323 7.58548C23.0423 7.31534 23.3642 6.93095 23.5581 6.47985C23.9182 5.65106 24.0613 4.74425 23.9741 3.84485C23.8569 2.77871 23.347 1.79438 22.5438 1.08359C21.7406 0.372804 20.7015 -0.0135296 19.6291 -0.000152143C18.9061 -0.00207026 18.19 0.139415 17.5221 0.416115C16.8542 0.692814 16.2478 1.09923 15.7381 1.61185L9.23808 8.11185C7.951 7.89658 6.63045 8.00869 5.39808 8.43785C3.60809 9.05583 2.09536 10.2887 1.12897 11.9172C0.162583 13.5457 -0.194794 15.4643 0.120412 17.3315C0.435618 19.1987 1.40297 20.8936 2.85038 22.1147C4.2978 23.3357 6.13142 24.0037 8.02508 23.9999C8.51995 23.9985 9.01367 23.952 9.50008 23.8608ZM9.31508 11.1998C9.57118 11.2711 9.8416 11.2729 10.0987 11.2053C10.3557 11.1376 10.5902 11.0029 10.7781 10.8148L17.8591 3.73485C18.0908 3.50136 18.3666 3.31617 18.6704 3.19C18.9743 3.06384 19.3001 2.9992 19.6291 2.99985C19.957 2.99205 20.2765 3.10464 20.527 3.31635C20.7776 3.52805 20.942 3.82421 20.9891 4.14885C21.0183 4.43502 20.9911 4.72414 20.9091 4.99985H19.5001C18.837 4.99985 18.2012 5.26324 17.7323 5.73208C17.2635 6.20092 17.0001 6.83681 17.0001 7.49985V7.99985H16.5001C15.837 7.99985 15.2012 8.26324 14.7323 8.73208C14.2635 9.20092 14.0001 9.83681 14.0001 10.4998V12.3838L13.1781 13.2148C12.9919 13.4031 12.8589 13.6372 12.7925 13.8934C12.7261 14.1497 12.7287 14.4189 12.8001 14.6738C13.0787 15.6432 13.0529 16.6747 12.7261 17.6288C12.4503 18.4308 11.9752 19.1494 11.3452 19.7172C10.7153 20.2849 9.95133 20.6832 9.12513 20.8744C8.29894 21.0656 7.43769 21.0435 6.62238 20.8102C5.80706 20.577 5.06448 20.1401 4.46445 19.5409C3.86443 18.9416 3.42668 18.1996 3.19238 17.3846C2.95808 16.5695 2.93493 15.7083 3.1251 14.8819C3.31527 14.0554 3.71251 13.291 4.27947 12.6603C4.84643 12.0297 5.56447 11.5536 6.36608 11.2768C6.87828 11.1001 7.41624 11.0095 7.95808 11.0088C8.41699 11.0106 8.87352 11.0749 9.31508 11.1998Z" fill="#25280B"/>
</g>
<defs>
<clipPath id="clip0_327_5399">
<rect width="24" height="24" fill="white"/>
</clipPath>
</defs>
</svg>
