<svg width="131" height="119" viewBox="0 0 131 119" fill="none" xmlns="http://www.w3.org/2000/svg">
<g clip-path="url(#clip0_90_227)">
<path d="M126.062 53.138C125.993 53.0415 118.699 43.0729 110.895 43.9554C110.412 44.0105 109.93 44.107 109.475 44.2449C109.502 43.9278 109.516 43.5969 109.516 43.266C109.516 39.6536 108.937 34.6762 108.468 30.6778L108.206 28.4855C107.545 22.6533 106.207 14.16 102.209 7.65222C97.8104 0.482588 90.9165 -1.86133 84.2295 1.51667C74.4815 6.42511 66.981 27.6031 66.8983 27.8237C66.0572 30.3055 65.1334 33.2699 64.5406 36.3859L60.9695 37.2407C60.9695 37.2407 60.9419 37.158 60.9282 37.1304C58.7911 30.8019 56.585 24.2665 52.104 17.9241C49.4705 14.2014 43.3212 5.48754 33.7525 8.71387C26.0314 11.3198 22.3362 21.3159 19.7579 30.7605C16.3524 43.197 14.9184 53.7171 15.3321 63.534C7.25244 70.3727 -0.330821 80.7824 8.49208e-05 91.8954C0.165538 97.2726 2.344 104.966 11.761 111.06C19.9234 116.341 30.5262 118.451 41.7908 118.451C61.8382 118.451 83.9951 111.75 98.2516 104.304C102.76 101.947 125.496 89.2895 129.715 71.848C131.315 65.285 130.046 58.8186 126.048 53.1518L126.062 53.138Z" fill="#DCFF10"/>
<path d="M67.4497 48.3399C66.65 47.2644 64.899 52.4624 64.7887 52.8071C63.6856 56.2816 63.8097 57.4122 63.7821 60.8178C63.7546 65.3953 58.8737 65.9744 58.0878 62.4723C57.7707 61.0384 57.812 57.9637 57.812 56.3643C57.812 54.5857 58.1705 52.7795 57.9913 50.9733L56.2265 51.6213C55.344 53.9377 56.1162 59.0392 52.2418 58.4325C50.1185 58.1016 50.2012 56.0886 49.6635 54.5168C48.9327 54.4341 43.5555 58.3911 42.2595 58.7083C39.6536 59.3425 37.5992 57.0124 38.7987 54.6271C39.5019 53.2069 43.8588 50.9458 45.4444 50.1047C47.4299 49.043 49.567 47.9538 51.7041 47.292L51.7454 46.9197C48.5191 39.0331 46.6164 31.2017 41.3495 24.3078C40.3981 23.0531 39.0883 21.3572 37.7233 20.6265C36.1239 20.8057 33.1182 29.3266 32.608 30.9811C29.7953 40.1362 27.5204 51.1801 27.6582 60.7488C27.6858 63.2444 28.582 67.4083 27.865 69.6144C27.3963 71.0483 26.5138 70.8553 25.5763 71.5171C20.3369 75.2122 15.4699 80.6721 13.1122 86.6974C16.5315 87.3316 22.2948 84.2707 25.4384 85.2635C27.4514 85.8977 27.4238 88.8207 26.0175 90.1305C24.6111 91.4404 20.2266 92.9157 18.2136 94.1428C16.9314 94.9287 15.718 95.7835 14.6702 96.8728C16.6694 100.099 20.9712 102.181 24.5008 103.353C47.3058 110.936 83.3056 100.871 102.457 87.2213C108.73 82.7403 115.431 76.5082 117.416 68.8147C115.996 68.8698 114.59 68.8698 113.17 69.118C110.674 69.5592 105.697 72.0272 103.574 70.676C101.891 69.6006 101.836 67.3945 103.27 66.0433C104.746 64.637 109.571 62.5137 111.708 61.0522C112.26 60.6661 114.342 59.3563 114.535 58.9289C114.687 58.6117 113.542 57.8121 113.266 57.5914C111.391 56.0748 108.51 55.1786 109.75 52.1315C111.736 47.2506 119.099 54.7374 120.657 56.9434C132.459 73.7231 108.055 91.7299 95.1906 98.4446C75.0881 108.965 35.6276 118.63 15.3596 105.504C-1.93028 94.322 9.63764 75.7499 22.1431 66.5397C21.1228 54.9994 23.0945 43.5831 26.1278 32.484C27.4652 27.5893 30.6226 16.7246 35.8619 14.9459C40.7152 13.3052 44.2725 18.2826 46.6991 21.7157C51.8557 29.0094 53.6481 36.8133 56.6814 45.0308L70.5106 41.7355C70.6622 37.875 71.8893 33.6146 73.144 29.9194C75.1157 24.0734 81.6511 10.1892 87.18 7.40404C91.3025 5.32209 94.4461 7.65222 96.5694 11.0992C99.7268 16.2282 100.954 23.2875 101.63 29.2163C102.085 33.2285 102.898 39.364 102.898 43.2384C102.898 45.1273 102.043 46.9749 99.8647 46.7819C96.7762 46.5199 96.9141 42.8248 96.6383 40.4946C95.7146 32.484 96.0455 24.0459 92.7778 16.4902C92.1849 15.1114 91.3576 13.3328 90.0616 12.5055C88.2002 12.671 82.9609 22.0191 81.9682 23.9493C79.2106 29.299 76.7288 35.407 75.9154 41.3771C78.1076 41.3219 80.7273 41.2943 82.892 41.6804C86.5457 42.3146 86.0907 47.1128 82.8644 47.4299C81.4029 47.5678 73.5439 46.7405 72.7993 47.485C72.234 49.6083 73.4474 52.7795 71.7928 54.4754C70.028 56.2816 66.9258 54.5444 67.1188 52.1315L67.4359 48.3399H67.4497Z" fill="#25280B"/>
<path d="M42.1905 62.9273C62.5137 62.293 64.444 92.2538 44.6585 94.5702C22.9566 97.1209 20.8333 63.5891 42.1905 62.9273ZM46.5199 87.9934C53.1518 85.7736 54.9442 76.6737 49.9668 71.8066C48.4777 70.3451 45.8443 68.9387 43.7485 68.7733C43.3211 68.7319 39.3502 69.0766 39.8604 69.5316C49.043 69.2972 51.6489 82.0371 46.5061 88.0072L46.5199 87.9934Z" fill="#25280B"/>
<path d="M80.2585 55.2613C93.9084 54.8615 102.14 69.5316 93.9911 80.6583C86.4492 90.944 70.0694 88.2002 66.1674 76.0946C63.0376 66.4294 70.0004 55.5784 80.2585 55.2751V55.2613ZM84.5603 80.5894C90.7924 78.3282 93.2328 71.3516 89.7031 65.6435C87.0007 61.2728 80.2034 59.5355 76.0119 62.748C84.3673 60.9556 90.1305 69.6281 86.8215 77.0735C86.2562 78.3558 85.1669 79.3347 84.5603 80.5894Z" fill="#25280B"/>
<path d="M66.8017 87.3592C71.8756 87.0697 69.5179 92.9295 68.1667 95.5767C67.1877 97.507 65.8089 98.4859 63.5615 97.7828C62.817 97.5484 59.3149 93.9911 58.8875 93.219C57.688 91.0543 58.4325 88.8345 60.8178 88.0762C61.9897 87.7039 65.4229 87.442 66.7879 87.3592H66.8017Z" fill="#25280B"/>
</g>
<defs>
<clipPath id="clip0_90_227">
<rect width="130.391" height="118.451" fill="white"/>
</clipPath>
</defs>
</svg>
