<?xml version="1.0" encoding="UTF-8"?>
<svg id="Calque_1" data-name="Calque 1" xmlns="http://www.w3.org/2000/svg" viewBox="0 0 90.43 83.85">
  <defs>
    <style>
      .cls-1 {
        fill: #677903;
      }
    </style>
  </defs>
  <path class="cls-1" d="M46.45,35.93c-.44-.59-1.4,2.27-1.46,2.46-.61,1.91-.54,2.53-.55,4.41-.02,2.52-2.7,2.84-3.13.91-.18-.79-.15-2.48-.15-3.36,0-.98.19-1.97.1-2.96l-.97.35c-.49,1.27-.06,4.08-2.19,3.74-1.17-.18-1.12-1.29-1.42-2.15-.41-.05-3.36,2.13-4.07,2.3-1.43.35-2.56-.93-1.91-2.25.39-.78,2.78-2.02,3.65-2.49,1.09-.58,2.27-1.18,3.44-1.55l.03-.2c-1.77-4.34-2.82-8.64-5.72-12.43-.53-.69-1.24-1.62-1.99-2.03-.88.1-2.53,4.79-2.81,5.69-1.55,5.03-2.8,11.1-2.72,16.37.02,1.37.51,3.66.11,4.88-.26.79-.74.68-1.26,1.05-2.88,2.03-5.56,5.03-6.85,8.35,1.88.35,5.05-1.33,6.78-.78,1.11.35,1.09,1.95.32,2.68s-3.18,1.53-4.29,2.21c-.71.43-1.37.91-1.95,1.5,1.1,1.77,3.47,2.92,5.4,3.56,12.54,4.17,32.33-1.36,42.86-8.87,3.45-2.46,7.14-5.89,8.22-10.12-.78.03-1.56.03-2.33.17-1.37.24-4.11,1.6-5.28.86-.93-.59-.95-1.81-.17-2.55s3.47-1.94,4.64-2.74c.31-.21,1.45-.93,1.56-1.17.08-.17-.55-.61-.7-.74-1.03-.83-2.62-1.32-1.94-3,1.09-2.68,5.14,1.43,5.99,2.64,6.49,9.23-6.93,19.12-14,22.82-11.06,5.78-32.75,11.1-43.9,3.88-9.5-6.15-3.14-16.36,3.73-21.42-.56-6.35.52-12.62,2.19-18.73.74-2.69,2.47-8.67,5.35-9.64,2.67-.9,4.63,1.83,5.96,3.72,2.83,4.01,3.82,8.3,5.49,12.82l7.61-1.81c.08-2.12.76-4.47,1.45-6.5,1.08-3.22,4.68-10.84,7.72-12.38,2.27-1.14,3.99.14,5.16,2.03,1.73,2.82,2.41,6.7,2.78,9.96.25,2.21.7,5.58.7,7.71,0,1.04-.47,2.05-1.67,1.95-1.7-.14-1.62-2.18-1.77-3.46-.51-4.41-.32-9.05-2.12-13.2-.33-.76-.78-1.74-1.49-2.19-1.03.09-3.9,5.23-4.45,6.29-1.51,2.94-2.88,6.3-3.33,9.58,1.2-.03,2.64-.04,3.83.16,2.01.35,1.76,2.99-.01,3.16-.8.08-5.13-.38-5.53.03-.31,1.17.36,2.91-.56,3.85-.97.99-2.68.04-2.57-1.29l.17-2.09Z"/>
  <path class="cls-1" d="M32.57,43.96c11.17-.35,12.24,16.12,1.36,17.4-11.93,1.4-13.1-17.03-1.36-17.4ZM34.94,57.74c3.65-1.22,4.63-6.22,1.9-8.9-.82-.8-2.27-1.57-3.42-1.67-.24-.02-2.42.17-2.14.41,5.05-.13,6.48,6.87,3.66,10.16Z"/>
  <path class="cls-1" d="M45.75,51.19c-1.72-5.31,2.1-11.28,7.75-11.45,7.5-.22,12.03,7.85,7.55,13.96-4.15,5.65-13.15,4.14-15.3-2.51M55.86,53.67c3.43-1.24,4.77-5.08,2.83-8.22-1.48-2.4-5.22-3.36-7.53-1.59,4.59-.99,7.76,3.78,5.94,7.88-.31.71-.91,1.24-1.24,1.93Z"/>
  <path class="cls-1" d="M46.09,57.39c2.79-.16,1.49,3.06.75,4.52-.54,1.06-1.3,1.6-2.53,1.21-.41-.13-2.33-2.08-2.57-2.51-.66-1.19-.25-2.41,1.06-2.83.64-.2,2.53-.35,3.28-.39Z"/>
</svg>